<?xml version="1.0" encoding="utf-8"?>
<!-- Generator: Adobe Illustrator 24.0.2, SVG Export Plug-In . SVG Version: 6.00 Build 0)  -->
<svg version="1.1" id="Layer_1" xmlns="http://www.w3.org/2000/svg" xmlns:xlink="http://www.w3.org/1999/xlink" x="0px" y="0px"
	 viewBox="0 0 25 25" style="enable-background:new 0 0 25 25;" xml:space="preserve">
<style type="text/css">
	.st0{fill:#FFFFFF;}
</style>
<g>
	<path class="st0" d="M15,5.4c0.9,0,2.7,0,2.7,0l0.8,0c0,0,0,4.3,0,6.1c0,0.2-0.1,0.5-0.3,0.7c-2.3,2.4-4.6,4.7-6.9,7.1
		c-0.4,0.4-0.7,0.4-1.1,0c-1.8-1.7-3.7-3.5-5.5-5.2c-0.5-0.4-0.5-0.7,0-1.2c2.3-2.4,4.5-4.7,6.8-7.1c0.2-0.2,0.5-0.4,0.8-0.4
		C13.2,5.5,14.1,5.4,15,5.4z M17.3,6.7c-1.6,0-3.2,0-4.7,0c-0.1,0-0.3,0.1-0.4,0.2C11,8.2,9.8,9.5,8.6,10.7
		c-0.9,0.9-1.7,1.8-2.6,2.7c1.6,1.5,3.2,3,4.8,4.6c0.1-0.1,0.1-0.1,0.2-0.1c2-2.1,4.1-4.2,6.1-6.3c0.1-0.1,0.2-0.2,0.2-0.3
		C17.3,9.8,17.3,8.3,17.3,6.7z"/>
	<path class="st0" d="M16,10c0,1.1-0.9,1.9-2,1.9c-1,0-1.9-0.9-1.9-2C12.2,8.9,13,8,14.1,8C15.2,8,16,8.9,16,10z M14.7,9.9
		c0-0.3-0.3-0.6-0.6-0.6c-0.3,0-0.6,0.3-0.6,0.6c0,0.3,0.3,0.6,0.6,0.6C14.4,10.6,14.7,10.3,14.7,9.9z"/>
</g>
</svg>
