<svg xmlns="http://www.w3.org/2000/svg" width="62.649" height="67.608" viewBox="0 0 62.649 67.608">
  <g id="_2years" data-name="2years" transform="translate(0.05 0.62)">
    <g id="_10-years" data-name="10-years" transform="translate(0 0)">
      <path id="Path_88" data-name="Path 88" d="M63.3-511.454A28.742,28.742,0,0,0,40.557-495.7,26.768,26.768,0,0,0,37.6-482.94a26.727,26.727,0,0,0,1.636,9.749c.523,1.439.864,1.832,1.518,1.727a1.137,1.137,0,0,0,1.008-.811,4.4,4.4,0,0,0-.379-1.557,26.36,26.36,0,0,1,6.15-27.754,26.468,26.468,0,0,1,16.148-7.655,26.545,26.545,0,0,1,22.664,9.265,26.787,26.787,0,0,1,6.019,13.5,37.492,37.492,0,0,1,0,7.066,30.921,30.921,0,0,1-1.309,5.365c-.484,1.335-.51,1.819-.1,2.2a1.2,1.2,0,0,0,1.518.039c.537-.537,1.649-4.279,2.054-6.962a35.906,35.906,0,0,0,.013-8.3,29.058,29.058,0,0,0-6.477-14.329A28.725,28.725,0,0,0,70.5-511.27,41.6,41.6,0,0,0,63.3-511.454Z" transform="translate(-34.904 511.537)" fill="#fff" stroke="#fff" stroke-width="1.1"/>
      <path id="Path_90" data-name="Path 90" d="M162.973-427.525a18.524,18.524,0,0,0-6.4,1.937c-2.6,1.335-5.574,4.017-5.574,5.012a1.1,1.1,0,0,0,1.1,1.034c.406,0,.615-.144,1.7-1.23a14.991,14.991,0,0,1,10.94-4.567,15,15,0,0,1,10.953,4.58c1.073,1.073,1.269,1.217,1.688,1.217a1.094,1.094,0,0,0,1.1-1.034c0-1.034-3.127-3.795-5.875-5.169A18.664,18.664,0,0,0,162.973-427.525Z" transform="translate(-133.465 435.744)" fill="#fff" stroke="#fff" stroke-width="1.1"/>
      <path id="Path_95" data-name="Path 95" d="M23.556-190.66c-.249.327-.275.523-.275,2.617v2.277H20.6c-3.324,0-3.6.092-3.6,1.217,0,.236.275,2.277.6,4.554l.615,4.135-.615,4.109c-.327,2.264-.6,4.331-.6,4.606a1,1,0,0,0,.327.811l.314.327H24.76c6.818,0,7.145-.013,7.433-.249s.314-.327.379-2.656l.065-2.395H63.912l.065,2.395c.065,2.329.079,2.408.379,2.656s.615.249,7.433.249h7.119l.314-.327a1,1,0,0,0,.327-.811c0-.275-.275-2.342-.6-4.593l-.615-4.1.615-4.148c.694-4.7.707-5.025.34-5.391s-.746-.432-1.884-.366c-.811.039-1.034.092-1.309.353a1.073,1.073,0,0,0,.707,1.845c.209,0,.393.026.393.065s-.236,1.649-.523,3.6-.523,3.769-.523,4.043.236,2.081.523,4,.523,3.52.523,3.546-2.473.052-5.5.052H66.2v-3.141h6.425l.314-.327.327-.314v-9.147c0-9.055,0-9.16-.275-9.5l-.262-.34H23.818Zm47.488,9.474v7.59H25.506v-15.179H71.043Zm-47.762,3.507.065,5.81.314.249c.275.236.55.249,3.494.249h3.193v3.141h-5.5c-3.023,0-5.5-.026-5.5-.065s.236-1.636.523-3.559.523-3.742.523-4.03-.236-2.081-.523-3.991-.523-3.507-.523-3.572a10.23,10.23,0,0,1,1.937-.065l1.924.039Z" transform="translate(-17 232.944)" fill="#fff" stroke="#fff" stroke-width="0.1"/>
      <path id="Path_96" data-name="Path 96" d="M99.894-154.718a.965.965,0,0,0-.209,1.413c.157.275.864,1.282,1.57,2.264l1.3,1.793v1.963c0,1.884.013,1.989.314,2.329a1.024,1.024,0,0,0,1.6,0c.3-.34.314-.445.314-2.316v-1.95l1.5-2.081a16.118,16.118,0,0,0,1.583-2.486c.065-.327.013-.471-.314-.8a1.071,1.071,0,0,0-1.322-.262,11.637,11.637,0,0,0-1.374,1.7c-.628.864-1.165,1.57-1.191,1.57s-.563-.707-1.178-1.57a12.345,12.345,0,0,0-1.374-1.7A1.1,1.1,0,0,0,99.894-154.718Z" transform="translate(-88.68 201.635)" fill="#fff"/>
      <path id="Path_97" data-name="Path 97" d="M168.34-154.594l-.34.406v8.859l.314.366.314.366,2.722.039a28.445,28.445,0,0,0,3.023-.039,1.114,1.114,0,0,0,.55-1.819l-.262-.34h-4.436v-1.963h.968c.9,0,.995-.026,1.243-.34a1.416,1.416,0,0,0,.275-.759c-.013-.785-.523-1.125-1.688-1.125h-.8v-1.819l2.238-.039c2.172-.039,2.238-.052,2.486-.353a1.156,1.156,0,0,0-.079-1.518l-.314-.327H168.68Z" transform="translate(-148.241 201.655)" fill="#fff"/>
      <path id="Path_98" data-name="Path 98" d="M233.133-154.733a67.633,67.633,0,0,0-3.533,9.121.8.8,0,0,0,.3.68c.785.641,1.518.393,1.91-.628l.262-.694h3.455l.327.72c.236.51.432.759.694.864a1.067,1.067,0,0,0,1.479-.955c0-.366-2.735-7.812-3.219-8.767A1.04,1.04,0,0,0,233.133-154.733Zm1.165,5.182a3.126,3.126,0,0,1,.3,1.021,2.8,2.8,0,0,1-.851.026l-.785-.039.406-1.073c.222-.589.445-1.034.484-.981A7.473,7.473,0,0,1,234.3-149.551Z" transform="translate(-201.78 201.676)" fill="#fff"/>
      <path id="Path_99" data-name="Path 99" d="M300.879-154.681l-.379.327v4.58c0,4.279.013,4.593.249,4.842a1.13,1.13,0,0,0,1.361.236c.51-.262.55-.406.55-1.858,0-1.191.013-1.23.3-1.23.209.013.68.458,1.649,1.57,1.466,1.688,1.78,1.884,2.473,1.518a1.13,1.13,0,0,0,.55-1.3,9.387,9.387,0,0,0-.955-1.256l-.851-.968.746-.733a2.99,2.99,0,0,0,1.06-2.578,3.134,3.134,0,0,0-.981-2.342c-.864-.851-1.439-1.034-3.546-1.086C301.3-155.008,301.259-155,300.879-154.681Zm3.572,2.068a1.252,1.252,0,0,1,.694,1.989,2.771,2.771,0,0,1-2.028.589l-.393-.039-.039-1.348-.039-1.335h.72A3.892,3.892,0,0,1,304.452-152.613Z" transform="translate(-263.402 201.637)" fill="#fff"/>
      <path id="Path_100" data-name="Path 100" d="M366.028-154.669A2.934,2.934,0,0,0,364-151.7a2.44,2.44,0,0,0,.824,2.146,5.72,5.72,0,0,0,2.068.955c.3,0,1.165.55,1.178.759a.986.986,0,0,1-.824,1.138c-.288.079-.445,0-.929-.445a1.473,1.473,0,0,0-.995-.536,1.088,1.088,0,0,0-1.06,1.125c0,.432.1.589.707,1.178a2.447,2.447,0,0,0,1.439.837,3.246,3.246,0,0,0,3.546-1.583,3.053,3.053,0,0,0-.694-3.86,7.523,7.523,0,0,0-1.5-.654,5.04,5.04,0,0,1-1.3-.55.874.874,0,0,1,.026-1.2c.432-.432,1.008-.34,1.518.222a1.09,1.09,0,0,0,1.688.17c.733-.694.17-1.95-1.165-2.565A3.368,3.368,0,0,0,366.028-154.669Z" transform="translate(-318.593 201.534)" fill="#fff"/>
    </g>
    <text id="_2" data-name="2" transform="translate(31.01 36.549)" fill="#fff" font-size="28" font-family="Swiss721BT-BoldCondensed, Swis721 Cn BT" font-weight="700"><tspan x="-7" y="0">2</tspan></text>
  </g>
</svg>
