<svg xmlns="http://www.w3.org/2000/svg" width="57.241" height="61.014" viewBox="0 0 57.241 61.014">
  <g id="contract" transform="translate(0)">
    <path id="Path_83" data-name="Path 83" d="M25.983-511.74a12.051,12.051,0,0,0-9.543,8.935l-.262.954-.024,19.97c-.048,21.568-.06,20.96.573,22.833a12.313,12.313,0,0,0,4.509,6.036,14.18,14.18,0,0,0,4.02,1.825l1.062.274h13.6c12.812,0,13.659-.012,14.554-.227a12.131,12.131,0,0,0,9.03-8.852c.274-1.05.274-1.133.274-9.007v-7.933l-.322-.489a2.13,2.13,0,0,0-2.016-1.05,1.855,1.855,0,0,0-1.264.322,3.137,3.137,0,0,0-.763.775l-.286.453-.06,7.754c-.06,7.062-.084,7.814-.286,8.41a7.113,7.113,0,0,1-1.861,2.982,6.444,6.444,0,0,1-3.292,1.909c-.895.227-1.36.239-13.647.239s-12.752-.012-13.647-.239a6.492,6.492,0,0,1-3.292-1.909,6.493,6.493,0,0,1-1.909-3.293c-.239-.895-.239-1.4-.239-20.328s0-19.433.239-20.327a6.493,6.493,0,0,1,1.909-3.292,6.493,6.493,0,0,1,3.292-1.909c.871-.227,1.348-.239,9.2-.239,7.193,0,8.327-.024,8.72-.179a2.4,2.4,0,0,0,0-4.414c-.394-.155-1.527-.179-8.887-.167C28.667-511.908,26.723-511.872,25.983-511.74Z" transform="translate(-16.134 511.927)" fill="#fff"/>
    <path id="Path_84" data-name="Path 84" d="M305.983-511.789a17.594,17.594,0,0,0-5.988,2.577,24.49,24.49,0,0,0-3.233,2.732c-.668.787-.716,1.1-.644,4.593a21.386,21.386,0,0,0,.31,4.39,20.924,20.924,0,0,0,3.09,7.42,21.411,21.411,0,0,0,6.883,6.215,2.547,2.547,0,0,0,1.61.465,2.547,2.547,0,0,0,1.61-.465,20.827,20.827,0,0,0,6.406-5.559,20.975,20.975,0,0,0,3.567-8.052,40.669,40.669,0,0,0,.227-8.052c-.274-1.05-3.137-3.459-5.607-4.76A12.686,12.686,0,0,0,305.983-511.789Zm4.462,5.046a12.592,12.592,0,0,1,3.77,2.135l.954.752v1.777a17.466,17.466,0,0,1-.489,4.6,15.291,15.291,0,0,1-6.036,8.613l-.632.429-.441-.3a15.314,15.314,0,0,1-6.227-8.744,17.428,17.428,0,0,1-.489-4.593v-1.766l.573-.477a13.2,13.2,0,0,1,5.082-2.72A7.866,7.866,0,0,1,310.445-506.743Z" transform="translate(-262.696 511.963)" fill="#fff"/>
    <path id="Path_85" data-name="Path 85" d="M97.753-391.621a2.709,2.709,0,0,0-1.467,1.563,2.467,2.467,0,0,0,1.05,2.732l.453.286h11.094l.453-.286a3.137,3.137,0,0,0,.775-.764,1.809,1.809,0,0,0,.322-1.276,1.81,1.81,0,0,0-.322-1.276,3.138,3.138,0,0,0-.775-.763l-.453-.286-5.368-.024C100.329-391.729,97.991-391.693,97.753-391.621Z" transform="translate(-86.651 406.063)" fill="#fff"/>
    <path id="Path_86" data-name="Path 86" d="M97.753-311.621a2.71,2.71,0,0,0-1.467,1.563,2.467,2.467,0,0,0,1.05,2.732l.453.286h11.094l.453-.286a3.138,3.138,0,0,0,.775-.763,1.81,1.81,0,0,0,.322-1.276,1.81,1.81,0,0,0-.322-1.276,3.139,3.139,0,0,0-.775-.763l-.453-.286-5.368-.024C100.329-311.729,97.991-311.693,97.753-311.621Z" transform="translate(-86.651 335.607)" fill="#fff"/>
    <path id="Path_87" data-name="Path 87" d="M192.184-199.532c-.31.1-1.443,1.157-4.557,4.259l-4.151,4.128-1.766-1.742c-1.479-1.467-1.849-1.766-2.29-1.885a2.464,2.464,0,0,0-2.756,1.038,2.667,2.667,0,0,0-.024,2.422c.143.227,1.455,1.61,2.923,3.054,2.326,2.314,2.732,2.672,3.2,2.791a2.658,2.658,0,0,0,1.956-.227c.2-.131,2.636-2.505,5.4-5.285,4.521-4.545,5.034-5.094,5.165-5.583a2.327,2.327,0,0,0-2.04-3.042A3.252,3.252,0,0,0,192.184-199.532Z" transform="translate(-157.247 236.878)" fill="#fff"/>
  </g>
</svg>
