<svg xmlns="http://www.w3.org/2000/svg" width="66.187" height="38.042" viewBox="0 0 66.187 38.042">
  <g id="delivery" transform="translate(0.5 0.5)">
    <path id="Path_110" data-name="Path 110" d="M.6,21.569A1.711,1.711,0,0,1,2.2,20.5H17.518c1.069,0,1.6.534,1.6,1.425a1.333,1.333,0,0,1-1.069,1.247H2.381c-.89,0-1.425-.178-1.781-.89C.6,21.925.6,21.747.6,21.569Z" transform="translate(-0.6 -0.712)" fill="#fff" stroke="#fff" stroke-width="1"/>
    <path id="Path_111" data-name="Path 111" d="M39.624,16.436h1.959c2.493,0,4.986,0,7.48.178,5.343.356,9.973,4.986,10.685,10.329.178,1.781-.356,3.384-.534,5.165-.356,2.315-.89,4.808-1.247,7.124-.178.89-.534,1.247-1.6,1.247H54.406a7.143,7.143,0,0,1-1.6,3.028,6.768,6.768,0,0,1-11.4-2.671c-.178-.534-.356-.534-.712-.534H25.734a.823.823,0,0,0-.89.534,6.678,6.678,0,0,1-6.411,4.808,6.843,6.843,0,0,1-6.411-4.808c-.178-.356-.356-.534-.712-.534H7.925A1.27,1.27,0,0,1,6.5,39.053c0-.712.534-1.247,1.6-1.425h3.918c.178-.534.356-.89.534-1.425a6.568,6.568,0,0,1,12.288.712c.178.534.356.534.89.534h6.411C34.1,28.9,36.063,20.176,38.2,11.093H7.569A1.528,1.528,0,0,1,6.5,9.847,1.339,1.339,0,0,1,7.39,8.6h31.7q2.137,0,1.6,2.137A35.347,35.347,0,0,1,39.624,16.436Zm1.6,21.371a6.65,6.65,0,0,1,6.233-5.343c3.562,0,5.7,1.959,6.767,5.165H55.3c.534-2.671.89-5.165,1.425-7.658a10.826,10.826,0,0,0,.178-3.384,9.481,9.481,0,0,0-8.9-7.48h-8.37c-.534,0-.712.178-.712.534-.89,4.274-1.959,8.548-2.849,13-.356,1.6-.712,3.384-1.069,4.986C36.953,37.807,39.09,37.807,41.227,37.807Zm10.507,1.247a3.918,3.918,0,1,0-7.836,0,4.111,4.111,0,0,0,3.918,4.1A3.994,3.994,0,0,0,51.735,39.053Zm-29.207,0a3.918,3.918,0,1,0-7.836,0,3.922,3.922,0,1,0,7.836,0Z" transform="translate(5.412 -8.6)" fill="#fff" stroke="#fff" stroke-width="1"/>
    <path id="Path_112" data-name="Path 112" d="M9.951,18.671H2.828a1.445,1.445,0,0,1-.712-1.425A1.528,1.528,0,0,1,3.184,16H16.363a1.62,1.62,0,0,1,1.425.712,1.325,1.325,0,0,1-1.247,1.959H9.951Z" transform="translate(0.556 -2.821)" fill="#fff" stroke="#fff" stroke-width="1"/>
    <path id="Path_113" data-name="Path 113" d="M10.189,14.171H5.2c-1.069,0-1.6-.534-1.6-1.247,0-.89.534-1.425,1.6-1.425H15.354A1.277,1.277,0,0,1,16.6,13.459a1.344,1.344,0,0,1-1.247.712Z" transform="translate(1.743 -4.931)" fill="#fff" stroke="#fff" stroke-width="1"/>
  </g>
</svg>
