<svg xmlns="http://www.w3.org/2000/svg" width="2542.922" height="1252.638" viewBox="0 0 2542.922 1252.638">
  <g id="hero_background" data-name="hero background" transform="translate(0.348 0.37)">
    <path id="Path_69" data-name="Path 69" d="M38,500S262.867,718,677.327,702s339.5-226,487.212-220,224.867,174,487.212,138S2176.44,346,2176.44,346" transform="translate(289.922 369.68)" fill="none" stroke="#707070" stroke-width="1" opacity="0.09"/>
    <path id="Path_48" data-name="Path 48" d="M38,500S262.867,718,677.327,702s339.5-226,487.212-220,224.867,174,487.212,138S2176.44,346,2176.44,346" transform="translate(348.343 490.442)" fill="none" stroke="#707070" stroke-width="1" opacity="0.09"/>
    <path id="Path_63" data-name="Path 63" d="M38,500S262.867,718,677.327,702s339.5-226,487.212-220,224.867,174,487.212,138S2176.44,346,2176.44,346" transform="translate(236.705 244.521)" fill="none" stroke="#707070" stroke-width="1" opacity="0.09"/>
    <path id="Path_44" data-name="Path 44" d="M38,500S262.867,718,677.327,702s339.5-226,487.212-220,224.867,174,487.212,138S2176.44,346,2176.44,346" transform="translate(365.798 548.919)" fill="none" stroke="#707070" stroke-width="1" opacity="0.09"/>
    <path id="Path_57" data-name="Path 57" d="M38,500S262.867,718,677.327,702s339.5-226,487.212-220,224.867,174,487.212,138S2176.44,346,2176.44,346" transform="translate(263.16 307.999)" fill="none" stroke="#707070" stroke-width="1" opacity="0.09"/>
    <path id="Path_50" data-name="Path 50" d="M38,500S262.867,718,677.327,702s339.5-226,487.212-220,224.867,174,487.212,138S2176.44,346,2176.44,346" transform="translate(318.581 429.76)" fill="none" stroke="#707070" stroke-width="1" opacity="0.09"/>
    <path id="Path_64" data-name="Path 64" d="M38,500S262.867,718,677.327,702s339.5-226,487.212-220,224.867,174,487.212,138S2176.44,346,2176.44,346" transform="translate(206.943 183.84)" fill="none" stroke="#707070" stroke-width="1" opacity="0.09"/>
    <path id="Path_58" data-name="Path 58" d="M38,500S262.867,718,677.327,702s339.5-226,487.212-220,224.867,174,487.212,138S2176.44,346,2176.44,346" transform="translate(278.592 338.841)" fill="none" stroke="#707070" stroke-width="1" opacity="0.09"/>
    <path id="Path_51" data-name="Path 51" d="M38,500S262.867,718,677.327,702s339.5-226,487.212-220,224.867,174,487.212,138S2176.44,346,2176.44,346" transform="translate(334.014 460.602)" fill="none" stroke="#707070" stroke-width="1" opacity="0.09"/>
    <path id="Path_65" data-name="Path 65" d="M38,500S262.867,718,677.327,702s339.5-226,487.212-220,224.867,174,487.212,138S2176.44,346,2176.44,346" transform="translate(222.376 214.682)" fill="none" stroke="#707070" stroke-width="1" opacity="0.09"/>
    <path id="Path_46" data-name="Path 46" d="M38,500S262.867,718,677.327,702s339.5-226,487.212-220,224.867,174,487.212,138S2176.44,346,2176.44,346" transform="translate(356.468 520.08)" fill="none" stroke="#707070" stroke-width="1" opacity="0.09"/>
    <path id="Path_61" data-name="Path 61" d="M38,500S262.867,718,677.327,702s339.5-226,487.212-220,224.867,174,487.212,138S2176.44,346,2176.44,346" transform="translate(248.83 278.159)" fill="none" stroke="#707070" stroke-width="1" opacity="0.09"/>
    <path id="Path_54" data-name="Path 54" d="M38,500S262.867,718,677.327,702s339.5-226,487.212-220,224.867,174,487.212,138S2176.44,346,2176.44,346" transform="translate(304.252 399.92)" fill="none" stroke="#707070" stroke-width="1" opacity="0.09"/>
    <path id="Path_70" data-name="Path 70" d="M38,500S262.867,718,677.327,702s339.5-226,487.212-220,224.867,174,487.212,138S2176.44,346,2176.44,346" transform="translate(192.614 154)" fill="none" stroke="#707070" stroke-width="1" opacity="0.09"/>
    <path id="Path_56" data-name="Path 56" d="M38,500S262.867,718,677.327,702s339.5-226,487.212-220,224.867,174,487.212,138S2176.44,346,2176.44,346" transform="translate(286.308 354.68)" fill="none" stroke="#707070" stroke-width="1" opacity="0.09"/>
    <path id="Path_49" data-name="Path 49" d="M38,500S262.867,718,677.327,702s339.5-226,487.212-220,224.867,174,487.212,138S2176.44,346,2176.44,346" transform="translate(341.73 476.442)" fill="none" stroke="#707070" stroke-width="1" opacity="0.09"/>
    <path id="Path_66" data-name="Path 66" d="M38,500S262.867,718,677.327,702s339.5-226,487.212-220,224.867,174,487.212,138S2176.44,346,2176.44,346" transform="translate(230.092 230.521)" fill="none" stroke="#707070" stroke-width="1" opacity="0.09"/>
    <path id="Path_45" data-name="Path 45" d="M38,500S262.867,718,677.327,702s339.5-226,487.212-220,224.867,174,487.212,138S2176.44,346,2176.44,346" transform="translate(362.184 533.919)" fill="none" stroke="#707070" stroke-width="1" opacity="0.09"/>
    <path id="Path_60" data-name="Path 60" d="M38,500S262.867,718,677.327,702s339.5-226,487.212-220,224.867,174,487.212,138S2176.44,346,2176.44,346" transform="translate(256.546 293.999)" fill="none" stroke="#707070" stroke-width="1" opacity="0.09"/>
    <path id="Path_53" data-name="Path 53" d="M38,500S262.867,718,677.327,702s339.5-226,487.212-220,224.867,174,487.212,138S2176.44,346,2176.44,346" transform="translate(311.968 415.76)" fill="none" stroke="#707070" stroke-width="1" opacity="0.09"/>
    <path id="Path_67" data-name="Path 67" d="M38,500S262.867,718,677.327,702s339.5-226,487.212-220,224.867,174,487.212,138S2176.44,346,2176.44,346" transform="translate(200.33 169.84)" fill="none" stroke="#707070" stroke-width="1" opacity="0.09"/>
    <path id="Path_59" data-name="Path 59" d="M38,500S262.867,718,677.327,702s339.5-226,487.212-220,224.867,174,487.212,138S2176.44,346,2176.44,346" transform="translate(271.979 324.841)" fill="none" stroke="#707070" stroke-width="1" opacity="0.09"/>
    <path id="Path_52" data-name="Path 52" d="M38,500S262.867,718,677.327,702s339.5-226,487.212-220,224.867,174,487.212,138S2176.44,346,2176.44,346" transform="translate(327.4 446.602)" fill="none" stroke="#707070" stroke-width="1" opacity="0.09"/>
    <path id="Path_68" data-name="Path 68" d="M38,500S262.867,718,677.327,702s339.5-226,487.212-220,224.867,174,487.212,138S2176.44,346,2176.44,346" transform="translate(215.762 200.682)" fill="none" stroke="#707070" stroke-width="1" opacity="0.09"/>
    <path id="Path_47" data-name="Path 47" d="M38,500S262.867,718,677.327,702s339.5-226,487.212-220,224.867,174,487.212,138S2176.44,346,2176.44,346" transform="translate(349.855 506.08)" fill="none" stroke="#707070" stroke-width="1" opacity="0.09"/>
    <path id="Path_62" data-name="Path 62" d="M38,500S262.867,718,677.327,702s339.5-226,487.212-220,224.867,174,487.212,138S2176.44,346,2176.44,346" transform="translate(243.217 261.159)" fill="none" stroke="#707070" stroke-width="1" opacity="0.09"/>
    <path id="Path_55" data-name="Path 55" d="M38,500S262.867,718,677.327,702s339.5-226,487.212-220,224.867,174,487.212,138S2176.44,346,2176.44,346" transform="translate(297.638 385.92)" fill="none" stroke="#707070" stroke-width="1" opacity="0.09"/>
    <path id="Path_71" data-name="Path 71" d="M38,500S262.867,718,677.327,702s339.5-226,487.212-220,224.867,174,487.212,138S2176.44,346,2176.44,346" transform="translate(186 140)" fill="none" stroke="#707070" stroke-width="1" opacity="0.09"/>
    <g id="Group_25" data-name="Group 25" transform="translate(226 10.601)">
      <path id="Path_40" data-name="Path 40" d="M38,500S262.867,718,677.327,702s339.5-226,487.212-220,224.867,174,487.212,138S2176.44,346,2176.44,346" transform="translate(-42.44 117)" fill="none" stroke="#707070" stroke-width="1" opacity="0.09"/>
      <path id="Path_69-2" data-name="Path 69" d="M38,500S262.867,718,677.327,702s339.5-226,487.212-220,224.867,174,487.212,138S2176.44,346,2176.44,346" transform="translate(-157.078 -127.92)" fill="none" stroke="#707070" stroke-width="1" opacity="0.09"/>
      <path id="Path_48-2" data-name="Path 48" d="M38,500S262.867,718,677.327,702s339.5-226,487.212-220,224.867,174,487.212,138S2176.44,346,2176.44,346" transform="translate(-98.657 -7.159)" fill="none" stroke="#707070" stroke-width="1" opacity="0.09"/>
      <path id="Path_63-2" data-name="Path 63" d="M38,500S262.867,718,677.327,702s339.5-226,487.212-220,224.867,174,487.212,138S2176.44,346,2176.44,346" transform="translate(-213.295 -252.08)" fill="none" stroke="#707070" stroke-width="1" opacity="0.09"/>
      <path id="Path_44-2" data-name="Path 44" d="M38,500S262.867,718,677.327,702s339.5-226,487.212-220,224.867,174,487.212,138S2176.44,346,2176.44,346" transform="translate(-72.202 56.318)" fill="none" stroke="#707070" stroke-width="1" opacity="0.09"/>
      <path id="Path_57-2" data-name="Path 57" d="M38,500S262.867,718,677.327,702s339.5-226,487.212-220,224.867,174,487.212,138S2176.44,346,2176.44,346" transform="translate(-186.84 -188.602)" fill="none" stroke="#707070" stroke-width="1" opacity="0.09"/>
      <path id="Path_50-2" data-name="Path 50" d="M38,500S262.867,718,677.327,702s339.5-226,487.212-220,224.867,174,487.212,138S2176.44,346,2176.44,346" transform="translate(-128.418 -67.841)" fill="none" stroke="#707070" stroke-width="1" opacity="0.09"/>
      <path id="Path_64-2" data-name="Path 64" d="M38,500S262.867,718,677.327,702s339.5-226,487.212-220,224.867,174,487.212,138S2176.44,346,2176.44,346" transform="translate(-243.057 -312.761)" fill="none" stroke="#707070" stroke-width="1" opacity="0.09"/>
      <path id="Path_42" data-name="Path 42" d="M38,500S262.867,718,677.327,702s339.5-226,487.212-220,224.867,174,487.212,138S2176.44,346,2176.44,346" transform="translate(-56.77 87.16)" fill="none" stroke="#707070" stroke-width="1" opacity="0.09"/>
      <path id="Path_58-2" data-name="Path 58" d="M38,500S262.867,718,677.327,702s339.5-226,487.212-220,224.867,174,487.212,138S2176.44,346,2176.44,346" transform="translate(-171.408 -157.76)" fill="none" stroke="#707070" stroke-width="1" opacity="0.09"/>
      <path id="Path_51-2" data-name="Path 51" d="M38,500S262.867,718,677.327,702s339.5-226,487.212-220,224.867,174,487.212,138S2176.44,346,2176.44,346" transform="translate(-112.986 -36.999)" fill="none" stroke="#707070" stroke-width="1" opacity="0.09"/>
      <path id="Path_65-2" data-name="Path 65" d="M38,500S262.867,718,677.327,702s339.5-226,487.212-220,224.867,174,487.212,138S2176.44,346,2176.44,346" transform="translate(-227.624 -281.919)" fill="none" stroke="#707070" stroke-width="1" opacity="0.09"/>
      <path id="Path_46-2" data-name="Path 46" d="M38,500S262.867,718,677.327,702s339.5-226,487.212-220,224.867,174,487.212,138S2176.44,346,2176.44,346" transform="translate(-86.532 26.479)" fill="none" stroke="#707070" stroke-width="1" opacity="0.09"/>
      <path id="Path_61-2" data-name="Path 61" d="M38,500S262.867,718,677.327,702s339.5-226,487.212-220,224.867,174,487.212,138S2176.44,346,2176.44,346" transform="translate(-201.17 -218.442)" fill="none" stroke="#707070" stroke-width="1" opacity="0.09"/>
      <path id="Path_54-2" data-name="Path 54" d="M38,500S262.867,718,677.327,702s339.5-226,487.212-220,224.867,174,487.212,138S2176.44,346,2176.44,346" transform="translate(-142.748 -97.68)" fill="none" stroke="#707070" stroke-width="1" opacity="0.09"/>
      <path id="Path_70-2" data-name="Path 70" d="M38,500S262.867,718,677.327,702s339.5-226,487.212-220,224.867,174,487.212,138S2176.44,346,2176.44,346" transform="translate(-257.386 -342.601)" fill="none" stroke="#707070" stroke-width="1" opacity="0.09"/>
      <path id="Path_41" data-name="Path 41" d="M38,500S262.867,718,677.327,702s339.5-226,487.212-220,224.867,174,487.212,138S2176.44,346,2176.44,346" transform="translate(-49.054 103)" fill="none" stroke="#707070" stroke-width="1" opacity="0.09"/>
      <path id="Path_56-2" data-name="Path 56" d="M38,500S262.867,718,677.327,702s339.5-226,487.212-220,224.867,174,487.212,138S2176.44,346,2176.44,346" transform="translate(-163.692 -141.92)" fill="none" stroke="#707070" stroke-width="1" opacity="0.09"/>
      <path id="Path_49-2" data-name="Path 49" d="M38,500S262.867,718,677.327,702s339.5-226,487.212-220,224.867,174,487.212,138S2176.44,346,2176.44,346" transform="translate(-105.27 -21.159)" fill="none" stroke="#707070" stroke-width="1" opacity="0.09"/>
      <path id="Path_66-2" data-name="Path 66" d="M38,500S262.867,718,677.327,702s339.5-226,487.212-220,224.867,174,487.212,138S2176.44,346,2176.44,346" transform="translate(-219.908 -266.08)" fill="none" stroke="#707070" stroke-width="1" opacity="0.09"/>
      <path id="Path_45-2" data-name="Path 45" d="M38,500S262.867,718,677.327,702s339.5-226,487.212-220,224.867,174,487.212,138S2176.44,346,2176.44,346" transform="translate(-78.815 42.318)" fill="none" stroke="#707070" stroke-width="1" opacity="0.09"/>
      <path id="Path_60-2" data-name="Path 60" d="M38,500S262.867,718,677.327,702s339.5-226,487.212-220,224.867,174,487.212,138S2176.44,346,2176.44,346" transform="translate(-193.454 -202.602)" fill="none" stroke="#707070" stroke-width="1" opacity="0.09"/>
      <path id="Path_53-2" data-name="Path 53" d="M38,500S262.867,718,677.327,702s339.5-226,487.212-220,224.867,174,487.212,138S2176.44,346,2176.44,346" transform="translate(-135.032 -81.841)" fill="none" stroke="#707070" stroke-width="1" opacity="0.09"/>
      <path id="Path_67-2" data-name="Path 67" d="M38,500S262.867,718,677.327,702s339.5-226,487.212-220,224.867,174,487.212,138S2176.44,346,2176.44,346" transform="translate(-249.67 -326.761)" fill="none" stroke="#707070" stroke-width="1" opacity="0.09"/>
      <path id="Path_43" data-name="Path 43" d="M38,500S262.867,718,677.327,702s339.5-226,487.212-220,224.867,174,487.212,138S2176.44,346,2176.44,346" transform="translate(-63.383 73.16)" fill="none" stroke="#707070" stroke-width="1" opacity="0.09"/>
      <path id="Path_59-2" data-name="Path 59" d="M38,500S262.867,718,677.327,702s339.5-226,487.212-220,224.867,174,487.212,138S2176.44,346,2176.44,346" transform="translate(-178.021 -171.76)" fill="none" stroke="#707070" stroke-width="1" opacity="0.09"/>
      <path id="Path_52-2" data-name="Path 52" d="M38,500S262.867,718,677.327,702s339.5-226,487.212-220,224.867,174,487.212,138S2176.44,346,2176.44,346" transform="translate(-119.6 -50.999)" fill="none" stroke="#707070" stroke-width="1" opacity="0.09"/>
      <path id="Path_68-2" data-name="Path 68" d="M38,500S262.867,718,677.327,702s339.5-226,487.212-220,224.867,174,487.212,138S2176.44,346,2176.44,346" transform="translate(-234.238 -295.919)" fill="none" stroke="#707070" stroke-width="1" opacity="0.09"/>
      <path id="Path_47-2" data-name="Path 47" d="M38,500S262.867,718,677.327,702s339.5-226,487.212-220,224.867,174,487.212,138S2176.44,346,2176.44,346" transform="translate(-93.145 12.479)" fill="none" stroke="#707070" stroke-width="1" opacity="0.09"/>
      <path id="Path_62-2" data-name="Path 62" d="M38,500S262.867,718,677.327,702s339.5-226,487.212-220,224.867,174,487.212,138S2176.44,346,2176.44,346" transform="translate(-207.783 -232.442)" fill="none" stroke="#707070" stroke-width="1" opacity="0.09"/>
      <path id="Path_55-2" data-name="Path 55" d="M38,500S262.867,718,677.327,702s339.5-226,487.212-220,224.867,174,487.212,138S2176.44,346,2176.44,346" transform="translate(-149.362 -111.68)" fill="none" stroke="#707070" stroke-width="1" opacity="0.09"/>
      <path id="Path_71-2" data-name="Path 71" d="M38,500S262.867,718,677.327,702s339.5-226,487.212-220,224.867,174,487.212,138S2176.44,346,2176.44,346" transform="translate(-264 -356.601)" fill="none" stroke="#707070" stroke-width="1" opacity="0.09"/>
    </g>
  </g>
</svg>
