<?xml version="1.0" encoding="utf-8"?>
<!-- Generator: Adobe Illustrator 27.7.0, SVG Export Plug-In . SVG Version: 6.00 Build 0)  -->
<svg version="1.1" id="Layer_1" xmlns="http://www.w3.org/2000/svg" xmlns:xlink="http://www.w3.org/1999/xlink" x="0px" y="0px"
	 viewBox="0 0 2542.9 1252.6" style="enable-background:new 0 0 2542.9 1252.6;" xml:space="preserve">
<style type="text/css">
	.st0{fill:none;stroke:#707070;}
</style>
<path class="st0" d="M3.3,626.3"/>
<g>
	<path class="st0" d="M3,727.8L3,727.8c701.1,690.2,1826.3,690.2,2527.5,0l9.3-9.2"/>
	<path class="st0" d="M3,697.3L3,697.3c701.1,690.2,1826.3,690.2,2527.5,0l9.3-9.2"/>
	<path class="st0" d="M3,666.8L3,666.8c701.1,690.2,1826.3,690.2,2527.5,0l9.3-9.2"/>
	<path class="st0" d="M3,636.2L3,636.2c701.1,690.2,1826.3,690.2,2527.5,0l9.3-9.2"/>
	<path class="st0" d="M3,605.7L3,605.7c701.1,690.2,1826.3,690.2,2527.5,0l9.3-9.2"/>
	<path class="st0" d="M3,575.2L3,575.2c701.1,690.2,1826.3,690.2,2527.5,0l9.3-9.2"/>
	<path class="st0" d="M3,544.7L3,544.7c701.1,690.2,1826.3,690.2,2527.5,0l9.3-9.2"/>
	<path class="st0" d="M3,514.2L3,514.2c701.1,690.2,1826.3,690.2,2527.5,0l9.3-9.2"/>
	<path class="st0" d="M3,483.7L3,483.7c701.1,690.2,1826.3,690.2,2527.5,0l9.3-9.2"/>
	<path class="st0" d="M3,453.1L3,453.1c701.1,690.2,1826.3,690.2,2527.5,0l9.3-9.2"/>
	<path class="st0" d="M3,422.6L3,422.6c701.1,690.2,1826.3,690.2,2527.5,0l9.3-9.2"/>
	<path class="st0" d="M3,392.1L3,392.1c701.1,690.2,1826.3,690.2,2527.5,0l9.3-9.2"/>
	<path class="st0" d="M3,361.6L3,361.6c701.1,690.2,1826.3,690.2,2527.5,0l9.3-9.2"/>
	<path class="st0" d="M3,331.1L3,331.1c701.1,690.2,1826.3,690.2,2527.5,0l9.3-9.2"/>
	<path class="st0" d="M3,300.6L3,300.6c701.1,690.2,1826.3,690.2,2527.5,0l9.3-9.2"/>
	<path class="st0" d="M3,270L3,270c701.1,690.2,1826.3,690.2,2527.5,0l9.3-9.2"/>
	<path class="st0" d="M3,239.5L3,239.5c701.1,690.2,1826.3,690.2,2527.5,0l9.3-9.2"/>
	<path class="st0" d="M3,209L3,209c701.1,690.2,1826.3,690.2,2527.5,0l9.3-9.2"/>
	<path class="st0" d="M3,178.5L3,178.5c701.1,690.2,1826.3,690.2,2527.5,0l9.3-9.2"/>
	<path class="st0" d="M3,148L3,148c701.1,690.2,1826.3,690.2,2527.5,0l9.3-9.2"/>
	<path class="st0" d="M3,117.5L3,117.5c701.1,690.2,1826.3,690.2,2527.5,0l9.3-9.2"/>
	<path class="st0" d="M3,86.9L3,86.9c701.1,690.2,1826.3,690.2,2527.5,0l9.3-9.2"/>
	<path class="st0" d="M3,56.4L3,56.4c701.1,690.2,1826.3,690.2,2527.5,0l9.3-9.2"/>
	<path class="st0" d="M3,25.9L3,25.9c701.1,690.2,1826.3,690.2,2527.5,0l9.3-9.2"/>
	<path class="st0" d="M3-4.6L3-4.6c701.1,690.2,1826.3,690.2,2527.5,0l9.3-9.2"/>
	<path class="st0" d="M3-35.1L3-35.1C704.2,655,1829.4,655,2530.5-35.1l9.3-9.2"/>
	<path class="st0" d="M3-65.6L3-65.6c701.1,690.2,1826.3,690.2,2527.5,0l9.3-9.2"/>
	<path class="st0" d="M3-96.2L3-96.2C704.2,594,1829.4,594,2530.5-96.1l9.3-9.2"/>
	<path class="st0" d="M3-126.7L3-126.7c701.1,690.2,1826.3,690.2,2527.5,0l9.3-9.2"/>
	<path class="st0" d="M3-157.2L3-157.2c701.1,690.2,1826.3,690.2,2527.5,0l9.3-9.2"/>
	<path class="st0" d="M3-187.7L3-187.7c701.1,690.2,1826.3,690.2,2527.5,0l9.3-9.2"/>
	<path class="st0" d="M3-218.2L3-218.2c701.1,690.2,1826.3,690.2,2527.5,0l9.3-9.2"/>
	<path class="st0" d="M3-248.7L3-248.7c701.1,690.2,1826.3,690.2,2527.5,0l9.3-9.2"/>
	<path class="st0" d="M3-279.2L3-279.2c701.1,690.2,1826.3,690.2,2527.5,0l9.3-9.2"/>
	<path class="st0" d="M3-309.8L3-309.8c701.1,690.2,1826.3,690.2,2527.5,0l9.3-9.2"/>
	<path class="st0" d="M3-340.3L3-340.3c701.1,690.2,1826.3,690.2,2527.5,0l9.3-9.2"/>
	<path class="st0" d="M3-370.8L3-370.8c701.1,690.2,1826.3,690.2,2527.5,0l9.3-9.2"/>
	<path class="st0" d="M3-401.3L3-401.3c701.1,690.2,1826.3,690.2,2527.5,0l9.3-9.2"/>
	<path class="st0" d="M3-431.8L3-431.8c701.1,690.2,1826.3,690.2,2527.5,0l9.3-9.2"/>
	<path class="st0" d="M3-462.3L3-462.3c701.1,690.2,1826.3,690.2,2527.5,0l9.3-9.2"/>
	<path class="st0" d="M3-492.9L3-492.9c701.1,690.2,1826.3,690.2,2527.5,0l9.3-9.2"/>
	<path class="st0" d="M3-523.4L3-523.4c701.1,690.2,1826.3,690.2,2527.5,0l9.3-9.2"/>
	<path class="st0" d="M3-553.9L3-553.9c701.1,690.2,1826.3,690.2,2527.5,0l9.3-9.2"/>
</g>
</svg>
