<svg xmlns="http://www.w3.org/2000/svg" xmlns:xlink="http://www.w3.org/1999/xlink" width="52.035" height="47.052" viewBox="0 0 52.035 47.052">
  <defs>
    <clipPath id="clip-path">
      <path id="Path_114" data-name="Path 114" d="M0,0H52.035V47.052H0Z"/>
    </clipPath>
  </defs>
  <g id="logo" clip-path="url(#clip-path)">
    <path id="Path_109" data-name="Path 109" d="M22.009,5.933a9.306,9.306,0,0,1,2.2-3.484A8.611,8.611,0,0,1,37.75,4.46c2.074,3.774,4.272,7.466,6.408,11.2l10.7,18.623A8.573,8.573,0,1,1,39.866,42.6L30.45,26.257a1.879,1.879,0,0,0-.228-.332,3.374,3.374,0,0,1-.684-1.016L22.61,12.9A8.588,8.588,0,0,1,21.47,8.339a6.358,6.358,0,0,1,.539-2.406" transform="translate(-4.194 -0.002)" fill="#3c8bd9"/>
    <path id="Path_110" data-name="Path 110" d="M18.389,7.371A11.928,11.928,0,0,0,18,9.653a8.958,8.958,0,0,0,1.244,4.874l6.823,11.8c.207.353.373.705.581,1.037l-3.754,6.45-5.247,9.042c-.083,0-.1-.041-.124-.1a1.286,1.286,0,0,1,.083-.477,8.347,8.347,0,0,0-1.991-8.233,7.9,7.9,0,0,0-4.874-2.509,8.417,8.417,0,0,0-6.657,1.846c-.353.27-.581.664-1,.871a.138.138,0,0,1-.145-.1L5.9,28.981,18.244,7.6c.041-.083.1-.145.145-.228" transform="translate(-0.574 -1.44)" fill="#fabc04"/>
    <path id="Path_111" data-name="Path 111" d="M2.518,40.023,3.7,38.965A8.572,8.572,0,0,1,17.409,44.17a9.115,9.115,0,0,1-.332,4.417,2.169,2.169,0,0,1-.083.353c-.187.332-.353.684-.56,1.016A8.338,8.338,0,0,1,8.3,54.291a8.513,8.513,0,0,1-7.86-7.424A8.3,8.3,0,0,1,1.585,41.35c.207-.373.456-.705.684-1.078.1-.083.062-.249.249-.249" transform="translate(-0.071 -7.256)" fill="#34a852"/>
    <path id="Path_112" data-name="Path 112" d="M2.985,40.7c-.083.083-.083.228-.228.249-.021-.145.062-.228.145-.332l.083.083" transform="translate(-0.538 -7.936)" fill="#fabc04"/>
    <path id="Path_113" data-name="Path 113" d="M21.024,51.72c-.083-.145,0-.249.083-.353l.083.083-.166.27" transform="translate(-4.101 -10.036)" fill="#e1c025"/>
  </g>
</svg>
