<svg xmlns="http://www.w3.org/2000/svg" width="85.626" height="85.626" viewBox="0 0 85.626 85.626">
  <g id="original" transform="translate(42.807) rotate(45)">
    <path id="Path_101" data-name="Path 101" d="M28.028.043C27.8.067,27.106.15,26.49.221A30.24,30.24,0,0,0,2.64,17.849,30.43,30.43,0,0,0,1.551,39.854L1.93,41l-.521.568A5.5,5.5,0,0,0,.084,46.03c.3,1.692.213,1.6,6.519,7.9s6.2,6.223,7.927,6.519a5.488,5.488,0,0,0,4.437-1.325l.568-.509,1.017.319a30.34,30.34,0,0,0,21.082-.6A30.753,30.753,0,0,0,58.41,41.487a30.375,30.375,0,0,0,.544-20.952l-.319-1.017.509-.568a5.488,5.488,0,0,0,1.325-4.437c-.3-1.727-.2-1.621-6.519-7.927S47.739.363,46.047.067A5.465,5.465,0,0,0,41.6,1.392L41.03,1.9l-1.6-.5A33.121,33.121,0,0,0,34.121.209,60.144,60.144,0,0,0,28.028.043Zm4.8,3.608a32.348,32.348,0,0,1,4.768.887l.639.189L36.286,6.68,34.334,8.633,33.4,8.479a30.188,30.188,0,0,0-6.613.047,22.642,22.642,0,0,0-10.174,4.5,30.846,30.846,0,0,0-3.36,3.336A22.228,22.228,0,0,0,8.543,26.769,30.192,30.192,0,0,0,8.5,33.383l.154.935L6.7,36.269,4.745,38.221l-.189-.639a32.931,32.931,0,0,1-.887-4.768A26.75,26.75,0,0,1,32.832,3.652ZM45.94,3.7c.2.095,2.757,2.567,5.655,5.478,4.685,4.685,5.288,5.336,5.371,5.738.2,1.112,1.514-.284-20.4,21.639s-20.515,20.6-21.639,20.4c-.4-.083-1.053-.686-5.856-5.489S3.669,46.006,3.586,45.6c-.2-1.112-1.5.272,20.278-21.532C37.126,10.809,44.106,3.912,44.414,3.758A1.6,1.6,0,0,1,45.94,3.7ZM21.521,21.445l-9.642,9.642-.035-.734a18.857,18.857,0,0,1,1.443-7.264,17.4,17.4,0,0,1,3.975-5.844,18.211,18.211,0,0,1,12.777-5.43l1.124-.012Zm34.712,2.4a22.37,22.37,0,0,1,.71,6.412,22.379,22.379,0,0,1-.722,6.377,26.8,26.8,0,0,1-19.2,19.485,27.4,27.4,0,0,1-14.008-.13l-.7-.2,1.952-1.952,1.952-1.952.816.13c.45.071,1.538.166,2.413.2A21.883,21.883,0,0,0,44.177,47.3a27.678,27.678,0,0,0,3.987-4.259,22.556,22.556,0,0,0,3.892-9.642,32.533,32.533,0,0,0,0-6.258L51.9,26.2l1.928-1.928c1.242-1.254,1.964-1.881,2.011-1.786C55.89,22.557,56.056,23.173,56.233,23.847ZM48.567,32.6a18.012,18.012,0,0,1-5.336,10.73,17.343,17.343,0,0,1-5.75,3.9,19.284,19.284,0,0,1-7.122,1.479h-.97l9.642-9.642,9.642-9.642.035.9A16.954,16.954,0,0,1,48.567,32.6Z" transform="translate(0 0)" fill="#fff"/>
    <path id="Path_102" data-name="Path 102" d="M.275.272c-.568.6-.485.734,2.5,3.715C5.244,6.46,5.563,6.744,5.907,6.744s.544-.154,1.514-1.136c1.242-1.278,1.361-1.585.8-2.141-.438-.438-.887-.308-1.7.5l-.651.651L3.564,2.307C1.565.308,1.21,0,.89,0A.871.871,0,0,0,.275.272Z" transform="translate(44.104 9.674)" fill="#fff"/>
    <path id="Path_103" data-name="Path 103" d="M.308.367A1.287,1.287,0,0,0,0,.958c0,.3,3.135,7.3,3.4,7.584A.868.868,0,0,0,4.59,8.483c.331-.355.331-.639-.024-1.42l-.284-.651L5.371,5.336,6.46,4.247l.674.308c.864.379.97.367,1.408-.059.284-.3.343-.426.272-.686a1.1,1.1,0,0,0-.225-.473A71.632,71.632,0,0,0,1.006,0,.806.806,0,0,0,.308.367Zm4.212,3.04c.059.059-.166.343-.473.651l-.568.568-.438-.982A9.408,9.408,0,0,1,2.6,2.579,8.664,8.664,0,0,1,4.519,3.407Z" transform="translate(39.741 13.933)" fill="#fff"/>
    <path id="Path_104" data-name="Path 104" d="M3.765.272c-.532.568-.4.828,1.361,2.591A12.55,12.55,0,0,1,6.628,4.5c-.071,0-1.4-.237-2.946-.521A15.579,15.579,0,0,0,.594,3.549a.954.954,0,0,0-.58.97,47.162,47.162,0,0,0,5.844,5.773,1.274,1.274,0,0,0,.627-.355c.544-.544.414-.793-1.361-2.579A11.518,11.518,0,0,1,3.694,5.8c.059,0,1.266.213,2.662.473s2.7.473,2.887.473a.892.892,0,0,0,.8-1.349c-.118-.2-1.361-1.5-2.768-2.887C5.1.367,4.676,0,4.368,0A.866.866,0,0,0,3.765.272Z" transform="translate(31.977 18.31)" fill="#fff"/>
    <path id="Path_105" data-name="Path 105" d="M.26.272A1,1,0,0,0,0,.946c0,.379.237.639,2.7,3.1,2.532,2.532,2.721,2.7,3.123,2.7A.708.708,0,0,0,6.5,6.436C7,5.8,6.945,5.714,3.987,2.757,1.609.367,1.183,0,.875,0A.871.871,0,0,0,.26.272Z" transform="translate(29.685 24.107)" fill="#fff"/>
    <path id="Path_106" data-name="Path 106" d="M2.863.16A4.778,4.778,0,0,0,.343,2.467,3.016,3.016,0,0,0,0,4.313,3.213,3.213,0,0,0,.379,6.277,4.459,4.459,0,0,0,6.7,8.1,4.936,4.936,0,0,0,8.4,6.016,4.316,4.316,0,0,0,7.371,1.84c-.781-.8-.97-.769-2.177.426C4.07,3.39,3.928,3.709,4.354,4.194c.438.509.911.461,1.562-.177l.509-.5.189.355A2.363,2.363,0,0,1,6.637,5.65,2.653,2.653,0,0,1,3.478,6.845,2.661,2.661,0,0,1,2.4,2.562a2.956,2.956,0,0,1,1.384-.793c.284,0,.769-.544.769-.864A1.175,1.175,0,0,0,4.306.3C4.034-.053,3.585-.088,2.863.16Z" transform="translate(24.183 27.662)" fill="#fff"/>
    <path id="Path_107" data-name="Path 107" d="M.26.272A1,1,0,0,0,0,.946c0,.367.237.639,2.7,3.1,2.5,2.5,2.733,2.7,3.112,2.7a.912.912,0,0,0,.935-.887c0-.3-.426-.769-2.757-3.1C1.6.367,1.183,0,.875,0A.871.871,0,0,0,.26.272Z" transform="translate(20.338 33.454)" fill="#fff"/>
    <path id="Path_108" data-name="Path 108" d="M3.009.064A4.491,4.491,0,0,0,.915,1.5C-.481,2.88-.576,2.631,2.749,5.956c2.39,2.39,2.8,2.757,3.112,2.757a.916.916,0,0,0,.875-.887c0-.272-.177-.532-.793-1.148a4.085,4.085,0,0,1-.733-.84,16.945,16.945,0,0,1,1.857.071c1.8.106,1.81.106,2.106-.166a.822.822,0,0,0-.012-1.266c-.237-.189-.568-.248-1.727-.319C6.05,4.075,6,4.063,6.085,3.814a4.532,4.532,0,0,0,.059-2.023A2.811,2.811,0,0,0,3.009.064ZM4.287,2.111c.331.39.26.935-.225,1.491a1.9,1.9,0,0,1-.521.5,3.774,3.774,0,0,1-.769-.615l-.663-.6.45-.461a3.377,3.377,0,0,1,.686-.58A.951.951,0,0,1,4.287,2.111Z" transform="translate(15.259 36.572)" fill="#fff"/>
    <path id="Path_109" data-name="Path 109" d="M3.183.124A4.724,4.724,0,0,0,.272,2.786,5.04,5.04,0,0,0,.2,5.827,4.767,4.767,0,0,0,1.94,8.039a4.37,4.37,0,0,0,6.436-1.8,3.254,3.254,0,0,0,.367-1.893,3.293,3.293,0,0,0-.308-1.775A4.5,4.5,0,0,0,6.365.432,3.507,3.507,0,0,0,4.626.006,4.8,4.8,0,0,0,3.183.124ZM5.62,2.076a2.6,2.6,0,0,1,.509,4.271A2.535,2.535,0,0,1,2.97,6.6a2.585,2.585,0,0,1-.58-3.9A2.531,2.531,0,0,1,5.62,2.076Z" transform="translate(9.407 42.356)" fill="#fff"/>
  </g>
</svg>
