<svg id="google-merchant-center" xmlns="http://www.w3.org/2000/svg" xmlns:xlink="http://www.w3.org/1999/xlink" width="47.075" height="47.052" viewBox="0 0 47.075 47.052">
  <defs>
    <linearGradient id="linear-gradient" x1="1" y1="1" x2="0" gradientUnits="objectBoundingBox">
      <stop offset="0" stop-color="#4385f5"/>
      <stop offset="1" stop-color="#3569d3"/>
    </linearGradient>
  </defs>
  <path id="Path_95" data-name="Path 95" d="M.2,98.333H47.252v31.859a3.92,3.92,0,0,1-3.921,3.921H4.121A3.921,3.921,0,0,1,.2,130.192Z" transform="translate(-0.2 -87.06)" fill="#518ff5" fill-rule="evenodd"/>
  <path id="Path_96" data-name="Path 96" d="M144.713,208.124l12.219-11.173,18.255,18.228-.009,2.3a3.938,3.938,0,0,1-3.936,3.921H158.049Z" transform="translate(-128.112 -174.349)" fill-rule="evenodd" fill="url(#linear-gradient)"/>
  <path id="Path_97" data-name="Path 97" d="M.2,4.121A3.921,3.921,0,0,1,4.121.2H43.332a3.921,3.921,0,0,1,3.921,3.921v7.352H.2Z" transform="translate(-0.2 -0.2)" fill="#4758b8" fill-rule="evenodd"/>
  <path id="Path_98" data-name="Path 98" d="M138.839,28.251h-4.657a1.715,1.715,0,0,0,0,3.431h13.235a1.715,1.715,0,0,0,0-3.431H142.76v-.49a1.96,1.96,0,1,0-3.921,0Z" transform="translate(-117.273 -22.859)" fill="#fff" fill-rule="evenodd"/>
  <g id="Group_40" data-name="Group 40" transform="translate(11.579 17.093)">
    <path id="Path_99" data-name="Path 99" d="M105.193,154.973a1.781,1.781,0,1,1,1.781-1.781A1.781,1.781,0,0,1,105.193,154.973Zm19,5.472-10.752-10.752a2.374,2.374,0,0,0-1.685-.693h-8.363A2.381,2.381,0,0,0,101,151.389v8.363a2.336,2.336,0,0,0,.7,1.685l10.74,10.752a2.435,2.435,0,0,0,1.7.7,2.385,2.385,0,0,0,1.685-.7l8.363-8.363a2.336,2.336,0,0,0,.7-1.685A2.392,2.392,0,0,0,124.189,160.445Z" transform="translate(-101 -149)"/>
    <path id="Path_100" data-name="Path 100" d="M105.193,154.973a1.781,1.781,0,1,1,1.781-1.781A1.781,1.781,0,0,1,105.193,154.973Zm19,5.472-10.752-10.752a2.374,2.374,0,0,0-1.685-.693h-8.363A2.381,2.381,0,0,0,101,151.389v8.363a2.336,2.336,0,0,0,.7,1.685l10.74,10.752a2.435,2.435,0,0,0,1.7.7,2.385,2.385,0,0,0,1.685-.7l8.363-8.363a2.336,2.336,0,0,0,.7-1.685A2.392,2.392,0,0,0,124.189,160.445Z" transform="translate(-101 -149)" fill="#fff"/>
  </g>
</svg>
