<svg id="google-analytics" xmlns="http://www.w3.org/2000/svg" width="42.504" height="47.052" viewBox="0 0 42.504 47.052">
  <path id="Path_86" data-name="Path 86" d="M197.448,41.165A5.848,5.848,0,0,1,190.91,47a6,6,0,0,1-5.118-6.078V6.117A6,6,0,0,1,190.92.04a5.848,5.848,0,0,1,6.528,5.838Z" transform="translate(-154.943 0)" fill="#f9ab00"/>
  <path id="Path_87" data-name="Path 87" d="M5.828,124.466A5.828,5.828,0,1,1,0,130.294,5.828,5.828,0,0,1,5.828,124.466ZM21.162,106.8a6,6,0,0,0-5.668,6.128v15.654c0,4.248,1.869,6.828,4.608,7.377a5.838,5.838,0,0,0,7-5.738V112.66a5.848,5.848,0,0,0-5.938-5.858Z" transform="translate(0 -89.069)" fill="#e37400"/>
</svg>
