<svg id="google-tag-manager" xmlns="http://www.w3.org/2000/svg" width="47.051" height="47.052" viewBox="0 0 47.051 47.052">
  <path id="Path_101" data-name="Path 101" d="M113.992,130.607l-8.167-7.964,17.54-17.912,8.456,8.288Z" transform="translate(-86.375 -85.482)" fill="#8ab4f8"/>
  <path id="Path_102" data-name="Path 102" d="M27.652,17.04,19.514,8.731,1.72,26.357a5.876,5.876,0,0,0,0,8.309L19.247,52.307l8.288-7.753L14.181,30.511Z" transform="translate(0 -7.126)" fill="#4285f4"/>
  <path id="Path_103" data-name="Path 103" d="M123.687,19.367,106.043,1.722a5.881,5.881,0,0,0-8.317,8.317L115.37,27.684a5.881,5.881,0,0,0,8.317-8.317Z" transform="translate(-78.359 0)" fill="#8ab4f8"/>
  <ellipse id="Ellipse_16" data-name="Ellipse 16" cx="5.748" cy="5.748" rx="5.748" ry="5.748" transform="translate(17.643 35.557)" fill="#246fdb"/>
</svg>
