<?xml version="1.0" encoding="utf-8"?>
<!-- Generator: Adobe Illustrator 27.7.0, SVG Export Plug-In . SVG Version: 6.00 Build 0)  -->
<svg version="1.1" id="facebook" xmlns="http://www.w3.org/2000/svg" xmlns:xlink="http://www.w3.org/1999/xlink" x="0px" y="0px"
	 viewBox="0 0 47 47" style="enable-background:new 0 0 47 47;" xml:space="preserve">
<style type="text/css">
	.st0{fill:#0081FB;}
	.st1{fill:url(#SVGID_1_);}
	.st2{fill:url(#SVGID_00000010995435651621993530000007903163320465958053_);}
</style>
<path class="st0" d="M5.5,28.4c0,1.8,0.4,3.1,0.9,3.9c0.5,0.9,1.6,1.5,2.7,1.5c1.3,0,2.5-0.3,4.8-3.5c1.8-2.5,4-6.1,5.4-8.3l2.5-3.8
	c1.7-2.6,3.7-5.5,6-7.5c1.9-1.6,3.8-2.5,5.9-2.5c3.4,0,6.6,2,9.1,5.6c2.7,4,4,9.1,4,14.3c0,3.1-0.6,5.4-1.7,7.2
	c-1,1.7-3,3.5-6.3,3.5v-5c2.8,0,3.5-2.6,3.5-5.6c0-4.2-1-8.9-3.2-12.3c-1.5-2.4-3.5-3.8-5.7-3.8c-2.4,0-4.3,1.8-6.4,5
	c-1.1,1.7-2.3,3.8-3.6,6.1l-1.5,2.6c-2.9,5.2-3.7,6.3-5.1,8.3c-2.6,3.4-4.7,4.7-7.6,4.7c-3.4,0-5.6-1.5-6.9-3.7
	c-1.1-1.8-1.6-4.2-1.6-6.9L5.5,28.4z"/>
<linearGradient id="SVGID_1_" gradientUnits="userSpaceOnUse" x1="10.4688" y1="330.727" x2="42.1936" y2="332.3293" gradientTransform="matrix(1 0 0 1 0 -308)">
	<stop  offset="0" style="stop-color:#0064E1"/>
	<stop  offset="0.4" style="stop-color:#0064E1"/>
	<stop  offset="0.83" style="stop-color:#0073EE"/>
	<stop  offset="1" style="stop-color:#0082FB"/>
</linearGradient>
<path class="st1" d="M4.4,14.2c2.3-3.5,5.6-6,9.4-6c2.2,0,4.4,0.6,6.6,2.5c2.5,2,5.1,5.4,8.4,10.9l1.2,2c2.9,4.8,4.5,7.2,5.4,8.4
	c1.2,1.5,2.1,1.9,3.2,1.9c2.8,0,3.5-2.6,3.5-5.6l4.4-0.1c0,3.1-0.6,5.4-1.7,7.2c-1,1.7-3,3.5-6.3,3.5c-2.1,0-3.9-0.4-5.9-2.3
	c-1.5-1.5-3.4-4-4.7-6.4l-4.1-6.9c-2.1-3.5-4-6-5.1-7.2c-1.2-1.3-2.7-2.8-5.1-2.8c-2,0-3.6,1.4-5,3.5L4.4,14.2z"/>
<linearGradient id="SVGID_00000127022358913039322100000012720614865831356309_" gradientUnits="userSpaceOnUse" x1="7.1176" y1="338.4898" x2="7.1176" y2="326.7933" gradientTransform="matrix(1 0 0 1 0 -308)">
	<stop  offset="0" style="stop-color:#0082FB"/>
	<stop  offset="1" style="stop-color:#0064E0"/>
</linearGradient>
<path style="fill:url(#SVGID_00000127022358913039322100000012720614865831356309_);" d="M13.7,13.2c-2,0-3.6,1.4-5,3.5
	c-2,3-3.2,7.4-3.2,11.7c0,1.8,0.4,3.1,0.9,3.9l-4.2,2.8c-1.1-1.8-1.6-4.2-1.6-6.9c0-4.9,1.4-10.1,3.9-14c2.3-3.5,5.6-6,9.4-6
	L13.7,13.2z"/>
</svg>
