<svg xmlns="http://www.w3.org/2000/svg" width="48.962" height="49" viewBox="0 0 48.962 49">
  <g id="snapchat" transform="translate(-147.553 -39.286)">
    <path id="Path_233" data-name="Path 233" d="M147.553,75.823v0a23.144,23.144,0,0,0,.222,3.263,11.311,11.311,0,0,0,1,3.3,10.546,10.546,0,0,0,2.944,3.561,9.563,9.563,0,0,0,2.946,1.6,15.963,15.963,0,0,0,4.843.712c1.027.006,2.054.032,3.082.028,7.464-.031,14.929.054,22.393-.046a17.615,17.615,0,0,0,2.937-.312,9.948,9.948,0,0,0,4.919-2.393,10.2,10.2,0,0,0,3.25-5.42,19.752,19.752,0,0,0,.423-4.288v-.287c0-.111-.042-24.46-.046-24.782a15,15,0,0,0-.242-2.631,10.716,10.716,0,0,0-.994-3.052,10.6,10.6,0,0,0-2.038-2.72,10.107,10.107,0,0,0-4.449-2.538,18.027,18.027,0,0,0-4.7-.5.048.048,0,0,1-.009-.024H160.027c0,.008,0,.016,0,.024a25.689,25.689,0,0,0-2.7.121,12.845,12.845,0,0,0-2.881.649,10.441,10.441,0,0,0-6.376,6.974,17.973,17.973,0,0,0-.5,4.666" transform="translate(0 0)" fill="#fffc00"/>
    <path id="Path_234" data-name="Path 234" d="M234.38,153.4c-.1,0-.2,0-.272-.007-.059.005-.119.007-.18.007a7.971,7.971,0,0,1-4.825-1.9,6.956,6.956,0,0,0-2.754-1.407,8.89,8.89,0,0,0-1.449-.123,9.921,9.921,0,0,0-2.01.227,4.462,4.462,0,0,1-.762.109.525.525,0,0,1-.573-.41c-.084-.287-.145-.565-.2-.833-.146-.669-.252-1.077-.5-1.116-2.679-.413-4.263-1.022-4.578-1.76a.684.684,0,0,1-.056-.233.43.43,0,0,1,.36-.449,9.355,9.355,0,0,0,5.624-3.344,12.608,12.608,0,0,0,1.918-2.982l.01-.021a1.923,1.923,0,0,0,.183-1.611c-.345-.814-1.489-1.177-2.245-1.417-.188-.06-.366-.116-.508-.172-.671-.265-1.773-.825-1.627-1.6a1.5,1.5,0,0,1,1.454-.956,1.031,1.031,0,0,1,.44.088,4.4,4.4,0,0,0,1.819.48,1.522,1.522,0,0,0,1.047-.32c-.019-.349-.042-.718-.064-1.068v0c-.154-2.445-.345-5.487.433-7.232a9.4,9.4,0,0,1,8.726-5.628l.635-.006h.086a9.415,9.415,0,0,1,8.742,5.632c.778,1.746.586,4.791.432,7.238l-.007.117c-.021.332-.041.647-.057.952a1.474,1.474,0,0,0,.95.318,4.554,4.554,0,0,0,1.714-.477,1.354,1.354,0,0,1,.561-.111,1.7,1.7,0,0,1,.639.122l.01,0a1.188,1.188,0,0,1,.9.975c.007.374-.271.934-1.64,1.474-.14.056-.319.112-.508.172-.757.24-1.9.6-2.245,1.417a1.92,1.92,0,0,0,.183,1.61l.01.021c.1.223,2.4,5.478,7.542,6.325a.431.431,0,0,1,.36.449.691.691,0,0,1-.057.235c-.313.733-1.9,1.342-4.576,1.756-.252.039-.358.445-.5,1.111-.06.275-.121.544-.2.827a.5.5,0,0,1-.53.4h-.042a4.29,4.29,0,0,1-.762-.1,10.034,10.034,0,0,0-2.01-.213,8.91,8.91,0,0,0-1.45.123,6.946,6.946,0,0,0-2.751,1.405,7.979,7.979,0,0,1-4.828,1.9" transform="translate(-62.124 -72.772)" fill="#fff"/>
    <path id="Path_235" data-name="Path 235" d="M230.414,116.058a8.982,8.982,0,0,1,8.349,5.377c.735,1.649.547,4.636.4,7.035-.024.381-.047.75-.066,1.1l-.008.151.1.113a1.8,1.8,0,0,0,1.273.478h.028a4.973,4.973,0,0,0,1.883-.518.92.92,0,0,1,.379-.071,1.268,1.268,0,0,1,.478.091l.022.009c.361.126.615.365.619.58,0,.122-.089.561-1.367,1.066-.125.049-.289.1-.48.162-.832.264-2.088.663-2.511,1.659a2.327,2.327,0,0,0,.194,1.969c.151.352,2.525,5.7,7.868,6.58a.237.237,0,0,1-.022.086c-.091.213-.666.95-4.248,1.5-.56.086-.7.714-.857,1.444-.058.261-.116.525-.2.8-.025.082-.029.087-.117.087h-.042a3.946,3.946,0,0,1-.679-.088,10.513,10.513,0,0,0-2.093-.221,9.259,9.259,0,0,0-1.52.129,7.259,7.259,0,0,0-2.931,1.48,7.523,7.523,0,0,1-4.577,1.823c-.087,0-.173,0-.258-.007h-.022l-.023,0c-.049,0-.1.006-.149.006a7.52,7.52,0,0,1-4.577-1.823,7.262,7.262,0,0,0-2.932-1.48,9.285,9.285,0,0,0-1.52-.129,10.315,10.315,0,0,0-2.093.235,4.275,4.275,0,0,1-.68.1c-.13,0-.132-.008-.16-.1-.08-.273-.139-.543-.2-.8-.16-.731-.3-1.363-.857-1.449-3.581-.553-4.157-1.291-4.248-1.5a.261.261,0,0,1-.022-.087c5.342-.88,7.716-6.228,7.868-6.581a2.321,2.321,0,0,0,.193-1.969c-.423-1-1.679-1.4-2.511-1.659-.191-.06-.356-.113-.481-.162-1.079-.426-1.411-.856-1.362-1.116.057-.3.578-.605,1.032-.605a.623.623,0,0,1,.258.047,4.815,4.815,0,0,0,2,.521,1.847,1.847,0,0,0,1.386-.481l.1-.113-.008-.151c-.019-.352-.042-.721-.066-1.1-.151-2.4-.339-5.385.4-7.034a8.972,8.972,0,0,1,8.334-5.373l.64-.006h.081m0-.861h-.091l-.632.006a10.642,10.642,0,0,0-4.2.889,9.357,9.357,0,0,0-2.679,1.777,10.027,10.027,0,0,0-2.239,3.218c-.821,1.841-.626,4.942-.47,7.434v0c.017.267.034.546.05.817a1.438,1.438,0,0,1-.6.114,3.987,3.987,0,0,1-1.636-.44,1.464,1.464,0,0,0-.623-.128,2.209,2.209,0,0,0-1.1.308,1.523,1.523,0,0,0-.777,1,1.374,1.374,0,0,0,.523,1.293,4.483,4.483,0,0,0,1.368.785c.156.061.341.12.537.182.68.216,1.71.543,1.978,1.175a1.528,1.528,0,0,1-.174,1.252c-.007.014-.013.028-.019.042a12.132,12.132,0,0,1-1.849,2.871,10.4,10.4,0,0,1-2.232,1.976,8.21,8.21,0,0,1-3.135,1.224.861.861,0,0,0-.72.9,1.135,1.135,0,0,0,.089.375v0a2.3,2.3,0,0,0,1.244,1.067,14.213,14.213,0,0,0,3.593.938,4.417,4.417,0,0,1,.219.792c.06.277.122.562.211.864a.942.942,0,0,0,.985.719,4.734,4.734,0,0,0,.845-.117,9.522,9.522,0,0,1,1.928-.219,8.442,8.442,0,0,1,1.379.117,6.548,6.548,0,0,1,2.574,1.333,8.331,8.331,0,0,0,5.075,1.981c.062,0,.124,0,.186-.006s.168.006.267.006a8.327,8.327,0,0,0,5.074-1.98l0,0a6.554,6.554,0,0,1,2.573-1.331,8.449,8.449,0,0,1,1.379-.117,9.621,9.621,0,0,1,1.928.2,4.569,4.569,0,0,0,.845.1h.042a.93.93,0,0,0,.943-.707c.087-.3.149-.574.211-.856a4.5,4.5,0,0,1,.219-.788,14.235,14.235,0,0,0,3.593-.938,2.307,2.307,0,0,0,1.243-1.063,1.1,1.1,0,0,0,.091-.379.86.86,0,0,0-.72-.9c-4.912-.81-7.124-5.856-7.216-6.071-.006-.014-.013-.028-.02-.042a1.528,1.528,0,0,1-.173-1.252c.268-.631,1.3-.958,1.978-1.174.2-.062.383-.121.538-.182a4.129,4.129,0,0,0,1.465-.878,1.394,1.394,0,0,0,.446-1,1.581,1.581,0,0,0-1.18-1.37,2.11,2.11,0,0,0-.8-.153,1.789,1.789,0,0,0-.743.152,4.186,4.186,0,0,1-1.531.437,1.384,1.384,0,0,1-.507-.111c.013-.23.028-.466.044-.713l.006-.105c.157-2.494.353-5.6-.468-7.439a10.041,10.041,0,0,0-2.247-3.227,9.382,9.382,0,0,0-2.689-1.777,10.7,10.7,0,0,0-4.2-.883" transform="translate(-58.031 -68.683)" fill="#020202"/>
    <rect id="Rectangle_96" data-name="Rectangle 96" width="48.962" height="48.962" transform="translate(147.553 39.301)" fill="none"/>
  </g>
</svg>
