<svg xmlns="http://www.w3.org/2000/svg" width="46.168" height="47.052" viewBox="0 0 46.168 47.052">
  <g id="tiktok" transform="translate(-1068.001 -720)">
    <path id="tiktok-2" data-name="tiktok" d="M70.162,34.205v8.878a1.776,1.776,0,0,1-1.776,1.776,22.933,22.933,0,0,1-10.654-2.6v7.925A16.869,16.869,0,1,1,37.889,33.579a1.776,1.776,0,0,1,2.087,1.748v9.242a1.776,1.776,0,0,1-1.014,1.6A4.44,4.44,0,1,0,45.3,50.186V21.776A1.776,1.776,0,0,1,47.079,20h8.878a1.776,1.776,0,0,1,1.776,1.776A10.666,10.666,0,0,0,68.386,32.429a1.776,1.776,0,0,1,1.776,1.776Z" transform="translate(1044.007 700)"/>
  </g>
</svg>
