<svg xmlns="http://www.w3.org/2000/svg" xmlns:xlink="http://www.w3.org/1999/xlink" width="47.479" height="45.079" viewBox="0 0 47.479 45.079">
  <defs>
    <clipPath id="clip-path">
      <rect id="Rectangle_95" data-name="Rectangle 95" width="47.479" height="45.079" fill="none"/>
    </clipPath>
  </defs>
  <g id="x" transform="translate(0 0)">
    <g id="Group_103" data-name="Group 103" transform="translate(0 0)" clip-path="url(#clip-path)">
      <path id="Path_231" data-name="Path 231" d="M43.438,45.079H4.041A4.041,4.041,0,0,1,0,41.038v-37A4.041,4.041,0,0,1,4.041,0h39.4a4.041,4.041,0,0,1,4.041,4.041v37a4.041,4.041,0,0,1-4.041,4.041" transform="translate(0 0)"/>
      <path id="Path_232" data-name="Path 232" d="M30.156,2.345h5.449L23.7,15.954,37.7,34.473H26.737l-8.59-11.23-9.83,11.23H2.864L15.6,19.917,2.16,2.345H13.407l7.767,10.266ZM28.242,31.211h3.019L11.766,5.436H8.526Z" transform="translate(3.806 4.132)" fill="#f8f7f7"/>
    </g>
  </g>
</svg>
