<?xml version="1.0" encoding="utf-8"?>
<!-- Generator: Adobe Illustrator 27.7.0, SVG Export Plug-In . SVG Version: 6.00 Build 0)  -->
<svg version="1.1" id="_x2018_ëîé_x5F_1" xmlns="http://www.w3.org/2000/svg" xmlns:xlink="http://www.w3.org/1999/xlink"
	 x="0px" y="0px" viewBox="0 0 2676.2 2676.2" style="enable-background:new 0 0 2676.2 2676.2;" xml:space="preserve">
<style type="text/css">
	.st0{opacity:0.34;fill:#CEDBD7;enable-background:new    ;}
	.st1{fill:#327C61;}
	.st2{fill:#FFFFFF;}
	.st3{fill:#439B79;}
	.st4{fill:#51BE9B;}
	.st5{fill:#257055;}
</style>
<g id="_x2018_ëîé_x5F_2">
</g>
<g>
	<circle class="st0" cx="1409.1" cy="1323.1" r="1228.4"/>
	<g>
		<g>
			<g>
				<path class="st1" d="M1356.1,600.6L479,1354.2l16.3,341c0,40.7,49.1,617.3,95.7,617.3l819-548.1l737.9,491.8
					c46.7,0,136.7-535.8,136.7-576.5l54.5-326.2l-877.9-752.7C1430.6,579.3,1386.9,579.3,1356.1,600.6z"/>
			</g>
		</g>
	</g>
	<g>
		<g>
			<path class="st2" d="M2120.3,2448.5H699.7c-36.2,0-65.5-29.3-65.5-65.5V936.1c0-36.2,29.3-65.5,65.5-65.5h1420.6
				c36.2,0,65.5,29.3,65.5,65.5V2383C2185.9,2419.2,2156.5,2448.5,2120.3,2448.5z"/>
		</g>
	</g>
	<g>
		<g>
			<g>
				<path class="st3" d="M1428,1924l423.2-416.4c111.1-109.4,269.8-171.8,436.3-171.8l0,0c39.1,0,70.8,24.8,70.8,55.5v567.3v545.7
					c0,30.6-52.9,77.2-92,77.2h-240.5L1428,1993.2C1408,1973.5,1408,1943.7,1428,1924z"/>
			</g>
		</g>
	</g>
	<g>
		<g>
			<g>
				<path class="st3" d="M1392,1923.3l-423.2-416.4C857.7,1397.5,699,1335,532.5,1335l0,0c-39.1,0-70.8,24.8-70.8,55.5v567.3v552.3
					c0,30.6,45.4,71.3,84.5,71.3l248-0.8l597.9-588.3C1412,1972.8,1412,1943,1392,1923.3z"/>
			</g>
		</g>
	</g>
	<g>
		<g>
			<g>
				<path class="st4" d="M2358.3,2276.5v240c0,35.9-37.8,65-84.5,65H546.2c-46.7,0-84.5-29.1-84.5-65v-240l895.7-548.5
					c14.6-8.9,32-13.6,49.7-14.1c19.6-0.5,39.4,4.2,55.6,14.1L2358.3,2276.5z"/>
			</g>
		</g>
	</g>
	<g>
		<g>
			<polygon class="st5" points="1577.8,1775.9 2358.3,2174.4 2358.3,2276.5 1563.7,1789.7 			"/>
		</g>
	</g>
	<g>
		<g>
			<polygon class="st5" points="1242.3,1775.9 461.7,2174.4 461.7,2276.5 1256.3,1789.7 			"/>
		</g>
	</g>
	<g>
		<g>
			<g>
				<g>
					<g>
						<polygon class="st4" points="964,447.7 781,1042.2 751.6,1137.5 668,1066.9 449.4,882.5 						"/>
					</g>
				</g>
			</g>
			<g>
				<g>
					<g>
						<g>
							<g>
								<polygon class="st3" points="964,447.7 328,815 38.7,719.1 								"/>
							</g>
						</g>
					</g>
				</g>
			</g>
			<g>
				<g>
					<g>
						<polygon class="st5" points="964,447.7 449.4,882.5 350.5,1080.2 328,815 						"/>
					</g>
				</g>
			</g>
		</g>
		<g>
			<g>
				<path class="st5" d="M420.6,2171c-2.3,0-4.5-0.7-6.4-2.2c-17.5-13.7-34.5-28.4-50.8-43.8c-4.2-4-4.4-10.5-0.4-14.7
					s10.5-4.4,14.7-0.4c15.8,14.9,32.4,29.2,49.3,42.5c4.5,3.6,5.3,10.1,1.8,14.6C426.7,2169.6,423.7,2171,420.6,2171z
					 M310.2,2063.6c-3,0-6-1.3-8-3.8c-14.2-17.1-27.9-35.1-40.5-53.4c-3.3-4.7-2.1-11.2,2.6-14.5s11.2-2.1,14.5,2.6
					c12.3,17.8,25.6,35.3,39.4,51.9c3.7,4.4,3.1,11-1.4,14.7C314.9,2062.8,312.6,2063.6,310.2,2063.6z M224.5,1935.6
					c-3.7,0-7.3-2-9.2-5.5c-10.5-19.7-20.1-40.1-28.7-60.6c-2.2-5.3,0.3-11.4,5.6-13.6s11.4,0.3,13.6,5.6
					c8.4,19.9,17.8,39.7,27.9,58.9c2.7,5.1,0.8,11.4-4.3,14.1C227.8,1935.2,226.1,1935.6,224.5,1935.6z M166.9,1792.7
					c-4.5,0-8.7-3-10-7.6c-6.1-21.5-11.3-43.5-15.3-65.3c-1.1-5.7,2.7-11.1,8.3-12.1c5.7-1.1,11.1,2.7,12.1,8.3
					c3.9,21.2,9,42.5,14.9,63.4c1.6,5.5-1.6,11.3-7.2,12.9C168.8,1792.6,167.8,1792.7,166.9,1792.7z M141.1,1640.9
					c-5.5,0-10.1-4.3-10.4-9.8c-0.8-14.1-1.2-28.3-1.2-42.5c0-8.1,0.1-16.4,0.4-24.6c0.2-5.8,5-10.3,10.8-10.1
					c5.8,0.2,10.3,5,10.1,10.8c-0.3,7.9-0.4,16-0.4,23.9c0,13.7,0.4,27.6,1.2,41.3c0.3,5.7-4,10.7-9.8,11
					C141.6,1640.9,141.3,1640.9,141.1,1640.9z M148.5,1487c-0.5,0-1.1,0-1.6-0.1c-5.7-0.9-9.6-6.2-8.7-11.9
					c3.4-22,7.8-44.1,13.1-65.7c1.4-5.6,7-9,12.6-7.6s9,7,7.6,12.6c-5.2,21-9.5,42.6-12.7,63.9C158,1483.3,153.6,1487,148.5,1487z
					 M187.5,1338c-1.2,0-2.5-0.2-3.7-0.7c-5.4-2-8.1-8-6.1-13.4c7.8-20.9,16.7-41.6,26.3-61.7c2.5-5.2,8.7-7.4,13.9-4.9
					s7.4,8.7,4.9,13.9c-9.4,19.5-18,39.6-25.6,60C195.7,1335.4,191.7,1338,187.5,1338z M256.3,1200.2c-1.9,0-3.9-0.5-5.6-1.6
					c-4.8-3.1-6.3-9.5-3.2-14.4c12.1-18.9,25.1-37.3,38.8-54.7c3.5-4.5,10.1-5.3,14.6-1.8s5.3,10.1,1.8,14.6
					c-13.3,17-25.9,34.8-37.7,53.1C263.1,1198.5,259.8,1200.2,256.3,1200.2z"/>
			</g>
		</g>
	</g>
	<g>
		<g>
			<g>
				<path class="st5" d="M2226.9,828.9c-2.7,0-5.3-1-7.4-3.1c-4.1-4.1-4.1-10.7,0-14.7l68.3-68.3c4.1-4.1,10.7-4.1,14.7,0
					c4.1,4.1,4.1,10.7,0,14.7l-68.3,68.3C2232.2,827.9,2229.6,828.9,2226.9,828.9z"/>
				<path class="st5" d="M2226.9,831.5c-3.5,0-6.7-1.4-9.2-3.8c-2.5-2.5-3.8-5.7-3.8-9.2s1.4-6.7,3.8-9.2L2286,741
					c5.1-5.1,13.3-5.1,18.4,0c2.5,2.5,3.8,5.7,3.8,9.2s-1.4,6.7-3.8,9.2l-68.3,68.3C2233.7,830.2,2230.4,831.5,2226.9,831.5z
					 M2295.2,742.4c-2,0-4,0.8-5.5,2.3l-68.3,68.3c-1.5,1.5-2.3,3.4-2.3,5.5s0.8,4,2.3,5.5s3.4,2.3,5.5,2.3s4-0.8,5.5-2.3l68.3-68.3
					c1.5-1.5,2.3-3.4,2.3-5.5s-0.8-4-2.3-5.5S2297.2,742.4,2295.2,742.4z"/>
			</g>
		</g>
		<g>
			<g>
				<path class="st5" d="M2372.9,926.6c-0.5,0-1,0-1.6-0.1l-113.6-17.1c-5.7-0.9-9.6-6.2-8.8-11.9c0.9-5.7,6.2-9.6,11.8-8.8
					l113.6,17.1c5.7,0.9,9.6,6.2,8.8,11.9C2382.4,922.9,2378,926.6,2372.9,926.6z"/>
				<path class="st5" d="M2372.9,929.2c-0.6,0-1.3,0-1.9-0.1L2257.3,912c-7.1-1.1-12-7.7-10.9-14.8s7.7-12,14.8-10.9l113.6,17.1
					c7.1,1.1,12,7.7,10.9,14.8C2384.8,924.4,2379.3,929.2,2372.9,929.2z M2259.3,891.3c-3.8,0-7.1,2.8-7.7,6.7
					c-0.6,4.3,2.3,8.2,6.6,8.9l113.6,17.1c0.4,0.1,0.8,0.1,1.2,0.1c3.8,0,7.1-2.9,7.7-6.7c0.6-4.3-2.3-8.2-6.6-8.9l-113.6-17.1
					C2260,891.3,2259.6,891.3,2259.3,891.3z"/>
			</g>
		</g>
		<g>
			<g>
				<path class="st5" d="M2146.3,796.6c-5.1,0-9.5-3.7-10.3-8.9l-17.1-113.6c-0.9-5.7,3.1-11,8.8-11.9s11,3.1,11.8,8.8l17.1,113.6
					c0.9,5.7-3.1,11-8.8,11.9C2147.3,796.5,2146.8,796.6,2146.3,796.6z"/>
				<path class="st5" d="M2146.3,799.2c-6.4,0-11.9-4.8-12.9-11.1l-17.1-113.6c-0.5-3.4,0.3-6.9,2.4-9.7c2.1-2.8,5.1-4.6,8.5-5.1
					s6.9,0.3,9.7,2.4c2.8,2.1,4.6,5.1,5.1,8.5l17.1,113.6c0.5,3.4-0.3,6.9-2.4,9.7c-2.1,2.8-5.1,4.6-8.5,5.1
					C2147.6,799.1,2146.9,799.2,2146.3,799.2z M2129.2,664.7c-0.4,0-0.8,0-1.2,0.1c-2.1,0.3-3.9,1.4-5.1,3.1
					c-1.2,1.7-1.8,3.7-1.4,5.8l17.1,113.6c0.6,3.8,3.9,6.7,7.7,6.7c0.4,0,0.8,0,1.2-0.1c2.1-0.3,3.9-1.4,5.1-3.1
					c1.2-1.7,1.8-3.7,1.4-5.8l-17.1-113.6c-0.3-2.1-1.4-3.9-3.1-5.1C2132.5,665.2,2130.9,664.7,2129.2,664.7z"/>
			</g>
		</g>
	</g>
	<g>
		<path d="M1186.5,1365.7c-1.1-3.4-2.1-7-2.9-10.8s-1.2-7.6-1.2-11.2c-2.8,8.9-7.5,17-13.9,24.4c-6.4,7.3-13.7,13.9-21.9,19.6
			c-8.2,5.7-16.8,10.6-25.7,14.7c-9,4.1-17.3,7.3-25.1,9.7c-11,3.3-21.9,5.4-32.7,6.6c-10.8,1.1-21.8,1.7-32.9,1.7
			c-2.8,0-5.7,0-8.5,0c-2.8,0-5.7-0.1-8.5-0.4c-6.6-0.6-13.1-1.3-19.4-2.2c-6.3-0.9-12.1-2.3-17.5-4.2c-5.4-1.9-10.2-4.5-14.4-7.7
			s-7.6-7.6-10.2-12.9c-1.8-3.7-3.1-7.7-3.8-12.2c-0.7-4.4-1.1-9-1.1-13.7c0-7.2,0.6-14.3,1.7-21.2c1.1-6.9,2.5-13.6,4-19.9
			c1.1-4.5,2.3-8.5,3.4-12c1.1-3.5,2.3-5.3,3.6-5.4h0.2c1.1,0,1.8,1,2.1,2.9s0.4,3.9,0.4,6c0,1.6,0,2.9-0.1,4.1s-0.1,1.9-0.1,2.2
			c-0.3,2.4-0.5,4.8-0.7,7.1s-0.3,4.7-0.3,7.1s0.2,4.9,0.6,7.4c1.7,6.4,5.2,11.8,10.4,16.3s12.9,7.9,23.1,10.2
			c8.2,1,16.4,1.7,24.7,2.2s16.5,0.7,24.7,0.7c11,0,21.9-0.6,32.5-1.7c10.7-1.1,21.4-2.9,32.1-5.3c6.4-1.4,12.9-3.2,19.6-5.3
			c6.7-2.1,13.1-4.9,19.3-8.3c6.1-3.4,11.7-7.4,16.6-12.2c4.9-4.7,8.8-10.3,11.7-16.8c1-2.5,1.9-6,2.6-10.3c0.8-4.3,1.4-8.8,2-13.5
			s1-9.2,1.4-13.8c0.4-4.5,0.7-8.4,1-11.7c0.6-8.9,0.9-17.3,1.1-25.3c0.1-8,0.3-15.9,0.5-23.7c0.2-7.8,0.7-15.7,1.4-23.7
			c0.7-8,1.9-16.4,3.6-25.3c4.9-12,10.6-22.2,17.1-30.6c6.4-8.4,13.9-15.8,22.6-22.1c6.9-5.1,14.8-9.8,23.6-14.1
			c8.8-4.3,17.9-8.4,27.2-12.2s18.5-7.5,27.5-11.1s17.1-7.2,24.2-10.9c3.7-1.8,7.7-3.8,12.1-6s8.7-4.5,13-7s8.4-5,12.3-7.6
			s7.1-5.2,9.6-7.7c1.3-1.3,2.3-1.9,3.2-1.9c1.1,0,1.7,0.9,1.7,2.8c0,2.3-0.7,4.1-2.1,5.5c-5.7,7.5-11.7,14.1-18.2,19.9
			s-13,11.9-19.5,18.4c-5.4,5.4-11.2,9.9-17.6,13.7c-6.4,3.7-12.9,7.4-19.7,10.9c-6.4,3.3-12.7,6.3-19,9.2
			c-6.3,2.9-12.5,5.8-18.6,8.6c-6.1,2.8-12.3,5.7-18.5,8.7s-12.4,6.2-18.6,9.7c-4,2.3-7.3,4.4-10.1,6.5c-2.8,2-5.1,4.3-6.9,6.8
			s-3.3,5.3-4.2,8.5c-1,3.2-1.6,7-1.9,11.3c-0.4,6.4-0.8,13.8-1.1,22.2c-0.3,8.5-0.5,17.4-0.5,26.9c-0.1,9.5-0.1,19-0.2,28.7
			s-0.1,19-0.1,27.9v33.7c0,3.3,0.2,6.2,0.6,9s1,5.3,1.7,7.7L1186.5,1365.7z M1078.4,1280.5c1.1-0.7,2.4-1.5,3.8-2.3
			s2.1-1.6,2.1-2.1c0-1.3-0.6-2.1-1.9-2.5c-1.6-0.6-3.3-1.1-5.2-1.7c-1.9-0.6-3.8-1.2-5.8-1.9c-1.8-0.7-3.7-1.7-5.7-3s-3-3.3-3-6.1
			c0-2.7,0.9-5.7,2.6-9c1.8-3.3,3.9-6.5,6.4-9.5s5-5.8,7.6-8.3s4.8-4.3,6.5-5.4c2.8-2.1,4.7-3.5,5.6-4c0.9-0.6,1.5-0.8,1.8-0.8
			c0.4,0,0.6,0.2,0.6,0.6c0,0.3-0.4,1.3-1.3,3.1c-0.8,1.8-1.6,3.1-2.1,3.9c-0.6,0.8-1.1,1.7-1.5,2.6s-1.1,1.9-1.9,2.9
			c-0.8,0.6-2,1.4-3.5,2.4c-1.5,1.1-2.9,2.2-4.3,3.3c-1.4,1.1-2.6,2.3-3.6,3.6c-1,1.3-1.5,2.4-1.5,3.4c0,1.4,1.5,2.6,4.4,3.6
			c2.3,0.8,4.4,1.6,6.4,2.3c2,0.7,4.2,1.6,6.6,2.8c2.4,1.3,3.6,3.7,3.6,7.2c0,2.4-0.8,5.1-2.5,8.2c-1.7,3-3.5,5.8-5.3,8.2
			c-3.3,4.2-8.4,7.8-15.5,10.6c-7.1,2.8-14.6,4.2-22.7,4.2c-0.7,0-1.1-0.4-1.1-1.1c0-0.3,0.1-0.6,0.4-0.8c0.3-0.3,0.6-0.5,0.8-0.6
			L1078.4,1280.5z"/>
		<path d="M1207.7,1347.1c0.8,3.3,1.9,6.1,3.3,8.7c1.3,2.5,2.8,4.8,4.3,6.8c3.5,4.4,7.3,7.6,11.2,9.5c4,2,8,3,12.1,3
			c3.8,0,7.5-1.1,11.1-3.2s6.8-4.9,9.5-8.3c2.8-3.4,4.9-7.2,6.6-11.4c1.6-4.2,2.4-8.5,2.4-12.7c0-4.5-0.1-9.5-0.2-14.8
			c-0.1-5.4-0.2-10.4-0.3-15c-0.1-4.7-0.2-8.6-0.3-11.8c-0.1-3.2-0.2-4.9-0.2-5.2c0-5.9,0.3-11.7,0.8-17.2
			c0.6-5.5,1.5-10.9,2.8-16.3c0.3-1.3,0.9-3.6,1.8-6.9s1.9-6.8,3-10.4s2.1-7,3.1-10.3c1-3.2,1.7-5.5,2.1-6.8s1.1-3.5,2.1-6.6
			s2.1-6.3,3.4-9.6c1.3-3.3,2.6-6.2,4-8.7s2.8-3.7,4-3.7c1.1,0,1.8,0.6,2.1,1.7c0.3,1.1,0.4,2,0.4,2.8c0,2.4-0.5,6.4-1.6,12
			s-1.6,12.4-1.6,20.4c0,17.7-0.1,32.2-0.4,43.7s-0.7,21.2-1.2,28.9c-0.5,7.8-1.2,14.4-2.1,19.8s-2,10.9-3.3,16.4
			c-1.6,4.8-3.2,10.1-4.9,15.9c-1.7,5.8-3.6,11.6-5.8,17.5c-2.2,5.9-4.7,11.5-7.6,16.9s-6.3,10.3-10.2,14.5
			c-3.9,4.2-8.3,7.6-13.3,10.2c-5,2.5-10.8,3.8-17.3,3.8c-7.1,0-13.2-1.5-18.4-4.6c-5.2-3-9.6-7-13.2-11.9s-6.3-10.3-8.1-16.4
			c-1.8-6.1-2.6-12.2-2.6-18.4L1207.7,1347.1z"/>
		<path d="M1429,1145.4c0-2,0.8-4,2.5-5.9c1.4-2.1,3.1-4.6,5.2-7.3c2-2.8,4-5.2,5.8-7.3c0.6-0.4,1.7-1,3.5-1.7s4.8-1.8,9.2-3.4
			c4.4-1.6,10.5-3.7,18.3-6.4c7.8-2.7,18.1-6.2,30.8-10.6c0.3,0,1.2-0.3,2.8-1c1.6-0.6,2.8-1,3.6-1c0.4,0,0.6,0.2,0.6,0.6
			s-0.2,1.1-0.6,1.9c-0.6,0.7-1.5,1.8-2.8,3.3s-2.6,3-4.1,4.7c-1.5,1.6-2.9,3.2-4.3,4.7s-2.4,2.5-3,3.1c-2.4,2.5-5.2,4.4-8.3,5.7
			l-53,20.3c-0.6,0.3-1.4,0.6-2.4,0.8c-1.1,0.3-1.9,0.4-2.6,0.4C1429.4,1146.4,1429,1146.1,1429,1145.4z M1430.9,1177.2
			c0-2,0.8-4,2.5-5.9c1.4-2.1,3.2-4.6,5.3-7.4c2.1-2.8,4-5.2,5.7-7.2c0.6-0.4,1.7-1,3.5-1.7s4.8-1.8,9.2-3.4
			c4.4-1.6,10.5-3.7,18.3-6.4c7.8-2.7,18.1-6.2,30.8-10.6c0.3,0,1.2-0.3,2.8-1c1.6-0.6,2.8-1,3.6-1c0.4,0,0.6,0.2,0.6,0.6
			s-0.2,1.1-0.6,1.9c-0.6,0.7-1.5,1.8-2.8,3.3s-2.6,3-4.1,4.7c-1.5,1.6-2.9,3.2-4.3,4.7s-2.4,2.5-3,3.1c-2.4,2.5-5.2,4.4-8.3,5.7
			l-53,20.3c-0.6,0.3-1.4,0.6-2.4,0.8c-1.1,0.3-1.9,0.4-2.6,0.4C1431.4,1178.2,1430.9,1177.9,1430.9,1177.2z"/>
		<path d="M1450.4,1390.5c0.3-6.4,0.5-13.5,0.7-21.3s0.4-16,0.5-24.5s0.2-17.1,0.3-25.8c0.1-8.8,0.1-17.3,0.2-25.7
			c0.1-8.4,0.1-16.4,0.1-24s0-14.5,0-20.8c0-2.3,0.5-5.7,1.6-10.4c1.1-4.7,2.4-9.7,3.9-15.3c1.6-5.5,3.2-11,5.1-16.6
			c1.8-5.6,3.6-10.5,5.3-14.7c1.6-3.8,3.2-7.1,4.9-9.7c1.7-2.7,3.3-4.1,4.9-4.2c1.4,0,2.1,1.1,2.1,3.4c0,1.8-0.2,4.1-0.7,6.8
			c-0.5,2.7-0.9,5.5-1.2,8.5c-0.8,9.9-1.4,19.7-1.8,29.4c-0.4,9.7-0.5,19.5-0.5,29.2c0,7.6,0.1,15.3,0.4,23s0.4,15.4,0.4,23
			c0,16.1-1.3,31.6-4,46.6s-7.6,29.6-14.6,43.9c-1.4,3.1-2.9,4.7-4.4,4.7C1451.9,1395.8,1450.8,1394,1450.4,1390.5z"/>
		<path d="M1573.1,1346.6c-1.8,1.1-3.6,2.2-5.3,3.3c-1.7,1.1-3.3,2.2-4.9,3.5c-2.4,2-4.4,4.8-5.9,8.4c-1.6,3.6-3.4,8.7-5.5,15.1
			c-1.3,4.1-2.5,8.1-3.7,11.9s-2.5,7.5-3.9,11.1s-3.1,7.2-5,10.8c-1.9,3.6-4.2,7.2-6.9,10.9c-1.1,1.6-2.2,2.9-3.2,3.9
			c-1,1.1-2,2-3.1,2.8s-2.3,1.4-3.6,2c-1.3,0.6-2.9,1.1-4.8,1.7c-11,3.2-22.1,6-33.3,8.2c-11.2,2.2-22,4.6-32.6,7.1
			c-0.7,0.1-1.3,0.2-1.9,0.3c-0.6,0.1-1,0.1-1.3,0.1c-3.1,0-4.7-0.9-4.7-2.8c0-1.7,1.3-3.5,4-5.3c0.3-0.3,0.7-0.6,1.2-1s1.5-1,3-2
			s3.6-2.4,6.2-4.3c2.7-1.9,6.4-4.4,11.2-7.6c4.8-3.2,10.8-7.2,18-12s16-10.7,26.3-17.6c7.6-5.1,14.4-11.1,20.4-18
			s10.1-14.8,12.2-23.7c1.3-5.5,2.6-11,4-16.5s3.1-10.8,5.1-15.9s4.3-9.9,7.1-14.3s6.2-8.5,10.3-12.2L1573.1,1346.6z"/>
		<path d="M1562.3,1306.6c2.8-5.1,6.4-9.3,10.8-12.7c4.4-3.4,9.4-6.5,15-9.3c4.5-2,8.8-4.2,12.7-6.6c4-2.4,6.6-6,7.8-10.8
			c2.1-8.6,3.4-18.1,3.7-28.5c0.4-10.4,0.6-20.9,0.8-31.5c0.2-10.6,0.7-20.8,1.6-30.7c0.8-9.9,2.8-18.6,5.7-26.3
			c0.6-2.3,1.2-4.4,1.9-6.5c0.7-2,1.5-4.1,2.3-6.2s1.8-4.4,3-6.8c1.1-2.4,2.4-5.2,3.8-8.3c2.3-5.1,5.2-10.2,8.7-15.4
			c3.5-5.2,7.4-10,11.8-14.6c4.3-4.6,8.9-8.8,13.8-12.7c4.9-3.9,9.8-7.2,14.7-9.9c11.2-5.9,22.7-11.3,34.7-16.1
			c12-4.8,23.9-9.7,35.8-14.7s23.4-10.5,34.7-16.3c11.3-5.9,21.8-12.8,31.6-20.9c0.6-0.4,1.2-0.6,1.9-0.6c1.3,0,1.9,0.9,1.9,2.8
			c0,2.1-0.8,4.2-2.3,6.2c-1.6,2-3,3.7-4.2,5c-0.4,0.4-1.2,1.2-2.4,2.4c-1.2,1.2-3.2,3.1-5.9,5.7c-2.8,2.6-6.4,6.2-11,10.7
			s-10.5,10.3-17.7,17.4c-1.7,1.7-4.1,3.7-7.3,5.9c-3.2,2.3-5.8,4-7.9,5.3c-7.5,4.2-15.2,8.3-23.2,12.2c-8,3.9-16,7.7-24,11.4
			c-8.1,3.7-16,7.5-23.9,11.3s-15.5,7.8-22.9,11.9c-2.3,1.3-4.7,2.8-7.4,4.7c-2.7,1.8-5.2,3.9-7.6,6c-2.4,2.2-4.4,4.6-6.1,7.2
			s-2.7,5.3-3,8.2c-0.6,5.8-1.2,13-1.8,21.7c-0.6,8.7-1.2,17.9-1.7,27.5c-0.5,9.7-0.9,19.2-1.3,28.6s-0.5,17.6-0.5,24.7
			c0,12.6,0.3,23.5,0.8,32.7c0.6,9.3,1.8,18.1,3.6,26.6l-26.7,10c-2.8,5.9-6.1,11.4-9.9,16.3c-3.7,4.9-8.3,9-13.7,12.1
			c-5.2,3.1-10.4,6-15.6,8.6s-10,5.5-14.5,8.8L1562.3,1306.6z"/>
		<path d="M1702.7,1202.2c4.2-5.4,8.7-10.9,13.5-16.5c4.7-5.6,8.9-10.7,12.6-15c0.7-0.7,1.3-1.1,1.7-1.1c0.6,0,1.6,0.5,3,1.5
			c3.7,2.5,7.9,5.6,12.6,9.2s9.1,7,13.2,10.1c4.1-4.9,8.3-10,12.5-15.3c4.2-5.2,8.1-9.9,11.7-14c0.7-0.7,1.3-1.1,1.7-1.1
			c0.6,0,1.6,0.5,3,1.5c3.7,2.5,7.9,5.5,12.6,9s9.1,6.7,13.2,9.9c0.7,0.7,1.3,1.3,1.9,1.7c0.6,0.4,0.8,0.9,0.8,1.5
			c0,0.4-0.4,1.2-1.3,2.3l-25.6,30.9c-0.3,0.4-0.7,0.9-1.2,1.4s-0.9,0.7-1.2,0.7c-0.6,0-1.4-0.4-2.5-1.1c-4-2.7-8.3-5.8-13-9.4
			s-9.1-7.2-13.2-10.9l-23.9,28.8c-0.3,0.4-0.7,0.9-1.2,1.4s-0.9,0.7-1.2,0.7c-0.6,0-1.4-0.4-2.5-1.1c-4-2.7-8.3-5.9-13-9.6
			s-9.1-7.5-13.2-11.1c-1.4-1.1-2.1-2-2.1-2.5c0-0.3,0.1-0.6,0.4-1C1702.2,1202.8,1702.5,1202.4,1702.7,1202.2z M1729,1147.3
			c4.2-5.4,8.5-10.8,12.9-16.3s8.4-10.5,12.1-14.8c0.7-0.7,1.3-1.1,1.7-1.1c0.6,0,1.6,0.5,3,1.5c3.7,2.5,7.7,5.4,12.1,8.7
			c4.4,3.3,8.6,6.4,12.7,9.5c0.7,0.7,1.3,1.3,1.9,1.7c0.6,0.4,0.8,0.9,0.8,1.5c0,0.4-0.4,1.2-1.3,2.3l-24.6,30.5
			c-0.3,0.4-0.7,0.9-1.2,1.4s-0.9,0.7-1.2,0.7c-0.6,0-1.4-0.4-2.5-1.1c-4-2.7-8.2-5.8-12.7-9.3s-8.8-7.1-12.9-10.8
			c-1.4-1.1-2.1-2-2.1-2.5c0-0.3,0.1-0.6,0.4-1C1728.5,1147.9,1728.7,1147.6,1729,1147.3z"/>
		<path d="M1639.8,1277.6c0.7,4.1,1.8,7.9,3.3,11.4s3.5,6.6,5.9,9.3c2.5,2.7,5.5,4.8,9.1,6.4s7.9,2.3,13,2.3c4.8,0,9.6-0.8,14.3-2.4
			c4.7-1.6,9.2-3.7,13.6-6.2c4.3-2.5,8.4-5.4,12.4-8.6s7.6-6.4,11-9.6c2.4-2.4,4.8-4.4,7.3-6.1s5.4-2.5,8.8-2.5c1.4,0,3,0.2,4.8,0.5
			c1.8,0.4,3.6,0.8,5.5,1.3s3.8,0.9,5.6,1.3c1.8,0.4,3.5,0.5,4.9,0.5c2.5,0,4.9-0.7,7-2.2s4-3.4,5.6-5.6c1.6-2.3,3.1-4.7,4.3-7.3
			c1.3-2.6,2.4-5.1,3.4-7.5c1-2.5,2.3-4.6,3.8-6.1c1.6-1.6,2.9-2.3,4-2.3c1.3,0,1.9,0.9,1.9,2.8c0,1.4-0.3,2.9-0.8,4.4
			c-0.3,0.7-0.6,1.6-1,2.8c-0.4,1.1-0.7,2.3-1,3.5s-0.5,2.3-0.7,3.2c-0.2,0.9-0.3,1.6-0.3,2c0.7,0.1,1.4,0.2,2.2,0.3
			c0.8,0.1,1.5,0.1,2.2,0.1c5.5,0,9.8-0.9,12.8-2.6c3-1.8,6.1-4.8,9.2-9.2c2.3-3.1,4.1-6.4,5.6-10c1.5-3.5,2.9-7,4.1-10.4
			c0.3-0.7,0.7-1.6,1.4-2.8c0.6-1.1,1.4-1.7,2.4-1.7c1.3,0,2.1,0.4,2.5,1.1s0.6,1.6,0.6,2.5c-0.3,6.4-1.3,12-3.2,16.8
			c-1.8,4.9-4.4,9.8-7.6,14.7c-3.5,5.5-7.5,10.7-11.9,15.7c-4.4,4.9-9.3,9.4-14.6,13.3c-1.1,0.7-2.5,1.1-4,1.1l-6.1-0.4
			c-1.4,0-2.6,0.3-3.6,0.8c-1.3,0.8-2.7,2.1-4.3,3.8c-1.6,1.7-3.3,3.5-5,5.5s-3.4,3.9-5,5.8s-3.1,3.5-4.3,4.8
			c-0.8,0.8-1.9,1.6-3.3,2.1c-1.3,0.6-3.3,1-5.8,1.3c-2,0-4.1-0.3-6.4-0.8c-2.3-0.6-4.6-1.2-7.1-1.9c-2.5-0.7-5-1.3-7.5-1.9
			s-4.9-0.8-7.2-0.8c-2,0-4,0.2-5.9,0.7c-2,0.5-3.7,1.7-5.1,3.5c-3.4,4.5-6.9,9.3-10.5,14.4s-7.6,9.8-11.9,14.2
			c-4.3,4.4-9,8-14.2,10.8s-11,4.2-17.5,4.2c-7.1,0-13.1-1.8-18-5.5s-9-8.4-12.1-14.1s-5.4-11.9-6.9-18.6s-2.3-13.2-2.4-19.4
			L1639.8,1277.6z"/>
	</g>
</g>
</svg>
