<svg version="1.2" xmlns="http://www.w3.org/2000/svg" viewBox="0 0 747 585" width="747" height="585"><style>.a{fill:#fff}.b{fill:#1476bc}.c{fill:#6f7073}</style><path fill-rule="evenodd" class="a" d="m220.8 564q-108.9 0-217.8 0c-1.2 0-1.5-0.3-1.5-1.5 0.1-5 0-9.9 0-14.9q1 0 2.1 0 73.9 0 147.9 0c0.4 0 0.9 0 1.3 0 1 0.1 1.3-0.4 1.3-1.3-0.1-1.6-0.1-3.3 0-4.9 0.1-1.6-0.3-2-1.9-2-50.2 0-100.5 0-150.7 0q0-14.5 0-29.1c6.9 0 13.9-0.1 20.8 0 1.1 0 1.5-0.3 1.8-1.3 1.9-7.4 4-14.7 5.9-22.1 1.9-7.1 3.8-14.2 5.4-21.4 0.6 0.1 0.5 0.5 0.7 0.7 6.3 12.8 13.1 25.2 19.8 37.8 2.4 4.6 5.9 7.3 11.3 7.5 6.2 0.3 10.9-1.7 13.8-7.2 6-11.3 12.2-22.5 17.8-34 0.8-1.6 1.6-3.2 2.4-4.9 0.2 0.3 0.3 0.4 0.4 0.5 3.1 14.4 7.6 28.5 11.2 42.8 0.3 1.2 0.8 1.6 2.1 1.6 6.4-0.1 12.8-0.1 19.1 0 1.5 0 1.8-0.2 1.4-1.8-6-20.9-12-41.7-18-62.6-0.9-3.3-2.7-6.1-5.6-8-6.8-4.3-15.2-1.8-19.5 5.7q-8.5 15.2-17.1 30.3c-2.1 3.8-4.1 7.7-6.2 11.6-0.5-0.2-0.5-0.7-0.7-1.1-7.2-14.2-15.4-27.8-23.2-41.7-1.9-3.3-4.6-5.8-8.5-6.6-7.8-1.6-13.9 2.2-16.3 10.1-5.2 17.5-10.3 35.1-15.5 52.6-1 3.4-1.8 6.9-3.2 10.2 0-166 0-331.9 0-497.9 0-1.2 0.3-1.5 1.5-1.5 245.4 0 490.8 0 736.1 0 1.2 0 1.5 0.3 1.5 1.5q0 275.6 0 551.1c0 1.2-0.3 1.5-1.5 1.5-171 0-342 0-513.1 0 2.2-0.9 3.7-2.6 4.7-4.7 1.8-3.5 3.7-6.9 5.5-10.4 1.7-3.2 3.3-6.4 5-9.8q0.3 0.6 0.3 0.9c1.7 7.4 3.9 14.7 5.8 22.1 0.2 1 0.6 1.3 1.6 1.3 3.3-0.1 6.5-0.1 9.8 0 1.1 0 1.2-0.3 0.9-1.3-3.2-11.2-6.4-22.4-9.7-33.6-0.4-1.5-1.1-2.9-2.4-4-3.8-3.1-8.9-1.9-11.5 2.7-4.1 7.3-8.3 14.4-12.1 21.8-0.1 0.3-0.2 0.6-0.6 0.6-3.9-7.6-8.3-15-12.5-22.6-1.6-2.9-4-4.5-7.3-4.2-3.5 0.3-5.6 2.3-6.6 5.7-3.2 11.1-6.5 22.2-9.8 33.3-0.4 1.3-0.1 1.5 1.1 1.5q4.7-0.1 9.3 0c1.1 0 1.5-0.4 1.7-1.4 1.3-5 2.6-9.9 3.9-14.8 0.7-2.6 1.3-5.3 2-8.1 3.5 6.7 7 13.2 10.4 19.7 1.4 2.7 2.8 4.6 5.2 5.6zm307.3-462.7c0-0.1 0-0.2-0.1-0.2-0.1 0-0.1 0.1-0.2 0.1 0.1 0 0.2 0 0.3 0.1 0.1 0.2 0.3 0.4 0.4 0.5q3.2 3.5 6.3 6.9c2.6 3 4.3 6.4 4.8 10.4 0.7 4.6 0.2 9.3 0.3 13.9 0.1 2.2-0.3 4.4-1.1 6.4-3.2 7.9-5.3 16.1-7.5 24.3-1.2 4.5-3.3 8.6-6.5 12.1-5.3 5.9-10.7 11.7-16.1 17.6-0.2 0.2-0.3 0.6-0.8 0.4-0.5-11.7-1.1-23.3-1.6-35-0.3 0.2-0.4 0.3-0.4 0.4-2.3 12.4-4.6 24.7-7 37.1-0.3 1.5-0.1 2.6 0.8 3.9 8 10.5 8.5 21.9 1.7 33.2-4.6 7.6-10.9 13.4-18 18.5-0.4 0.3-1 0.4-1.1 1.1 4.3-0.3 8.4-0.6 12.5-0.9 1.5-0.1 1.5 0.4 1.1 1.5-0.8 1.9-1.8 3.7-2.9 5.5-4.6 7.3-9.7 14.1-14.9 20.9-0.3 0.4-0.7 0.7-0.8 1.4 2.4-0.5 4.7-1 7-1.5 1.1-0.3 1.3 0 1 1-0.5 2.2-1 4.3-1.5 6.5-3.4 14.1-7.3 28-13.1 41.3-0.8 1.7-1.3 3.6-2.6 5l-0.1-0.1c0-0.4 0-0.9 0.1-1.3 3.3-15 4.3-30.2 2.6-45.5-1.3-11.8-4.1-23.2-9-34.1-0.4-0.8-0.6-1.7-1.5-2.5 1.4 8.2 2.5 16.2 3.3 24.3 1.3 13.4 1.9 26.9-0.1 40.3-1.1 7.5-3.2 14.6-8 20.6-0.5 0.7-0.5 1.4-0.5 2.1 0 12.5 0 25.1 0 37.6 0 0.5 0 1 0 1.8 0.6-0.3 1-0.5 1.4-0.7 30.9-17.9 61.9-35.7 92.9-53.6 1.3-0.8 1.7-1.6 1.7-3.1 0-67.8 0-135.7 0-203.5 0-0.4 0-0.8 0-1.1 0.1-0.6-0.2-1-0.7-1.3-7-4-14.1-8.1-21.1-12.1-0.4-0.2-0.7-0.4-1-0.2zm-50.4-29.3c-0.4-0.3-0.8-0.5-1.2-0.8-34.8-20.1-69.5-40.1-104.3-60.2-1-0.6-1.7-0.5-2.6 0-13 7.5-26 15.1-39.1 22.6-46 26.6-92.1 53.2-138.2 79.7-1 0.6-1.3 1.2-1.3 2.3 0 15.4 0 30.8 0 46.1q0 23.3 0 46.5c0.4-1.4 1.6-1.1 2.5-1.1 3.9-0.2 7.8-0.4 11.8-0.5 1.1 0 1.5-0.4 1.8-1.4 1.1-3.9 2.3-7.7 3.5-11.6 0.7-2.3 2.5-3.2 4.8-2.6 0.6 0.2 1.3 0.4 1.9 0.6 3.1 0.9 3.9 2.6 3 5.7-4.2 14.1-8.5 28.1-12.7 42.2-1.5 5.1-2.7 5.7-7.8 4-2.6-0.9-3.5-2.5-2.7-5.2 1.3-4.4 2.6-8.8 4-13.1 0.5-1.4 0-1.6-1.2-1.7-2.3-0.2-4.6-0.5-6.8-0.8-2-0.3-2-0.3-2 1.8 0 31.7 0 63.5 0 95.2 0 1.6 0.5 2.4 1.9 3.2 20.7 11.9 41.4 23.9 62.2 35.8 38.1 22 76.2 44 114.3 66.1 1.2 0.7 2 0.6 3.1 0 6.1-3.6 12.2-7.1 18.4-10.7 2.9-1.7 3-1.7 1.5-4.7-9.8-21-18.2-42.7-26.3-64.4-0.3-0.8-0.2-1.3 0.4-2q4.2-4.5 8.4-9c0.6-0.7 1.2-0.9 2.1-0.7 9.3 2 18.6 3 28.1 1.5 13.7-2.1 23.1-11.1 25.7-24.7 0.4-2.1 0.7-4.2 0.4-6.3-0.4 0.5-0.7 0.9-0.9 1.4-5 9.5-12.3 16.4-22.8 19.6-7.9 2.4-15.8 2.1-23.8 0.5-4.3-0.9-4.3-1-3.4-5.4 0.7-3.3 1.3-6.7 1.9-10-0.7 0.5-1.1 1.1-1.4 1.8-3.2 5.7-7.2 10.8-11.8 15.4-8.6 8.5-18.7 14.6-29.9 18.9-12.2 4.8-24.9 7.4-37.9 8.6-8.1 0.8-15.3-1-21.4-6.5-6.4-5.8-13-11.1-20-16-3.1-2.2-5.2-5-6.8-8.4-5.6-11.9-10.2-24.2-14.8-36.4-3.1-8.3-5.7-16.8-10.8-24.2-0.5-0.7-0.8-1.7-1-2.6-1.2-4.3-1.3-8.7-0.4-13.1 0.7-3.5 1.9-6.7 4.5-9.3 2.1-2.1 3.6-4.5 4.7-7.2 1.8-4.4 2.6-9.1 2.9-13.9 0.1-1.1 0.3-1.4 1.5-1.1 7.7 2.1 15.5 4.1 23.2 6.2 0.6 0.2 1.3 0.1 1.7 0.7-2.7 3.2-3.1 7.1-3.4 11.1q-0.4 6.3 0.3 12.6c0.1 1.1 0 1.6-1.3 1.8-2.2 0.3-4.3 0.9-6.2 1.9-3 1.5-5.4 3.5-5.7 7.1-0.4 4.8 1.4 9.2 5 12.1 13.8 11.1 27.9 21.8 41.9 32.7 0.9 0.7 1.7 0.7 2.6 0.2 1.4-0.7 1.8-2 1.6-3.5-0.3-2.8-0.4-5.5-0.9-8.3-0.6-3.8 0.3-7 3.1-9.7 4.7-4.5 12.6-5.2 18.9-1.6 4 2.3 6.3 5.9 8.7 9.6 1.2 1.9 2.4 3.7 3.8 5.7 1.6-2.6 1.6-5 0.7-7.5-2.6-7.1-4.6-14.3-4.8-21.9-0.4-13.1 6.2-22.6 18.7-26.5 6.8-2.1 13.9-2.7 21-2.1 1.4 0.1 1.5 0.4 0.9 1.6-2.1 4.1-4.2 8.3-5.7 12.6-0.6 1.8-1.2 3.6-1.3 5.5-0.1 1.1-0.1 2.5 1.1 3 1.3 0.6 2.7 0.2 3.7-0.8 0.2-0.2 0.5-0.5 0.6-0.7 0.9-1.2 1.8-2.3 2.6-3.6 7.3-11.4 13.6-23.3 20-35.2 0.9-1.6 0.4-2.7-1.4-3.2-1.6-0.4-3.1-0.2-4.7 0.1-6 1.4-11.4 4.2-16.8 7.1-0.8 0.4-1.2 0.5-1.9-0.3-6.9-7.8-13.9-15.5-20.8-23.3-0.5-0.6-0.7-1.2-0.5-1.9 0.4-2.3 0.9-4.6 1.1-6.9 0.3-3.6 0.5-7.3-0.6-10.9-0.7-2.3-1.9-4.3-4.5-4.9-0.7-0.2-0.7-0.6-0.6-1.1 0.2-2.2 0.5-4.3 0.7-6.5 0.7-7.9 2.1-15.7 2.1-23.6 0-2.4 0.8-4.6 2-6.7 2.9-5.1 7.5-8.3 12.7-10.5 9.7-4.2 19.9-5.2 30.3-3.9 5.3 0.7 10.4 2.1 14.9 5 5.1 3.3 7.8 7.8 7.7 14.1-0.2 6.7 0.3 13.3 1.6 19.8 1.4 7.4 5.2 13 12.4 15.8 2.8 1.1 5.7 1.7 8.7 2.1 7.5 0.9 14.9 0.7 22.3-0.3 1.1-0.1 2.1 0 3 0.8 1.2 0.9 2.4 1.9 3.9 2.6 0.3-5-1.8-8.3-6.2-10.2-1.7-0.7-3.5-1.2-5.3-1.4-5.4-0.8-10.8-0.4-16.1 0.6-1.5 0.3-1.9-0.1-1.7-1.6 0.3-3.1 0.7-6.2 1.8-9.1 3.2-8.6 9.8-13.3 18.4-15.7 9.1-2.6 18.4-2.4 27.7-1.2 2.4 0.3 4.8 0.8 7.3 1.1-3.4-2-6.8-3.6-10.3-5.3-3.5-1.7-3.8-2.6-1.4-5.9 0.3-0.4 0.6-0.8 1-1.1 2.8-2.9 6.3-4.4 10-5.7 7.3-2.5 14.8-3.5 22.8-4.1-0.7-0.2-1.1-0.4-1.4-0.4-5.8-1.1-11.6-2.3-17.5-3.3-1.4-0.3-2.4-0.8-3.4-1.9-8.3-9.6-16.6-19.3-25-28.7-2.5-2.8-4.1-5.5-3.5-9.2 0.1-0.5 0-1.1 0-1.6 0.2-1.4-0.5-1.6-1.6-1.1-4.4 1.6-7.6 4.8-10.7 8.2-0.3 0.3-0.3 0.8-0.5 1.2-4.1 13.1-8.3 26.1-12.4 39.2-1 3-4 4.1-6.7 2.3-0.9-0.6-1.6-1.4-2.3-2.3-0.7-0.9-0.9-1.8-0.6-3 2.3-7.4 4.5-14.9 6.7-22.4 0.8-2.5 1.5-5.1 2.3-7.7-0.8 0.2-0.9 0.7-1.1 1.1-2.5 3.9-5.1 7.8-7.6 11.7-0.6 0.9-1.1 1.1-2.1 0.7-5.3-2.2-10.6-4.3-15.9-6.4-1.2-0.5-1.1-0.9-0.5-1.9 2-3 3.9-6 5.9-9 0.6-0.9 0.8-1.7 0.9-2.7 0.3-4.5 0.6-8.9 0.9-13.4 0.1-0.9 0.4-1.4 1.1-1.8 1.9-1 3.9-1.9 6-2.6 11.5-3.8 23.5-4.7 35.5-4.5 2.7 0 5.1 1.1 7.3 2.5 4.1 2.4 8.9 4.5 13.8 6.3zm163.3 438.3c0.7 0 1.1 0 1.4 0 22.9 0 45.7 0 68.6 0 4.5 0 9-0.6 13.4-1.9 7-2.2 12.4-6 14.7-13.3 1-3.2 1.2-6.4 1.2-9.7-0.1-7.4-3.4-12.7-10.1-15.8-4.8-2.3-10-3-15.3-3-13.4 0-26.7 0-40.1 0-2.2 0-4.5 0.1-6.6-0.8-1.9-0.8-2.7-2.2-2.6-4.6 0.1-2.1 0.9-3.3 2.8-4 1.4-0.5 3-0.7 4.5-0.7 16.5 0 33.1 0 49.6 0 1 0 1.7-0.3 2.3-1.1q6.3-8.3 12.6-16.5c0.3-0.4 0.8-0.7 0.7-1.4-0.3 0-0.5 0-0.7 0q-32.4 0-64.8 0c-4.2 0-8.3 0.6-12.3 1.7-10.8 3-16.4 9.9-16.6 20.6-0.1 6.8 2.1 12.5 7.9 16.5 5 3.4 10.8 4.7 16.8 4.7 14.1 0.1 28.3 0.1 42.4 0.1 1.5 0 3.1 0.1 4.5 0.6 2.1 0.7 3.1 2 3.2 4.4 0.1 2.5-0.8 4-2.9 4.8-1.6 0.6-3.2 0.7-4.8 0.7q-26.8 0-53.7 0c-1 0-1.7 0.2-2.3 1.1-4 5.3-8.1 10.4-12.1 15.7-0.6 0.4-1.1 1-1.7 1.9zm-393.3-0.3c0.4 0.4 0.7 0.3 1 0.3 23 0 45.9 0 68.9 0 4.7 0 9.5-0.6 14-2.2 4.9-1.7 9.1-4.1 11.9-8.6 2.8-4.5 3.5-9.6 3.2-14.8-0.4-7.2-3.8-12.4-10.4-15.3-4.8-2.1-9.8-2.9-15-2.9-13.4 0-26.7 0-40.1 0-2.1 0-4.3 0-6.3-0.7-2-0.7-2.9-2.1-2.9-4.4 0-2.4 0.8-3.6 2.9-4.4 1.4-0.5 2.9-0.6 4.3-0.6 16.5 0 33.1 0 49.6 0 1 0 1.7-0.3 2.3-1.1q6.3-8.3 12.6-16.5c0.3-0.4 0.8-0.7 0.7-1.4-0.3 0-0.6 0-0.8 0-21.5 0-43.1 0-64.6 0-5.8 0-11.5 0.9-16.9 3.3-5.2 2.3-9 6-10.9 11.5-1.1 3.1-1.4 6.4-1.1 9.7 0.5 6.9 3.6 12.1 9.8 15.4 4.6 2.5 9.6 3.5 14.8 3.6 14.2 0.1 28.4 0.1 42.5 0.1 1.5 0 3.1 0.2 4.5 0.6 2 0.7 3 2 3 4.2 0.1 2.7-0.7 4.1-2.8 5-1.6 0.6-3.2 0.7-4.8 0.7q-26.9 0-53.7 0c-1.1 0-1.8 0.3-2.4 1.2-3.4 4.5-6.9 9-10.4 13.5-0.9 1.2-1.9 2.5-2.9 3.8zm387.8-18.6c-4.3 0-8.3 0-12.2 0q-24.2 0-48.3 0c-1.1 0-1.9 0-1.8-1.5 0.1-2.2 0.1-4.4 0-6.5-0.1-1.4 0.3-1.8 1.8-1.8 13.9 0.1 27.7 0 41.6 0.1 1.1 0 1.8-0.3 2.5-1.2 3.7-4.8 7.4-9.5 11.1-14.2 0.3-0.3 0.8-0.6 0.6-1.4-0.6 0-1.2 0-1.7 0-17.8 0-35.7 0-53.5 0-0.4 0-0.8 0-1.1 0-0.8 0.1-1.1-0.3-1-1 0-1.9 0.1-3.8 0-5.7-0.1-1.6 0.5-1.8 1.9-1.8 14.6 0 29.1 0 43.7 0.1 1.2 0 2-0.4 2.7-1.3 4.1-5.4 8.2-10.7 12.3-16.1 0.3-0.4 0.9-0.8 0.8-1.6-0.4 0-0.8-0.1-1.1-0.1-27.2 0-54.3 0-81.5 0-1.5 0-1.5 0.6-1.5 1.7 0 23.2 0 46.4 0 69.5 0 1.5 0.4 1.8 1.8 1.8 21.7 0 43.3-0.1 65 0 2.6 0 4.1-0.7 5.7-2.8 3.7-5.4 7.8-10.5 12.2-16.2zm-494.3-31c0 6.5-0.1 13.1 0 19.6 0.2 11 4.7 19.5 14.6 24.8 3.6 1.9 7.4 3.2 11.3 4.2 6.8 1.6 13.7 2.2 20.7 2.4 8.5 0.2 17-0.2 25.3-2.5 6.7-1.8 12.7-4.8 17.3-10.3 5-5.9 6.5-13 6.5-20.4 0.1-13.1 0-26.3 0-39.4 0-1.2-0.3-1.6-1.5-1.6q-9.8 0.1-19.5 0c-1.5 0-1.9 0.4-1.9 1.9 0.1 13.3 0 26.5 0 39.8 0 6.1-2.7 10.1-8 12-1 0.3-2 0.6-3 0.8-6.5 1.2-13.1 1.1-19.7 0.7-4-0.2-8-0.5-11.9-1.7-4.3-1.3-7-4.1-7.6-8.6-0.2-1.3-0.2-2.7-0.2-4.1 0-13 0-26 0-38.9 0-1.3-0.3-1.8-1.7-1.8-6.4 0.1-12.8 0.1-19.1 0-1.3 0-1.8 0.3-1.7 1.7 0.1 7.1 0.1 14.3 0.1 21.4zm310.8 31c-1.1 0-1.7 0-2.3 0-16.4 0-32.8 0-49.3 0-4.2 0-8.1-0.8-11.8-2.7-10-5.1-12.4-17.3-5-25.7 4.3-4.7 9.9-6.6 16.2-6.7 12.1-0.1 24.1 0 36.2 0 1 0 1.6-0.2 2.2-1 4.1-5.4 8.3-10.8 12.4-16.3 0.4-0.5 1-0.9 0.9-1.7-0.3 0-0.7-0.1-1-0.1-17.3 0-34.7-0.1-52 0-8 0-15.6 1.9-22.8 5.6-21.2 10.8-25.5 38-8.6 54.7 8.8 8.7 19.8 12.4 31.9 12.6 12.4 0.3 24.9 0.1 37.3 0.1 0.9 0 1.4-0.3 1.9-0.9q4.5-5.9 9-11.7c1.4-1.9 3-3.9 4.8-6.2zm89 0c-0.9 0-1.5 0-2.1 0-17.5 0-34.9 0-52.4 0-2.4 0-2.1 0.3-2.1-2.1q0-25.2 0-50.4c0-1.3-0.3-1.7-1.6-1.7-6.5 0.1-13.1 0.1-19.6 0-1 0-1.5 0.1-1.5 1.4q0 35.1 0 70.2c0 1.1 0.3 1.5 1.5 1.5q30.9 0 61.8 0c0.9 0 1.5-0.3 2-1 3.7-4.8 7.5-9.6 11.2-14.5 1-1 1.8-2.1 2.8-3.4zm-42.9 42.7c1 0 1.6 0 2.2 0 10.9 0 21.7 0 32.6 0 1.4 0 2.7 0.1 4 0.6 1.6 0.7 2.6 1.8 2.7 3.6 0.1 1.8-0.8 3-2.4 3.8-1.6 0.9-3.4 1-5.2 1-10.7 0-21.5 0-32.2 0-1.1 0-1.5 0.2-1.5 1.4 0.1 5.9 0 11.8 0 17.7 0 1 0.2 1.3 1.3 1.3 3.3-0.1 6.5-0.1 9.8 0 1.2 0 1.4-0.4 1.3-1.4 0-2.6 0-5.1 0-7.7 0-1.1 0.3-1.5 1.5-1.5 5.3 0.1 10.7 0 16 0 0.9 0 1.5 0.2 2.1 1 2.4 2.9 4.9 5.7 7.2 8.7 0.6 0.7 1.2 1 2.1 1 4.5 0 9.1 0 13.6 0 0.5 0 0.9 0 1.7 0-4.2-4.6-8.2-8.9-12.6-12.9 0.7-0.2 1.2-0.4 1.6-0.5 4.8-1.7 7.6-5.2 8.3-10.2 0.7-4.9-0.8-9.1-4.8-12.1-3.5-2.6-7.7-3.6-12-3.9-9.4-0.5-18.8-0.1-28.1-0.2-0.6 0-1 0.1-1.4 0.6-2.5 3-5.1 6.2-7.8 9.7zm-19.3 19.1c-1 0-1.6 0-2.2 0-9.4 0-18.8 0-28.1 0-3.5 0-3.4 0-3.6-3.6-0.1-1.5 0.5-1.8 1.8-1.7 7 0.1 14.1 0 21.1 0 0.6 0 1.3 0.2 1.7-0.3 2.3-2.8 4.5-5.7 6.9-8.8-1 0-1.6 0-2.1 0-8.8 0-17.6 0-26.3 0-3 0-3 0-3.1-2.9 0-1.3 0.3-1.7 1.7-1.7 7.5 0.1 14.9 0 22.4 0 0.6 0 1.4 0.2 1.8-0.4 2.6-3.3 5.1-6.6 7.7-10-0.4-0.1-0.5-0.2-0.6-0.2-14.8 0-29.6 0-44.3 0-1 0-1.1 0.4-1.1 1.3q0 18.7 0 37.5c0 1 0.3 1.2 1.2 1.2 12.1 0 24.1 0 36.2 0 0.6 0 1 0 1.4-0.5 2.4-3.4 4.9-6.5 7.5-9.9zm-135.8 10.1c-0.2-0.3-0.2-0.5-0.3-0.7-8.2-11.9-16.5-23.9-24.7-35.8-1.4-2-3.3-3.4-5.9-3.8-4.4-0.7-7.4 1.3-9.9 4.7q-11 15.5-21.9 30.9c-1.1 1.5-2.1 3-3.3 4.7 4.6 0 8.9 0 13.2 0 1.1 0 1.8-0.4 2.4-1.3 5.5-7.9 11.1-15.7 16.7-23.7 0.9-1.3 1.3-1.1 2.1 0.1 2.8 4.3 5.7 8.5 8.6 12.7 0.4 0.6 0.8 1.1 1.2 1.8-5.3 0-10.4 0-15.5 0-0.6 0-1.2-0.2-1.7 0.4-2.3 3.2-4.6 6.4-7.1 9.8 15.4 0.2 30.6 0.2 46.1 0.2zm320.9-23.8q-36.8 0-73.5 0c-0.3 0-0.6 0-0.8 0-1.6-0.3-2.3 0.2-2.1 2 0.2 1.3 0 2.7 0 4.1 0 2.4-0.3 2.1 2.1 2.1 49.5 0 98.9 0 148.4 0 0.3 0 0.5 0 0.8 0 1 0.1 1.4-0.2 1.3-1.3q-0.2-2.5 0-5.1c0.1-1.5-0.4-1.9-1.9-1.9-24.6 0.1-49.4 0.1-74.3 0.1zm-288.6 7.3c0.3 0.1 0.4 0.2 0.5 0.3 5.8 5.1 11.6 10.2 17.4 15.4 0.8 0.7 1.6 1 2.6 1 5.2-0.1 10.4 0 15.5 0 0.4 0 1 0.2 1.4-0.3-0.2-0.1-0.3-0.3-0.5-0.4-8.3-6.5-16.3-13.3-24.8-19.5-0.5-0.4-1.4-0.7-0.3-1.4 7.9-5.3 15.2-11.3 22.9-16.9 0.4-0.3 1-0.6 1.3-1.3-5.8 0-11.4 0-17 0-0.6 0-1 0.3-1.4 0.7-5.5 4.8-11.3 9.3-16.6 14.3-0.3 0.3-0.6 0.8-1.1 0.8 0-4.8 0-9.5 0-14.3 0-1-0.1-1.5-1.3-1.5-3.3 0.1-6.7 0.1-10 0-0.9 0-1.2 0.3-1.2 1.2q0 18.8 0 37.5c0 0.9 0.3 1.2 1.2 1.2 3.2 0 6.4-0.1 9.7 0 1.3 0 1.7-0.3 1.6-1.6 0.1-5.1 0.1-10.1 0.1-15.2z"/><path class="b" d="m1.5 509.4c1.4-3.3 2.2-6.8 3.2-10.2 5.2-17.5 10.3-35.1 15.5-52.6 2.3-8 8.5-11.8 16.3-10.1 3.9 0.8 6.6 3.3 8.5 6.6 7.8 13.8 16 27.5 23.2 41.7 0.2 0.4 0.3 0.8 0.7 1.1 2.1-3.9 4.1-7.8 6.2-11.6q8.5-15.2 17.1-30.3c4.3-7.6 12.7-10 19.5-5.7 3 1.9 4.7 4.7 5.6 8 6 20.9 12 41.7 18 62.6 0.4 1.5 0.1 1.8-1.4 1.8-6.4-0.1-12.8-0.1-19.1 0-1.3 0-1.7-0.4-2.1-1.6-3.6-14.3-8.1-28.4-11.2-42.8 0-0.1-0.2-0.2-0.4-0.5-0.8 1.7-1.7 3.3-2.4 4.9-5.6 11.5-11.8 22.7-17.8 34-3 5.6-7.6 7.6-13.8 7.2-5.4-0.3-8.9-3-11.3-7.5-6.6-12.6-13.5-25-19.8-37.8-0.1-0.3-0.1-0.7-0.7-0.7-1.6 7.2-3.4 14.3-5.4 21.4-2 7.4-4 14.7-5.9 22.1-0.3 1-0.7 1.4-1.8 1.3-6.9 0-13.9 0-20.8 0 0.1-0.7 0.1-1 0.1-1.3z"/><path class="c" d="m220.8 564c-2.4-1-3.8-3-4.9-5.2-3.4-6.5-6.8-13-10.4-19.7-0.7 2.8-1.4 5.5-2 8.1-1.3 4.9-2.7 9.9-3.9 14.8-0.3 1-0.6 1.4-1.7 1.4q-4.6-0.2-9.3 0c-1.2 0-1.5-0.2-1.1-1.5 3.3-11.1 6.6-22.2 9.8-33.3 1-3.3 3-5.4 6.6-5.7 3.4-0.3 5.7 1.4 7.3 4.2 4.2 7.5 8.6 14.9 12.5 22.6 0.5 0 0.5-0.4 0.6-0.6 3.8-7.4 8.1-14.6 12.1-21.8 2.6-4.6 7.7-5.8 11.5-2.7 1.3 1 2 2.5 2.4 4 3.2 11.2 6.4 22.4 9.7 33.6 0.3 1 0.2 1.3-0.9 1.3-3.3-0.1-6.5-0.1-9.8 0-1 0-1.4-0.3-1.6-1.3-1.9-7.4-4.1-14.7-5.8-22.1-0.1-0.3-0.2-0.5-0.3-0.9-1.7 3.4-3.4 6.6-5 9.8-1.8 3.5-3.7 6.9-5.5 10.4-1.1 2.1-2.5 3.8-4.7 4.7-2.1-0.1-3.9-0.1-5.6-0.1z"/><path class="c" d="m1.5 539.5c50.2 0 100.5 0 150.7 0 1.6 0 2.1 0.4 1.9 2-0.1 1.6-0.1 3.3 0 4.9 0 1-0.2 1.4-1.3 1.3-0.4-0.1-0.9 0-1.3 0q-74 0-147.9 0-1.1 0-2.1 0c0-2.8 0-5.5 0-8.2z"/><path fill-rule="evenodd" class="b" d="m477.7 72c-4.9-1.8-9.6-3.9-13.9-6.7-2.2-1.5-4.7-2.5-7.3-2.5-12-0.1-24 0.8-35.5 4.5-2.1 0.7-4.1 1.6-6 2.6-0.7 0.4-1.1 0.9-1.1 1.8-0.3 4.5-0.6 8.9-0.9 13.4-0.1 1-0.3 1.9-0.9 2.7-2 3-3.9 6.1-5.9 9-0.6 0.9-0.7 1.4 0.5 1.9 5.3 2.1 10.6 4.2 15.9 6.4 1 0.4 1.5 0.2 2.1-0.7 2.5-3.9 5-7.8 7.6-11.7 0.3-0.4 0.4-0.9 1.1-1.1-0.8 2.7-1.5 5.2-2.3 7.7-2.2 7.5-4.4 14.9-6.7 22.4-0.4 1.2-0.2 2.1 0.6 3 0.7 0.8 1.4 1.7 2.3 2.3 2.6 1.7 5.7 0.7 6.7-2.3 4.1-13.1 8.3-26.1 12.4-39.2 0.1-0.4 0.2-0.9 0.5-1.2 3.1-3.3 6.3-6.5 10.7-8.2 1.2-0.4 1.8-0.3 1.6 1.1-0.1 0.5 0.1 1.1 0 1.6-0.7 3.8 1 6.5 3.5 9.2 8.5 9.5 16.7 19.1 25 28.7 1 1.1 2 1.7 3.4 1.9 5.8 1.1 11.7 2.2 17.5 3.3 0.4 0.1 0.7 0.2 1.4 0.4-8 0.6-15.5 1.6-22.8 4.1-3.7 1.3-7.2 2.8-10 5.7-0.3 0.4-0.7 0.7-1 1.1-2.4 3.2-2.2 4.2 1.4 5.9 3.5 1.7 6.9 3.4 10.3 5.3-2.4-0.4-4.8-0.8-7.3-1.1-9.3-1.2-18.6-1.4-27.7 1.2-8.5 2.4-15.1 7.1-18.4 15.7-1.1 2.9-1.5 6-1.8 9.1-0.1 1.5 0.2 1.8 1.7 1.6 5.3-1 10.7-1.3 16.1-0.6 1.8 0.3 3.6 0.7 5.3 1.4 4.4 1.9 6.5 5.2 6.2 10.2-1.5-0.7-2.7-1.7-3.9-2.6-0.9-0.7-1.9-0.9-3-0.8-7.4 1-14.9 1.2-22.3 0.3-3-0.4-5.9-1-8.7-2.1-7.2-2.9-10.9-8.4-12.4-15.8-1.3-6.6-1.7-13.2-1.6-19.8 0.2-6.2-2.6-10.7-7.7-14.1-4.5-2.9-9.6-4.4-14.9-5-10.4-1.3-20.6-0.3-30.3 3.9-5.2 2.3-9.8 5.4-12.7 10.5-1.2 2.1-2 4.3-2 6.7 0 7.9-1.5 15.7-2.1 23.6-0.2 2.2-0.5 4.3-0.7 6.5-0.1 0.5-0.1 0.9 0.6 1.1 2.6 0.6 3.8 2.6 4.5 4.9 1.1 3.6 0.9 7.2 0.6 10.9-0.2 2.3-0.7 4.6-1.1 6.9-0.1 0.8 0 1.3 0.5 1.9 7 7.7 13.9 15.5 20.8 23.3 0.6 0.7 1.1 0.7 1.9 0.3 5.3-3 10.8-5.7 16.8-7.1 1.5-0.4 3.1-0.5 4.7-0.1 1.8 0.5 2.3 1.6 1.4 3.2-6.4 11.9-12.7 23.9-20 35.2-0.8 1.2-1.7 2.4-2.6 3.6-0.2 0.3-0.4 0.5-0.6 0.7-1.1 1.1-2.4 1.4-3.7 0.8-1.2-0.5-1.2-1.9-1.1-3 0.1-1.9 0.7-3.7 1.3-5.5 1.5-4.4 3.5-8.5 5.7-12.6 0.6-1.2 0.5-1.5-0.9-1.6-7.1-0.5-14.2 0-21 2.1-12.5 3.9-19.1 13.3-18.7 26.5 0.2 7.6 2.2 14.8 4.8 21.9 0.9 2.5 0.8 5-0.7 7.5-1.3-2-2.5-3.9-3.8-5.7-2.4-3.7-4.7-7.3-8.7-9.6-6.2-3.5-14.2-2.9-18.9 1.6-2.8 2.7-3.6 5.9-3.1 9.7 0.4 2.7 0.6 5.5 0.9 8.3 0.1 1.5-0.3 2.7-1.6 3.5-0.9 0.5-1.7 0.5-2.6-0.2-14-10.9-28.1-21.6-41.9-32.7-3.6-2.9-5.4-7.3-5-12.1 0.3-3.5 2.7-5.6 5.7-7.1 2-1 4.1-1.6 6.2-1.9 1.3-0.2 1.4-0.8 1.3-1.8q-0.7-6.3-0.3-12.6c0.3-3.9 0.7-7.8 3.4-11.1-0.4-0.6-1.2-0.5-1.7-0.7-7.7-2.1-15.5-4-23.2-6.2-1.2-0.3-1.5-0.1-1.5 1.1-0.3 4.8-1.1 9.4-2.9 13.9-1.1 2.7-2.6 5.1-4.7 7.2-2.6 2.5-3.8 5.8-4.5 9.3-0.9 4.4-0.8 8.8 0.4 13.1 0.3 0.9 0.5 1.8 1 2.6 5.1 7.4 7.7 15.9 10.8 24.2 4.6 12.3 9.2 24.6 14.8 36.4 1.6 3.4 3.6 6.2 6.8 8.4 7 4.9 13.7 10.3 20 16 6 5.5 13.3 7.3 21.4 6.5 13-1.3 25.7-3.8 37.9-8.6 11.2-4.4 21.3-10.5 29.9-18.9 4.6-4.6 8.6-9.7 11.8-15.4 0.4-0.6 0.7-1.3 1.4-1.8-0.6 3.3-1.2 6.7-1.9 10-0.9 4.4-0.9 4.4 3.4 5.4 7.9 1.7 15.9 1.9 23.8-0.5 10.5-3.1 17.7-10.1 22.8-19.6 0.3-0.5 0.5-0.9 0.9-1.4 0.3 2.1 0 4.3-0.4 6.3-2.6 13.6-12 22.5-25.7 24.7-9.5 1.5-18.8 0.5-28.1-1.5-1-0.2-1.5 0-2.1 0.7-2.8 3-5.5 6-8.4 9-0.6 0.7-0.7 1.2-0.4 2 8.1 21.7 16.5 43.3 26.3 64.4 1.4 3 1.4 3.1-1.5 4.7-6.1 3.5-12.3 7.1-18.4 10.7-1.1 0.6-1.9 0.7-3.1 0-38.1-22-76.2-44-114.3-66.1-20.7-12-41.4-23.9-62.2-35.8-1.3-0.8-1.9-1.6-1.9-3.2 0.1-31.7 0-63.5 0-95.2 0-2.1 0-2 2-1.8 2.3 0.3 4.5 0.6 6.8 0.8 1.2 0.1 1.7 0.3 1.2 1.7-1.4 4.3-2.7 8.7-4 13.1-0.8 2.7 0.1 4.3 2.7 5.2 5.1 1.7 6.3 1.1 7.8-4 4.2-14.1 8.4-28.1 12.7-42.2 0.9-3.1 0.1-4.8-3-5.7-0.6-0.2-1.2-0.4-1.9-0.6-2.3-0.6-4.1 0.3-4.8 2.6-1.2 3.8-2.4 7.7-3.5 11.6-0.3 1-0.7 1.4-1.8 1.4-3.9 0.1-7.8 0.3-11.8 0.5-0.9 0.1-2.1-0.3-2.5 1.1q0-23.3 0-46.5c0-15.4 0-30.8 0-46.1 0-1.1 0.3-1.7 1.3-2.3 46.1-26.6 92.1-53.1 138.2-79.7 13-7.5 26-15 39.1-22.6 0.9-0.5 1.6-0.6 2.6 0 34.8 20.1 69.5 40.2 104.3 60.2 0.5 0.6 0.9 0.9 1.3 1.2zm-172.6 178.8c2.1 0 4.3-0.1 6.4 0 0.9 0 1.4-0.3 1.6-1.2 0.9-4.2 1.8-8.4 2.8-12.6 0.2-1-0.1-1.1-0.9-1.3-3.3-0.5-6.5-1.2-9.8-1.6-1.3-0.2-1.7-0.5-1.2-1.8 1.5-4.1 2.9-8.2 4.4-12.3 1.2-3.4 0.5-5-3-6.2-0.4-0.1-0.7-0.2-1.1-0.4-2.8-1-4.6-0.1-5.6 2.7-1.6 4.4-3.1 8.8-4.7 13.2-3.6 10.1-7.1 20.1-10.7 30.2-1 2.7-0.1 4.5 2.7 5.5 0.5 0.2 1 0.3 1.5 0.5 2.9 1 4.6 0.2 5.6-2.7q2-5.6 3.9-11.1c0.3-0.8 0.7-1.2 1.6-1.2 2.2 0.3 4.3 0.3 6.5 0.3zm-67-55.8c0-2.8-2.1-4.8-5.8-5.4-2-0.3-3.5 1-4.3 3.6-5.5 17.7-10.9 35.3-16.3 53-1.6 5.1-0.8 6.6 4.1 8.4 0.2 0.1 0.3 0.1 0.5 0.2 1.2 0.5 2.2 0.1 3.2-0.7 0.9-0.8 1.4-1.8 1.7-2.9 5.5-17.9 11-35.7 16.5-53.6 0.1-0.8 0.4-1.7 0.4-2.6zm51.1 11.5c-0.2-1.9-0.8-3.5-2.8-4.2q-1-0.5-2.1-0.9c-1.8-0.7-3.5-0.1-4.5 1.5-0.3 0.6-0.6 1.2-0.7 1.8-5.5 17.9-11.1 35.8-16.6 53.8-1.2 3.8-0.3 5.7 3.4 7.2 3.3 1.4 5.2 0.6 6.3-2.9 5.6-18 11.1-36.1 16.7-54.1 0.1-0.7 0.3-1.4 0.3-2.2zm85.7-106.3c0 2.6 1.6 4.5 3.9 4.9 2.2 0.4 4.3-1 5-3.5 3.3-10.7 6.5-21.4 9.7-32.2 0.8-2.5-0.7-4.6-3.3-4.8-3.4-0.3-6.2 1.8-6.8 5.2-0.2 1.1-0.5 2.2-0.6 3.4-0.1 1-0.4 1.4-1.5 1.3-2.4-0.3-4.8-0.3-7.2-0.6-1.1-0.1-1.6 0.1-1.9 1.2-1.1 3.8-2.2 7.5-3.3 11.3-0.3 0.9-0.2 1.3 0.9 1.5 2.3 0.4 4.6 0.9 6.9 1.3 1.2 0.2 1.6 0.5 1.1 1.8-0.7 1.7-1.2 3.4-1.7 5.1-0.4 1.4-1 2.9-1.2 4.1zm84.8-11.4c0-1.6-0.8-2.3-1.8-2.7-3.2-1.4-6.8 0.5-8 4.3-3 9.9-5.9 19.8-8.9 29.7-0.8 2.7 0.4 5 2.8 5.7 2.4 0.7 4.6-0.7 5.4-3.4 0.6-2.3 1.3-4.6 1.8-6.9 0.3-1.2 0.8-1.3 1.8-1 1.7 0.5 3.4 0.9 5.1 1.3 2 0.5 3.8-0.4 4.3-2.4 0.6-2.3 1.2-4.5 1.6-6.8 0.5-2.3-1.1-4.2-3.5-4.2-1 0-2 0-2.9 0-1 0.1-1.5-0.1-1.1-1.3 0.5-1.4 0.8-2.9 1.2-4.4 0.8-2.8 1.5-5.5 2.2-7.9zm-73 20.5c0 2.8 1.6 4.4 4.7 4.9 2 0.3 3.9-1 4.6-3.3 4-13.5 8-26.9 12-40.4 0.2-0.7 0.4-1.3 0.3-2.1-0.4-2-1.9-3.4-3.8-3.5-2-0.1-3.6 0.9-4.3 3-3.8 11.7-7.7 23.4-11.5 35.1-0.8 2.3-1.7 4.4-2 6.3z"/><path class="c" d="m528.8 101.5c7 4 14.1 8.1 21.1 12.1 0.5 0.3 0.8 0.7 0.7 1.3 0 0.4 0 0.8 0 1.1 0 67.8 0 135.7 0 203.5 0 1.5-0.4 2.3-1.7 3.1-31 17.8-61.9 35.7-92.9 53.6-0.4 0.2-0.7 0.4-1.4 0.7 0-0.7 0-1.2 0-1.8 0-12.5 0-25.1 0-37.6 0-0.8 0-1.5 0.5-2.1 4.8-6.1 6.9-13.2 8-20.6 2-13.4 1.4-26.8 0.1-40.3-0.8-8.1-2-16.1-3.3-24.3 0.8 0.8 1.1 1.6 1.5 2.5 4.9 10.9 7.7 22.3 9 34.1 1.7 15.3 0.7 30.4-2.6 45.5-0.1 0.4-0.1 0.9-0.1 1.3-0.2 0.1-0.2 0.3-0.2 0.5l0.1 0.1c0.1-0.2 0.1-0.4 0.2-0.5 1.2-1.5 1.8-3.3 2.6-5 5.8-13.3 9.7-27.3 13.1-41.3 0.5-2.2 1-4.3 1.5-6.5 0.2-1 0-1.3-1-1-2.3 0.6-4.6 1-7 1.5 0-0.7 0.5-1 0.8-1.4 5.2-6.8 10.4-13.6 14.9-20.9 1.1-1.8 2.1-3.5 2.9-5.5 0.5-1.1 0.4-1.7-1.1-1.5-4.1 0.4-8.2 0.6-12.5 0.9 0.2-0.7 0.8-0.9 1.1-1.1 7.1-5.1 13.5-10.9 18-18.5 6.8-11.3 6.3-22.7-1.7-33.2-1-1.3-1.1-2.4-0.8-3.9 2.4-12.3 4.7-24.7 7-37.1 0-0.1 0.1-0.3 0.4-0.4 0.5 11.7 1.1 23.3 1.6 35 0.4 0.2 0.6-0.2 0.8-0.4 5.4-5.9 10.8-11.7 16.1-17.6 3.2-3.5 5.2-7.6 6.5-12.1 2.2-8.2 4.4-16.4 7.5-24.3 0.8-2 1.2-4.2 1.1-6.4-0.1-4.6 0.4-9.3-0.3-13.9-0.6-3.9-2.2-7.4-4.8-10.4-2-2.3-4.2-4.6-6.3-6.9 0.4-0.1 0.5-0.2 0.6-0.3z"/><path class="b" d="m641 510.3c0.7-0.9 1.1-1.5 1.6-2.1 4-5.2 8.1-10.4 12.1-15.7 0.6-0.8 1.3-1.1 2.3-1.1q26.8 0 53.7 0c1.6 0 3.3-0.1 4.8-0.7 2.1-0.8 3-2.3 2.9-4.8-0.1-2.4-1-3.7-3.2-4.4-1.5-0.5-3-0.6-4.5-0.6-14.1 0-28.3 0-42.4-0.1-6-0.1-11.7-1.3-16.8-4.7-5.8-3.9-8-9.7-7.9-16.5 0.2-10.7 5.8-17.6 16.6-20.6 4-1.1 8.1-1.7 12.3-1.7q32.4 0 64.8 0c0.2 0 0.4 0 0.7 0 0.1 0.6-0.4 1-0.7 1.4q-6.3 8.2-12.6 16.5c-0.6 0.8-1.3 1.1-2.3 1.1-16.5 0-33.1 0-49.6 0-1.5 0-3.1 0.1-4.5 0.7-1.9 0.7-2.7 1.9-2.8 4-0.1 2.4 0.7 3.8 2.6 4.6 2.1 0.9 4.4 0.8 6.6 0.8 13.4 0 26.7 0 40.1 0 5.3 0 10.4 0.8 15.3 3 6.7 3.1 10 8.5 10.1 15.8 0.1 3.3-0.1 6.5-1.2 9.7-2.3 7.3-7.8 11.1-14.7 13.3-4.3 1.4-8.8 1.9-13.4 1.9-22.9 0.1-45.7 0-68.6 0-0.3 0.2-0.6 0.2-1.3 0.2z"/><path class="b" d="m247.7 510c1-1.3 2-2.6 3-4 3.5-4.5 7-8.9 10.4-13.5 0.7-0.9 1.3-1.2 2.4-1.2q26.8 0 53.7 0c1.6 0 3.3-0.1 4.8-0.7 2.1-0.8 2.9-2.3 2.8-5-0.1-2.2-1-3.5-3-4.2-1.5-0.5-3-0.6-4.5-0.6-14.2 0-28.4 0-42.5-0.1-5.2 0-10.2-1.1-14.8-3.6-6.2-3.3-9.3-8.5-9.8-15.4-0.2-3.3 0-6.5 1.1-9.7 1.9-5.5 5.7-9.2 10.9-11.5 5.4-2.4 11-3.3 16.9-3.3 21.5 0 43.1 0 64.6 0 0.3 0 0.5 0 0.8 0 0.1 0.7-0.4 1-0.7 1.4q-6.3 8.2-12.6 16.5c-0.6 0.8-1.3 1.1-2.3 1.1-16.5 0-33.1 0-49.6 0-1.5 0-2.9 0.1-4.3 0.6-2.1 0.7-2.9 2-2.9 4.4 0 2.3 0.9 3.7 2.9 4.4 2 0.7 4.2 0.7 6.3 0.7 13.4 0 26.7 0 40.1 0 5.2 0 10.2 0.8 15 2.9 6.6 3 10 8.1 10.4 15.3 0.3 5.2-0.4 10.2-3.2 14.8-2.8 4.5-7.1 7-11.9 8.6-4.5 1.5-9.2 2.2-14 2.2-23 0.1-45.9 0-68.9 0-0.3 0.2-0.7 0.3-1.1-0.1z"/><path class="b" d="m635.5 491.4c-4.4 5.6-8.5 10.8-12.4 16.2-1.5 2.1-3.1 2.8-5.7 2.8-21.7-0.1-43.3-0.1-65 0-1.4 0-1.8-0.3-1.8-1.8 0.1-23.2 0-46.4 0-69.5 0-1.1 0-1.7 1.5-1.7 27.2 0.1 54.3 0 81.5 0 0.4 0 0.7 0 1.1 0.1 0.1 0.8-0.5 1.1-0.8 1.6-4.1 5.4-8.3 10.7-12.3 16.1-0.7 1-1.5 1.4-2.7 1.3-14.6 0-29.1 0-43.7-0.1-1.4 0-2 0.2-1.9 1.8 0.2 1.9 0.1 3.8 0 5.7 0 0.8 0.3 1.1 1 1 0.4 0 0.8 0 1.1 0 17.8 0 35.7 0 53.5 0 0.6 0 1.2 0 1.7 0 0.2 0.7-0.3 1-0.6 1.4-3.7 4.7-7.4 9.4-11.1 14.2-0.7 0.9-1.4 1.2-2.5 1.2-13.9 0-27.7 0-41.6-0.1-1.5 0-1.9 0.4-1.8 1.8 0.1 2.2 0.1 4.4 0 6.5-0.1 1.5 0.7 1.5 1.8 1.5q24.2 0 48.3 0c4.1 0 8 0 12.4 0z"/><path class="b" d="m141.2 460.4c0-7.1 0-14.3 0-21.4 0-1.4 0.4-1.7 1.7-1.7 6.4 0.1 12.8 0.1 19.1 0 1.4 0 1.7 0.4 1.7 1.8-0.1 13 0 26 0 38.9 0 1.4 0.1 2.7 0.2 4.1 0.6 4.6 3.3 7.3 7.6 8.6 3.9 1.2 7.9 1.5 11.9 1.7 6.6 0.3 13.2 0.5 19.7-0.7 1-0.2 2-0.5 3-0.8 5.3-1.9 8-5.9 8-12 0-13.3 0-26.5 0-39.8 0-1.5 0.4-1.9 1.9-1.9q9.7 0.2 19.5 0c1.2 0 1.6 0.3 1.5 1.6 0 13.1 0 26.3 0 39.4 0 7.5-1.6 14.5-6.5 20.4-4.6 5.4-10.6 8.4-17.3 10.3-8.3 2.3-16.7 2.7-25.3 2.5-7-0.2-13.9-0.7-20.7-2.4-3.9-0.9-7.7-2.3-11.3-4.2-9.9-5.3-14.4-13.8-14.6-24.8-0.2-6.5-0.1-13-0.1-19.6z"/><path class="b" d="m452 491.4c-1.8 2.3-3.3 4.3-4.9 6.3q-4.5 5.8-9 11.7c-0.5 0.7-1.1 0.9-1.9 0.9-12.4 0-24.9 0.2-37.3-0.1-12.1-0.3-23.1-3.9-31.9-12.6-16.9-16.7-12.5-43.9 8.6-54.7 7.2-3.7 14.8-5.5 22.8-5.6 17.3-0.1 34.7 0 52 0 0.3 0 0.6 0 1 0.1 0.1 0.8-0.6 1.2-0.9 1.7-4.1 5.4-8.3 10.8-12.4 16.3-0.6 0.8-1.2 1-2.2 1-12.1 0-24.1-0.1-36.2 0-6.2 0.1-11.9 1.9-16.2 6.7-7.5 8.3-5.1 20.5 5 25.7 3.7 1.9 7.7 2.7 11.8 2.7 16.4 0 32.8 0 49.3 0 0.7-0.1 1.3-0.1 2.4-0.1z"/><path class="b" d="m541 491.4c-1 1.3-1.8 2.4-2.7 3.4-3.8 4.8-7.5 9.6-11.2 14.5-0.6 0.7-1.1 1-2 1q-30.9 0-61.8 0c-1.1 0-1.5-0.3-1.5-1.5q0-35.1 0-70.2c0-1.3 0.5-1.4 1.5-1.4 6.5 0 13.1 0.1 19.6 0 1.3 0 1.6 0.4 1.6 1.7q0 25.2 0 50.4c0 2.4-0.3 2.1 2.1 2.1 17.5 0 34.9 0 52.4 0 0.5 0 1.1 0 2 0z"/><path class="c" d="m498.1 534.1c2.8-3.5 5.3-6.8 7.7-10 0.4-0.5 0.9-0.6 1.4-0.6 9.4 0.1 18.8-0.3 28.1 0.2 4.3 0.2 8.4 1.2 12 3.9 4.1 3 5.5 7.2 4.8 12.1-0.7 5-3.5 8.5-8.3 10.2-0.5 0.2-0.9 0.3-1.6 0.5 4.4 4.1 8.4 8.3 12.6 12.9-0.8 0-1.3 0-1.7 0-4.5 0-9.1 0-13.6 0-0.9 0-1.5-0.3-2.1-1-2.4-2.9-4.9-5.7-7.2-8.7-0.6-0.7-1.2-1-2.1-1-5.3 0-10.7 0.1-16 0-1.1 0-1.5 0.3-1.5 1.5 0.1 2.6 0 5.1 0 7.7 0 1-0.2 1.5-1.3 1.4-3.3-0.1-6.5-0.1-9.8 0-1 0-1.3-0.4-1.3-1.3 0-5.9 0.1-11.8 0-17.7 0-1.2 0.4-1.4 1.5-1.4 10.7 0 21.5 0 32.2 0 1.8 0 3.6-0.2 5.2-1 1.5-0.8 2.5-1.9 2.4-3.8-0.1-1.8-1.1-2.9-2.7-3.6-1.3-0.5-2.6-0.6-4-0.6-10.9 0-21.7 0-32.6 0-0.5 0.3-1.1 0.3-2.1 0.3z"/><path class="c" d="m478.8 553.2c-2.7 3.4-5.1 6.6-7.5 9.7-0.4 0.5-0.9 0.5-1.4 0.5-12.1 0-24.1 0-36.2 0-0.9 0-1.2-0.2-1.2-1.2q0-18.8 0-37.5c0-0.8 0.1-1.3 1.1-1.3 14.8 0 29.6 0 44.3 0 0.1 0 0.3 0.1 0.6 0.2-2.6 3.4-5.2 6.7-7.7 10-0.5 0.6-1.2 0.4-1.8 0.4-7.5 0-14.9 0-22.4 0-1.4 0-1.7 0.4-1.7 1.7 0.1 2.9 0 2.9 3.1 2.9 8.8 0 17.6 0 26.3 0 0.6 0 1.2 0 2.1 0-2.4 3.1-4.6 5.9-6.9 8.8-0.4 0.5-1.1 0.3-1.7 0.3-7 0-14.1 0-21.1 0-1.4 0-1.9 0.2-1.8 1.7 0.1 3.6 0 3.6 3.6 3.6 9.4 0 18.8 0 28.1 0 0.6 0.2 1.2 0.2 2.2 0.2z"/><path class="c" d="m343 563.3c-15.4 0-30.6 0-46.1 0 2.5-3.4 4.8-6.6 7.1-9.8 0.4-0.6 1.1-0.4 1.7-0.4 5.1 0 10.1 0 15.5 0q-0.8-1-1.2-1.8c-2.9-4.2-5.8-8.4-8.6-12.7-0.8-1.2-1.1-1.4-2.1-0.1-5.5 7.9-11.1 15.8-16.7 23.7-0.6 0.9-1.3 1.3-2.4 1.3-4.3-0.1-8.6 0-13.2 0 1.2-1.7 2.3-3.2 3.3-4.7q10.9-15.5 21.9-30.9c2.4-3.4 5.5-5.4 9.9-4.7 2.6 0.4 4.5 1.8 5.9 3.8 8.3 11.9 16.5 23.8 24.7 35.8 0 0 0.1 0.2 0.3 0.5z"/><path class="c" d="m663.9 539.5q37.2 0 74.4 0c1.5 0 2 0.4 1.9 1.9q-0.2 2.6 0 5.1c0.1 1-0.3 1.4-1.3 1.3-0.3 0-0.5 0-0.8 0-49.5 0-98.9 0-148.4 0-2.3 0-2.1 0.3-2.1-2.1 0-1.4 0.1-2.7 0-4.1-0.2-1.8 0.5-2.2 2.1-2 0.3 0 0.5 0 0.8 0 24.5-0.1 49-0.1 73.4-0.1z"/><path class="c" d="m375.3 546.8q0 7.6 0 15c0 1.3-0.4 1.6-1.6 1.6-3.2-0.1-6.4-0.1-9.7 0-0.9 0-1.2-0.3-1.2-1.2q0-18.7 0-37.5c0-0.9 0.3-1.2 1.2-1.2 3.3 0 6.7 0.1 10 0 1.2 0 1.3 0.5 1.3 1.5 0 4.7 0 9.5 0 14.3 0.5 0.1 0.8-0.5 1.1-0.8 5.4-5 11.1-9.5 16.6-14.3 0.4-0.4 0.9-0.7 1.4-0.7 5.6 0 11.2 0 17 0-0.3 0.7-0.9 1-1.3 1.3-7.6 5.6-15 11.6-22.9 16.9-1.2 0.8-0.3 1.1 0.3 1.4 8.5 6.2 16.5 13 24.8 19.5 0.2 0.1 0.3 0.3 0.5 0.4-0.4 0.6-1 0.3-1.4 0.3-5.2 0-10.4 0-15.5 0-1.1 0-1.9-0.3-2.6-1-5.8-5.1-11.6-10.2-17.4-15.4-0.2 0.1-0.3 0-0.6-0.1z"/><path class="c" d="m528.1 101.3c0.3-0.1 0.5 0 0.7 0.2q-0.1 0.2-0.3 0.3c-0.1-0.2-0.2-0.3-0.4-0.5z"/><path class="c" d="m528.1 101.3c-0.1 0-0.2-0.1-0.2-0.1 0.1 0 0.1-0.1 0.2-0.1 0 0 0 0.1 0 0.2z"/><path class="a" d="m305.1 250.8c-2.1 0-4.3 0.1-6.4 0-0.9 0-1.3 0.3-1.6 1.2q-2 5.5-3.9 11.1c-1 2.9-2.7 3.6-5.6 2.7-0.5-0.2-1-0.3-1.5-0.5-2.8-1-3.6-2.8-2.7-5.5 3.5-10.1 7.1-20.1 10.7-30.2 1.6-4.4 3.1-8.8 4.7-13.2 1-2.9 2.7-3.7 5.6-2.7 0.4 0.1 0.7 0.2 1.1 0.4 3.5 1.2 4.2 2.8 3 6.2-1.5 4.1-2.9 8.2-4.4 12.3-0.5 1.3-0.1 1.6 1.2 1.8 3.3 0.5 6.6 1.1 9.8 1.6 0.8 0.1 1.1 0.3 0.9 1.3-1 4.2-1.9 8.4-2.8 12.6-0.2 0.9-0.6 1.2-1.6 1.2-2.3-0.4-4.4-0.3-6.5-0.3z"/><path class="a" d="m238.1 195c0 0.9-0.3 1.7-0.6 2.5-5.5 17.9-11 35.7-16.5 53.6-0.3 1.1-0.8 2.2-1.7 2.9-0.9 0.8-2 1.2-3.2 0.7-0.2-0.1-0.3-0.1-0.5-0.2-4.9-1.9-5.7-3.4-4.1-8.4 5.4-17.7 10.9-35.3 16.3-53 0.8-2.6 2.4-3.9 4.3-3.6 3.8 0.7 6 2.7 6 5.5z"/><path class="a" d="m289.2 206.5c0.1 0.8-0.2 1.5-0.4 2.2-5.5 18-11.1 36.1-16.7 54.1-1.1 3.5-3 4.3-6.3 2.9-3.7-1.5-4.5-3.4-3.4-7.2 5.5-17.9 11.1-35.8 16.6-53.8 0.2-0.6 0.4-1.2 0.7-1.8 1-1.7 2.6-2.2 4.5-1.5q1.1 0.4 2.1 0.9c2 0.8 2.7 2.3 2.9 4.2z"/><path class="a" d="m374.9 100.2c0.1-1.3 0.8-2.7 1.3-4.2 0.5-1.7 1-3.4 1.7-5.1 0.5-1.3 0.1-1.6-1.1-1.8-2.3-0.4-4.6-0.9-6.9-1.3-1.1-0.2-1.2-0.6-0.9-1.5 1.2-3.7 2.3-7.5 3.3-11.3 0.3-1.1 0.8-1.3 1.9-1.2 2.4 0.3 4.8 0.3 7.2 0.6 1.1 0.1 1.4-0.3 1.5-1.3 0.1-1.1 0.4-2.3 0.6-3.4 0.6-3.4 3.4-5.6 6.8-5.2 2.6 0.3 4.1 2.3 3.3 4.8-3.2 10.7-6.5 21.5-9.7 32.2-0.7 2.4-2.9 3.8-5 3.5-2.3-0.3-4-2.2-4-4.8z"/><path class="a" d="m459.7 88.8c-0.7 2.4-1.4 5.1-2.1 7.8-0.4 1.5-0.7 3-1.2 4.4-0.4 1.2 0 1.4 1.1 1.3 1-0.1 2 0 2.9 0 2.4 0 4 1.9 3.5 4.2-0.4 2.3-1 4.6-1.6 6.8-0.5 2-2.3 2.9-4.3 2.4-1.7-0.4-3.4-0.8-5.1-1.3-1-0.3-1.6-0.2-1.8 1-0.5 2.3-1.2 4.6-1.8 6.9-0.7 2.7-3 4.1-5.4 3.4-2.4-0.7-3.6-3.1-2.8-5.7 2.9-9.9 5.9-19.8 8.9-29.7 1.1-3.8 4.8-5.7 8-4.3 1 0.5 1.7 1.2 1.7 2.8z"/><path class="a" d="m386.7 109.3c0.3-1.9 1.3-4.1 2-6.3 3.8-11.7 7.7-23.4 11.5-35.1 0.7-2.1 2.3-3.2 4.3-3 1.9 0.1 3.4 1.6 3.8 3.5 0.1 0.7-0.1 1.4-0.3 2.1-4 13.5-8 26.9-12 40.4-0.7 2.3-2.6 3.6-4.6 3.3-3.1-0.5-4.8-2-4.7-4.9z"/><path class="a" d="m467.9 333.7c-0.1 0.2-0.1 0.4-0.2 0.5l-0.1-0.1c0-0.2 0-0.4 0.2-0.5z"/></svg>