<svg xmlns="http://www.w3.org/2000/svg" width="146.521" height="42.458" viewBox="0 0 146.521 42.458"><defs><style>.a{fill:#d82a1a;}.b,.c{fill:#020201;}.b{fill-rule:evenodd;}</style></defs><g transform="translate(0 -0.5)"><path class="a" d="M357.943,26.609,355.1,24.315V26.7h-9.911a9.233,9.233,0,0,0-8.5,5.72,6.854,6.854,0,1,1,.061-6.974l3.793-2.172a11.211,11.211,0,1,0,0,11.226l.153-.306a4.832,4.832,0,0,1,4.5-3.12H355.1v2.355l2.845-2.264,2.845-2.294Z" transform="translate(-221.853 -11.916)"/><path class="b" d="M134.1,35.709v4.374h-3.334a6.958,6.958,0,0,1-6.944-6.944V31.763H128.2v1.377a2.585,2.585,0,0,0,2.569,2.569ZM36.768,40.052A11.226,11.226,0,1,1,47.994,28.826,11.214,11.214,0,0,1,36.768,40.052Zm6.821-11.226a6.837,6.837,0,1,0-6.821,6.852,6.789,6.789,0,0,0,6.821-6.852ZM11.226,40.052a11.226,11.226,0,1,1,9.7-16.824L17.13,25.4a6.852,6.852,0,1,0,0,6.852l3.793,2.2a11.227,11.227,0,0,1-9.7,5.6ZM52.613,17.631h4.374V40.052H52.613Zm8.993,0H65.98V40.052H61.606Zm61.79,8.29h-.061V17.875h4.374V25.92Z" transform="translate(0 -11.869)"/><path class="b" d="M242.026,28.214a11.226,11.226,0,1,1,11.2-11.869l.122,2.294-17.925.122a6.891,6.891,0,0,0,6.607,5.078,6.816,6.816,0,0,0,6-3.579l3.854,2.08a11.232,11.232,0,0,1-9.85,5.873Zm0-18.078a6.9,6.9,0,0,0-6.332,4.252l12.6-.092A6.848,6.848,0,0,0,242.026,10.136ZM296.26,4.293h3.762V.5h2.906V4.293h3.793V7.2h-3.793v3.793h-2.906V7.2H296.26Z" transform="translate(-160.201)"/><path class="b" d="M134.8,128.866v-4.4h.612v3.915h2.141v.489Zm4.925-4.466a1.879,1.879,0,0,1,1.468.612,2.3,2.3,0,0,1,.581,1.652,2.411,2.411,0,0,1-.581,1.682,1.879,1.879,0,0,1-1.468.612,1.975,1.975,0,0,1-1.5-.612,2.5,2.5,0,0,1-.551-1.682,2.377,2.377,0,0,1,.551-1.652A1.975,1.975,0,0,1,139.725,124.4Zm0,.459a1.276,1.276,0,0,0-1.04.489,2.54,2.54,0,0,0,0,2.631,1.35,1.35,0,0,0,2.08,0,2.54,2.54,0,0,0,0-2.631A1.276,1.276,0,0,0,139.725,124.859Zm5.965,3.365v-1.162h-.979v-.489h1.56v1.9a2.479,2.479,0,0,1-.734.367,3.213,3.213,0,0,1-.887.122,2.129,2.129,0,0,1-1.621-.612,2.726,2.726,0,0,1,0-3.365,2.192,2.192,0,0,1,1.621-.581,3.273,3.273,0,0,1,.8.092,2.335,2.335,0,0,1,.734.306v.642a2.83,2.83,0,0,0-.7-.428,2.5,2.5,0,0,0-.8-.122,1.656,1.656,0,0,0-1.224.428,2.477,2.477,0,0,0,0,2.692,1.592,1.592,0,0,0,1.224.459,2.674,2.674,0,0,0,.581-.061,1.359,1.359,0,0,0,.428-.184Zm1.682.642v-4.4h.581v4.4Zm4.435-4.252v.581a5.1,5.1,0,0,0-.642-.245,2.024,2.024,0,0,0-.581-.092,1.368,1.368,0,0,0-.765.184.7.7,0,0,0-.245.551.476.476,0,0,0,.184.428,1.3,1.3,0,0,0,.642.245l.367.092a1.824,1.824,0,0,1,.979.428,1.16,1.16,0,0,1,.336.856,1.138,1.138,0,0,1-.459.979,1.921,1.921,0,0,1-1.254.336,2.441,2.441,0,0,1-.642-.092,4.831,4.831,0,0,1-.734-.184v-.612a6.7,6.7,0,0,0,.7.306,2.548,2.548,0,0,0,.673.092,1.274,1.274,0,0,0,.8-.214.618.618,0,0,0,.275-.551.7.7,0,0,0-.184-.52,1.485,1.485,0,0,0-.673-.275l-.336-.061a1.824,1.824,0,0,1-.979-.428.976.976,0,0,1-.306-.765,1.054,1.054,0,0,1,.428-.918,1.7,1.7,0,0,1,1.132-.336q.306,0,.612.031a4.127,4.127,0,0,1,.673.184Zm.581.367v-.52h3.732v.52h-1.56v3.885h-.612v-3.885Zm4.313,3.885v-4.4h.581v4.4Zm5.078-4.068v.642a2.522,2.522,0,0,0-.642-.428,2.133,2.133,0,0,0-.734-.122,1.417,1.417,0,0,0-1.132.459,1.857,1.857,0,0,0-.428,1.315,1.9,1.9,0,0,0,.428,1.346,1.417,1.417,0,0,0,1.132.459,1.753,1.753,0,0,0,.734-.153,1.969,1.969,0,0,0,.642-.4v.612a2.015,2.015,0,0,1-.673.306,2.133,2.133,0,0,1-.734.122,2.05,2.05,0,0,1-1.56-.612,2.343,2.343,0,0,1-.581-1.682,2.3,2.3,0,0,1,.581-1.652,2.05,2.05,0,0,1,1.56-.612,2.783,2.783,0,0,1,.734.092,2.016,2.016,0,0,1,.673.306Zm6.332-.184v.581a5.1,5.1,0,0,0-.642-.245,2.024,2.024,0,0,0-.581-.092,1.368,1.368,0,0,0-.765.184.7.7,0,0,0-.245.551.476.476,0,0,0,.184.428,1.3,1.3,0,0,0,.642.245l.367.092a1.824,1.824,0,0,1,.979.428,1.3,1.3,0,0,1-.092,1.835,2.057,2.057,0,0,1-1.285.336,2.441,2.441,0,0,1-.642-.092,4.831,4.831,0,0,1-.734-.184v-.612a6.7,6.7,0,0,0,.7.306,2.548,2.548,0,0,0,.673.092,1.274,1.274,0,0,0,.8-.214.618.618,0,0,0,.275-.551.7.7,0,0,0-.184-.52,1.485,1.485,0,0,0-.673-.275l-.336-.061a1.824,1.824,0,0,1-.979-.428.976.976,0,0,1-.306-.765,1.054,1.054,0,0,1,.428-.918,1.7,1.7,0,0,1,1.132-.336q.306,0,.612.031A4.128,4.128,0,0,1,168.111,124.614Zm2.967-.214a1.915,1.915,0,0,1,1.5.612,2.377,2.377,0,0,1,.551,1.652,2.5,2.5,0,0,1-.551,1.682,1.915,1.915,0,0,1-1.5.612,1.879,1.879,0,0,1-1.468-.612,2.5,2.5,0,0,1-.551-1.682,2.377,2.377,0,0,1,.551-1.652,1.879,1.879,0,0,1,1.468-.612Zm0,.459a1.193,1.193,0,0,0-1.009.489,2.374,2.374,0,0,0,0,2.631,1.193,1.193,0,0,0,1.009.489,1.223,1.223,0,0,0,1.04-.489,2.54,2.54,0,0,0,0-2.631,1.223,1.223,0,0,0-1.04-.489Zm2.967,4.007v-4.4h.612v3.915H176.8v.489Zm3-1.652v-2.753h.581v2.692a1.494,1.494,0,0,0,.275,1.009,1.268,1.268,0,0,0,1.652,0,1.63,1.63,0,0,0,.245-1.009v-2.692h.612v2.753a1.745,1.745,0,0,1-.428,1.285,1.943,1.943,0,0,1-2.508,0A1.745,1.745,0,0,1,177.043,127.214Zm3.854-2.233v-.52h3.732v.52h-1.56v3.885h-.581v-3.885Zm4.282,3.885v-4.4h.612v4.4Zm3.548-4.466a1.879,1.879,0,0,1,1.468.612,2.3,2.3,0,0,1,.581,1.652,2.411,2.411,0,0,1-.581,1.682,2.068,2.068,0,0,1-2.937,0,2.411,2.411,0,0,1-.581-1.682,2.3,2.3,0,0,1,.581-1.652A1.879,1.879,0,0,1,188.728,124.4Zm0,.459a1.276,1.276,0,0,0-1.04.489,2.54,2.54,0,0,0,0,2.631,1.35,1.35,0,0,0,2.08,0,2.54,2.54,0,0,0,0-2.631A1.276,1.276,0,0,0,188.728,124.859Zm2.967,4.007v-4.4h.8l1.958,3.671v-3.671h.581v4.4h-.8l-1.958-3.671v3.671Zm7.158-4.252v.581a5.1,5.1,0,0,0-.642-.245,2.024,2.024,0,0,0-.581-.092,1.368,1.368,0,0,0-.765.184.7.7,0,0,0-.245.551.52.52,0,0,0,.153.428,1.549,1.549,0,0,0,.673.245l.367.092a1.824,1.824,0,0,1,.979.428,1.16,1.16,0,0,1,.336.856,1.138,1.138,0,0,1-.459.979,2,2,0,0,1-1.254.336,2.441,2.441,0,0,1-.642-.092,4.831,4.831,0,0,1-.734-.184v-.612a6.7,6.7,0,0,0,.7.306,2.548,2.548,0,0,0,.673.092,1.274,1.274,0,0,0,.8-.214.618.618,0,0,0,.275-.551.7.7,0,0,0-.184-.52,1.486,1.486,0,0,0-.673-.275l-.367-.061a1.788,1.788,0,0,1-.948-.428.976.976,0,0,1-.306-.765,1.054,1.054,0,0,1,.428-.918,1.7,1.7,0,0,1,1.132-.336q.306,0,.612.031a4.128,4.128,0,0,1,.673.184Z" transform="translate(-93.566 -86)"/><path class="c" d="M0,101.4H146.521v.734H0Z" transform="translate(0 -70.036)"/></g></svg>