<?xml version="1.0" encoding="utf-8"?>
<!-- Generator: Adobe Illustrator 27.7.0, SVG Export Plug-In . SVG Version: 6.00 Build 0)  -->
<svg version="1.1" id="Layer_1" xmlns="http://www.w3.org/2000/svg" xmlns:xlink="http://www.w3.org/1999/xlink" x="0px" y="0px"
	 viewBox="0 0 31.8 21.4" style="enable-background:new 0 0 31.8 21.4;" xml:space="preserve">
<style type="text/css">
	.st0{fill:#FFFFFF;}
</style>
<g id="Path_73_00000173158961136507662900000015896864898842211511_">
	<path class="st0" d="M31.8,1.5L31.8,1.5c0,0.8-0.7,1.5-1.5,1.5H1.5C0.7,3,0,2.3,0,1.5l0,0C0,0.7,0.7,0,1.5,0h28.8
		C31.1,0,31.8,0.7,31.8,1.5z"/>
</g>
<g id="Path_74_00000109748527840749043020000017153636540558431392_">
	<path class="st0" d="M31.8,10.7L31.8,10.7c0,0.8-0.7,1.5-1.5,1.5H1.5c-0.8,0-1.5-0.7-1.5-1.5l0,0c0-0.8,0.7-1.5,1.5-1.5h28.8
		C31.1,9.2,31.8,9.9,31.8,10.7z"/>
</g>
<g id="Path_75_00000163754130376208247240000007747151151287241348_">
	<path class="st0" d="M31.8,19.9L31.8,19.9c0,0.8-0.7,1.5-1.5,1.5H1.5c-0.8,0-1.5-0.7-1.5-1.5l0,0c0-0.8,0.7-1.5,1.5-1.5h28.8
		C31.1,18.4,31.8,19.1,31.8,19.9z"/>
</g>
</svg>
