<svg xmlns="http://www.w3.org/2000/svg" width="40.484" height="37.399" viewBox="0 0 40.484 37.399">
  <g id="blog" transform="translate(-1.1 -1.8)">
    <path id="Path_269" data-name="Path 269" d="M34.451,10.282h2.7a3.875,3.875,0,0,1,2.506.771,3.732,3.732,0,0,1,1.928,3.277V33.8a4.752,4.752,0,0,1-1.157,3.47A5.3,5.3,0,0,1,37.343,39.2H4.956a3.376,3.376,0,0,1-3.277-2.121A3.886,3.886,0,0,1,1.1,34.958V5.656A3.434,3.434,0,0,1,3.028,2.571a4.426,4.426,0,0,1,2.7-.771h23.9a3.894,3.894,0,0,1,3.856,2.121,6.127,6.127,0,0,1,.578,1.735C34.644,7.005,34.451,8.547,34.451,10.282ZM32.138,36.115a5.629,5.629,0,0,1-.386-1.735V6.041a1.534,1.534,0,0,0-1.735-1.735H5.92A1.688,1.688,0,0,0,4.377,6.041V34.573c0,1.157.578,1.542,1.542,1.542H32.138Zm2.506-22.941h0V34.187a2.081,2.081,0,0,0,2.7,1.928A2.268,2.268,0,0,0,39.078,33.8V14.716a1.347,1.347,0,0,0-1.157-1.542Z" transform="translate(0 0)"/>
    <path id="Path_270" data-name="Path 270" d="M30.56,34.816H4.342c-1.157,0-1.542-.578-1.542-1.542V4.742A1.575,1.575,0,0,1,4.535,3.2h24.1a1.534,1.534,0,0,1,1.735,1.735V33.274A2.175,2.175,0,0,0,30.56,34.816ZM16.487,20.358h9.446a1.352,1.352,0,0,0,1.349-1.735,1.466,1.466,0,0,0-1.542-1.157H7.234a1.521,1.521,0,0,0-1.542,1.542,1.318,1.318,0,0,0,1.349,1.349Zm0,7.326h9.446a1.352,1.352,0,0,0,1.349-1.735,1.466,1.466,0,0,0-1.542-1.157H7.234a1.521,1.521,0,0,0-1.542,1.542,1.318,1.318,0,0,0,1.349,1.349Zm2.121-14.459h7.326a1.666,1.666,0,0,0,1.157-.578,1.455,1.455,0,0,0,.193-1.542,1.753,1.753,0,0,0-1.542-.771H11.282a1.366,1.366,0,0,0-1.349,1.542,1.448,1.448,0,0,0,1.349,1.349Z" transform="translate(1.577 1.299)" fill="#51be9b"/>
    <path id="Path_271" data-name="Path 271" d="M18.593,7.7h3.084c.771,0,1.157.578,1.157,1.542V28.328A2.268,2.268,0,0,1,21.1,30.641a2.15,2.15,0,0,1-2.7-1.928c.193-6.94.193-13.88.193-21.013Z" transform="translate(16.051 5.474)" fill="#fff"/>
    <path id="Path_272" data-name="Path 272" d="M15,13.492H5.749A1.318,1.318,0,0,1,4.4,12.142,1.521,1.521,0,0,1,5.942,10.6H24.449a1.466,1.466,0,0,1,1.542,1.157,1.536,1.536,0,0,1-1.349,1.735C21.172,13.684,18.087,13.492,15,13.492Z" transform="translate(3.062 8.165)" fill="#fff"/>
    <path id="Path_273" data-name="Path 273" d="M15,17.292H5.749A1.318,1.318,0,0,1,4.4,15.942,1.521,1.521,0,0,1,5.942,14.4H24.449a1.466,1.466,0,0,1,1.542,1.157,1.536,1.536,0,0,1-1.349,1.735Z" transform="translate(3.062 11.69)" fill="#fff"/>
    <path id="Path_274" data-name="Path 274" d="M15.082,9.792H7.949A1.318,1.318,0,0,1,6.6,8.442,1.655,1.655,0,0,1,7.949,6.9H22.408a1.291,1.291,0,0,1,1.349.771,1.455,1.455,0,0,1-.193,1.542,2.2,2.2,0,0,1-1.157.578Z" transform="translate(5.103 4.732)" fill="#fff"/>
  </g>
</svg>
