<?xml version="1.0" encoding="utf-8"?>
<!-- Generator: Adobe Illustrator 27.7.0, SVG Export Plug-In . SVG Version: 6.00 Build 0)  -->
<svg version="1.1" id="Layer_1" xmlns="http://www.w3.org/2000/svg" xmlns:xlink="http://www.w3.org/1999/xlink" x="0px" y="0px"
	 viewBox="0 0 14.3 14.3" style="enable-background:new 0 0 14.3 14.3;" xml:space="preserve">
<style type="text/css">
	.st0{fill:#454545;}
</style>
<path id="Path_73" class="st0" d="M11.2,13.3L1,3.2C0.4,2.6,0.4,1.7,1,1.1l0,0c0.6-0.6,1.5-0.6,2.1,0l10.2,10.2c0.6,0.6,0.6,1.5,0,2
	l0,0C12.7,13.9,11.8,13.9,11.2,13.3z"/>
<path id="Path_76" class="st0" d="M1,11.2L11.1,1.1c0.6-0.6,1.5-0.6,2.1,0l0,0c0.6,0.6,0.6,1.5,0,2.1l-10,10.1
	c-0.6,0.6-1.5,0.6-2.1,0l0,0C0.5,12.7,0.4,11.8,1,11.2z"/>
</svg>
