<svg id="date" xmlns="http://www.w3.org/2000/svg" xmlns:xlink="http://www.w3.org/1999/xlink" width="16.67" height="16.644" viewBox="0 0 16.67 16.644">
  <defs>
    <clipPath id="clip-path">
      <rect id="Rectangle_109" data-name="Rectangle 109" width="16.67" height="16.644" fill="#121213"/>
    </clipPath>
  </defs>
  <g id="Group_148" data-name="Group 148" clip-path="url(#clip-path)">
    <path id="Path_276" data-name="Path 276" d="M13.771,16.643h-.26a1.293,1.293,0,0,0-.2-.031q-5.083,0-10.165,0a.723.723,0,0,0-.15.032H2.832c-.016-.011-.031-.03-.048-.031a2.605,2.605,0,0,1-.958-.28A3.149,3.149,0,0,1,.76,15.5a3.205,3.205,0,0,1-.547-.914c-.089-.242-.143-.5-.213-.746v-9.8c.033-.134.064-.27.1-.4A3.221,3.221,0,0,1,1.494,1.756a3.512,3.512,0,0,1,1.883-.508c.15,0,.3,0,.465,0,0-.24,0-.466,0-.692A.442.442,0,0,1,3.876.4.612.612,0,0,1,4.544,0a.623.623,0,0,1,.571.572c-.016.22,0,.442,0,.673h6.414c0-.211-.011-.422,0-.632.036-.568.464-.7.889-.571a.617.617,0,0,1,.41.639c.007.2,0,.4,0,.564.437.034.853.038,1.259.1a2.953,2.953,0,0,1,1.795,1.042,3.269,3.269,0,0,1,.785,2.221q.008,3.922,0,7.844c0,.372-.029.743-.029,1.115a2.715,2.715,0,0,1-.2.988,3.139,3.139,0,0,1-1.921,1.884,7.456,7.456,0,0,1-.751.2M3.809,2.587c-.239,0-.477-.008-.716,0a1.744,1.744,0,0,0-1.148.451A2.191,2.191,0,0,0,1.32,5.089H15.38a6.226,6.226,0,0,0-.055-.959A1.873,1.873,0,0,0,14.07,2.678a3.527,3.527,0,0,0-1.21-.091l-.027.027c0,.374-.008.748,0,1.121a.688.688,0,0,1-.736.744.741.741,0,0,1-.569-.572c.013-.4,0-.8,0-1.2,0-.046-.006-.092-.01-.135H5.143c0,.41,0,.811,0,1.212a.665.665,0,0,1-.333.609A.626.626,0,0,1,4.17,4.4a.586.586,0,0,1-.329-.537c0-.417,0-.834-.006-1.252l-.026-.027M1.3,6.4v.113q0,3.49,0,6.98a1.564,1.564,0,0,0,.034.332,1.9,1.9,0,0,0,1.788,1.507q5.2.008,10.4,0a1.244,1.244,0,0,0,.331-.038,1.954,1.954,0,0,0,1.51-1.939c.006-2.261,0-4.523,0-6.784V6.4Z" transform="translate(0 0)" fill="#121213"/>
    <path id="Path_277" data-name="Path 277" d="M68.883,382.044a.72.72,0,0,1,.15-.032q5.083,0,10.165,0a1.287,1.287,0,0,1,.2.031Z" transform="translate(-65.888 -365.4)" fill="#121213"/>
    <path id="Path_280" data-name="Path 280" d="M87.631,59.533l-.026-.027.026.027" transform="translate(-83.796 -56.919)" fill="#121213"/>
    <path id="Path_281" data-name="Path 281" d="M295.163,59.505l-.027.027.027-.027" transform="translate(-282.303 -56.918)" fill="#121213"/>
    <path id="Path_282" data-name="Path 282" d="M74.567,280.79c-.228,0-.456.006-.683,0a.635.635,0,0,1-.6-.551.605.605,0,0,1,.464-.709,5.216,5.216,0,0,1,.77-.037c.279,0,.559.01.837.034a.609.609,0,0,1,.5.454.7.7,0,0,1-.24.674.69.69,0,0,1-.444.14c-.2-.011-.4,0-.6,0" transform="translate(-70.092 -267.338)" fill="#121213"/>
    <path id="Path_283" data-name="Path 283" d="M74.557,192.361c-.211,0-.423-.006-.634,0a.667.667,0,0,1-.639-.618.652.652,0,0,1,.623-.681q.651-.011,1.3,0a.667.667,0,0,1,.653.52.648.648,0,0,1-.481.754.5.5,0,0,1-.138.024c-.228,0-.455,0-.683,0" transform="translate(-70.096 -182.749)" fill="#121213"/>
    <path id="Path_284" data-name="Path 284" d="M162.924,192.23c-.217,0-.434,0-.65,0a.664.664,0,0,1-.636-.605.643.643,0,0,1,.608-.693c.439-.011.879-.022,1.317,0a.607.607,0,0,1,.646.535.63.63,0,0,1-.479.738.5.5,0,0,1-.139.022c-.222,0-.444,0-.667,0" transform="translate(-154.608 -182.618)" fill="#121213"/>
    <path id="Path_285" data-name="Path 285" d="M162.874,280.774h-.651a.64.64,0,0,1-.622-.547.616.616,0,0,1,.475-.72,1.093,1.093,0,0,1,.25-.033c.453.007.907,0,1.357.039a.587.587,0,0,1,.487.7.641.641,0,0,1-.613.556c-.228,0-.456,0-.683,0" transform="translate(-154.566 -267.322)" fill="#121213"/>
    <path id="Path_286" data-name="Path 286" d="M251.293,192.3c-.222,0-.444,0-.666,0a.658.658,0,0,1-.607-.566.63.63,0,0,1,.394-.668,1.637,1.637,0,0,1,.338-.063c.384-.008.77-.015,1.154,0a.619.619,0,0,1,.658.443.647.647,0,0,1-.6.855c-.222,0-.444,0-.666,0Z" transform="translate(-239.144 -182.691)" fill="#121213"/>
    <path id="Path_287" data-name="Path 287" d="M251.392,280.7c-.222,0-.444,0-.666,0a.652.652,0,0,1,.089-1.3c.4,0,.79,0,1.186,0a.64.64,0,0,1,.69.784.618.618,0,0,1-.616.514c-.227.012-.455,0-.682,0h0" transform="translate(-239.25 -267.251)" fill="#121213"/>
  </g>
</svg>
