<svg width="36" height="33" viewBox="0 0 36 33" fill="none" xmlns="http://www.w3.org/2000/svg">
<path fill-rule="evenodd" clip-rule="evenodd" d="M17.9615 19.108C16.8465 19.108 15.7348 18.7397 14.8048 18.003L7.32984 11.9763C6.79151 11.543 6.70817 10.7547 7.13984 10.218C7.57484 9.68299 8.36151 9.59799 8.89817 10.0297L16.3665 16.0497C17.3048 16.793 18.6265 16.793 19.5715 16.043L26.9648 10.033C27.5015 9.59465 28.2882 9.67799 28.7248 10.2147C29.1598 10.7497 29.0782 11.5363 28.5432 11.973L21.1365 17.993C20.1998 18.7363 19.0798 19.108 17.9615 19.108Z" fill="white"/>
<mask id="mask0_361_128" style="mask-type:luminance" maskUnits="userSpaceOnUse" x="0" y="0" width="36" height="33">
<path fill-rule="evenodd" clip-rule="evenodd" d="M0 0H35.8332V32.5H0V0Z" fill="white"/>
</mask>
<g mask="url(#mask0_361_128)">
<path fill-rule="evenodd" clip-rule="evenodd" d="M9.73155 30H26.0982C26.1015 29.9967 26.1149 30 26.1249 30C28.0265 30 29.7132 29.32 31.0065 28.0283C32.5082 26.5333 33.3332 24.385 33.3332 21.98V10.5333C33.3332 5.87833 30.2899 2.5 26.0982 2.5H9.73488C5.54321 2.5 2.49988 5.87833 2.49988 10.5333V21.98C2.49988 24.385 3.32655 26.5333 4.82654 28.0283C6.11988 29.32 7.80821 30 9.70821 30H9.73155ZM9.70321 32.5C7.13154 32.5 4.83488 31.5667 3.06154 29.8C1.08654 27.83 -0.00012207 25.0533 -0.00012207 21.98V10.5333C-0.00012207 4.52833 4.18488 0 9.73488 0H26.0982C31.6482 0 35.8332 4.52833 35.8332 10.5333V21.98C35.8332 25.0533 34.7465 27.83 32.7715 29.8C30.9999 31.565 28.7015 32.5 26.1249 32.5H26.0982H9.73488H9.70321Z" fill="white"/>
</g>
</svg>
