<svg width="136" height="136" viewBox="0 0 136 136" fill="none" xmlns="http://www.w3.org/2000/svg">
<circle cx="68" cy="68" r="67" fill="white" stroke="#454545" stroke-width="2"/>
<path d="M115.537 67.9168C115.334 93.7608 95.3783 113.406 71.2039 114.859C57.1805 115.708 44.9629 111.059 34.962 101.211C26.7214 93.1124 22.0469 83.2118 21.1407 71.7162C20.0323 57.3678 24.759 44.9256 34.9099 34.6749C43.0527 26.5249 53.008 21.9799 64.5149 21.1305C78.1864 20.132 90.2018 24.1778 100.301 33.4301C110.653 42.8768 115.38 55.0272 115.53 67.9233L115.537 67.9168ZM69.5936 112.058C81.1527 111.805 92.2098 107.208 101.011 97.664C109.806 88.1135 113.476 76.767 112.472 63.9228C110.862 43.4279 93.4746 23.9833 68.3875 23.8342C56.2221 23.7823 45.667 28.1329 37.0222 36.6784C27.6211 46.0279 23.253 57.4262 23.9506 70.6205C25.1567 92.1658 43.0984 111.909 69.5936 112.058Z" fill="#FCD729"/>
<path d="M61.5034 45.1723H44.1094V37.0742H76.2766C76.1267 37.4243 75.9767 37.7226 75.8268 38.0208C73.4146 42.7215 70.8524 47.3703 68.538 52.1164C65.4216 58.5676 62.3575 65.0643 59.4889 71.6128C58.2306 74.4592 57.3766 77.5584 56.7768 80.6122C55.4729 86.9597 59.5932 94.7077 66.6799 96.7112C71.5043 98.0598 75.579 96.4583 78.9431 93.009C82.0594 89.8579 83.2655 86.0131 82.9135 81.7144C82.5614 77.0137 81.0033 72.6178 78.8453 68.4682C78.6432 68.0662 78.4411 67.7161 78.1934 67.2169C78.5454 67.2169 78.8453 67.165 79.0996 67.165H87.3402C87.9922 67.165 88.3964 67.3141 88.5985 67.9625C89.5503 71.2627 90.5087 74.5629 91.5127 77.8112C92.269 80.2102 92.2168 82.7129 92.0147 85.1119C91.3628 95.0578 84.0739 104.556 74.3208 106.456C66.2757 108.006 59.541 105.659 53.9669 99.7585C50.5963 96.2119 48.4383 91.9586 47.7342 87.2126C47.33 84.5608 47.48 81.7663 47.832 79.0626C48.5361 72.8642 51.4504 67.4179 53.8626 61.816C56.1248 56.5642 58.6348 51.468 61.0536 46.32C61.1057 46.0217 61.2557 45.6716 61.5034 45.1723Z" fill="#FCD729"/>
</svg>
