<svg xmlns="http://www.w3.org/2000/svg" xmlns:xlink="http://www.w3.org/1999/xlink" width="41.076" height="29.351" viewBox="0 0 41.076 29.351">
  <defs>
    <clipPath id="clip-path">
      <rect id="Rectangle_47" data-name="Rectangle 47" width="41.076" height="29.351" fill="#51be9b"/>
    </clipPath>
  </defs>
  <g id="Group_31" data-name="Group 31" clip-path="url(#clip-path)">
    <path id="Path_74" data-name="Path 74" d="M18.282,9.774a8.611,8.611,0,0,1,5.453,1.85,9.723,9.723,0,0,1,3.831,5.961,9.546,9.546,0,0,1-2.031,8.245,8.909,8.909,0,0,1-5.6,3.328,9.732,9.732,0,0,1-7.382-1.465,9.412,9.412,0,0,1-4.166-6.306A16.106,16.106,0,0,1,8.5,16.072a18.816,18.816,0,0,1,2.182-6.479,17.537,17.537,0,0,1,8.276-7.5A21.531,21.531,0,0,1,25.1.255c.555-.073,1.109-.139,1.662-.23a.834.834,0,0,1,1.01.683.989.989,0,0,1-.576,1.162c-1.379.793-2.789,1.539-4.1,2.428a14.244,14.244,0,0,0-4.43,4.451,7.5,7.5,0,0,0-.385.8c-.021.044,0,.113.008.225" transform="translate(13.272 0.013)" fill="#51be9b"/>
    <path id="Path_75" data-name="Path 75" d="M9.946,9.632a23.942,23.942,0,0,1,3.033.662,9.618,9.618,0,0,1,4.3,3.082,9.729,9.729,0,0,1,2.167,4.979,9.446,9.446,0,0,1-1.219,6.06,9.378,9.378,0,0,1-6.5,4.731,9.612,9.612,0,0,1-7.936-1.8,9.182,9.182,0,0,1-3.669-5.84,22.634,22.634,0,0,1-.034-4.234,15.646,15.646,0,0,1,.905-4.456A17.486,17.486,0,0,1,4.2,6.984a18.525,18.525,0,0,1,7.6-5.356A30.91,30.91,0,0,1,17.791.052a2.213,2.213,0,0,1,1.023.016.991.991,0,0,1,.6.57,1.071,1.071,0,0,1-.173.911c-.6.455-1.306.764-1.934,1.185-1.371.916-2.732,1.847-4.072,2.808a10.723,10.723,0,0,0-2.669,2.9,11.779,11.779,0,0,0-.625,1.191" transform="translate(-0.001 0.001)" fill="#51be9b"/>
  </g>
</svg>
