<svg width="18" height="19" viewBox="0 0 18 19" fill="none" xmlns="http://www.w3.org/2000/svg">
<g clip-path="url(#clip0_421_218)">
<path d="M9 0.821777C6.55762 0.821777 6.2505 0.833027 5.29087 0.875777C4.33125 0.920777 3.67762 1.07153 3.105 1.29428C2.50436 1.5202 1.9603 1.87458 1.51088 2.33265C1.05309 2.78231 0.698746 3.3263 0.4725 3.92678C0.24975 4.49828 0.097875 5.15303 0.054 6.10928C0.01125 7.07115 0 7.37715 0 9.8229C0 12.2664 0.01125 12.5724 0.054 13.532C0.099 14.4905 0.24975 15.1442 0.4725 15.7168C0.703125 16.3085 1.01025 16.8103 1.51088 17.3109C2.01038 17.8115 2.51213 18.1198 3.10388 18.3493C3.67763 18.572 4.33013 18.7239 5.28863 18.7678C6.24938 18.8105 6.55538 18.8218 9 18.8218C11.4446 18.8218 11.7495 18.8105 12.7103 18.7678C13.6676 18.7228 14.3235 18.572 14.8961 18.3493C15.4964 18.1232 16.04 17.7689 16.4891 17.3109C16.9897 16.8103 17.2969 16.3085 17.5275 15.7168C17.7491 15.1442 17.901 14.4905 17.946 13.532C17.9888 12.5724 18 12.2664 18 9.82178C18 7.37715 17.9888 7.07115 17.946 6.1104C17.901 5.15303 17.7491 4.49828 17.5275 3.92678C17.3013 3.32628 16.9469 2.78229 16.4891 2.33265C16.0398 1.87441 15.4957 1.52 14.895 1.29428C14.3212 1.07153 13.6665 0.919652 12.7091 0.875777C11.7484 0.833027 11.4435 0.821777 8.99775 0.821777H9.00113H9ZM8.19337 2.44403H9.00113C11.4041 2.44403 11.6887 2.4519 12.6371 2.49578C13.5146 2.53515 13.9916 2.68253 14.3089 2.80515C14.7285 2.96828 15.0289 3.16403 15.3439 3.47903C15.6589 3.79403 15.8535 4.09328 16.0166 4.51403C16.1404 4.83015 16.2866 5.30715 16.326 6.18465C16.3699 7.13303 16.3789 7.41765 16.3789 9.81953C16.3789 12.2214 16.3699 12.5072 16.326 13.4555C16.2866 14.333 16.1392 14.8089 16.0166 15.1262C15.8723 15.5169 15.642 15.8703 15.3427 16.16C15.0277 16.475 14.7285 16.6697 14.3078 16.8328C13.9928 16.9565 13.5157 17.1028 12.6371 17.1433C11.6887 17.186 11.4041 17.1962 9.00113 17.1962C6.59813 17.1962 6.31238 17.186 5.364 17.1433C4.4865 17.1028 4.01062 16.9565 3.69338 16.8328C3.30244 16.6887 2.94877 16.4588 2.65837 16.16C2.35884 15.8698 2.12819 15.5161 1.98338 15.125C1.86075 14.8089 1.71338 14.3319 1.674 13.4544C1.63125 12.506 1.62225 12.2214 1.62225 9.81728C1.62225 7.41428 1.63125 7.13078 1.674 6.1824C1.7145 5.3049 1.86075 4.8279 1.9845 4.51065C2.14762 4.09103 2.34337 3.79065 2.65837 3.47565C2.97337 3.16065 3.27262 2.96603 3.69338 2.8029C4.01062 2.67915 4.4865 2.5329 5.364 2.4924C6.19425 2.45415 6.516 2.4429 8.19337 2.44178V2.44403ZM13.8049 3.93803C13.663 3.93803 13.5226 3.96596 13.3916 4.02024C13.2605 4.07451 13.1415 4.15406 13.0412 4.25435C12.9409 4.35464 12.8614 4.4737 12.8071 4.60473C12.7528 4.73576 12.7249 4.8762 12.7249 5.01803C12.7249 5.15985 12.7528 5.30029 12.8071 5.43132C12.8614 5.56236 12.9409 5.68142 13.0412 5.7817C13.1415 5.88199 13.2605 5.96154 13.3916 6.01582C13.5226 6.07009 13.663 6.09803 13.8049 6.09803C14.0913 6.09803 14.366 5.98424 14.5686 5.7817C14.7711 5.57916 14.8849 5.30446 14.8849 5.01803C14.8849 4.73159 14.7711 4.45689 14.5686 4.25435C14.366 4.05181 14.0913 3.93803 13.8049 3.93803ZM9.00113 5.20028C8.38808 5.19071 7.77926 5.3032 7.2101 5.53119C6.64094 5.75917 6.12283 6.09811 5.68592 6.52825C5.24901 6.9584 4.90203 7.47117 4.6652 8.0367C4.42836 8.60222 4.30639 9.20922 4.30639 9.82234C4.30639 10.4355 4.42836 11.0425 4.6652 11.608C4.90203 12.1735 5.24901 12.6863 5.68592 13.1164C6.12283 13.5466 6.64094 13.8855 7.2101 14.1135C7.77926 14.3415 8.38808 14.454 9.00113 14.4444C10.2145 14.4255 11.3717 13.9302 12.2231 13.0654C13.0745 12.2007 13.5516 11.0358 13.5516 9.82234C13.5516 8.60883 13.0745 7.44399 12.2231 6.57925C11.3717 5.7145 10.2145 5.21921 9.00113 5.20028ZM9.00113 6.8214C9.79687 6.8214 10.56 7.13751 11.1227 7.70019C11.6854 8.26287 12.0015 9.02603 12.0015 9.82178C12.0015 10.6175 11.6854 11.3807 11.1227 11.9434C10.56 12.506 9.79687 12.8222 9.00113 12.8222C8.20538 12.8222 7.44222 12.506 6.87954 11.9434C6.31686 11.3807 6.00075 10.6175 6.00075 9.82178C6.00075 9.02603 6.31686 8.26287 6.87954 7.70019C7.44222 7.13751 8.20538 6.8214 9.00113 6.8214Z" fill="#F8F7F7"/>
</g>
<defs>
<clipPath id="clip0_421_218">
<rect width="18" height="18" fill="white" transform="translate(0 0.821777)"/>
</clipPath>
</defs>
</svg>
