<svg width="24" height="25" viewBox="0 0 24 25" fill="none" xmlns="http://www.w3.org/2000/svg">
<path d="M0.075 6.15428C0.226227 5.49164 0.597983 4.9 1.12938 4.47624C1.66078 4.05248 2.32033 3.82173 3 3.82178H21C21.6797 3.82173 22.3392 4.05248 22.8706 4.47624C23.402 4.9 23.7738 5.49164 23.925 6.15428L12 13.4428L0.075 6.15428ZM0 7.86728V18.5233L8.7045 13.1863L0 7.86728ZM10.1415 14.0668L0.2865 20.1073C0.52999 20.6207 0.91429 21.0544 1.39467 21.3579C1.87505 21.6615 2.43176 21.8223 3 21.8218H21C21.5681 21.8219 22.1246 21.6607 22.6048 21.3569C23.0849 21.0531 23.4688 20.6193 23.712 20.1058L13.857 14.0653L12 15.2008L10.1415 14.0653V14.0668ZM15.2955 13.1878L24 18.5233V7.86728L15.2955 13.1863V13.1878Z" fill="#FCD729"/>
</svg>
