<svg width="24" height="25" viewBox="0 0 24 25" fill="none" xmlns="http://www.w3.org/2000/svg">
<g clip-path="url(#clip0_421_213)">
<path fill-rule="evenodd" clip-rule="evenodd" d="M2.82772 1.58825C3.09018 1.32619 3.40534 1.12289 3.75231 0.991838C4.09929 0.860786 4.47015 0.80497 4.84033 0.828088C5.2105 0.851206 5.57154 0.952731 5.89951 1.12594C6.22748 1.29914 6.5149 1.54007 6.74272 1.83275L9.43522 5.29175C9.92872 5.92625 10.1027 6.75275 9.90772 7.53275L9.08722 10.8178C9.0448 10.9879 9.04709 11.1661 9.09387 11.3351C9.14065 11.5041 9.23034 11.6581 9.35422 11.7823L13.0397 15.4678C13.164 15.5919 13.3183 15.6817 13.4875 15.7285C13.6568 15.7753 13.8354 15.7775 14.0057 15.7348L17.2892 14.9143C17.6741 14.818 18.0759 14.8105 18.4641 14.8924C18.8524 14.9742 19.2169 15.1433 19.5302 15.3868L22.9892 18.0778C24.2327 19.0453 24.3467 20.8828 23.2337 21.9943L21.6827 23.5453C20.5727 24.6553 18.9137 25.1428 17.3672 24.5983C13.409 23.2055 9.81513 20.9395 6.85222 17.9683C3.88115 15.0058 1.61513 11.4124 0.222218 7.45475C-0.320782 5.90975 0.166718 4.24925 1.27672 3.13925L2.82772 1.58825Z" fill="#FCD729"/>
</g>
<defs>
<clipPath id="clip0_421_213">
<rect width="24" height="24" fill="white" transform="translate(0 0.821777)"/>
</clipPath>
</defs>
</svg>
