<svg width="20" height="21" viewBox="0 0 20 21" fill="none" xmlns="http://www.w3.org/2000/svg">
<path d="M19.9552 1.67902C20.0007 1.56545 20.0118 1.44102 19.9873 1.32118C19.9627 1.20133 19.9035 1.09134 19.8169 1.00483C19.7304 0.918327 19.6205 0.85911 19.5006 0.834526C19.3808 0.809942 19.2563 0.821072 19.1428 0.866534L0.959654 8.14019H0.958404L0.393424 8.36519C0.286415 8.40787 0.193287 8.47931 0.124327 8.5716C0.0553675 8.66389 0.0132592 8.77345 0.00265393 8.88817C-0.00795138 9.00289 0.013359 9.11831 0.0642312 9.22168C0.115103 9.32505 0.193557 9.41234 0.290927 9.47392L0.803409 9.79892L0.804659 9.80142L7.04819 13.7739L11.0206 20.0175L11.0231 20.02L11.348 20.5325C11.4098 20.6295 11.4972 20.7076 11.6005 20.7582C11.7037 20.8087 11.819 20.8298 11.9335 20.8191C12.048 20.8083 12.1573 20.7662 12.2494 20.6974C12.3415 20.6285 12.4128 20.5356 12.4555 20.4288L19.9552 1.67902ZM17.6641 4.04149L8.2969 13.4089L8.02816 12.9864C7.97892 12.9089 7.91319 12.8431 7.83567 12.7939L7.41318 12.5251L16.7804 3.15776L18.2528 2.56901L17.6653 4.04149H17.6641Z" fill="#454545"/>
</svg>
