<?xml version="1.0" encoding="utf-8"?>
<!-- Generator: Adobe Illustrator 27.7.0, SVG Export Plug-In . SVG Version: 6.00 Build 0)  -->
<svg version="1.1" id="Layer_1" xmlns="http://www.w3.org/2000/svg" xmlns:xlink="http://www.w3.org/1999/xlink" x="0px" y="0px"
	 viewBox="0 0 24 24" style="enable-background:new 0 0 24 24;" xml:space="preserve">
<style type="text/css">
	.st0{fill:#FFFFFF;}
</style>
<path class="st0" d="M5.8,4.5C5.2,5.9,5.5,8.3,5.6,10c-0.6,0.4-1.5-0.3-2-0.3S2.5,10,2.4,10.5c-0.1,0.3,0.1,0.9,1.2,1.3
	C4,12,5.1,12.2,5.3,12.7c0.3,0.8-1.7,4.4-4.9,4.9c-0.3,0-0.4,0.3-0.4,0.5c0.1,1,2.2,1.4,3.2,1.5c0.1,0.1,0.2,0.7,0.3,1.1
	c0.1,0.2,0.2,0.4,0.6,0.4c0.5,0,1.3-0.4,2.7-0.1c1.4,0.2,2.7,2.2,5.2,2.2c2.3,0,3.7-2,5.1-2.2c0.8-0.1,1.4-0.1,2.2,0.1
	c0.5,0.1,1,0.2,1.1-0.3c0.1-0.4,0.2-1,0.3-1.1c1-0.1,3.2-0.5,3.2-1.5c0-0.3-0.2-0.5-0.4-0.5c-3.2-0.5-5.3-4.1-4.9-4.9
	c0.2-0.6,1.3-0.8,1.7-0.9c0.8-0.3,1.2-0.7,1.2-1.2c0-0.6-0.7-0.9-1.2-0.9s-1.3,0.6-1.9,0.3c0.1-1.7,0.3-4.1-0.3-5.4
	c-1.1-2.7-3.6-4-6.1-4S7,2,5.8,4.5z"/>
</svg>
