<?xml version="1.0" encoding="utf-8"?>
<!-- Generator: Adobe Illustrator 27.7.0, SVG Export Plug-In . SVG Version: 6.00 Build 0)  -->
<svg version="1.1" id="Layer_1" xmlns="http://www.w3.org/2000/svg" xmlns:xlink="http://www.w3.org/1999/xlink" x="0px" y="0px"
	 viewBox="0 0 24 24" style="enable-background:new 0 0 24 24;" xml:space="preserve">
<style type="text/css">
	.st0{fill:#FFFFFF;}
</style>
<g>
	<path class="st0" d="M8.7,23.2c-0.2,0-0.3-0.1-0.5-0.1C7.6,23,7,22.9,6.5,22.6c-0.9-0.4-1.7-0.9-2.3-1.6c-0.9-0.9-1.5-2-1.8-3.3
		c-0.1-0.6-0.2-1.3-0.2-1.9c0.1-1.3,0.5-2.5,1.3-3.6c0.5-0.8,1.2-1.4,2-1.9C6,10.1,6.6,9.8,7.2,9.6C8.1,9.3,9,9.4,9.9,9.4
		c0.1,0,0.2,0,0.4,0.1c0,1.2,0,2.4,0,3.7c-0.2,0-0.5,0-0.7-0.1c-0.5-0.1-1,0-1.5,0.2c-0.4,0.1-0.8,0.4-1.1,0.7
		c-0.4,0.4-0.8,1-0.9,1.6c-0.2,0.8-0.1,1.6,0.2,2.3c0.4,0.8,1,1.3,1.8,1.6c1.4,0.5,2.8,0.1,3.7-1c0.4-0.5,0.7-1,0.7-1.6
		c0-0.3,0.1-0.6,0.1-0.9c0-4.9,0-9.8,0-14.8c0-0.1,0-0.2,0-0.3c1.2,0,2.4,0,3.6,0c0,1.6,0.6,2.9,1.7,4c1.1,1.1,2.4,1.6,4,1.6
		c0,1.2,0,2.4,0,3.6c-0.2,0-0.3,0.1-0.5,0.1c-0.3,0-0.6-0.1-1-0.1c-0.8-0.1-1.6-0.4-2.4-0.7c-0.6-0.3-1.1-0.7-1.7-1c0,0,0,0-0.1,0
		c0,0,0,0.1,0,0.1c0,0.1,0,0.2,0,0.2c0,2.5,0,5.1,0,7.6c0,0.5,0,0.9-0.1,1.4c-0.1,0.5-0.3,1-0.5,1.5c-0.3,0.7-0.7,1.3-1.2,1.9
		c-0.7,0.7-1.5,1.3-2.4,1.7c-0.5,0.2-1,0.3-1.5,0.4c-0.2,0.1-0.5,0.1-0.7,0.1C9.3,23.2,9,23.2,8.7,23.2z"/>
	<path class="st0" d="M16.2,0.8C16.2,0.8,16.2,0.8,16.2,0.8c-1.2,0-2.4,0-3.6,0c0,0,0,0,0,0C13.7,0.8,15,0.8,16.2,0.8z"/>
	<path class="st0" d="M16.2,8.2C16.2,8.2,16.2,8.2,16.2,8.2C16.2,8.2,16.2,8.2,16.2,8.2C16.2,8.2,16.2,8.2,16.2,8.2z"/>
</g>
</svg>
