<?xml version="1.0" encoding="utf-8"?>
<!-- Generator: Adobe Illustrator 27.7.0, SVG Export Plug-In . SVG Version: 6.00 Build 0)  -->
<svg version="1.1"
	 id="svg8" xmlns:svg="http://www.w3.org/2000/svg" xmlns:inkscape="http://www.inkscape.org/namespaces/inkscape" xmlns:sodipodi="http://sodipodi.sourceforge.net/DTD/sodipodi-0.dtd"
	 xmlns="http://www.w3.org/2000/svg" xmlns:xlink="http://www.w3.org/1999/xlink" x="0px" y="0px" viewBox="0 0 14.4 14.5"
	 style="enable-background:new 0 0 14.4 14.5;" xml:space="preserve">
<style type="text/css">
	.st0{fill:#FFFFFF;}
</style>
<sodipodi:namedview  bordercolor="#000000" borderopacity="0.25" id="namedview10" inkscape:current-layer="svg8" inkscape:cx="7.2204105" inkscape:cy="7.2460451" inkscape:deskcolor="#d1d1d1" inkscape:pagecheckerboard="0" inkscape:pageopacity="0.0" inkscape:showpageshadow="2" inkscape:window-height="1027" inkscape:window-maximized="1" inkscape:window-width="1920" inkscape:window-x="-8" inkscape:window-y="-8" inkscape:zoom="58.514679" pagecolor="#ffffff" showgrid="false">
	</sodipodi:namedview>
<path id="path6" class="st0" d="M0.1,14.3l1-3.7C-0.8,7.3,0.4,3,3.7,1s7.7-0.8,9.6,2.6s0.8,7.7-2.6,9.6c-2.1,1.2-4.7,1.3-6.9,0.1
	L0.1,14.3L0.1,14.3z M4.1,12.1c2.7,1.8,6.3,1,8.1-1.7s1-6.3-1.7-8.1S4.1,1.3,2.3,4C1,6,1.1,8.5,2.4,10.5l-0.6,2.2L4.1,12.1L4.1,12.1
	z M10.8,8.8c0-0.1-0.2-0.1-0.3-0.2s-1-0.5-1.2-0.6C9.1,8,9,8,8.9,8.1C8.8,8.3,8.4,8.7,8.3,8.8S8.1,9,7.9,8.9C7.4,8.7,6.9,8.4,6.5,8
	c-0.4-0.4-0.7-0.8-1-1.2c-0.1-0.2,0-0.3,0.1-0.4s0.2-0.2,0.3-0.3C5.9,6,6,5.9,6.1,5.8c0-0.1,0-0.2,0-0.3c0-0.1-0.4-1-0.5-1.3
	S5.2,3.9,5.1,3.9l-0.3,0C4.6,3.9,4.4,4,4.3,4.1C3.9,4.5,3.7,5,3.7,5.6C3.7,6.3,4,6.9,4.4,7.4c0.8,1.1,1.8,2,3,2.7
	c0.3,0.1,0.7,0.3,1,0.4c0.4,0.1,0.7,0.1,1.1,0.1c0.5-0.1,0.9-0.4,1.2-0.8C10.8,9.4,10.9,9.1,10.8,8.8L10.8,8.8z"/>
</svg>
