<?xml version="1.0" encoding="utf-8"?>
<!-- Generator: Adobe Illustrator 27.7.0, SVG Export Plug-In . SVG Version: 6.00 Build 0)  -->
<svg version="1.1"
	 id="Layer_1" xmlns:inkscape="http://www.inkscape.org/namespaces/inkscape" xmlns:sodipodi="http://sodipodi.sourceforge.net/DTD/sodipodi-0.dtd" xmlns:svg="http://www.w3.org/2000/svg" inkscape:version="1.2.2 (732a01da63, 2022-12-09)" sodipodi:docname="logo-white.svg"
	 xmlns="http://www.w3.org/2000/svg" xmlns:xlink="http://www.w3.org/1999/xlink" x="0px" y="0px" viewBox="0 0 114.7 49.6"
	 style="enable-background:new 0 0 114.7 49.6;" xml:space="preserve">
<style type="text/css">
	.st0{fill:#FFFFFF;}
</style>
<sodipodi:namedview  bordercolor="#000000" borderopacity="0.25" id="namedview1078" inkscape:current-layer="g1075" inkscape:cx="27.537479" inkscape:cy="21.707685" inkscape:deskcolor="#d1d1d1" inkscape:pagecheckerboard="0" inkscape:pageopacity="0.0" inkscape:showpageshadow="2" inkscape:window-height="1027" inkscape:window-maximized="1" inkscape:window-width="1920" inkscape:window-x="-8" inkscape:window-y="-8" inkscape:zoom="10.549259" pagecolor="#ffffff" showgrid="false" showguides="true">
	</sodipodi:namedview>
<g id="g1075">
	<path id="path1051" class="st0" d="M107.2,22.6c-2.2-3-5.2-4.9-9-5.8L96.5,6.7c-0.2-1.1-1.1-2-2.2-2.1c-1.2-0.2-2.2,0.4-2.7,1.5
		l-4.9,10.6c-0.2,0.4-0.5,0.7-1,0.9l-9.5,3.7c-1.1,0.4-1.7,1.4-1.7,2.6c0.1,1.2,0.8,2.1,2,2.4L87.6,29c0,0.4-0.1,0.7-0.1,1.1
		c0,6.2,5,11.2,11.2,11.2s11.2-5,11.2-11.2C110,27.2,108.9,24.6,107.2,22.6 M102.7,19.6c-1.2-0.5-2.6-0.7-3.9-0.7
		c-0.1,0-0.2,0-0.2,0l-0.2-1.1C100,18.1,101.4,18.7,102.7,19.6 M92.3,6.4c0.4-0.8,1-1,1.6-1c0.1,0,0.2,0,0.3,0
		c0.6,0.1,1.4,0.5,1.5,1.5l1.6,9.8c-2.9-0.5-6.2-0.4-10,0.3L92.3,6.4z M75.4,23.8c0-0.6,0.2-1.4,1.1-1.8l9.5-3.7
		c0.2-0.1,0.4-0.2,0.6-0.3c4.2-0.9,7.8-1.1,10.9-0.5l1.6,9.3c-0.1,0-0.2,0-0.3,0c-1.8,0-3.2,1.4-3.2,3.2c0,0,0,0,0,0.1l-18.9-4.7
		C75.8,25.2,75.4,24.4,75.4,23.8 M91.8,30l3.9,1c0.4,1.3,1.6,2.3,3,2.3c1.8,0,3.2-1.4,3.2-3.2c0-1.4-0.8-2.5-2-3l-0.7-4
		c3.6,0.2,6.5,3.3,6.5,6.9c0,3.8-3.1,7-7,7C95,37,91.8,33.9,91.8,30L91.8,30 M98.8,40.3c-5.7,0-10.3-4.6-10.3-10.3
		c0-0.3,0-0.6,0-0.9l2.4,0.6c0,0.1,0,0.2,0,0.3c0,4.3,3.5,7.9,7.9,7.9c4.3,0,7.9-3.5,7.9-7.9c0-4.2-3.4-7.7-7.6-7.9l-0.4-2.4h0.1
		c5.7,0,10.3,4.6,10.3,10.3S104.4,40.3,98.8,40.3"/>
	<path id="path1053" class="st0" d="M42.1,5.5H31.9V19h1.3V6.8h8.9c1.6,0,2.9,1.3,2.9,2.9V15c0,1.6-1.3,2.9-2.9,2.9h-7.8v1.3h7.8
		c2.3,0,4.2-1.9,4.2-4.2V9.7C46.3,7.4,44.4,5.5,42.1,5.5"/>
	<rect id="rect1055" x="24.8" y="5.3" class="st0" width="1.3" height="13.8"/>
	<path id="path1057" class="st0" d="M11.7,5.3c-0.9,0-1.6,0.5-2,1.4L4.8,19.1h1.4l4.7-12c0.2-0.5,0.7-0.6,0.8-0.6s0.6,0,0.8,0.5
		l3.2,7.1H9.1l-0.4,1.3h7.7l1.7,3.7h1.4L13.7,6.6C13.3,5.8,12.6,5.3,11.7,5.3"/>
	<path id="path1059" class="st0" d="M63.8,19.1L58.2,6.6c-0.4-0.8-1.1-1.3-2-1.3s-1.6,0.5-2,1.4l-4.8,12.4h1.4l4.7-12
		c0.2-0.5,0.7-0.6,0.8-0.6s0.6,0,0.8,0.5l3.1,7.2h-6.7l-0.4,1.3h7.7l1.7,3.7h1.3V19.1z"/>
	<path id="path1061" class="st0" d="M63.5,23.2h-1.9V23c0-0.2,0.2-0.4,0.4-0.4h1c0.2,0,0.4,0.2,0.4,0.4h0.5c0-0.5-0.4-0.9-0.9-0.9
		h-1c-0.5,0-0.9,0.4-0.9,0.9v0.8h2.5c0,0,0.1,0,0.1,0.1c0,0,0,0.1-0.1,0.1h-2.5v0.5h2.5c0.3,0,0.6-0.3,0.6-0.6S63.8,23.2,63.5,23.2"
		/>
	<rect id="rect1063" x="61.8" y="25" class="st0" width="1.4" height="15.2"/>
	<rect id="rect1063-0" x="4.8" y="25" class="st0" width="1.4" height="15.2"/>
	<path id="path1065" class="st0" d="M53.9,35.6c0,1.8-1.5,3.2-3.2,3.2H28.2c-0.3,0.4-0.7,0.9-1.3,1.4h23.8c2.6,0,4.6-2.1,4.6-4.6V25
		h-1.4C53.9,25,53.9,35.6,53.9,35.6z"/>
	<path id="path1067" class="st0" d="M28.3,35.6V25h-1.4v10.5c0,1.8-1.5,3.2-3.2,3.2H13.6v1.5h10.1C26.2,40.2,28.3,38.1,28.3,35.6"/>
	<path id="path1069" class="st0" d="M54,41.9c-0.7,0-1.3,0.6-1.3,1.3s0.6,1.3,1.3,1.3s1.3-0.6,1.3-1.3S54.7,41.9,54,41.9"/>
	<path id="path1071" class="st0" d="M50.1,41.9c-0.7,0-1.3,0.6-1.3,1.3s0.6,1.3,1.3,1.3s1.3-0.6,1.3-1.3S50.8,41.9,50.1,41.9"/>
	<line id="line1073" class="st0" x1="71.1" y1="4.6" x2="71.1" y2="40.7"/>
</g>
</svg>
