<?xml version="1.0" encoding="UTF-8" standalone="no"?>
<!-- Generator: Adobe Illustrator 24.0.2, SVG Export Plug-In . SVG Version: 6.00 Build 0)  -->

<svg
   version="1.1"
   id="Layer_1"
   x="0px"
   y="0px"
   viewBox="0 0 114.7 49.6"
   style="enable-background:new 0 0 114.7 49.6;"
   xml:space="preserve"
   sodipodi:docname="logo.svg"
   inkscape:version="1.2.2 (732a01da63, 2022-12-09)"
   xmlns:inkscape="http://www.inkscape.org/namespaces/inkscape"
   xmlns:sodipodi="http://sodipodi.sourceforge.net/DTD/sodipodi-0.dtd"
   xmlns="http://www.w3.org/2000/svg"
   xmlns:svg="http://www.w3.org/2000/svg"><defs
   id="defs1080" /><sodipodi:namedview
   id="namedview1078"
   pagecolor="#ffffff"
   bordercolor="#000000"
   borderopacity="0.25"
   inkscape:showpageshadow="2"
   inkscape:pageopacity="0.0"
   inkscape:pagecheckerboard="0"
   inkscape:deskcolor="#d1d1d1"
   showgrid="false"
   showguides="true"
   inkscape:zoom="119.35124"
   inkscape:cx="6.4305991"
   inkscape:cy="28.780597"
   inkscape:window-width="1920"
   inkscape:window-height="1027"
   inkscape:window-x="-8"
   inkscape:window-y="-8"
   inkscape:window-maximized="1"
   inkscape:current-layer="g1075"><sodipodi:guide
     position="40.666364,7.6065288"
     orientation="0,-1"
     id="guide12494"
     inkscape:locked="false" /><sodipodi:guide
     position="5.5928099,22.868264"
     orientation="1,0"
     id="guide12496"
     inkscape:locked="false" /></sodipodi:namedview>
<style
   type="text/css"
   id="style1049">
	.st0{fill:#51BE9B;}
	.st1{fill:#121213;}
</style>
<g
   id="g1075">
	<path
   class="st0"
   d="M108,24.4c-2.2-3-5.2-4.9-9-5.8L97.3,8.5c-0.2-1.1-1.1-2-2.2-2.1c-1.2-0.2-2.2,0.4-2.7,1.5l-4.9,10.6   c-0.2,0.4-0.5,0.7-1,0.9L77,23.1c-1.1,0.4-1.7,1.4-1.7,2.6c0.1,1.2,0.8,2.1,2,2.4l11.1,2.7c0,0.4-0.1,0.7-0.1,1.1   c0,6.2,5,11.2,11.2,11.2c6.2,0,11.2-5,11.2-11.2C110.8,29,109.7,26.4,108,24.4 M103.5,21.4c-1.2-0.5-2.6-0.7-3.9-0.7   c-0.1,0-0.2,0-0.2,0l-0.2-1.1C100.8,19.9,102.2,20.5,103.5,21.4 M93.1,8.2c0.4-0.8,1-1,1.6-1c0.1,0,0.2,0,0.3,0   c0.6,0.1,1.4,0.5,1.5,1.5l1.6,9.8c-2.9-0.5-6.2-0.4-10,0.3L93.1,8.2z M76.2,25.6c0-0.6,0.2-1.4,1.1-1.8l9.5-3.7   c0.2-0.1,0.4-0.2,0.6-0.3c4.2-0.9,7.8-1.1,10.9-0.5l1.6,9.3c-0.1,0-0.2,0-0.3,0c-1.8,0-3.2,1.4-3.2,3.2c0,0,0,0,0,0.1l-18.9-4.7   C76.6,27,76.2,26.2,76.2,25.6 M92.6,31.8l3.9,1c0.4,1.3,1.6,2.3,3,2.3c1.8,0,3.2-1.4,3.2-3.2c0-1.4-0.8-2.5-2-3l-0.7-4   c3.6,0.2,6.5,3.3,6.5,6.9c0,3.8-3.1,7-7,7C95.8,38.8,92.6,35.7,92.6,31.8C92.6,31.8,92.6,31.8,92.6,31.8 M99.6,42.1   c-5.7,0-10.3-4.6-10.3-10.3c0-0.3,0-0.6,0-0.9l2.4,0.6c0,0.1,0,0.2,0,0.3c0,4.3,3.5,7.9,7.9,7.9c4.3,0,7.9-3.5,7.9-7.9   c0-4.2-3.4-7.7-7.6-7.9l-0.4-2.4c0,0,0.1,0,0.1,0c5.7,0,10.3,4.6,10.3,10.3C109.9,37.5,105.2,42.1,99.6,42.1"
   id="path1051" />
	<path
   class="st1"
   d="M42.9,7.3H32.7l0,13.5H34l0-12.2h8.9c1.6,0,2.9,1.3,2.9,2.9v5.3c0,1.6-1.3,2.9-2.9,2.9h-7.8v1.3h7.8   c2.3,0,4.2-1.9,4.2-4.2v-5.3C47.1,9.2,45.2,7.3,42.9,7.3"
   id="path1053" />
	<rect
   x="25.6"
   y="7.1"
   class="st1"
   width="1.3"
   height="13.8"
   id="rect1055" />
	<path
   class="st1"
   d="M12.5,7.1c-0.9,0-1.6,0.5-2,1.4L5.6,20.9H7l4.7-12c0.2-0.5,0.7-0.6,0.8-0.6c0.1,0,0.6,0,0.8,0.5l3.2,7.1H9.9   l-0.4,1.3h7.7l1.7,3.7h1.4L14.5,8.4C14.1,7.6,13.4,7.1,12.5,7.1"
   id="path1057" />
	<path
   class="st1"
   d="M64.6,20.9L59,8.4c-0.4-0.8-1.1-1.3-2-1.3c-0.9,0-1.6,0.5-2,1.4l-4.8,12.4h1.4l4.7-12c0.2-0.5,0.7-0.6,0.8-0.6   c0.1,0,0.6,0,0.8,0.5L61,16h-6.7l-0.4,1.3h7.7l1.7,3.7H64.6z"
   id="path1059" />
	<path
   class="st0"
   d="M64.3,25h-1.9v-0.2c0-0.2,0.2-0.4,0.4-0.4h1c0.2,0,0.4,0.2,0.4,0.4h0.5c0-0.5-0.4-0.9-0.9-0.9h-1   c-0.5,0-0.9,0.4-0.9,0.9v0.8l2.5,0c0,0,0.1,0,0.1,0.1c0,0,0,0.1-0.1,0.1h-2.5v0.5h2.5c0.3,0,0.6-0.3,0.6-0.6S64.6,25,64.3,25"
   id="path1061" />
	<rect
   x="62.6"
   y="26.8"
   class="st0"
   width="1.4"
   height="15.2"
   id="rect1063" /><rect
   x="5.6008854"
   y="26.754471"
   class="st0"
   width="1.4"
   height="15.2"
   id="rect1063-0"
   style="fill:#51be9b" />
	<path
   class="st0"
   d="M54.7,37.4c0,1.8-1.5,3.2-3.2,3.2H29c-0.3,0.4-0.7,0.9-1.3,1.4h23.8c2.6,0,4.6-2.1,4.6-4.6V26.8h-1.4V37.4z"
   id="path1065" />
	<path
   class="st0"
   d="M29.1,37.4V26.8h-1.4v10.5c0,1.8-1.5,3.2-3.2,3.2H14.4V42h10.1C27,42,29.1,39.9,29.1,37.4"
   id="path1067" />
	<path
   class="st0"
   d="M54.8,43.7c-0.7,0-1.3,0.6-1.3,1.3c0,0.7,0.6,1.3,1.3,1.3c0.7,0,1.3-0.6,1.3-1.3   C56.1,44.3,55.5,43.7,54.8,43.7"
   id="path1069" />
	<path
   class="st0"
   d="M50.9,43.7c-0.7,0-1.3,0.6-1.3,1.3c0,0.7,0.6,1.3,1.3,1.3c0.7,0,1.3-0.6,1.3-1.3   C52.2,44.3,51.6,43.7,50.9,43.7"
   id="path1071" />
	<line
   class="st1"
   x1="71.9"
   y1="6.4"
   x2="71.9"
   y2="42.5"
   id="line1073" />
</g>
</svg>
