<svg xmlns="http://www.w3.org/2000/svg" width="24" height="16" viewBox="0 0 24 16"><defs><style>.a{fill:#777e90;}</style></defs><path class="a" d="M0,1A1,1,0,0,0,1,2H5A1,1,0,0,0,5,0H1A1,1,0,0,0,0,1Z" transform="translate(16)"/><path class="a" d="M5,12A5.006,5.006,0,0,1,0,7V5A5,5,0,1,1,10,5V6A1,1,0,0,1,9,7H2A3,3,0,0,0,6.849,9.363,1.494,1.494,0,0,1,7.768,9a1.069,1.069,0,0,1,.995.612.788.788,0,0,1-.189.886A4.964,4.964,0,0,1,5,12ZM5,2A3,3,0,0,0,2,5H8A3,3,0,0,0,5,2Z" transform="translate(14 4)"/><path class="a" d="M7,16H1.715A1.716,1.716,0,0,1,0,14.286V1.6A1.6,1.6,0,0,1,1.6,0H7A4,4,0,0,1,9.8,6.857,5,5,0,0,1,7,16ZM2,8v6H7A3,3,0,0,0,7,8ZM2,2V6H7A2,2,0,0,0,7,2Z" transform="translate(0 0)"/></svg>