<svg xmlns="http://www.w3.org/2000/svg" width="2542.922" height="1252.638" viewBox="0 0 2542.922 1252.638"><defs><style>.a{opacity:0.57;}.b{fill:none;stroke:#707070;opacity:0.09;}</style></defs><g class="a" transform="translate(446.348 369.591)"><path class="b" d="M38,500S262.867,718,677.327,702s339.5-226,487.212-220,224.867,174,487.212,138S2176.44,346,2176.44,346" transform="translate(-156.078 0.46)"/><path class="b" d="M38,500S262.867,718,677.327,702s339.5-226,487.212-220,224.867,174,487.212,138S2176.44,346,2176.44,346" transform="translate(-97.657 121.221)"/><path class="b" d="M38,500S262.867,718,677.327,702s339.5-226,487.212-220,224.867,174,487.212,138S2176.44,346,2176.44,346" transform="translate(-209.295 -124.699)"/><path class="b" d="M38,500S262.867,718,677.327,702s339.5-226,487.212-220,224.867,174,487.212,138S2176.44,346,2176.44,346" transform="translate(-80.202 179.699)"/><path class="b" d="M38,500S262.867,718,677.327,702s339.5-226,487.212-220,224.867,174,487.212,138S2176.44,346,2176.44,346" transform="translate(-182.84 -61.221)"/><path class="b" d="M38,500S262.867,718,677.327,702s339.5-226,487.212-220,224.867,174,487.212,138S2176.44,346,2176.44,346" transform="translate(-127.418 60.54)"/><path class="b" d="M38,500S262.867,718,677.327,702s339.5-226,487.212-220,224.867,174,487.212,138S2176.44,346,2176.44,346" transform="translate(-239.057 -185.381)"/><path class="b" d="M38,500S262.867,718,677.327,702s339.5-226,487.212-220,224.867,174,487.212,138S2176.44,346,2176.44,346" transform="translate(-167.408 -30.379)"/><path class="b" d="M38,500S262.867,718,677.327,702s339.5-226,487.212-220,224.867,174,487.212,138S2176.44,346,2176.44,346" transform="translate(-111.986 91.382)"/><path class="b" d="M38,500S262.867,718,677.327,702s339.5-226,487.212-220,224.867,174,487.212,138S2176.44,346,2176.44,346" transform="translate(-223.624 -154.539)"/><path class="b" d="M38,500S262.867,718,677.327,702s339.5-226,487.212-220,224.867,174,487.212,138S2176.44,346,2176.44,346" transform="translate(-89.532 150.859)"/><path class="b" d="M38,500S262.867,718,677.327,702s339.5-226,487.212-220,224.867,174,487.212,138S2176.44,346,2176.44,346" transform="translate(-197.17 -91.061)"/><path class="b" d="M38,500S262.867,718,677.327,702s339.5-226,487.212-220,224.867,174,487.212,138S2176.44,346,2176.44,346" transform="translate(-141.748 30.7)"/><path class="b" d="M38,500S262.867,718,677.327,702s339.5-226,487.212-220,224.867,174,487.212,138S2176.44,346,2176.44,346" transform="translate(-253.386 -215.22)"/><path class="b" d="M38,500S262.867,718,677.327,702s339.5-226,487.212-220,224.867,174,487.212,138S2176.44,346,2176.44,346" transform="translate(-159.692 -14.54)"/><path class="b" d="M38,500S262.867,718,677.327,702s339.5-226,487.212-220,224.867,174,487.212,138S2176.44,346,2176.44,346" transform="translate(-104.27 107.221)"/><path class="b" d="M38,500S262.867,718,677.327,702s339.5-226,487.212-220,224.867,174,487.212,138S2176.44,346,2176.44,346" transform="translate(-215.908 -138.699)"/><path class="b" d="M38,500S262.867,718,677.327,702s339.5-226,487.212-220,224.867,174,487.212,138S2176.44,346,2176.44,346" transform="translate(-83.815 164.699)"/><path class="b" d="M38,500S262.867,718,677.327,702s339.5-226,487.212-220,224.867,174,487.212,138S2176.44,346,2176.44,346" transform="translate(-189.454 -75.221)"/><path class="b" d="M38,500S262.867,718,677.327,702s339.5-226,487.212-220,224.867,174,487.212,138S2176.44,346,2176.44,346" transform="translate(-134.032 46.54)"/><path class="b" d="M38,500S262.867,718,677.327,702s339.5-226,487.212-220,224.867,174,487.212,138S2176.44,346,2176.44,346" transform="translate(-245.67 -199.381)"/><path class="b" d="M38,500S262.867,718,677.327,702s339.5-226,487.212-220,224.867,174,487.212,138S2176.44,346,2176.44,346" transform="translate(-174.021 -44.379)"/><path class="b" d="M38,500S262.867,718,677.327,702s339.5-226,487.212-220,224.867,174,487.212,138S2176.44,346,2176.44,346" transform="translate(-118.6 77.382)"/><path class="b" d="M38,500S262.867,718,677.327,702s339.5-226,487.212-220,224.867,174,487.212,138S2176.44,346,2176.44,346" transform="translate(-230.238 -168.539)"/><path class="b" d="M38,500S262.867,718,677.327,702s339.5-226,487.212-220,224.867,174,487.212,138S2176.44,346,2176.44,346" transform="translate(-96.145 136.859)"/><path class="b" d="M38,500S262.867,718,677.327,702s339.5-226,487.212-220,224.867,174,487.212,138S2176.44,346,2176.44,346" transform="translate(-202.783 -108.061)"/><path class="b" d="M38,500S262.867,718,677.327,702s339.5-226,487.212-220,224.867,174,487.212,138S2176.44,346,2176.44,346" transform="translate(-148.362 16.7)"/><path class="b" d="M38,500S262.867,718,677.327,702s339.5-226,487.212-220,224.867,174,487.212,138S2176.44,346,2176.44,346" transform="translate(-260 -229.22)"/><g transform="translate(-446 -369.22)"><path class="b" d="M38,500S262.867,718,677.327,702s339.5-226,487.212-220,224.867,174,487.212,138S2176.44,346,2176.44,346" transform="translate(183.56 127.601)"/><path class="b" d="M38,500S262.867,718,677.327,702s339.5-226,487.212-220,224.867,174,487.212,138S2176.44,346,2176.44,346" transform="translate(68.922 -117.32)"/><path class="b" d="M38,500S262.867,718,677.327,702s339.5-226,487.212-220,224.867,174,487.212,138S2176.44,346,2176.44,346" transform="translate(127.343 3.442)"/><path class="b" d="M38,500S262.867,718,677.327,702s339.5-226,487.212-220,224.867,174,487.212,138S2176.44,346,2176.44,346" transform="translate(12.705 -241.479)"/><path class="b" d="M38,500S262.867,718,677.327,702s339.5-226,487.212-220,224.867,174,487.212,138S2176.44,346,2176.44,346" transform="translate(153.798 66.919)"/><path class="b" d="M38,500S262.867,718,677.327,702s339.5-226,487.212-220,224.867,174,487.212,138S2176.44,346,2176.44,346" transform="translate(39.16 -178.001)"/><path class="b" d="M38,500S262.867,718,677.327,702s339.5-226,487.212-220,224.867,174,487.212,138S2176.44,346,2176.44,346" transform="translate(97.581 -57.24)"/><path class="b" d="M38,500S262.867,718,677.327,702s339.5-226,487.212-220,224.867,174,487.212,138S2176.44,346,2176.44,346" transform="translate(-17.057 -302.16)"/><path class="b" d="M38,500S262.867,718,677.327,702s339.5-226,487.212-220,224.867,174,487.212,138S2176.44,346,2176.44,346" transform="translate(169.23 97.761)"/><path class="b" d="M38,500S262.867,718,677.327,702s339.5-226,487.212-220,224.867,174,487.212,138S2176.44,346,2176.44,346" transform="translate(54.592 -147.159)"/><path class="b" d="M38,500S262.867,718,677.327,702s339.5-226,487.212-220,224.867,174,487.212,138S2176.44,346,2176.44,346" transform="translate(113.014 -26.398)"/><path class="b" d="M38,500S262.867,718,677.327,702s339.5-226,487.212-220,224.867,174,487.212,138S2176.44,346,2176.44,346" transform="translate(-1.624 -271.318)"/><path class="b" d="M38,500S262.867,718,677.327,702s339.5-226,487.212-220,224.867,174,487.212,138S2176.44,346,2176.44,346" transform="translate(139.468 37.08)"/><path class="b" d="M38,500S262.867,718,677.327,702s339.5-226,487.212-220,224.867,174,487.212,138S2176.44,346,2176.44,346" transform="translate(24.83 -207.841)"/><path class="b" d="M38,500S262.867,718,677.327,702s339.5-226,487.212-220,224.867,174,487.212,138S2176.44,346,2176.44,346" transform="translate(83.252 -87.08)"/><path class="b" d="M38,500S262.867,718,677.327,702s339.5-226,487.212-220,224.867,174,487.212,138S2176.44,346,2176.44,346" transform="translate(-31.386 -332)"/><path class="b" d="M38,500S262.867,718,677.327,702s339.5-226,487.212-220,224.867,174,487.212,138S2176.44,346,2176.44,346" transform="translate(176.946 113.601)"/><path class="b" d="M38,500S262.867,718,677.327,702s339.5-226,487.212-220,224.867,174,487.212,138S2176.44,346,2176.44,346" transform="translate(62.308 -131.32)"/><path class="b" d="M38,500S262.867,718,677.327,702s339.5-226,487.212-220,224.867,174,487.212,138S2176.44,346,2176.44,346" transform="translate(120.73 -10.558)"/><path class="b" d="M38,500S262.867,718,677.327,702s339.5-226,487.212-220,224.867,174,487.212,138S2176.44,346,2176.44,346" transform="translate(6.092 -255.479)"/><path class="b" d="M38,500S262.867,718,677.327,702s339.5-226,487.212-220,224.867,174,487.212,138S2176.44,346,2176.44,346" transform="translate(147.184 52.919)"/><path class="b" d="M38,500S262.867,718,677.327,702s339.5-226,487.212-220,224.867,174,487.212,138S2176.44,346,2176.44,346" transform="translate(32.546 -192.001)"/><path class="b" d="M38,500S262.867,718,677.327,702s339.5-226,487.212-220,224.867,174,487.212,138S2176.44,346,2176.44,346" transform="translate(90.968 -71.24)"/><path class="b" d="M38,500S262.867,718,677.327,702s339.5-226,487.212-220,224.867,174,487.212,138S2176.44,346,2176.44,346" transform="translate(-23.67 -316.16)"/><path class="b" d="M38,500S262.867,718,677.327,702s339.5-226,487.212-220,224.867,174,487.212,138S2176.44,346,2176.44,346" transform="translate(162.617 83.761)"/><path class="b" d="M38,500S262.867,718,677.327,702s339.5-226,487.212-220,224.867,174,487.212,138S2176.44,346,2176.44,346" transform="translate(47.979 -161.159)"/><path class="b" d="M38,500S262.867,718,677.327,702s339.5-226,487.212-220,224.867,174,487.212,138S2176.44,346,2176.44,346" transform="translate(106.4 -40.398)"/><path class="b" d="M38,500S262.867,718,677.327,702s339.5-226,487.212-220,224.867,174,487.212,138S2176.44,346,2176.44,346" transform="translate(-8.238 -285.318)"/><path class="b" d="M38,500S262.867,718,677.327,702s339.5-226,487.212-220,224.867,174,487.212,138S2176.44,346,2176.44,346" transform="translate(132.855 23.08)"/><path class="b" d="M38,500S262.867,718,677.327,702s339.5-226,487.212-220,224.867,174,487.212,138S2176.44,346,2176.44,346" transform="translate(18.217 -221.841)"/><path class="b" d="M38,500S262.867,718,677.327,702s339.5-226,487.212-220,224.867,174,487.212,138S2176.44,346,2176.44,346" transform="translate(76.638 -101.08)"/><path class="b" d="M38,500S262.867,718,677.327,702s339.5-226,487.212-220,224.867,174,487.212,138S2176.44,346,2176.44,346" transform="translate(-38 -346)"/></g></g></svg>