<svg xmlns="http://www.w3.org/2000/svg" width="2542.922" height="1252.638" viewBox="0 0 2542.922 1252.638"><defs><style>.a{fill:none;stroke:#707070;opacity:0.09;}</style></defs><g transform="translate(446.348 369.59)"><path class="a" d="M38,500S262.867,718,677.327,702s339.5-226,487.212-220,224.867,174,487.212,138S2176.44,346,2176.44,346" transform="translate(-156.078 0.46)"/><path class="a" d="M38,500S262.867,718,677.327,702s339.5-226,487.212-220,224.867,174,487.212,138S2176.44,346,2176.44,346" transform="translate(-97.657 121.221)"/><path class="a" d="M38,500S262.867,718,677.327,702s339.5-226,487.212-220,224.867,174,487.212,138S2176.44,346,2176.44,346" transform="translate(-209.295 -124.699)"/><path class="a" d="M38,500S262.867,718,677.327,702s339.5-226,487.212-220,224.867,174,487.212,138S2176.44,346,2176.44,346" transform="translate(-80.202 179.699)"/><path class="a" d="M38,500S262.867,718,677.327,702s339.5-226,487.212-220,224.867,174,487.212,138S2176.44,346,2176.44,346" transform="translate(-182.84 -61.221)"/><path class="a" d="M38,500S262.867,718,677.327,702s339.5-226,487.212-220,224.867,174,487.212,138S2176.44,346,2176.44,346" transform="translate(-127.418 60.54)"/><path class="a" d="M38,500S262.867,718,677.327,702s339.5-226,487.212-220,224.867,174,487.212,138S2176.44,346,2176.44,346" transform="translate(-239.057 -185.381)"/><path class="a" d="M38,500S262.867,718,677.327,702s339.5-226,487.212-220,224.867,174,487.212,138S2176.44,346,2176.44,346" transform="translate(-167.408 -30.379)"/><path class="a" d="M38,500S262.867,718,677.327,702s339.5-226,487.212-220,224.867,174,487.212,138S2176.44,346,2176.44,346" transform="translate(-111.986 91.382)"/><path class="a" d="M38,500S262.867,718,677.327,702s339.5-226,487.212-220,224.867,174,487.212,138S2176.44,346,2176.44,346" transform="translate(-223.624 -154.539)"/><path class="a" d="M38,500S262.867,718,677.327,702s339.5-226,487.212-220,224.867,174,487.212,138S2176.44,346,2176.44,346" transform="translate(-89.532 150.859)"/><path class="a" d="M38,500S262.867,718,677.327,702s339.5-226,487.212-220,224.867,174,487.212,138S2176.44,346,2176.44,346" transform="translate(-197.17 -91.061)"/><path class="a" d="M38,500S262.867,718,677.327,702s339.5-226,487.212-220,224.867,174,487.212,138S2176.44,346,2176.44,346" transform="translate(-141.748 30.7)"/><path class="a" d="M38,500S262.867,718,677.327,702s339.5-226,487.212-220,224.867,174,487.212,138S2176.44,346,2176.44,346" transform="translate(-253.386 -215.22)"/><path class="a" d="M38,500S262.867,718,677.327,702s339.5-226,487.212-220,224.867,174,487.212,138S2176.44,346,2176.44,346" transform="translate(-159.692 -14.54)"/><path class="a" d="M38,500S262.867,718,677.327,702s339.5-226,487.212-220,224.867,174,487.212,138S2176.44,346,2176.44,346" transform="translate(-104.27 107.221)"/><path class="a" d="M38,500S262.867,718,677.327,702s339.5-226,487.212-220,224.867,174,487.212,138S2176.44,346,2176.44,346" transform="translate(-215.908 -138.699)"/><path class="a" d="M38,500S262.867,718,677.327,702s339.5-226,487.212-220,224.867,174,487.212,138S2176.44,346,2176.44,346" transform="translate(-83.815 164.699)"/><path class="a" d="M38,500S262.867,718,677.327,702s339.5-226,487.212-220,224.867,174,487.212,138S2176.44,346,2176.44,346" transform="translate(-189.454 -75.221)"/><path class="a" d="M38,500S262.867,718,677.327,702s339.5-226,487.212-220,224.867,174,487.212,138S2176.44,346,2176.44,346" transform="translate(-134.032 46.54)"/><path class="a" d="M38,500S262.867,718,677.327,702s339.5-226,487.212-220,224.867,174,487.212,138S2176.44,346,2176.44,346" transform="translate(-245.67 -199.381)"/><path class="a" d="M38,500S262.867,718,677.327,702s339.5-226,487.212-220,224.867,174,487.212,138S2176.44,346,2176.44,346" transform="translate(-174.021 -44.379)"/><path class="a" d="M38,500S262.867,718,677.327,702s339.5-226,487.212-220,224.867,174,487.212,138S2176.44,346,2176.44,346" transform="translate(-118.6 77.382)"/><path class="a" d="M38,500S262.867,718,677.327,702s339.5-226,487.212-220,224.867,174,487.212,138S2176.44,346,2176.44,346" transform="translate(-230.238 -168.539)"/><path class="a" d="M38,500S262.867,718,677.327,702s339.5-226,487.212-220,224.867,174,487.212,138S2176.44,346,2176.44,346" transform="translate(-96.145 136.859)"/><path class="a" d="M38,500S262.867,718,677.327,702s339.5-226,487.212-220,224.867,174,487.212,138S2176.44,346,2176.44,346" transform="translate(-202.783 -108.061)"/><path class="a" d="M38,500S262.867,718,677.327,702s339.5-226,487.212-220,224.867,174,487.212,138S2176.44,346,2176.44,346" transform="translate(-148.362 16.7)"/><path class="a" d="M38,500S262.867,718,677.327,702s339.5-226,487.212-220,224.867,174,487.212,138S2176.44,346,2176.44,346" transform="translate(-260 -229.22)"/><g transform="translate(-220 -358.619)"><path class="a" d="M38,500S262.867,718,677.327,702s339.5-226,487.212-220,224.867,174,487.212,138S2176.44,346,2176.44,346" transform="translate(-42.44 117)"/><path class="a" d="M38,500S262.867,718,677.327,702s339.5-226,487.212-220,224.867,174,487.212,138S2176.44,346,2176.44,346" transform="translate(-157.078 -127.92)"/><path class="a" d="M38,500S262.867,718,677.327,702s339.5-226,487.212-220,224.867,174,487.212,138S2176.44,346,2176.44,346" transform="translate(-98.657 -7.159)"/><path class="a" d="M38,500S262.867,718,677.327,702s339.5-226,487.212-220,224.867,174,487.212,138S2176.44,346,2176.44,346" transform="translate(-213.295 -252.08)"/><path class="a" d="M38,500S262.867,718,677.327,702s339.5-226,487.212-220,224.867,174,487.212,138S2176.44,346,2176.44,346" transform="translate(-72.202 56.318)"/><path class="a" d="M38,500S262.867,718,677.327,702s339.5-226,487.212-220,224.867,174,487.212,138S2176.44,346,2176.44,346" transform="translate(-186.84 -188.602)"/><path class="a" d="M38,500S262.867,718,677.327,702s339.5-226,487.212-220,224.867,174,487.212,138S2176.44,346,2176.44,346" transform="translate(-128.418 -67.841)"/><path class="a" d="M38,500S262.867,718,677.327,702s339.5-226,487.212-220,224.867,174,487.212,138S2176.44,346,2176.44,346" transform="translate(-243.057 -312.761)"/><path class="a" d="M38,500S262.867,718,677.327,702s339.5-226,487.212-220,224.867,174,487.212,138S2176.44,346,2176.44,346" transform="translate(-56.77 87.16)"/><path class="a" d="M38,500S262.867,718,677.327,702s339.5-226,487.212-220,224.867,174,487.212,138S2176.44,346,2176.44,346" transform="translate(-171.408 -157.76)"/><path class="a" d="M38,500S262.867,718,677.327,702s339.5-226,487.212-220,224.867,174,487.212,138S2176.44,346,2176.44,346" transform="translate(-112.986 -36.999)"/><path class="a" d="M38,500S262.867,718,677.327,702s339.5-226,487.212-220,224.867,174,487.212,138S2176.44,346,2176.44,346" transform="translate(-227.624 -281.919)"/><path class="a" d="M38,500S262.867,718,677.327,702s339.5-226,487.212-220,224.867,174,487.212,138S2176.44,346,2176.44,346" transform="translate(-86.532 26.479)"/><path class="a" d="M38,500S262.867,718,677.327,702s339.5-226,487.212-220,224.867,174,487.212,138S2176.44,346,2176.44,346" transform="translate(-201.17 -218.442)"/><path class="a" d="M38,500S262.867,718,677.327,702s339.5-226,487.212-220,224.867,174,487.212,138S2176.44,346,2176.44,346" transform="translate(-142.748 -97.68)"/><path class="a" d="M38,500S262.867,718,677.327,702s339.5-226,487.212-220,224.867,174,487.212,138S2176.44,346,2176.44,346" transform="translate(-257.386 -342.601)"/><path class="a" d="M38,500S262.867,718,677.327,702s339.5-226,487.212-220,224.867,174,487.212,138S2176.44,346,2176.44,346" transform="translate(-49.054 103)"/><path class="a" d="M38,500S262.867,718,677.327,702s339.5-226,487.212-220,224.867,174,487.212,138S2176.44,346,2176.44,346" transform="translate(-163.692 -141.92)"/><path class="a" d="M38,500S262.867,718,677.327,702s339.5-226,487.212-220,224.867,174,487.212,138S2176.44,346,2176.44,346" transform="translate(-105.27 -21.159)"/><path class="a" d="M38,500S262.867,718,677.327,702s339.5-226,487.212-220,224.867,174,487.212,138S2176.44,346,2176.44,346" transform="translate(-219.908 -266.08)"/><path class="a" d="M38,500S262.867,718,677.327,702s339.5-226,487.212-220,224.867,174,487.212,138S2176.44,346,2176.44,346" transform="translate(-78.815 42.318)"/><path class="a" d="M38,500S262.867,718,677.327,702s339.5-226,487.212-220,224.867,174,487.212,138S2176.44,346,2176.44,346" transform="translate(-193.454 -202.602)"/><path class="a" d="M38,500S262.867,718,677.327,702s339.5-226,487.212-220,224.867,174,487.212,138S2176.44,346,2176.44,346" transform="translate(-135.032 -81.841)"/><path class="a" d="M38,500S262.867,718,677.327,702s339.5-226,487.212-220,224.867,174,487.212,138S2176.44,346,2176.44,346" transform="translate(-249.67 -326.761)"/><path class="a" d="M38,500S262.867,718,677.327,702s339.5-226,487.212-220,224.867,174,487.212,138S2176.44,346,2176.44,346" transform="translate(-63.383 73.16)"/><path class="a" d="M38,500S262.867,718,677.327,702s339.5-226,487.212-220,224.867,174,487.212,138S2176.44,346,2176.44,346" transform="translate(-178.021 -171.76)"/><path class="a" d="M38,500S262.867,718,677.327,702s339.5-226,487.212-220,224.867,174,487.212,138S2176.44,346,2176.44,346" transform="translate(-119.6 -50.999)"/><path class="a" d="M38,500S262.867,718,677.327,702s339.5-226,487.212-220,224.867,174,487.212,138S2176.44,346,2176.44,346" transform="translate(-234.238 -295.919)"/><path class="a" d="M38,500S262.867,718,677.327,702s339.5-226,487.212-220,224.867,174,487.212,138S2176.44,346,2176.44,346" transform="translate(-93.145 12.479)"/><path class="a" d="M38,500S262.867,718,677.327,702s339.5-226,487.212-220,224.867,174,487.212,138S2176.44,346,2176.44,346" transform="translate(-207.783 -232.442)"/><path class="a" d="M38,500S262.867,718,677.327,702s339.5-226,487.212-220,224.867,174,487.212,138S2176.44,346,2176.44,346" transform="translate(-149.362 -111.68)"/><path class="a" d="M38,500S262.867,718,677.327,702s339.5-226,487.212-220,224.867,174,487.212,138S2176.44,346,2176.44,346" transform="translate(-264 -356.601)"/></g></g></svg>