<svg xmlns="http://www.w3.org/2000/svg" width="14.925" height="14.924" viewBox="0 0 14.925 14.924"><defs><style>.a{fill:#51be9b;}</style></defs><path class="a" d="M10.447,14.924c-2.115,0-4.409-1.221-6.817-3.629A14.431,14.431,0,0,1,.692,7.331,6.618,6.618,0,0,1,0,4.248,4.1,4.1,0,0,1,1.063,1.511c.454-.461.556-.563.78-.788L1.927.64A2.184,2.184,0,0,1,5.219.874L6.543,2.639a2.195,2.195,0,0,1-.2,2.855l-.977.977A5.8,5.8,0,0,0,6.719,8.206,5.792,5.792,0,0,0,8.453,9.56l.977-.977a2.185,2.185,0,0,1,2.855-.2l1.766,1.324A2.185,2.185,0,0,1,14.285,13l-.868.867a4.5,4.5,0,0,1-2.741,1.054C10.6,14.923,10.523,14.924,10.447,14.924ZM3.471,1.456h0a.723.723,0,0,0-.514.213c-.288.288-.615.615-.866.868a2.449,2.449,0,0,0-.63,1.773c-.1,2.182,1.686,4.442,3.2,5.954,1.461,1.461,3.651,3.2,5.791,3.2.055,0,.11,0,.164,0a2.891,2.891,0,0,0,1.775-.629l.867-.868a.728.728,0,0,0-.078-1.1L11.412,9.547a.729.729,0,0,0-.952.068l-.416.418c-.213.214-.434.436-.749.75a1.042,1.042,0,0,1-.759.317c-.99,0-2.195-1.209-2.774-1.79l-.073-.073-.057-.057c-.688-.686-2.516-2.509-1.49-3.546L5.31,4.465a.732.732,0,0,0,.068-.952L4.054,1.748a.721.721,0,0,0-.583-.291Z"/></svg>