<svg width="42" height="30" viewBox="0 0 42 30" fill="none" xmlns="http://www.w3.org/2000/svg">
<g clip-path="url(#clip0_167_37)">
<mask id="mask0_167_37" style="mask-type:luminance" maskUnits="userSpaceOnUse" x="0" y="0" width="42" height="30">
<path d="M41.076 0H0V29.351H41.076V0Z" fill="white"/>
</mask>
<g mask="url(#mask0_167_37)">
<path d="M31.554 9.78702C33.5301 9.75966 35.4555 10.4129 37.007 11.637C38.9884 13.0714 40.3563 15.1999 40.838 17.598C41.1586 19.0359 41.1421 20.5284 40.7897 21.9588C40.4374 23.3892 39.7588 24.7186 38.807 25.843C37.4274 27.6195 35.4268 28.8084 33.207 29.171C31.9409 29.4291 30.6361 29.4325 29.3687 29.181C28.1012 28.9294 26.8966 28.428 25.825 27.706C24.7325 26.9999 23.7983 26.0749 23.0812 24.9895C22.3642 23.9042 21.8799 22.682 21.659 21.4C21.402 19.6343 21.4402 17.8382 21.772 16.085C22.0976 13.8102 22.8371 11.6143 23.954 9.60602C25.8216 6.27089 28.7277 3.63728 32.23 2.10602C34.1741 1.19027 36.2444 0.570732 38.372 0.268016C38.927 0.195016 39.481 0.129016 40.034 0.038016C40.1455 0.0124891 40.261 0.0101545 40.3734 0.0311573C40.4858 0.0521601 40.5927 0.0960515 40.6874 0.160105C40.7821 0.224158 40.8626 0.307005 40.924 0.403497C40.9853 0.49999 41.0262 0.608068 41.044 0.721016C41.1041 0.951599 41.0789 1.19612 40.9731 1.40961C40.8672 1.6231 40.6879 1.79121 40.468 1.88302C39.089 2.67602 37.679 3.42202 36.368 4.31102C34.5786 5.44664 33.0651 6.96726 31.938 8.76202C31.794 9.02085 31.6654 9.28798 31.553 9.56202C31.532 9.60602 31.553 9.67502 31.561 9.78702" fill="#CB1F33"/>
<path d="M9.945 9.633C10.9693 9.78782 11.9824 10.0089 12.978 10.295C14.6713 10.9002 16.1609 11.9679 17.278 13.377C18.4582 14.7974 19.2099 16.5243 19.445 18.356C19.7298 20.4555 19.3005 22.5899 18.226 24.416C17.561 25.6371 16.6329 26.6951 15.5087 27.5133C14.3845 28.3316 13.0924 28.8896 11.726 29.147C10.3521 29.4457 8.92932 29.4393 7.55812 29.1283C6.18691 28.8172 4.90064 28.2092 3.79 27.347C1.85458 25.9511 0.538654 23.8565 0.120997 21.507C-0.0226098 20.0998 -0.033993 18.6823 0.0869975 17.273C0.170073 15.7515 0.474958 14.2503 0.991997 12.817C1.67776 10.6856 2.76648 8.70575 4.199 6.985C6.23583 4.58262 8.85154 2.73922 11.799 1.629C13.7382 0.904368 15.7453 0.376384 17.79 0.0529955C18.1276 -0.0216529 18.4779 -0.0161732 18.813 0.0689955C18.9482 0.11515 19.0718 0.189982 19.1753 0.288365C19.2789 0.386748 19.36 0.506357 19.413 0.638996C19.4543 0.794103 19.4601 0.956503 19.4302 1.11419C19.4003 1.27188 19.3353 1.42081 19.24 1.55C18.64 2.005 17.934 2.314 17.306 2.735C15.935 3.651 14.574 4.582 13.234 5.543C12.1728 6.33646 11.2678 7.31973 10.565 8.443C10.3341 8.82777 10.1255 9.22542 9.94 9.634" fill="#CB1F33"/>
</g>
</g>
<defs>
<clipPath id="clip0_167_37">
<rect width="41.076" height="29.351" fill="white"/>
</clipPath>
</defs>
</svg>
