<svg xmlns="http://www.w3.org/2000/svg" width="14.409" height="14.475" viewBox="0 0 14.409 14.475"><defs><style>.a{fill:#51be9b;stroke:#51be9b;stroke-width:0.2px;}</style></defs><path class="a" d="M.057,14.234l1-3.655A7.053,7.053,0,1,1,3.8,13.253l-3.739.981ZM3.97,11.976a5.849,5.849,0,1,0-1.627-1.582L1.75,12.558l2.219-.582Zm6.754-3.241c-.044-.074-.161-.117-.338-.206s-1.043-.515-1.2-.574-.279-.088-.4.088-.455.574-.558.691-.206.132-.382.044A4.81,4.81,0,0,1,6.426,7.9a5.305,5.305,0,0,1-.98-1.221c-.1-.176-.011-.272.077-.359s.176-.206.265-.309a1.156,1.156,0,0,0,.178-.294.324.324,0,0,0-.015-.309c-.044-.088-.4-.955-.543-1.308s-.289-.3-.4-.3L4.672,3.8a.646.646,0,0,0-.47.221,1.978,1.978,0,0,0-.617,1.47A3.43,3.43,0,0,0,4.305,7.31,7.858,7.858,0,0,0,7.316,9.971a10.2,10.2,0,0,0,1,.371,2.422,2.422,0,0,0,1.11.07,1.815,1.815,0,0,0,1.19-.838,1.468,1.468,0,0,0,.1-.839Z" transform="translate(0.085 0.1)"/></svg>