<?xml version="1.0" encoding="utf-8"?>
<!-- Generator: Adobe Illustrator 27.7.0, SVG Export Plug-In . SVG Version: 6.00 Build 0)  -->
<svg version="1.1" id="Layer_1" xmlns="http://www.w3.org/2000/svg" xmlns:xlink="http://www.w3.org/1999/xlink" x="0px" y="0px"
	 viewBox="0 0 1920 885" style="enable-background:new 0 0 1920 885;" xml:space="preserve">
<style type="text/css">
	.st0{opacity:0.1;fill:#707070;enable-background:new    ;}
	.st1{opacity:0.1;}
	.st2{fill:none;stroke:#707070;}
</style>
<path class="st0" d="M2210.7,431.8l-0.4-0.5v0.8C2210.5,431.9,2210.7,431.8,2210.7,431.8z"/>
<g class="st1">
	<path class="st2" d="M-48.1,363.9L-48.1,363.9c557.3,502.5,1451.5,502.5,2008.8,0l7.4-6.7"/>
	<path class="st2" d="M-48.1,341.6L-48.1,341.6c557.3,502.5,1451.5,502.5,2008.8,0l7.4-6.7"/>
	<path class="st2" d="M-48.1,319.4L-48.1,319.4c557.3,502.5,1451.5,502.5,2008.8,0l7.4-6.7"/>
	<path class="st2" d="M-48.1,297.2L-48.1,297.2c557.3,502.5,1451.5,502.5,2008.8,0l7.4-6.7"/>
	<path class="st2" d="M-48.1,275L-48.1,275c557.3,502.5,1451.5,502.5,2008.8,0l7.4-6.7"/>
	<path class="st2" d="M-48.1,252.8L-48.1,252.8c557.3,502.5,1451.5,502.5,2008.8,0l7.4-6.7"/>
	<path class="st2" d="M-48.1,230.5L-48.1,230.5c557.3,502.5,1451.5,502.5,2008.8,0l7.4-6.7"/>
	<path class="st2" d="M-48.1,208.3L-48.1,208.3c557.3,502.5,1451.5,502.5,2008.8,0l7.4-6.7"/>
	<path class="st2" d="M-48.1,186.1L-48.1,186.1c557.3,502.5,1451.5,502.5,2008.8,0l7.4-6.7"/>
	<path class="st2" d="M-48.1,163.9L-48.1,163.9c557.3,502.5,1451.5,502.5,2008.8,0l7.4-6.7"/>
	<path class="st2" d="M-48.1,141.7L-48.1,141.7c557.3,502.5,1451.5,502.5,2008.8,0l7.4-6.7"/>
	<path class="st2" d="M-48.1,119.5L-48.1,119.5c557.3,502.5,1451.5,502.5,2008.8,0l7.4-6.7"/>
	<path class="st2" d="M-48.1,97.2L-48.1,97.2c557.3,502.5,1451.5,502.5,2008.8,0l7.4-6.7"/>
	<path class="st2" d="M-48.1,75L-48.1,75c557.3,502.5,1451.5,502.5,2008.8,0l7.4-6.7"/>
	<path class="st2" d="M-48.1,52.8L-48.1,52.8c557.3,502.5,1451.5,502.5,2008.8,0l7.4-6.7"/>
	<path class="st2" d="M-48.1,30.6L-48.1,30.6c557.3,502.5,1451.5,502.5,2008.8,0l7.4-6.7"/>
	<path class="st2" d="M-48.1,8.4L-48.1,8.4c557.3,502.5,1451.5,502.5,2008.8,0l7.4-6.7"/>
	<path class="st2" d="M-48.1-13.9L-48.1-13.9c557.3,502.5,1451.5,502.5,2008.8,0l7.4-6.7"/>
	<path class="st2" d="M-48.1-36.1L-48.1-36.1c557.3,502.5,1451.5,502.5,2008.8,0l7.4-6.7"/>
	<path class="st2" d="M-48.1-58.3L-48.1-58.3c557.3,502.5,1451.5,502.5,2008.8,0l7.4-6.7"/>
	<path class="st2" d="M-48.1-80.5L-48.1-80.5C509.2,422,1403.4,422,1960.7-80.5l7.4-6.7"/>
	<path class="st2" d="M-48.1-102.7L-48.1-102.7c557.3,502.5,1451.5,502.5,2008.8,0l7.4-6.7"/>
	<path class="st2" d="M-48.1-125L-48.1-125c557.3,502.5,1451.5,502.5,2008.8,0l7.4-6.7"/>
	<path class="st2" d="M-48.1-147.2L-48.1-147.2c557.3,502.5,1451.5,502.5,2008.8,0l7.4-6.7"/>
	<path class="st2" d="M-48.1-169.4L-48.1-169.4c557.3,502.5,1451.5,502.5,2008.8,0l7.4-6.7"/>
	<path class="st2" d="M-48.1-191.6L-48.1-191.6c557.3,502.5,1451.5,502.5,2008.8,0l7.4-6.7"/>
	<path class="st2" d="M-48.1-213.8L-48.1-213.8c557.3,502.5,1451.5,502.5,2008.8,0l7.4-6.7"/>
	<path class="st2" d="M-48.1-236L-48.1-236c557.3,502.5,1451.5,502.5,2008.8,0l7.4-6.7"/>
	<path class="st2" d="M-48.1-258.3L-48.1-258.3c557.3,502.5,1451.5,502.5,2008.8,0l7.4-6.7"/>
	<path class="st2" d="M-48.1-280.5L-48.1-280.5c557.3,502.5,1451.5,502.5,2008.8,0l7.4-6.7"/>
	<path class="st2" d="M-48.1-302.7L-48.1-302.7c557.3,502.5,1451.5,502.5,2008.8,0l7.4-6.7"/>
	<path class="st2" d="M-48.1-324.9L-48.1-324.9c557.3,502.5,1451.5,502.5,2008.8,0l7.4-6.7"/>
	<path class="st2" d="M-48.1-347.1L-48.1-347.1c557.3,502.5,1451.5,502.5,2008.8,0l7.4-6.7"/>
	<path class="st2" d="M-48.1-369.4L-48.1-369.4c557.3,502.5,1451.5,502.5,2008.8,0l7.4-6.7"/>
	<path class="st2" d="M-48.1-391.6L-48.1-391.6c557.3,502.5,1451.5,502.5,2008.8,0l7.4-6.7"/>
	<path class="st2" d="M-48.1-413.8L-48.1-413.8c557.3,502.5,1451.5,502.5,2008.8,0l7.4-6.7"/>
	<path class="st2" d="M-48.1-436L-48.1-436c557.3,502.5,1451.5,502.5,2008.8,0l7.4-6.7"/>
	<path class="st2" d="M-48.1-458.2L-48.1-458.2c557.3,502.5,1451.5,502.5,2008.8,0l7.4-6.7"/>
	<path class="st2" d="M-48.1-480.5L-48.1-480.5C509.2,22,1403.4,22,1960.7-480.5l7.4-6.7"/>
	<path class="st2" d="M-48.1-502.7L-48.1-502.7c557.3,502.5,1451.5,502.5,2008.8,0l7.4-6.7"/>
	<path class="st2" d="M-48.1-524.9L-48.1-524.9c557.3,502.5,1451.5,502.5,2008.8,0l7.4-6.7"/>
	<path class="st2" d="M-48.1-547.1L-48.1-547.1c557.3,502.5,1451.5,502.5,2008.8,0l7.4-6.7"/>
	<path class="st2" d="M-48.1-569.3L-48.1-569.3c557.3,502.5,1451.5,502.5,2008.8,0l7.4-6.7"/>
</g>
</svg>
