<?xml version="1.0" encoding="utf-8"?>
<!-- Generator: Adobe Illustrator 24.0.2, SVG Export Plug-In . SVG Version: 6.00 Build 0)  -->
<svg version="1.1" id="Layer_1" xmlns="http://www.w3.org/2000/svg" xmlns:xlink="http://www.w3.org/1999/xlink" x="0px" y="0px"
	 viewBox="0 0 1920 885" style="enable-background:new 0 0 1920 885;" xml:space="preserve">
<style type="text/css">
	.st0{opacity:0.1;fill:#707070;}
	.st1{opacity:0.1;fill:none;}
</style>
<path class="st0" d="M1921.6,81.8l-0.3-0.4v0.7C1921.4,81.9,1921.6,81.8,1921.6,81.8z"/>
<path class="st1" d="M508.3,631.3c256.1-9.9,325.1-93.8,375.5-155.1c30.8-37.5,55.2-67.2,111.8-64.9c58.4,2.4,106.6,30.5,157.8,60.3
	c80,46.6,170.7,99.5,329.4,77.7c135.4-18.6,270.8-92.1,360.5-150.4c29.1-18.9,55.4-37.6,78.1-54.4v-17.7
	c-23.9,18-52.4,38.2-84.1,58.9c-57.1,37.2-113.7,68.3-168.1,92.5c-68,30.3-132.9,49.8-192.8,58c-25.4,3.5-49.1,5.1-71.2,5.1
	c-116.6,0-191.4-43.6-258.8-82.9c-51-29.7-99.2-57.8-157.3-60.2c-56.1-2.3-80.3,27.2-111,64.5c-50.5,61.4-119.7,145.6-376.2,155.5
	c-14.4,0.6-28.8,0.8-43.1,0.8c-79.6,0-157.4-8.6-231.8-25.7c-70.2-16.1-137.7-39.7-200.4-70.2c-9.2-4.5-18-9-26.5-13.4v9.3
	c10.6,5.7,21.8,11.5,33.6,17.2C132.1,584.2,294.4,639.6,508.3,631.3z"/>
<path class="st1" d="M467.5,538c256.1-9.9,325.1-93.8,375.5-155.1c30.8-37.5,55.2-67.2,111.8-64.9c58.4,2.4,106.6,30.5,157.8,60.3
	c80,46.6,170.7,99.5,329.4,77.7c135.4-18.6,270.8-92.1,360.5-150.4c49-31.9,90.1-62.8,118.9-85.8v-18c-29,23.3-72.4,56.4-124.9,90.6
	c-57.1,37.2-113.7,68.3-168.1,92.5c-68,30.3-132.9,49.8-192.8,58c-25.4,3.5-49.1,5.1-71.2,5.1c-116.6,0-191.4-43.6-258.8-82.9
	c-51-29.7-99.2-57.8-157.3-60.2c-56.1-2.3-80.3,27.2-110.9,64.5C786.7,430.9,717.6,515.1,461,525c-14.4,0.6-28.8,0.8-43.1,0.8
	c-79.6,0-157.4-8.6-231.8-25.7C121.2,485.3,58.7,464,0,436.7v9.8C99.1,493.6,258.7,546.1,467.5,538z"/>
<path class="st1" d="M475.2,553.8c256.1-9.9,325.1-93.8,375.5-155.1c30.8-37.5,55.2-67.2,111.8-64.9c58.4,2.4,106.6,30.5,157.8,60.3
	c80,46.6,170.7,99.5,329.4,77.7c135.4-18.6,270.8-92.1,360.5-150.4c44.8-29.1,83-57.5,111.2-79.7v-20.6
	c-28.8,22.9-69.6,53.7-118.3,85.3c-57.1,37.2-113.7,68.3-168.1,92.5c-68,30.3-132.9,49.8-192.8,58c-25.4,3.5-49.1,5.1-71.2,5.1
	c-116.6,0-191.4-43.6-258.8-82.9c-51-29.7-99.2-57.8-157.3-60.2c-56.1-2.3-80.3,27.2-111,64.5C793.3,444.9,724.1,529.1,467.6,539
	c-14.4,0.6-28.8,0.8-43.1,0.8c-79.6,0-157.4-8.6-231.8-25.7C125.3,498.7,60.6,476.3,0,447.6v11c0.2,0.1,0.3,0.1,0.5,0.2
	C99,506.7,261.3,562,475.2,553.8z"/>
<path class="st1" d="M488.4,584.4c256.1-9.9,325.1-93.8,375.5-155.1c30.8-37.5,55.2-67.2,111.8-64.9c58.4,2.4,106.6,30.5,157.8,60.3
	c80,46.6,170.7,99.5,329.4,77.7c135.4-18.6,270.8-92.1,360.5-150.4c38.1-24.8,71.5-49.1,98-69.4v-20.4
	c-27.4,21.3-62.9,47.3-104,74.1c-57.1,37.2-113.7,68.3-168.1,92.5c-68,30.3-132.9,49.8-192.8,58c-25.4,3.5-49.1,5.1-71.2,5.1
	c-116.6,0-191.4-43.6-258.8-82.9c-51-29.7-99.2-57.8-157.3-60.2c-56.1-2.3-80.3,27.2-111,64.5c-50.5,61.4-119.7,145.6-376.2,155.5
	c-14.4,0.6-28.8,0.8-43.1,0.8c-79.6,0-157.4-8.6-231.8-25.7c-70.2-16.1-137.7-39.7-200.4-70.2c-2.2-1.1-4.4-2.2-6.6-3.2v12.2
	c4.5,2.3,9,4.5,13.7,6.8C112.2,537.3,274.5,592.6,488.4,584.4z"/>
<path class="st1" d="M481.8,567.8c256.1-9.9,325.1-93.8,375.5-155.1c30.8-37.5,55.2-67.1,111.8-64.9c58.4,2.4,106.6,30.5,157.8,60.3
	c80,46.6,170.7,99.5,329.4,77.7c135.4-18.6,270.8-92.1,360.5-150.4c41.4-26.9,77.1-53.2,104.6-74.5V243
	c-28.2,22.1-66.1,50.3-110.6,79.2c-57.1,37.2-113.7,68.3-168.1,92.5c-68,30.3-132.9,49.8-192.8,58c-25.4,3.5-49.1,5.1-71.2,5.1
	c-116.6,0-191.4-43.6-258.8-82.9c-51-29.7-99.2-57.8-157.3-60.2c-56.1-2.3-80.3,27.2-111,64.5C801,460.7,731.8,544.9,475.3,554.8
	c-14.4,0.6-28.8,0.8-43.1,0.8c-79.6,0-157.4-8.6-231.8-25.7C130.2,513.9,62.7,490.2,0,459.7v9.6c2.3,1.2,4.7,2.3,7.1,3.5
	C105.6,520.7,267.9,576.1,481.8,567.8z"/>
<path class="st1" d="M523.7,662.1c256.1-9.9,325.1-93.8,375.5-155.1c30.8-37.5,55.2-67.2,111.8-64.9c58.4,2.4,106.6,30.5,157.8,60.3
	c80,46.6,170.7,99.5,329.4,77.7c135.4-18.6,270.8-92.1,360.5-150.4c22.7-14.8,43.8-29.4,62.7-43.1V369
	c-20.4,14.9-43.5,31.1-68.7,47.5c-57.1,37.2-113.7,68.3-168.1,92.5c-68,30.3-132.9,49.8-192.8,58c-25.4,3.5-49.1,5.1-71.2,5.1
	c-116.6,0-191.4-43.6-258.8-82.9c-51-29.7-99.2-57.8-157.3-60.2c-56.1-2.3-80.3,27.2-111,64.5C842.9,555,773.7,639.2,517.2,649.1
	c-14.4,0.6-28.8,0.8-43.1,0.8c-79.6,0-157.4-8.6-231.8-25.7c-70.2-16.1-137.7-39.7-200.4-70.2C26.9,546.8,13,539.5,0,532.3v9.1
	c14.9,8.5,31.3,17.2,49,25.8C147.5,615,309.8,670.3,523.7,662.1z"/>
<path class="st1" d="M501.7,617.3c256.1-9.9,325.1-93.8,375.5-155.1C908,424.6,932.4,395,989,397.3c58.4,2.4,106.6,30.5,157.8,60.3
	c80,46.6,170.7,99.5,329.4,77.7c135.4-18.6,270.8-92.1,360.5-150.4c32-20.8,60.6-41.3,84.7-59.3v-20.5
	c-25.4,19.3-56.6,41.8-91.8,64.7c-57.1,37.2-113.7,68.3-168.1,92.5c-68,30.3-132.9,49.8-192.8,58c-25.4,3.5-49.1,5.1-71.2,5.1
	c-116.6,0-191.4-43.6-258.7-82.9c-51-29.7-99.2-57.8-157.3-60.2c-56.1-2.3-80.3,27.2-111,64.5c-50.5,61.4-119.7,145.6-376.2,155.5
	c-14.4,0.6-28.8,0.8-43.1,0.8c-79.6,0-157.4-8.6-231.8-25.7C149,561.5,81.5,537.8,18.8,507.3c-6.4-3.1-12.7-6.3-18.8-9.4v10.7
	c8.6,4.6,17.6,9.1,27,13.7C125.5,570.2,287.8,625.6,501.7,617.3z"/>
<path class="st1" d="M494,601.4c256.1-9.9,325.1-93.8,375.5-155.1c30.8-37.5,55.2-67.2,111.8-64.9c58.4,2.4,106.6,30.5,157.8,60.3
	c80,46.6,170.7,99.5,329.4,77.7c135.4-18.6,270.8-92.1,360.5-150.4c35.5-23.1,66.9-45.7,92.4-65.1v-20c-26.4,20.3-59.5,44.4-97.4,69
	c-57.1,37.2-113.7,68.3-168.1,92.5c-68,30.3-132.9,49.8-192.8,58c-25.4,3.5-49.1,5.1-71.2,5.1c-116.6,0-191.4-43.6-258.8-82.9
	c-51-29.7-99.2-57.8-157.3-60.2c-56.1-2.3-80.3,27.2-111,64.5C814.2,491.3,745,575.5,488.5,585.4c-14.4,0.6-28.8,0.8-43.1,0.8
	c-79.6,0-157.4-8.6-231.8-25.7c-70.2-16.1-137.7-39.7-200.4-70.2c-4.5-2.2-8.9-4.4-13.2-6.5v13c6.2,3.2,12.6,6.4,19.3,9.7
	C117.8,554.3,280.1,609.6,494,601.4z"/>
<path class="st1" d="M517.1,648.1c256.1-9.9,325.1-93.8,375.5-155.1c30.8-37.5,55.2-67.1,111.8-64.9c58.4,2.4,106.6,30.5,157.8,60.3
	c80,46.6,170.7,99.5,329.4,77.7c135.4-18.6,270.8-92.1,360.5-150.4c25.4-16.5,48.7-32.8,69.3-47.9v-22c-22.5,16.7-48.6,35.2-77.5,54
	c-57.1,37.2-113.7,68.3-168.1,92.5c-68,30.3-132.9,49.8-192.8,58c-25.4,3.5-49.1,5.1-71.2,5.1c-116.6,0-191.4-43.6-258.8-82.9
	c-51-29.7-99.2-57.8-157.3-60.2c-56.1-2.3-80.3,27.2-111,64.5c-50.5,61.4-119.7,145.6-376.2,155.5c-14.4,0.6-28.8,0.8-43.1,0.8
	c-79.6,0-157.4-8.6-231.8-25.7c-70.2-16.1-137.7-39.7-200.4-70.2c-11.6-5.6-22.6-11.3-33.1-17v10.8c13.1,7.3,27.2,14.7,42.4,22.1
	C140.9,601,303.2,656.4,517.1,648.1z"/>
<path class="st1" d="M428.7,450.9C684.8,441,753.8,357,804.2,295.7c30.8-37.5,55.2-67.2,111.8-64.9c58.4,2.4,106.6,30.5,157.8,60.3
	c80,46.6,170.7,99.5,329.4,77.7c135.4-18.6,270.8-92.1,360.5-150.4c80.1-52.1,139-101.7,157.7-117.9V82.1
	c-5.1,4.6-69.9,62.2-163.7,123.2c-57.1,37.2-113.7,68.3-168.1,92.5c-68,30.3-132.9,49.8-192.8,58c-25.4,3.5-49.1,5.1-71.2,5.1
	c-116.6,0-191.4-43.6-258.8-82.9c-51-29.7-99.2-57.8-157.3-60.2c-56.1-2.3-80.3,27.2-111,64.5C747.9,343.8,678.7,428,422.2,437.9
	c-14.4,0.6-28.8,0.8-43.1,0.8c-79.6,0-157.4-8.6-231.8-25.7C96.5,401.4,47.2,385.8,0,366.5v10.2C99.8,418.3,245.3,458,428.7,450.9z"
	/>
<path class="st1" d="M378,346.3c256.1-9.9,325.1-93.8,375.5-155.1c30.8-37.5,55.2-67.1,111.8-64.9c58.4,2.4,106.6,30.5,157.8,60.3
	c80,46.6,170.7,99.5,329.4,77.7c135.4-18.6,270.8-92.1,360.5-150.4C1788.4,64.7,1845.2,17.8,1867-1h-27.4
	c-28.7,23.4-74.9,59.2-131.7,96.1c-57.1,37.2-113.7,68.3-168.1,92.5c-68,30.3-132.9,49.8-192.8,58c-25.4,3.5-49.1,5.1-71.2,5.1
	c-116.6,0-191.4-43.6-258.8-82.9c-51-29.7-99.2-57.8-157.3-60.2c-56.1-2.3-80.3,27.2-111,64.5c-50.5,61.4-119.7,145.6-376.2,155.5
	c-14.4,0.6-28.8,0.8-43.1,0.8c-79.6,0-157.4-8.6-231.8-25.7c-33.3-7.6-65.9-17-97.7-27.9v16.5C96.1,325.1,223.6,352.3,378,346.3z"/>
<path class="st1" d="M422.1,436.9C678.2,427,747.2,343,797.6,281.7c30.8-37.5,55.2-67.1,111.8-64.9c58.4,2.4,106.6,30.5,157.8,60.3
	c80,46.6,170.7,99.5,329.4,77.7c135.4-18.6,270.8-92.1,360.5-150.4c97.2-63.2,163.3-122.9,163.9-123.5l0.3,0.4V-1h-52.7
	c-21.2,18.3-78.5,65.9-155.1,115.7c-57.1,37.2-113.7,68.3-168.1,92.5c-68,30.3-132.9,49.8-192.8,58c-25.4,3.5-49.1,5.1-71.2,5.1
	c-116.6,0-191.4-43.6-258.8-82.9c-51-29.7-99.2-57.8-157.3-60.2c-56.1-2.3-80.3,27.2-111,64.5c-50.5,61.4-119.7,145.6-376.2,155.5
	c-14.4,0.6-28.8,0.8-43.1,0.8c-79.6,0-157.4-8.6-231.8-25.7C68,314.4,33.5,304.4,0,292.7v10.5c96.8,34.6,226.6,63.2,384.6,57.1
	c256.1-9.9,325.1-93.8,375.5-155.1c30.8-37.5,55.2-67.2,111.8-64.9c58.4,2.4,106.6,30.5,157.8,60.3c80,46.6,170.7,99.5,329.4,77.7
	c135.4-18.6,270.8-92.1,360.5-150.4C1816.7,64.6,1882.8,5,1883.4,4.4l0.7,0.7c-0.7,0.6-66.8,60.3-164.1,123.5
	c-57.1,37.2-113.7,68.3-168.1,92.5c-68,30.3-132.9,49.8-192.8,58c-25.4,3.5-49.1,5.1-71.2,5.1c-116.6,0-191.4-43.6-258.8-82.9
	c-51-29.7-99.2-57.8-157.3-60.2c-56.1-2.3-80.3,27.2-111,64.5c-50.5,61.4-119.7,145.6-376.2,155.5c-14.4,0.6-28.8,0.8-43.1,0.8
	c-79.6,0-157.4-8.6-231.8-25.7C72.3,327.9,35.6,317.1,0,304.3v11.9c97.6,35.9,230.1,66.2,392.3,59.9
	c256.1-9.9,325.1-93.8,375.5-155.1c30.8-37.5,55.2-67.2,111.8-64.9c58.4,2.4,106.6,30.5,157.8,60.3c80,46.6,170.7,99.5,329.4,77.7
	c135.4-18.6,270.8-92.1,360.5-150.4c97.2-63.2,163.3-122.9,163.9-123.5l0.7,0.7c-0.7,0.6-66.8,60.3-164.1,123.5
	c-57.1,37.2-113.7,68.3-168.1,92.5c-68,30.3-132.9,49.8-192.8,58c-25.4,3.5-49.1,5.1-71.2,5.1c-116.6,0-191.4-43.6-258.8-82.9
	c-51-29.7-99.2-57.8-157.3-60.2c-56.1-2.3-80.3,27.2-111,64.5c-50.5,61.4-119.7,145.6-376.2,155.5c-14.4,0.6-28.8,0.8-43.1,0.8
	c-79.6,0-157.4-8.6-231.8-25.7C77.3,343.1,38,331.5,0,317.4v10.4c98.1,36.9,233,68.8,398.9,62.4C655,380.3,724,296.3,774.4,235
	c30.8-37.5,55.2-67.2,111.8-64.9c58.4,2.4,106.6,30.5,157.8,60.3c80,46.6,170.7,99.5,329.4,77.7c135.4-18.6,270.8-92.1,360.5-150.4
	c97.2-63.2,163.3-122.9,163.9-123.5l0.7,0.7c-0.7,0.6-66.8,60.3-164.1,123.5c-57.1,37.2-113.7,68.3-168.1,92.5
	c-68,30.3-132.9,49.8-192.8,58c-25.4,3.5-49.1,5.1-71.2,5.1c-116.6,0-191.4-43.6-258.8-82.9c-51-29.7-99.2-57.8-157.3-60.2
	c-56.1-2.3-80.3,27.2-111,64.5C724.7,297.1,655.5,381.3,399,391.2c-14.4,0.6-28.8,0.8-43.1,0.8c-79.6,0-157.4-8.6-231.8-25.7
	C81.6,356.6,40.1,344.1,0,329v12.3c98.8,38.4,236.8,72.4,407.8,65.8c256.1-9.9,325.1-93.8,375.5-155.1
	c30.8-37.5,55.2-67.2,111.8-64.9c58.4,2.4,106.6,30.5,157.8,60.3c80,46.6,170.7,99.5,329.4,77.7c135.4-18.6,270.8-92.1,360.5-150.4
	c97.2-63.2,163.3-122.9,163.9-123.5l0.7,0.7c-0.7,0.6-66.8,60.3-164.1,123.5c-57.1,37.2-113.7,68.3-168.1,92.5
	c-68,30.3-132.9,49.8-192.8,58c-25.4,3.5-49.1,5.1-71.2,5.1c-116.6,0-191.4-43.6-258.8-82.9c-51-29.7-99.2-57.8-157.3-60.2
	c-56.1-2.3-80.3,27.2-111,64.5C733.6,313.9,664.4,398.1,407.9,408c-14.4,0.6-28.8,0.8-43.1,0.8c-79.6,0-157.4-8.6-231.8-25.7
	C87.3,372.7,42.8,359,0,342.3v10.3C99.2,392,239.6,427.7,414.4,421c256.1-9.9,325.1-93.8,375.5-155.1
	c30.8-37.5,55.2-67.2,111.8-64.9c58.4,2.4,106.6,30.5,157.8,60.3c80,46.6,170.7,99.5,329.4,77.7c135.4-18.6,270.8-92.1,360.5-150.4
	c97.2-63.2,163.3-122.9,163.9-123.5l0.7,0.7c-0.7,0.6-66.8,60.3-164.1,123.5c-57.1,37.2-113.7,68.3-168.1,92.5
	c-68,30.3-132.9,49.8-192.8,58c-25.4,3.5-49.1,5.1-71.2,5.1c-116.6,0-191.4-43.6-258.8-82.9c-51-29.7-99.2-57.8-157.3-60.2
	c-56.1-2.3-80.3,27.2-111,64.5C740.2,327.9,671,412.1,414.5,422c-14.4,0.6-28.8,0.8-43.1,0.8c-79.6,0-157.4-8.6-231.8-25.7
	c-48.1-11-94.8-25.6-139.6-43.4v11.7C99.6,406,242.7,443.8,422.1,436.9z"/>
<path class="st1" d="M452.1,507.1c256.1-9.9,325.1-93.8,375.5-155.1c30.8-37.5,55.2-67.1,111.8-64.9c58.4,2.4,106.6,30.5,157.8,60.3
	c80,46.6,170.7,99.5,329.4,77.7c135.4-18.6,270.8-92.1,360.5-150.4c58.6-38.1,105.8-74.9,134.3-98.2v-18.2
	c-27.6,22.9-77.4,62.3-140.3,103.2c-57.1,37.2-113.7,68.3-168.1,92.5c-68,30.3-132.9,49.8-192.8,58c-25.4,3.5-49.1,5.1-71.2,5.1
	c-116.6,0-191.4-43.6-258.8-82.9c-51-29.7-99.2-57.8-157.3-60.2c-56.1-2.3-80.3,27.2-111,64.5C771.3,400,702.1,484.2,445.6,494.1
	c-14.4,0.6-28.8,0.8-43.1,0.8c-79.6,0-157.4-8.6-231.8-25.7C111.4,455.7,54.2,436.7,0,412.8v10C99.9,467.8,253.8,514.7,452.1,507.1z
	"/>
<path class="st1" d="M460.9,524c256.2-9.9,325.1-93.8,375.5-155.2c30.8-37.5,55.1-67.1,111.7-64.8c58.4,2.4,106.6,30.5,157.8,60.3
	c80,46.6,170.7,99.5,329.4,77.7c135.4-18.6,270.8-92.1,360.5-150.4c52.9-34.4,96.5-67.7,125.5-91.1v-22.8
	c-28.6,23.4-75.6,59.9-133.7,97.8c-57.1,37.2-113.7,68.3-168.1,92.5c-68,30.3-132.9,49.8-192.8,58c-25.4,3.5-49.1,5.1-71.2,5.1
	c-116.6,0-191.4-43.6-258.8-82.9c-51-29.7-99.2-57.8-157.3-60.2c-56.1-2.3-80.3,27.2-111,64.5C777.9,414,708.7,498.2,452.2,508.1
	c-14.4,0.6-28.8,0.8-43.1,0.8c-79.6,0-157.4-8.6-231.8-25.7C115.6,469.1,56.1,449.2,0,423.9v11.8C99.5,481.8,256.7,531.9,460.9,524z
	"/>
<path class="st1" d="M445.5,493.1c256.1-9.9,325.1-93.8,375.5-155.1c30.8-37.5,55.2-67.2,111.8-64.9c58.4,2.4,106.6,30.5,157.8,60.3
	c80,46.6,170.7,99.5,329.4,77.7c135.4-18.6,270.8-92.1,360.5-150.4c63.4-41.2,113.5-80.9,140.9-103.7v-21
	c-25.3,21.4-78.7,64.6-148,109.7c-57.1,37.2-113.7,68.3-168.1,92.5c-68,30.3-132.9,49.8-192.8,58c-25.4,3.5-49.1,5.1-71.2,5.1
	c-116.6,0-191.4-43.6-258.8-82.9c-51-29.7-99.2-57.8-157.3-60.2c-56.1-2.3-80.3,27.2-111,64.5c-50.5,61.4-119.7,145.6-376.2,155.5
	c-14.4,0.6-28.8,0.8-43.1,0.8c-79.6,0-157.4-8.6-231.8-25.7c-56.5-12.9-111.1-30.8-163-53.1v11.3C100,455.8,251.6,500.6,445.5,493.1
	z"/>
<path class="st1" d="M437.8,477.3c256.1-9.9,325.1-93.8,375.5-155.1c30.8-37.5,55.2-67.2,111.8-64.9c58.4,2.4,106.6,30.5,157.8,60.3
	c80,46.6,170.7,99.5,329.4,77.7c135.4-18.6,270.8-92.1,360.5-150.4c69.8-45.4,123.6-89,148.6-110.1v-18.4
	c-21.5,18.5-78.5,65.8-154.7,115.4c-57.1,37.2-113.7,68.3-168.1,92.5c-68,30.3-132.9,49.8-192.8,58c-25.4,3.5-49.1,5.1-71.2,5.1
	c-116.6,0-191.4-43.6-258.8-82.9c-51-29.7-99.2-57.8-157.3-60.2c-56.1-2.3-80.3,27.2-111,64.5c-50.5,61.4-119.7,145.6-376.2,155.5
	c-14.4,0.6-28.8,0.8-43.1,0.8c-79.6,0-157.4-8.6-231.8-25.7C102.3,427.1,49.9,410.2,0,389.2v10C100,442.2,248.8,484.6,437.8,477.3z"
	/>
<path class="st1" d="M431.1,463.3c256.1-9.9,325.1-93.8,375.5-155.1c30.8-37.5,55.2-67.2,111.8-64.9c58.4,2.4,106.6,30.5,157.8,60.3
	c80,46.6,170.7,99.5,329.4,77.7c135.4-18.6,270.8-92.1,360.5-150.4c76.9-50,134.3-97.8,155.3-115.9v-13.2
	c-19.4,16.8-77.9,65.9-157.1,117.4c-57.1,37.2-113.7,68.3-168.1,92.5c-68,30.3-132.9,49.8-192.8,58c-25.4,3.5-49.1,5.1-71.2,5.1
	c-116.6,0-191.4-43.6-258.8-82.9c-51-29.7-99.2-57.8-157.3-60.2c-56.1-2.3-80.3,27.2-111,64.5C754.5,357.8,685.3,442,428.8,451.9
	c-14.4,0.6-28.8,0.8-43.1,0.8c-79.6,0-157.4-8.6-231.8-25.7C100.7,414.9,49.2,398.4,0,377.8v10.3
	C99.9,430.1,246.2,470.4,431.1,463.3z"/>
<path class="st1" d="M595,829.3c256.1-9.9,325.1-93.8,375.5-155.1c30.8-37.5,55.2-67.1,111.8-64.9c58.4,2.4,106.6,30.5,157.8,60.3
	c80,46.6,170.7,99.5,329.4,77.7c131.1-18,262.2-87.5,351.9-144.8v-15.4c-54.5,35-108.5,64.4-160.5,87.6
	c-68,30.3-132.9,49.8-192.8,58c-25.4,3.5-49.1,5.1-71.2,5.1c-116.6,0-191.4-43.6-258.8-82.9c-51-29.7-99.2-57.8-157.3-60.2
	c-56.1-2.3-80.3,27.2-111,64.5c-50.5,61.4-119.7,145.6-376.2,155.5c-14.4,0.6-28.8,0.8-43.1,0.8c-79.6,0-157.4-8.6-231.8-25.7
	c-70.2-16.1-137.7-39.7-200.4-70.2C67.2,694.8,27.6,669.4,0,649.6v13.3c27.6,20,67.9,46.1,120.3,71.5
	C218.8,782.2,381.1,837.6,595,829.3z"/>
<path class="st1" d="M601.6,843.3c256.1-9.9,325.1-93.8,375.5-155.1c30.8-37.5,55.2-67.2,111.8-64.9c58.4,2.4,106.6,30.5,157.8,60.3
	c80,46.6,170.7,99.5,329.4,77.7c127.9-17.6,255.9-84.1,345.3-140.7v-17c-54,34.6-107.4,63.7-159,86.6c-68,30.3-132.9,49.8-192.8,58
	c-25.4,3.5-49.1,5.1-71.2,5.1c-116.6,0-191.4-43.6-258.8-82.9c-51-29.7-99.2-57.8-157.3-60.2c-56.1-2.3-80.3,27.2-111,64.5
	c-50.5,61.4-119.7,145.6-376.2,155.5c-14.4,0.6-28.8,0.8-43.1,0.8c-79.6,0-157.4-8.6-231.8-25.7c-70.2-16.1-137.7-39.7-200.4-70.2
	C67.8,710,27.6,684.1,0,664.1v7.9c27.6,20.6,70.2,48.8,126.9,76.4C225.4,796.2,387.7,851.5,601.6,843.3z"/>
<path class="st1" d="M593.5,813.7c256.1-9.9,325.1-93.8,375.5-155.1c30.8-37.5,55.2-67.1,111.8-64.9c58.4,2.4,106.6,30.5,157.8,60.3
	c80,46.6,170.7,99.5,329.4,77.7c131.9-18.1,263.7-88.3,353.4-145.8v-17.1c-56.8,36.9-113,67.8-167.1,91.8
	c-68,30.3-132.9,49.8-192.8,58c-25.4,3.5-49.1,5.1-71.2,5.1c-116.6,0-191.4-43.6-258.8-82.9c-51-29.7-99.2-57.8-157.3-60.2
	c-56.1-2.3-80.3,27.2-111,64.5C912.7,706.6,843.5,790.8,587,800.7c-14.4,0.6-28.8,0.8-43.1,0.8c-79.6,0-157.4-8.6-231.8-25.7
	c-70.2-16.1-137.7-39.7-200.4-70.2C64.6,682.7,27.2,659.3,0,640.3v8.1c27.6,19.9,67.4,45.5,118.8,70.4
	C217.3,766.6,379.6,822,593.5,813.7z"/>
<path class="st1" d="M610.9,872.2C867,862.3,936,778.3,986.4,717c30.8-37.5,55.2-67.2,111.8-64.9c58.4,2.4,106.6,30.5,157.8,60.3
	c80,46.6,170.7,99.5,329.4,77.7c123.6-17,247.1-79.6,336-134.8v-16.1c-49.8,31.2-99.1,57.6-146.7,78.8c-68,30.3-132.9,49.8-192.8,58
	c-25.4,3.5-49.1,5.1-71.2,5.1c-116.6,0-191.4-43.6-258.8-82.9c-51-29.7-99.2-57.8-157.3-60.2c-56.1-2.3-80.3,27.2-111,64.5
	c-50.5,61.4-119.7,145.6-376.2,155.5c-14.4,0.6-28.8,0.8-43.1,0.8c-79.6,0-157.4-8.6-231.8-25.7c-70.2-16.1-137.7-39.7-200.4-70.2
	C71.8,733.8,27.4,703.7,0,682.8v11c26.8,20.8,72.7,52.6,136.2,83.4C234.7,825.1,397,880.5,610.9,872.2z"/>
<path class="st1" d="M607.3,857.2c256.1-9.9,325.1-93.8,375.5-155.1c30.8-37.5,55.2-67.1,111.8-64.9c58.4,2.4,106.6,30.5,157.8,60.3
	c80,46.6,170.7,99.5,329.4,77.7c125.3-17.2,250.5-81.3,339.6-137.1v-16.3c-51.8,32.7-102.9,60.4-152.4,82.4
	c-68,30.3-132.9,49.8-192.8,58c-25.4,3.5-49.1,5.1-71.2,5.1c-116.6,0-191.4-43.6-258.8-82.9c-51-29.7-99.2-57.8-157.3-60.2
	c-56.1-2.3-80.3,27.2-111,64.5c-50.5,61.4-119.7,145.6-376.2,155.5c-14.4,0.6-28.8,0.8-43.1,0.8c-79.6,0-157.4-8.6-231.8-25.7
	c-70.2-16.1-137.7-39.7-200.4-70.2c-56.3-27.4-98.7-55.5-126.4-76v8.4c27.3,20.8,71.8,51.2,132.6,80.7
	C231.1,810.1,393.4,865.5,607.3,857.2z"/>
<path class="st1" d="M1585.4,791.2c-25.4,3.5-49.1,5.1-71.2,5.1c-116.6,0-191.4-43.6-258.8-82.9c-51-29.7-99.2-57.8-157.3-60.2
	c-56.1-2.3-80.3,27.2-111,64.5C936.7,779.1,867.5,863.3,611,873.2c-14.4,0.6-28.8,0.8-43.1,0.8c-79.6,0-157.4-8.6-231.8-25.7
	c-70.2-16.1-137.7-39.7-200.4-70.2C72.6,747.5,27,715.9,0,695.1v384.7h1921.2V656.5c-48.6,30.2-96.6,55.9-143.1,76.6
	C1710.2,763.4,1645.3,783,1585.4,791.2z"/>
<path class="st1" d="M531.4,677.9C787.5,668,856.5,584,906.9,522.7c30.8-37.5,55.2-67.2,111.8-64.9c58.4,2.4,106.6,30.5,157.8,60.3
	c80,46.6,170.7,99.5,329.4,77.7c135.4-18.6,270.8-92.1,360.5-150.4c19.7-12.8,38.1-25.5,55-37.5v-20.1c-18.8,13.6-39.6,28-62.1,42.7
	c-57.1,37.2-113.7,68.3-168.1,92.5c-68,30.3-132.9,49.8-192.8,58c-25.4,3.5-49.1,5.1-71.2,5.1c-116.6,0-191.4-43.6-258.8-82.9
	c-51-29.7-99.2-57.8-157.3-60.2c-56.1-2.3-80.3,27.2-111,64.5C849.5,569,780.3,653.2,523.8,663.1c-14.4,0.6-28.8,0.8-43.1,0.8
	c-79.6,0-157.4-8.6-231.8-25.7c-70.2-16.1-137.7-39.7-200.4-70.2C31,559.5,14.8,550.9,0,542.5v10.2c17,9.9,35.9,20.1,56.7,30.2
	C155.2,630.8,317.5,686.2,531.4,677.9z"/>
<path class="st1" d="M586.9,799.7C843,789.8,912,705.8,962.4,644.5c30.8-37.5,55.2-67.2,111.8-64.9c58.4,2.4,106.6,30.5,157.8,60.3
	c80,46.6,170.7,99.5,329.4,77.7c135.1-18.5,270.2-91.8,360-150.1V548c-2.2,1.4-4.4,2.9-6.6,4.3c-57.1,37.2-113.7,68.3-168.1,92.5
	c-68,30.3-132.9,49.8-192.8,58c-25.4,3.5-49.1,5.1-71.2,5.1c-116.6,0-191.4-43.6-258.7-82.9c-51-29.7-99.2-57.8-157.3-60.2
	c-56.1-2.3-80.3,27.2-111,64.5C905,690.8,835.8,775,579.3,784.9c-14.4,0.6-28.8,0.8-43.1,0.8c-79.6,0-157.4-8.6-231.8-25.7
	C234.2,744,166.7,720.3,104,689.8c-42.8-20.8-77.6-42-104-60.1v9.2c27.2,19.1,64.7,42.7,112.2,65.7C210.7,752.6,373,808,586.9,799.7
	z"/>
<path class="st1" d="M542.8,709.2c256.1-9.9,325.1-93.8,375.5-155.1c30.8-37.5,55.2-67.1,111.8-64.9c58.4,2.4,106.6,30.5,157.8,60.3
	c80,46.6,170.7,99.5,329.4,77.7c135.4-18.6,270.8-92.1,360.5-150.4c15.3-10,29.9-19.9,43.6-29.5v-20.5
	c-15.7,11.1-32.7,22.8-50.7,34.5c-57.1,37.2-113.7,68.3-168.1,92.5c-68,30.3-132.9,49.8-192.8,58c-25.4,3.5-49.1,5.1-71.2,5.1
	c-116.6,0-191.4-43.6-258.8-82.9c-51-29.7-99.2-57.8-157.3-60.2c-56.1-2.3-80.3,27.2-111,64.5C860.9,599.8,791.7,684,535.2,693.9
	c-14.4,0.6-28.8,0.8-43.1,0.8c-79.6,0-157.4-8.6-231.8-25.7c-70.2-16.1-137.7-39.7-200.4-70.2C37.8,588.1,17.8,577.2,0,566.7v10.5
	c19.8,12,42.5,24.5,68.1,37C166.6,662.1,328.9,717.4,542.8,709.2z"/>
<path class="st1" d="M549.4,723.2c256.1-9.9,325.1-93.8,375.5-155.1c30.8-37.5,55.2-67.1,111.8-64.9c58.4,2.4,106.6,30.5,157.8,60.3
	c80,46.6,170.7,99.5,329.4,77.7c135.4-18.6,270.8-92.1,360.5-150.4c12.9-8.4,25.3-16.7,37-24.9v-17.4c-13.5,9.5-27.9,19.2-43,29.1
	c-57.1,37.2-113.7,68.3-168.1,92.5c-68,30.3-132.9,49.8-192.8,58c-25.4,3.5-49.1,5.1-71.2,5.1c-116.6,0-191.4-43.6-258.8-82.9
	c-51-29.7-99.2-57.8-157.3-60.2c-56.1-2.3-80.3,27.2-111,64.5c-50.5,61.4-119.7,145.6-376.2,155.5c-14.4,0.6-28.8,0.8-43.1,0.8
	c-79.6,0-157.4-8.6-231.8-25.7c-70.2-16.1-137.7-39.7-200.4-70.2C42.2,602.8,19.7,590.3,0,578.5v8.8c21.3,13.1,46.2,27.2,74.7,41
	C173.2,676.1,335.5,731.5,549.4,723.2z"/>
<path class="st1" d="M535.1,692.9C791.2,683,860.2,599,910.6,537.7c30.8-37.5,55.2-67.2,111.8-64.9c58.4,2.4,106.6,30.5,157.8,60.3
	c80,46.6,170.7,99.5,329.4,77.7c135.4-18.6,270.8-92.1,360.5-150.4c18.3-11.9,35.4-23.6,51.3-34.9v-16.4
	c-16.7,11.9-34.9,24.5-54.4,37.1c-57.1,37.2-113.7,68.3-168.1,92.5c-68,30.3-132.9,49.8-192.8,58c-25.4,3.5-49.1,5.1-71.2,5.1
	c-116.6,0-191.4-43.6-258.8-82.9c-51-29.7-99.2-57.8-157.3-60.2c-56.1-2.3-80.3,27.2-111,64.5C857.2,584.8,788,669,531.5,678.9
	c-14.4,0.6-28.8,0.8-43.1,0.8c-79.6,0-157.4-8.6-231.8-25.7c-70.2-16.1-137.7-39.7-200.4-70.2c-20.6-10-39.3-20.1-56.2-29.9v11.7
	c17.9,10.6,38,21.5,60.4,32.4C158.9,645.8,321.2,701.2,535.1,692.9z"/>
<path class="st1" d="M557.1,739c256.1-9.9,325.1-93.8,375.5-155.1c30.8-37.5,55.2-67.2,111.8-64.9c58.4,2.4,106.6,30.5,157.8,60.3
	c80,46.6,170.7,99.5,329.4,77.7c135.4-18.6,270.8-92.1,360.5-150.4c10.1-6.6,19.9-13.1,29.3-19.5v-19.9c-11.6,8-23.7,16.2-36.4,24.5
	c-57.1,37.2-113.7,68.3-168.1,92.5c-68,30.3-132.9,49.8-192.8,58c-25.4,3.5-49.1,5.1-71.2,5.1c-116.6,0-191.4-43.6-258.8-82.9
	c-51-29.7-99.2-57.8-157.3-60.2c-56.1-2.3-80.3,27.2-111,64.5C875.2,630.1,806,714.3,549.5,724.2c-14.4,0.6-28.8,0.8-43.1,0.8
	c-79.6,0-157.4-8.6-231.8-25.7c-70.2-16.1-137.7-39.7-200.4-70.2c-28.3-13.7-53-27.7-74.2-40.7v9.8c22.9,14.5,50.4,30.3,82.4,45.8
	C180.9,691.9,343.2,747.3,557.1,739z"/>
<path class="st1" d="M579.2,783.9C835.3,774,904.3,690,954.7,628.7c30.8-37.5,55.2-67.2,111.8-64.9c58.4,2.4,106.6,30.5,157.8,60.3
	c80,46.6,170.7,99.5,329.4,77.7c135.4-18.6,270.8-92.1,360.5-150.4c2.4-1.6,4.8-3.1,7.2-4.7v-17.2c-4.4,2.9-8.8,5.8-13.3,8.8
	c-57.1,37.2-113.7,68.3-168.1,92.5c-68,30.3-132.9,49.8-192.8,58c-25.4,3.5-49.1,5.1-71.2,5.1c-116.6,0-191.4-43.6-258.8-82.9
	c-51-29.7-99.2-57.8-157.3-60.2c-56.1-2.3-80.3,27.2-111,64.5C898.3,676.8,829.1,761,572.6,770.9c-14.4,0.6-28.8,0.8-43.1,0.8
	c-79.6,0-157.4-8.6-231.8-25.7C227.5,730,160,706.3,97.3,675.8C58,656.7,25.5,637.3,0,620.3v8.3C26.4,646.7,61.4,668,104.5,689
	C203,736.8,365.3,792.2,579.2,783.9z"/>
<path class="st1" d="M572.5,769.9C828.6,760,897.6,676,948,614.7c30.8-37.5,55.2-67.1,111.8-64.9c58.4,2.4,106.6,30.5,157.8,60.3
	c80,46.6,170.7,99.5,329.4,77.7c135.4-18.6,270.8-92.1,360.5-150.4c4.7-3.1,9.3-6.1,13.9-9.1v-21.6c-7.2,4.9-14.5,9.8-22.1,14.7
	c-57.1,37.2-113.7,68.3-168.1,92.5c-68,30.3-132.9,49.8-192.8,58c-25.4,3.5-49.1,5.1-71.2,5.1c-116.6,0-191.4-43.6-258.7-82.9
	c-51-29.7-99.2-57.8-157.3-60.2c-56.1-2.3-80.3,27.2-111,64.5C889.5,659.9,820.3,744.1,563.8,754c-14.4,0.6-28.8,0.8-43.1,0.8
	c-79.6,0-157.4-8.6-231.8-25.7c-70.2-16.1-137.7-39.7-200.4-70.2C53.6,642,24,624.7,0,609.2v9.9c25.5,17.1,58.2,36.6,97.8,55.9
	C196.3,722.8,358.6,778.2,572.5,769.9z"/>
<path class="st1" d="M563.7,753c256.1-9.9,325.1-93.8,375.5-155.1c30.8-37.5,55.2-67.1,111.8-64.9c58.4,2.4,106.6,30.5,157.8,60.3
	c80,46.6,170.7,99.5,329.4,77.7c135.4-18.6,270.8-92.1,360.5-150.4c7.8-5.1,15.3-10.1,22.7-15.1v-17.3c-9.2,6.3-18.8,12.7-28.7,19.2
	c-57.1,37.2-113.7,68.3-168.1,92.5c-68,30.3-132.9,49.8-192.8,58c-25.4,3.5-49.1,5.1-71.2,5.1c-116.6,0-191.4-43.6-258.8-82.9
	c-51-29.7-99.2-57.8-157.3-60.2c-56.1-2.3-80.3,27.2-111,64.5C882.9,645.9,813.7,730.1,557.2,740c-14.4,0.6-28.8,0.8-43.1,0.8
	c-79.6,0-157.4-8.6-231.8-25.7c-70.2-16.1-137.7-39.7-200.4-70.2C50.1,629.5,22.8,613.8,0,599.4v8.6c24.1,15.6,53.8,33,89,50.1
	C187.5,705.9,349.8,761.3,563.7,753z"/>
<path class="st1" d="M307.4,191.9C563.5,182,632.5,98,682.9,36.7C694.5,22.6,705.2,9.6,717-1h-21.9c-6.3,7-12.6,14.6-19.1,22.6
	C625.5,83,556.3,167.2,299.8,177.1c-14.4,0.6-28.8,0.8-43.1,0.8c-79.6,0-157.4-8.6-231.8-25.7c-8.3-1.9-16.7-3.9-24.9-6.1v12.6
	C85,181.4,188.2,196.5,307.4,191.9z"/>
<path class="st1" d="M228.1,21.1C296.8,18.4,352,10.5,397.1-1h-72.6C294,3.5,259.9,6.6,221.6,8.1c-14.4,0.6-28.8,0.8-43.1,0.8
	C129.1,8.9,80.4,5.6,32.8-1H0v6.6C67.5,17.7,143.8,24.3,228.1,21.1z"/>
<path class="st1" d="M221.5,7.1c35.4-1.4,67.2-4.1,95.8-8.1H41.3C96.4,6.2,156.6,9.6,221.5,7.1z"/>
<path class="st1" d="M236.9,38c98.8-3.8,169.8-18.7,222.6-39h-58.4c-45.8,12-102.2,20.3-172.9,23.1c-14.4,0.6-28.8,0.8-43.1,0.8
	C122,22.9,60.1,17.5,0,6.8v14.1C69.7,34,148.9,41.4,236.9,38z"/>
<path class="st1" d="M251.2,67.8c142.7-5.5,227.3-34,283-68.8h-33.8c-55.4,27.8-135,49.3-256.8,54c-14.4,0.6-28.8,0.8-43.1,0.8
	C132,53.8,64.9,47.4,0,34.8v13.1C73.1,62.8,157.2,71.4,251.2,67.8z"/>
<path class="st1" d="M257.8,81.8C419.3,75.6,506.4,39.9,561.3-1h-25.2c-55.8,35.2-140.7,64.2-284.8,69.8
	c-14.4,0.6-28.8,0.8-43.1,0.8C137,69.6,67.2,62.7,0,49v11.4C74.6,76.2,160.9,85.5,257.8,81.8z"/>
<path class="st1" d="M243.5,52c120.4-4.6,199.4-25.7,254.6-53h-35.8C409.2,19.8,337.4,35.1,237,39c-14.4,0.6-28.8,0.8-43.1,0.8
	C127.7,39.8,62.8,33.9,0,22v11.5C71.3,47.5,152.7,55.5,243.5,52z"/>
<path class="st1" d="M1232.2-0.2c1.8-0.3,3.6-0.5,5.5-0.8h-147.7C1130.8,5.9,1177.4,7.3,1232.2-0.2z"/>
<path class="st1" d="M1181,55.4c-90.4,0-155.7-26.2-211.9-56.3h-16.6c74.7,42.6,162.6,84,306.2,64.3c70.9-9.7,141.8-34.5,206.1-64.3
	h-35.4c-62.4,26.4-121.9,43.7-177.2,51.3C1226.8,53.8,1203.1,55.4,1181,55.4z"/>
<path class="st1" d="M1267.6,81.1c-25.4,3.5-49.1,5.1-71.2,5.1c-116.6,0-191.4-43.6-258.7-82.9c-2.4-1.4-4.9-2.8-7.3-4.2h-15.9
	c10,5.6,20.1,11.5,30.3,17.4c80,46.6,170.7,99.5,329.4,77.7c94.3-12.9,188.6-52.5,267.5-95.1h-30.9c-16.9,8.6-33.7,16.7-50.3,24
	C1392.4,53.3,1327.5,72.9,1267.6,81.1z"/>
<path class="st1" d="M1274.2,95.1c-25.4,3.5-49.1,5.1-71.2,5.1c-116.6,0-191.4-43.6-258.8-82.9C933.5,11,923,4.9,912.4-1h-20.3
	c20.2,9.8,40,21.4,60.3,33.2c80,46.6,170.7,99.5,329.4,77.7C1387.7,95.4,1493.6,47.2,1577.7-1h-33.8c-26,14.1-51.6,26.8-76.8,38
	C1399,67.3,1334.1,86.9,1274.2,95.1z"/>
<path class="st1" d="M1258.8,64.3c-25.4,3.5-49.1,5.1-71.2,5.1c-104.2,0-175.1-34.9-237.1-70.3h-18.2c1.9,1.1,3.9,2.3,5.8,3.4
	c80,46.6,170.7,99.5,329.4,77.7C1351.4,68.6,1435.2,36,1508.2-1h-40.8c-5.3,2.5-10.6,4.9-15.8,7.2
	C1383.6,36.5,1318.7,56.1,1258.8,64.3z"/>
<path class="st1" d="M263.4,101.4C450.3,94.2,537.5,47.5,590.6-1H563c-55,41.3-142.3,77.5-305.1,83.8c-14.4,0.6-28.8,0.8-43.1,0.8
	C141.3,83.6,69.3,76.3,0,61.7v17.2C75.9,95.3,164.1,105.2,263.4,101.4z"/>
<path class="st1" d="M372.5,326.7c256.1-9.9,325.1-93.8,375.5-155.1c30.8-37.5,55.2-67.1,111.8-64.9c58.4,2.4,106.6,30.5,157.8,60.3
	c80,46.6,170.7,99.5,329.4,77.7c135.4-18.6,270.8-92.1,360.5-150.4C1763.5,57.8,1809.3,22.4,1838-1h-22.5
	c-28.5,22.5-67.8,51.9-114.2,82.1c-57.1,37.2-113.7,68.3-168.1,92.5c-68,30.3-132.9,49.8-192.8,58c-25.4,3.5-49.1,5.1-71.2,5.1
	c-116.6,0-191.4-43.6-258.8-82.9c-51-29.7-99.2-57.8-157.3-60.2c-56.1-2.3-80.3,27.2-111,64.5C691.7,219.6,622.5,303.8,366,313.7
	c-14.4,0.6-28.8,0.8-43.1,0.8c-79.6,0-157.4-8.6-231.8-25.7c-31-7.1-61.4-15.7-91.1-25.6v10.6C95.4,306.5,221,332.5,372.5,326.7z"/>
<path class="st1" d="M1173.3,39.5c-74,0-131.1-17.6-180.2-40.4h-21.8c69.5,37,153.1,67.8,280.9,50.3c59.4-8.2,118.9-26.9,174.4-50.3
	h-44.9c-47.8,17.6-93.7,29.4-137.1,35.4C1219.1,37.9,1195.4,39.5,1173.3,39.5z"/>
<path class="st1" d="M1161.1,5.9c-27.9,0-53.4-2.5-77-6.8h-61.6c56.8,21,125,32.8,215.3,20.4c30.8-4.2,61.6-11.3,91.9-20.4h-85.4
	c-4,0.6-8,1.2-11.9,1.8C1206.9,4.3,1183.2,5.9,1161.1,5.9z"/>
<path class="st1" d="M1166.7,25.5c-57.9,0-105.5-10.8-147.1-26.4h-24.2c63.3,29.2,140.2,49.3,248.9,34.4
	c45.2-6.2,90.4-18.5,134-34.4h-45c-32.9,10-64.8,17.2-95.4,21.4C1212.5,23.9,1188.8,25.5,1166.7,25.5z"/>
<path class="st1" d="M336.1,252c256.1-9.9,325.1-93.8,375.5-155.1c30.8-37.5,55.2-67.2,111.8-64.9c58.4,2.4,106.6,30.5,157.8,60.3
	c80,46.6,170.7,99.5,329.4,77.7c135.4-18.6,270.8-92.1,360.5-150.4c10.6-6.9,20.9-13.8,30.8-20.6h-29.4c-2.8,1.9-5.7,3.7-8.5,5.6
	c-57.1,37.2-113.7,68.3-168.1,92.5c-68,30.3-132.9,49.8-192.8,58c-25.4,3.5-49.1,5.1-71.2,5.1c-116.6,0-191.4-43.6-258.8-82.9
	c-51-29.7-99.2-57.8-157.3-60.2c-56.1-2.3-80.3,27.2-111,64.5C654.2,143.1,585,227.3,328.5,237.2c-14.4,0.6-28.8,0.8-43.1,0.8
	c-79.6,0-157.4-8.6-231.8-25.7c-18.1-4.1-36-8.8-53.6-13.9v12.3C90.2,237.7,203.2,257.1,336.1,252z"/>
<path class="st1" d="M270,115.4C474.9,107.5,560,52.2,611.6-1h-19.5C539,47.9,451.6,95.1,263.5,102.4c-14.4,0.6-28.8,0.8-43.1,0.8
	C144.9,103.2,71,95.5,0,80.1v11.3C77.3,108.8,167.8,119.3,270,115.4z"/>
<path class="st1" d="M328.4,236.2c256.1-9.9,325.1-93.8,375.5-155.1c30.8-37.5,55.2-67.2,111.8-64.9c58.4,2.4,106.6,30.5,157.8,60.3
	c80,46.6,170.7,99.5,329.4,77.7c135.4-18.6,270.8-92.1,360.5-150.4c2.4-1.6,4.9-3.2,7.3-4.8h-26.4c-52.7,33.5-104.8,61.8-155.1,84.1
	c-68,30.3-132.9,49.8-192.8,58c-25.4,3.5-49.1,5.1-71.2,5.1c-116.6,0-191.4-43.6-258.8-82.9C915.3,33.6,867.2,5.6,809,3.2
	c-56.1-2.3-80.3,27.2-111,64.5c-50.5,61.4-119.7,145.6-376.2,155.5c-14.4,0.6-28.8,0.8-43.1,0.8c-79.6,0-157.4-8.6-231.8-25.7
	c-15.8-3.6-31.5-7.7-47-12v10.9C88.9,223,199.2,241.2,328.4,236.2z"/>
<path class="st1" d="M342.7,266c256.1-9.9,325.1-93.8,375.5-155.1C749,73.3,773.4,43.7,830,46c58.4,2.4,106.6,30.5,157.8,60.3
	c80,46.6,170.7,99.5,329.4,77.7c135.4-18.6,270.8-92.1,360.5-150.4c18.1-11.8,35.1-23.4,50.8-34.6h-24.9c-10.2,7-20.9,14.2-32,21.4
	c-57.1,37.2-113.7,68.3-168.1,92.5c-68,30.3-132.9,49.8-192.8,58c-25.4,3.5-49.1,5.1-71.2,5.1c-116.6,0-191.4-43.6-258.8-82.9
	c-51-29.7-99.2-57.8-157.3-60.2c-56.1-2.3-80.3,27.2-111,64.5C661.9,158.9,592.7,243.1,336.2,253c-14.4,0.6-28.8,0.8-43.1,0.8
	c-79.6,0-157.4-8.6-231.8-25.7C40.6,223.4,20.2,218,0,212v10.8C91.2,250.7,206.5,271.2,342.7,266z"/>
<path class="st1" d="M351.5,282.9C607.6,273,676.6,189,727,127.7c30.8-37.5,55.2-67.2,111.8-64.9c58.4,2.4,106.6,30.5,157.8,60.3
	c80,46.6,170.7,99.5,329.4,77.7c135.4-18.6,270.8-92.1,360.5-150.4c27.5-17.9,52.4-35.4,74.1-51.5h-30.4c-16,11.4-33.4,23.3-52,35.4
	c-57.1,37.2-113.7,68.3-168.1,92.5c-68,30.3-132.9,49.8-192.8,58c-25.4,3.5-49.1,5.1-71.2,5.1c-116.6,0-191.4-43.6-258.8-82.9
	c-51-29.7-99.2-57.8-157.3-60.2c-56.1-2.3-80.3,27.2-111,64.5C668.5,172.9,599.3,257.1,342.8,267c-14.4,0.6-28.8,0.8-43.1,0.8
	c-79.6,0-157.4-8.6-231.8-25.7C45,236.9,22.3,230.8,0,224v13C92.6,266.3,210.9,288.3,351.5,282.9z"/>
<path class="st1" d="M365.9,312.7C622,302.8,691,218.8,741.4,157.5c30.8-37.5,55.2-67.2,111.8-64.9c58.4,2.4,106.6,30.5,157.8,60.3
	c80,46.6,170.7,99.5,329.4,77.7c135.4-18.6,270.8-92.1,360.5-150.4c45.9-29.8,84.8-58.9,113.2-81.3h-26.4
	c-25.8,19.7-57.7,42.7-93.9,66.3c-57.1,37.2-113.7,68.3-168.1,92.5c-68,30.3-132.9,49.8-192.8,58c-25.4,3.5-49.1,5.1-71.2,5.1
	c-116.6,0-191.4-43.6-258.8-82.9c-51-29.7-99.2-57.8-157.3-60.2c-56.1-2.3-80.3,27.2-111,64.5C684,203.8,614.8,288,358.3,297.9
	c-14.4,0.6-28.8,0.8-43.1,0.8c-79.6,0-157.4-8.6-231.8-25.7C55.1,266.6,27.3,258.8,0,250V262C94.6,293.7,217.9,318.4,365.9,312.7z"
	/>
<path class="st1" d="M358.2,296.9C614.3,287,683.3,203,733.7,141.7c30.8-37.5,55.2-67.2,111.8-64.9c58.4,2.4,106.6,30.5,157.8,60.3
	c80,46.6,170.7,99.5,329.4,77.7c135.4-18.6,270.8-92.1,360.5-150.4c35.7-23.2,67.2-46,92.8-65.5h-23.7c-22,16.3-47.3,34.1-75.3,52.3
	c-57.1,37.2-113.7,68.3-168.1,92.5c-68,30.3-132.9,49.8-192.8,58c-25.4,3.5-49.1,5.1-71.2,5.1c-116.6,0-191.4-43.6-258.8-82.9
	c-51-29.7-99.2-57.8-157.3-60.2c-56.1-2.3-80.3,27.2-111,64.5C677.3,189.8,608.1,274,351.6,283.9c-14.4,0.6-28.8,0.8-43.1,0.8
	c-79.6,0-157.4-8.6-231.8-25.7c-26-6-51.6-12.9-76.7-20.9v10.6C93.5,279.2,214.2,302.5,358.2,296.9z"/>
<path class="st1" d="M321.8,222.2c256.1-9.9,325.1-93.8,375.5-155.1c30.8-37.5,55.2-67.2,111.8-64.9c58.4,2.4,106.6,30.5,157.8,60.3
	c80,46.6,170.7,99.5,329.4,77.7c128.4-17.6,256.7-84.6,346.1-141.2h-32.1c-43.7,26.4-86.9,49.2-128.8,67.8
	c-68,30.3-132.9,49.8-192.8,58c-25.4,3.5-49.1,5.1-71.2,5.1c-116.6,0-191.4-43.6-258.7-82.9c-32-18.6-62.9-36.6-95.8-48H744.8
	c-21,11.7-36.6,30.7-54.4,52.4C639.9,112.8,570.7,197,314.2,206.9c-14.4,0.6-28.8,0.8-43.1,0.8c-79.6,0-157.4-8.6-231.8-25.7
	c-13.2-3-26.3-6.3-39.3-9.9v12.9C87.7,209.9,195.8,227.1,321.8,222.2z"/>
<path class="st1" d="M314.1,205.9C570.2,196,639.2,112,689.6,50.7C707,29.5,722.4,10.8,742.7-1h-24.1c-12.1,10.7-23,23.9-34.9,38.4
	C633.2,98.8,564,183,307.5,192.9c-14.4,0.6-28.8,0.8-43.1,0.8c-79.6,0-157.4-8.6-231.8-25.7c-10.9-2.5-21.8-5.2-32.6-8.1v11
	C86.3,194.5,191.8,210.6,314.1,205.9z"/>
<path class="st1" d="M293.1,162.1c256.1-9.9,325.1-93.8,375.5-155.1c2.2-2.7,4.4-5.3,6.5-7.9h-21.4
	c-50.2,60.5-124.2,137.8-369.4,147.3c-14.4,0.6-28.8,0.8-43.1,0.8c-79.6,0-157.4-8.6-231.8-25.7c-3.2-0.7-6.4-1.5-9.5-2.3v13.4
	C82.2,153.2,180.5,166.4,293.1,162.1z"/>
<path class="st1" d="M277.7,131.3C503.1,122.6,583.6,56.5,634-1H613c-51.7,53.5-136.9,109.4-343,117.4c-14.4,0.6-28.8,0.8-43.1,0.8
	c-77.9,0-154-8.3-227-24.6v12.9C79,123.9,172.1,135.4,277.7,131.3z"/>
<path class="st1" d="M284.3,145.3c243.9-9.4,318.1-86,368.2-146.3h-17.2c-50.5,57.8-130.9,124.5-357.5,133.3
	c-14.4,0.6-28.8,0.8-43.1,0.8c-79.6,0-157.4-8.6-231.8-25.7c-1-0.2-1.9-0.5-2.9-0.7V118C80.4,137.3,175.7,149.5,284.3,145.3z"/>
<path class="st1" d="M299.7,176.1c256.1-9.9,325.1-93.8,375.5-155.1c6.3-7.7,12.4-15.1,18.5-21.9h-17.3c-2.3,2.8-4.7,5.7-7.1,8.6
	C618.9,69,549.7,153.2,293.2,163.1c-14.4,0.6-28.8,0.8-43.1,0.8c-79.6,0-157.4-8.6-231.8-25.7c-6.1-1.4-12.2-2.9-18.3-4.4V145
	C83.5,166.4,184.1,180.6,299.7,176.1z"/>
<path class="st1" d="M1281.9,110.9c-25.4,3.5-49.1,5.1-71.2,5.1c-116.6,0-191.4-43.6-258.7-82.9C931,20.9,910.6,9,889.8-1h-24
	c32,11.5,62.1,29,93.3,47.2c80,46.6,170.7,99.5,329.4,77.7c116.2-15.9,232.4-72.3,319.7-124.9h-28.4
	c-35.6,20.5-70.8,38.6-105.1,53.8C1406.7,83.1,1341.8,102.7,1281.9,110.9z"/>
<path class="st0" d="M260.3,669.1c74.4,17.1,152.2,25.7,231.8,25.7c14.3,0,28.7-0.3,43.1-0.8c256.5-9.9,325.7-94.1,376.2-155.5
	c30.7-37.3,54.9-66.8,111-64.5c58.1,2.4,106.3,30.4,157.3,60.2c67.3,39.2,142.2,82.9,258.8,82.9c22.2,0,45.8-1.6,71.2-5.1
	c59.9-8.2,124.7-27.7,192.8-58c54.4-24.2,111-55.4,168.1-92.5c18.1-11.7,35-23.4,50.7-34.5v-1.2c-15.8,11.3-33,23-51.3,34.9
	c-89.7,58.4-225.1,131.8-360.5,150.4c-158.7,21.8-249.4-31.1-329.4-77.7c-51.1-29.8-99.4-57.9-157.8-60.3
	c-56.6-2.3-80.9,27.3-111.8,64.9C860.2,599,791.2,683,535.1,692.9c-213.9,8.3-376.3-47.1-474.8-94.9C38,587.1,17.9,576.1,0,565.6
	v1.2c17.8,10.5,37.8,21.3,59.9,32.1C122.6,629.3,190.1,653,260.3,669.1z"/>
<path class="st0" d="M318.7,789.9c74.4,17.1,152.2,25.7,231.8,25.7c14.3,0,28.7-0.3,43.1-0.8c256.5-9.9,325.7-94.1,376.2-155.5
	c30.7-37.3,54.9-66.7,111-64.5c58.1,2.4,106.3,30.4,157.3,60.2c67.3,39.2,142.2,82.9,258.8,82.9c22.2,0,45.8-1.6,71.2-5.1
	c59.9-8.2,124.7-27.7,192.8-58c52-23.1,105.9-52.6,160.5-87.6v-1.2c-89.7,57.6-221.5,127.7-353.4,145.8
	c-158.7,21.8-249.4-31.1-329.4-77.7c-51.1-29.8-99.4-57.9-157.8-60.3c-56.6-2.3-80.9,27.3-111.8,64.9
	c-50.4,61.3-119.4,145.3-375.5,155.1c-213.9,8.3-376.3-47.1-474.8-94.9c-51.4-25-91.2-50.6-118.8-70.4v1.2
	c27.6,19.8,67.2,45.3,118.3,70.1C181,750.1,248.5,773.8,318.7,789.9z"/>
<path class="st0" d="M207,544c74.4,17.1,152.2,25.7,231.8,25.7c14.3,0,28.7-0.3,43.1-0.8c256.5-9.9,325.7-94.1,376.2-155.5
	c30.7-37.3,54.9-66.8,111-64.5c58.1,2.4,106.3,30.4,157.3,60.2c67.3,39.3,142.2,82.9,258.8,82.9c22.2,0,45.8-1.6,71.2-5.1
	c59.9-8.2,124.7-27.7,192.8-58c54.4-24.2,111-55.4,168.1-92.5c41.1-26.7,76.6-52.8,104-74.1v-1.3c-27.5,21.3-63.2,47.6-104.6,74.5
	c-89.7,58.4-225.1,131.8-360.5,150.4c-158.7,21.8-249.4-31.1-329.4-77.7c-51.1-29.8-99.4-57.9-157.8-60.3
	c-56.6-2.3-80.9,27.3-111.8,64.9c-50.4,61.3-119.4,145.3-375.5,155.1c-213.9,8.3-376.3-47.1-474.8-94.9c-2.4-1.2-4.7-2.3-7.1-3.5
	v1.1c2.2,1.1,4.4,2.2,6.6,3.2C69.3,504.2,136.8,527.9,207,544z"/>
<path class="st0" d="M1585.3,790.2c-158.7,21.8-249.4-31.1-329.4-77.7c-51.1-29.8-99.4-57.9-157.8-60.3
	c-56.6-2.3-80.9,27.3-111.8,64.9C936,778.3,867,862.3,610.9,872.2c-213.9,8.3-376.3-47.1-474.8-94.9C72.7,746.4,26.8,714.6,0,693.8
	v1.3c27,20.9,72.6,52.4,135.7,83.1c62.8,30.5,130.2,54.1,200.4,70.2c74.4,17.1,152.2,25.7,231.8,25.7c14.3,0,28.7-0.3,43.1-0.8
	c256.5-9.9,325.7-94.1,376.2-155.5c30.7-37.3,54.9-66.7,111-64.5c58.1,2.4,106.3,30.4,157.3,60.2c67.3,39.3,142.2,82.9,258.8,82.9
	c22.2,0,45.8-1.6,71.2-5.1c59.9-8.2,124.7-27.7,192.8-58c46.4-20.7,94.5-46.4,143.1-76.6v-1.2
	C1832.4,710.6,1708.9,773.2,1585.3,790.2z"/>
<path class="st0" d="M233.5,607.5c74.4,17.1,152.2,25.7,231.8,25.7c14.3,0,28.7-0.3,43.1-0.8c256.5-9.9,325.7-94.1,376.2-155.5
	c30.7-37.3,54.9-66.8,111-64.5c58.1,2.4,106.3,30.4,157.3,60.2c67.3,39.2,142.2,82.9,258.8,82.9c22.2,0,45.8-1.6,71.2-5.1
	c59.9-8.2,124.7-27.7,192.8-58c54.4-24.2,111-55.4,168.1-92.5c28.9-18.8,55-37.3,77.5-54v-1.2c-22.6,16.8-48.9,35.4-78.1,54.4
	c-89.7,58.4-225.1,131.8-360.5,150.4c-158.7,21.8-249.4-31.1-329.4-77.7c-51.1-29.8-99.4-57.9-157.8-60.3
	c-56.6-2.3-80.9,27.3-111.8,64.9c-50.4,61.3-119.4,145.3-375.5,155.1c-213.9,8.3-376.3-47.1-474.8-94.9c-11.8-5.7-23-11.5-33.6-17.2
	v1.1c10.4,5.6,21.5,11.3,33.1,17C95.8,567.7,163.3,591.4,233.5,607.5z"/>
<path class="st0" d="M288.9,729.2c74.4,17.1,152.2,25.7,231.8,25.7c14.3,0,28.7-0.3,43.1-0.8c256.5-9.9,325.7-94.1,376.2-155.5
	c30.7-37.3,54.9-66.8,111-64.5c58.1,2.4,106.3,30.4,157.3,60.2c67.3,39.2,142.2,82.9,258.7,82.9c22.2,0,45.8-1.6,71.2-5.1
	c59.9-8.2,124.7-27.7,192.8-58c54.4-24.2,111-55.4,168.1-92.5c7.6-4.9,14.9-9.8,22.1-14.7v-1.2c-7.3,5-14.9,10-22.7,15.1
	c-89.7,58.4-225.1,131.8-360.5,150.4c-158.7,21.8-249.4-31.1-329.4-77.7c-51.1-29.8-99.4-57.9-157.8-60.3
	c-56.6-2.3-80.9,27.3-111.8,64.9C888.8,659.1,819.8,743.1,563.7,753c-213.9,8.3-376.3-47.1-474.8-94.9C53.8,641,24.1,623.6,0,608
	v1.2c24,15.6,53.6,32.8,88.5,49.7C151.2,689.4,218.7,713.1,288.9,729.2z"/>
<path class="st0" d="M409.1,508.9c14.3,0,28.7-0.3,43.1-0.8c256.5-9.9,325.7-94.1,376.2-155.5c30.7-37.3,54.9-66.8,111-64.5
	c58.1,2.4,106.3,30.4,157.3,60.2c67.3,39.3,142.2,82.9,258.8,82.9c22.2,0,45.8-1.6,71.2-5.1c59.9-8.2,124.7-27.7,192.8-58
	c54.4-24.2,111-55.4,168.1-92.5c58.2-37.8,105.2-74.4,133.7-97.8v-1.3c-28.5,23.4-75.7,60.1-134.3,98.2
	c-89.7,58.4-225.1,131.8-360.5,150.4c-158.7,21.8-249.4-31.1-329.4-77.7c-51.1-29.8-99.4-57.9-157.8-60.3
	c-56.6-2.3-80.9,27.3-111.8,64.9c-50.4,61.3-119.4,145.3-375.5,155.1C253.8,514.7,99.9,467.8,0,422.8v1.1
	c56.1,25.3,115.6,45.3,177.3,59.4C251.8,500.3,329.5,508.9,409.1,508.9z"/>
<path class="st0" d="M248.9,638.3c74.4,17.1,152.2,25.7,231.8,25.7c14.3,0,28.7-0.3,43.1-0.8C780.3,653.2,849.5,569,900,507.6
	c30.7-37.3,54.9-66.8,111-64.5c58.1,2.4,106.3,30.4,157.3,60.2c67.3,39.2,142.2,82.9,258.8,82.9c22.2,0,45.8-1.6,71.2-5.1
	c59.9-8.2,124.7-27.7,192.8-58c54.4-24.2,111-55.4,168.1-92.5c22.5-14.6,43.4-29.1,62.1-42.7v-1.2c-18.9,13.7-39.9,28.3-62.7,43.1
	c-89.7,58.4-225.1,131.8-360.5,150.4c-158.7,21.8-249.4-31.1-329.4-77.7c-51.1-29.8-99.4-57.9-157.8-60.3
	c-56.6-2.3-80.9,27.3-111.8,64.9c-50.4,61.3-119.4,145.3-375.5,155.1C309.8,670.3,147.5,615,49,567.2c-17.7-8.6-34-17.3-49-25.8v1.1
	c14.8,8.4,31,17,48.5,25.5C111.2,598.5,178.7,622.2,248.9,638.3z"/>
<path class="st0" d="M304.4,760.1c74.4,17.1,152.2,25.7,231.8,25.7c14.3,0,28.7-0.3,43.1-0.8C835.8,775,905,690.8,955.5,629.4
	c30.7-37.3,54.9-66.7,111-64.5c58.1,2.4,106.3,30.4,157.3,60.2c67.3,39.2,142.2,82.9,258.7,82.9c22.2,0,45.8-1.6,71.2-5.1
	c59.9-8.2,124.7-27.7,192.8-58c54.4-24.2,111-55.4,168.1-92.5c2.2-1.4,4.4-2.9,6.6-4.3v-1.2c-2.4,1.6-4.8,3.1-7.2,4.7
	c-89.7,58.4-225.1,131.8-360.5,150.4c-158.7,21.8-249.4-31.1-329.4-77.7c-51.1-29.8-99.4-57.9-157.8-60.3
	c-56.6-2.3-80.9,27.3-111.8,64.9C904.3,690,835.3,774,579.2,783.9C365.3,792.2,203,736.8,104.5,689C61.4,668,26.4,646.7,0,628.6v1.2
	c26.4,18,61.2,39.3,104,60.1C166.7,720.3,234.2,744,304.4,760.1z"/>
<path class="st0" d="M424.5,539.8c14.3,0,28.7-0.3,43.1-0.8c256.5-9.9,325.7-94.1,376.2-155.5c30.7-37.3,54.9-66.8,111-64.5
	c58.1,2.4,106.3,30.4,157.3,60.2c67.3,39.3,142.2,82.9,258.8,82.9c22.2,0,45.8-1.6,71.2-5.1c59.9-8.2,124.7-27.7,192.8-58
	c54.4-24.2,111-55.4,168.1-92.5c48.7-31.7,89.5-62.4,118.3-85.3v-1.3c-28.8,22.9-69.9,53.9-118.9,85.8
	c-89.7,58.4-225.1,131.8-360.5,150.4c-158.7,21.8-249.4-31.1-329.4-77.7c-51.1-29.8-99.4-57.9-157.8-60.3
	c-56.6-2.3-80.9,27.3-111.8,64.9C792.6,444.1,723.6,528.1,467.5,538C258.7,546.1,99.1,493.6,0,446.5v1.1
	c60.6,28.7,125.3,51.1,192.7,66.5C267.2,531.2,344.9,539.8,424.5,539.8z"/>
<path class="st0" d="M326.8,819.5c74.4,17.1,152.2,25.7,231.8,25.7c14.3,0,28.7-0.3,43.1-0.8c256.5-9.9,325.7-94.1,376.2-155.5
	c30.7-37.3,54.9-66.7,111-64.5c58.1,2.4,106.3,30.4,157.3,60.2c67.3,39.2,142.2,82.9,258.8,82.9c22.2,0,45.8-1.6,71.2-5.1
	c59.9-8.2,124.7-27.7,192.8-58c49.4-22,100.6-49.7,152.4-82.4v-1.2c-89.4,56.5-217.3,123.1-345.3,140.7
	c-158.7,21.8-249.4-31.1-329.4-77.7c-51.1-29.8-99.4-57.9-157.8-60.3c-56.6-2.3-80.9,27.3-111.8,64.9
	c-50.4,61.3-119.4,145.3-375.5,155.1c-213.9,8.3-376.3-47.1-474.8-94.9C70.2,720.8,27.6,692.5,0,672v1.2
	c27.6,20.5,70.1,48.6,126.4,76C189.1,779.7,256.6,803.4,326.8,819.5z"/>
<path class="st0" d="M219.2,577.6c74.4,17.1,152.2,25.7,231.8,25.7c14.3,0,28.7-0.3,43.1-0.8c256.5-9.9,325.7-94.1,376.2-155.5
	c30.7-37.3,54.9-66.8,111-64.5c58.1,2.4,106.3,30.4,157.3,60.2c67.3,39.3,142.2,82.9,258.7,82.9c22.2,0,45.8-1.6,71.2-5.1
	c59.9-8.2,124.7-27.7,192.8-58c54.4-24.2,111-55.4,168.1-92.5c35.2-22.9,66.4-45.4,91.8-64.7v-1.3c-25.5,19.4-56.9,42-92.4,65.1
	c-89.7,58.4-225.1,131.8-360.5,150.4c-158.7,21.8-249.4-31.1-329.4-77.7c-51.1-29.8-99.4-57.9-157.8-60.3
	c-56.6-2.3-80.9,27.3-111.8,64.9C819.1,507.5,750.1,591.5,494,601.4c-213.9,8.3-376.3-47.1-474.8-94.9c-6.6-3.2-13-6.4-19.3-9.7v1.1
	c6.1,3.1,12.3,6.3,18.8,9.4C81.5,537.8,149,561.5,219.2,577.6z"/>
<path class="st0" d="M274.6,699.4c74.4,17.1,152.2,25.7,231.8,25.7c14.3,0,28.7-0.3,43.1-0.8c256.5-9.9,325.7-94.1,376.2-155.5
	c30.7-37.3,54.9-66.8,111-64.5c58.1,2.4,106.3,30.4,157.3,60.2c67.3,39.3,142.2,82.9,258.8,82.9c22.2,0,45.8-1.6,71.2-5.1
	c59.9-8.2,124.7-27.7,192.8-58c54.4-24.2,111-55.4,168.1-92.5c12.7-8.3,24.9-16.5,36.4-24.5v-1.2c-11.7,8.1-24.1,16.5-37,24.9
	c-89.7,58.4-225.1,131.8-360.5,150.4c-158.7,21.8-249.4-31.1-329.4-77.7c-51.1-29.8-99.4-57.9-157.8-60.3
	c-56.6-2.3-80.9,27.3-111.8,64.9c-50.4,61.3-119.4,145.3-375.5,155.1c-213.9,8.3-376.3-47.1-474.8-94.9
	c-28.5-13.8-53.4-27.9-74.7-41v1.2c21.2,13.1,45.9,27,74.2,40.7C136.9,659.6,204.4,683.3,274.6,699.4z"/>
<path class="st0" d="M394.8,479.1c14.3,0,28.7-0.3,43.1-0.8c256.5-9.9,325.7-94.1,376.2-155.5c30.7-37.3,54.9-66.8,111-64.5
	c58.1,2.4,106.3,30.4,157.3,60.2c67.3,39.3,142.2,82.9,258.8,82.9c22.2,0,45.8-1.6,71.2-5.1c59.9-8.2,124.7-27.7,192.8-58
	c54.4-24.2,111-55.4,168.1-92.5c69.3-45.1,122.7-88.3,148-109.7v-1.3c-25,21.2-78.7,64.7-148.6,110.1
	c-89.7,58.4-225.1,131.8-360.5,150.4c-158.7,21.8-249.4-31.1-329.4-77.7c-51.1-29.8-99.4-57.9-157.8-60.3
	c-56.6-2.3-80.9,27.3-111.8,64.9c-50.4,61.3-119.4,145.3-375.5,155.1C248.8,484.6,100,442.2,0,399.2v1.1
	c51.9,22.3,106.5,40.2,163,53.1C237.5,470.5,315.2,479.1,394.8,479.1z"/>
<path class="st0" d="M256.6,654.1c74.4,17.1,152.2,25.7,231.8,25.7c14.3,0,28.7-0.3,43.1-0.8C788,669,857.2,584.8,907.7,523.4
	c30.7-37.3,54.9-66.8,111-64.5c58.1,2.4,106.3,30.4,157.3,60.2c67.3,39.3,142.2,82.9,258.8,82.9c22.2,0,45.8-1.6,71.2-5.1
	c59.9-8.2,124.7-27.7,192.8-58c54.4-24.2,111-55.4,168.1-92.5c19.5-12.7,37.7-25.2,54.4-37.1v-1.2c-16.9,12.1-35.3,24.7-55,37.5
	c-89.7,58.4-225.1,131.8-360.5,150.4c-158.7,21.8-249.4-31.1-329.4-77.7c-51.1-29.8-99.4-57.9-157.8-60.3
	c-56.6-2.3-80.9,27.3-111.8,64.9C856.5,584,787.5,668,531.4,677.9c-213.9,8.3-376.3-47.1-474.8-94.9C35.9,572.9,17,562.6,0,552.8
	v1.2c16.8,9.8,35.6,19.9,56.2,29.9C118.9,614.3,186.4,638,256.6,654.1z"/>
<path class="st0" d="M312.1,775.9c74.4,17.1,152.2,25.7,231.8,25.7c14.3,0,28.7-0.3,43.1-0.8c256.5-9.9,325.7-94.1,376.2-155.5
	c30.7-37.3,54.9-66.7,111-64.5c58.1,2.4,106.3,30.4,157.3,60.2c67.3,39.3,142.2,82.9,258.8,82.9c22.2,0,45.8-1.6,71.2-5.1
	c59.9-8.2,124.7-27.7,192.8-58c54.1-24.1,110.3-55,167.1-91.8v-1.2c-89.7,58.3-224.8,131.5-360,150.1
	c-158.7,21.8-249.4-31.1-329.4-77.7c-51.1-29.8-99.4-57.9-157.8-60.3c-56.6-2.3-80.9,27.3-111.8,64.9
	C912,705.8,843,789.8,586.9,799.7C373,808,210.7,752.6,112.2,704.8c-47.4-23-85-46.6-112.2-65.7v1.2c27.2,19.1,64.6,42.5,111.7,65.4
	C174.4,736.1,241.9,759.8,312.1,775.9z"/>
<path class="st0" d="M432.2,555.6c14.3,0,28.7-0.3,43.1-0.8c256.5-9.9,325.7-94.1,376.2-155.5c30.7-37.3,54.9-66.8,111-64.5
	c58.1,2.4,106.3,30.4,157.3,60.2c67.3,39.2,142.2,82.9,258.8,82.9c22.2,0,45.8-1.6,71.2-5.1c59.9-8.2,124.7-27.7,192.8-58
	c54.4-24.2,111-55.4,168.1-92.5c44.5-28.9,82.4-57.1,110.6-79.2v-1.3c-28.2,22.2-66.4,50.5-111.2,79.7
	c-89.7,58.4-225.1,131.8-360.5,150.4c-158.7,21.8-249.4-31.1-329.4-77.7c-51.1-29.8-99.4-57.9-157.8-60.3
	c-56.6-2.3-80.9,27.3-111.8,64.9c-50.4,61.3-119.4,145.3-375.5,155.1C261.3,562,99,506.7,0.5,458.9c-0.2-0.1-0.3-0.1-0.5-0.2v1.1
	c62.7,30.5,130.2,54.1,200.4,70.2C274.9,547,352.6,555.6,432.2,555.6z"/>
<path class="st0" d="M332.5,833.4C407,850.4,484.7,859,564.3,859c14.3,0,28.7-0.3,43.1-0.8c256.5-9.9,325.7-94.1,376.2-155.5
	c30.7-37.3,54.9-66.8,111-64.5c58.1,2.4,106.3,30.4,157.3,60.2c67.3,39.2,142.2,82.9,258.8,82.9c22.2,0,45.8-1.6,71.2-5.1
	c59.9-8.2,124.7-27.7,192.8-58c47.6-21.2,96.8-47.7,146.7-78.8v-1.2c-89.1,55.7-214.3,119.9-339.6,137.1
	c-158.7,21.8-249.4-31.1-329.4-77.7c-51.1-29.8-99.4-57.9-157.8-60.3c-56.6-2.3-80.9,27.3-111.8,64.9
	c-50.4,61.3-119.4,145.3-375.5,155.1c-213.9,8.3-376.3-47.1-474.8-94.9C71.8,732.8,27.3,702.4,0,681.6v1.3
	c27.4,20.8,71.8,51,132.1,80.3C194.8,793.6,262.3,817.3,332.5,833.4z"/>
<path class="st0" d="M226.9,593.5c74.4,17.1,152.2,25.7,231.8,25.7c14.3,0,28.7-0.3,43.1-0.8c256.5-9.9,325.7-94.1,376.2-155.5
	c30.7-37.3,54.9-66.8,111-64.5c58.1,2.4,106.3,30.4,157.3,60.2c67.3,39.3,142.2,82.9,258.8,82.9c22.2,0,45.8-1.6,71.2-5.1
	c59.9-8.2,124.7-27.7,192.8-58c54.4-24.2,111-55.4,168.1-92.5c31.8-20.7,60.2-40.9,84.1-58.9v-1.3c-24,18.1-52.7,38.5-84.7,59.3
	c-89.7,58.4-225.1,131.8-360.5,150.4c-158.7,21.8-249.4-31.1-329.4-77.7c-51.1-29.8-99.4-57.9-157.8-60.3
	c-56.6-2.3-80.9,27.3-111.8,64.9c-50.4,61.3-119.4,145.3-375.5,155.1c-213.9,8.3-376.3-47.1-474.8-94.9c-9.4-4.6-18.4-9.1-27-13.7
	v1.1c8.5,4.5,17.3,9,26.5,13.4C89.2,553.7,156.7,577.4,226.9,593.5z"/>
<path class="st0" d="M282.3,715.2c74.4,17.1,152.2,25.7,231.8,25.7c14.3,0,28.7-0.3,43.1-0.8c256.5-9.9,325.7-94.1,376.2-155.5
	c30.7-37.3,54.9-66.8,111-64.5c58.1,2.4,106.3,30.4,157.3,60.2c67.3,39.2,142.2,82.9,258.8,82.9c22.2,0,45.8-1.6,71.2-5.1
	c59.9-8.2,124.7-27.7,192.8-58c54.4-24.2,111-55.4,168.1-92.5c9.9-6.4,19.5-12.9,28.7-19.2V487c-9.4,6.4-19.2,13-29.3,19.5
	c-89.7,58.4-225.1,131.8-360.5,150.4c-158.7,21.8-249.4-31.1-329.4-77.7c-51.1-29.8-99.4-57.9-157.8-60.3
	c-56.6-2.3-80.9,27.3-111.8,64.9C882.2,645.1,813.2,729.1,557.1,739c-213.9,8.3-376.3-47.1-474.8-94.9c-32-15.5-59.5-31.3-82.4-45.8
	v1.2c22.8,14.4,50.1,30.1,81.9,45.5C144.6,675.4,212.1,699.1,282.3,715.2z"/>
<path class="st0" d="M402.5,494.9c14.3,0,28.7-0.3,43.1-0.8c256.5-9.9,325.7-94.1,376.2-155.5c30.7-37.3,54.9-66.8,111-64.5
	c58.1,2.4,106.3,30.4,157.3,60.2c67.3,39.3,142.2,82.9,258.8,82.9c22.2,0,45.8-1.6,71.2-5.1c59.9-8.2,124.7-27.7,192.8-58
	c54.4-24.2,111-55.4,168.1-92.5c62.9-40.9,112.7-80.3,140.3-103.2V157c-27.4,22.8-77.5,62.5-140.9,103.7
	c-89.7,58.4-225.1,131.8-360.5,150.4c-158.7,21.8-249.4-31.1-329.4-77.7c-51.1-29.8-99.4-57.9-157.8-60.3
	c-56.6-2.3-80.9,27.3-111.8,64.9c-50.4,61.3-119.4,145.3-375.5,155.1C251.6,500.6,100,455.8,0,411.7v1.1
	c54.2,23.9,111.4,42.9,170.7,56.5C245.2,486.3,322.9,494.9,402.5,494.9z"/>
<path class="st0" d="M242.3,624.3c74.4,17.1,152.2,25.7,231.8,25.7c14.3,0,28.7-0.3,43.1-0.8c256.5-9.9,325.7-94.1,376.2-155.5
	c30.7-37.3,54.9-66.8,111-64.5c58.1,2.4,106.3,30.4,157.3,60.2c67.3,39.2,142.2,82.9,258.8,82.9c22.2,0,45.8-1.6,71.2-5.1
	c59.9-8.2,124.7-27.7,192.8-58c54.4-24.2,111-55.4,168.1-92.5c25.2-16.4,48.3-32.5,68.7-47.5v-1.2c-20.6,15.1-43.8,31.3-69.3,47.9
	c-89.7,58.4-225.1,131.8-360.5,150.4c-158.7,21.8-249.4-31.1-329.4-77.7c-51.1-29.8-99.4-57.9-157.8-60.3
	c-56.6-2.3-80.9,27.3-111.8,64.9c-50.4,61.3-119.4,145.3-375.5,155.1c-213.9,8.3-376.3-47.1-474.8-94.9
	c-15.1-7.4-29.3-14.8-42.4-22.1v1.1c13,7.2,26.9,14.5,41.9,21.8C104.6,584.5,172.1,608.2,242.3,624.3z"/>
<path class="st0" d="M297.7,746.1c74.4,17.1,152.2,25.7,231.8,25.7c14.3,0,28.7-0.3,43.1-0.8c256.5-9.9,325.7-94.1,376.2-155.5
	c30.7-37.3,54.9-66.7,111-64.5c58.1,2.4,106.3,30.4,157.3,60.2c67.3,39.2,142.2,82.9,258.8,82.9c22.2,0,45.8-1.6,71.2-5.1
	c59.9-8.2,124.7-27.7,192.8-58c54.4-24.2,111-55.4,168.1-92.5c4.5-2.9,8.9-5.9,13.3-8.8v-1.2c-4.6,3-9.2,6.1-13.9,9.1
	c-89.7,58.4-225.1,131.8-360.5,150.4c-158.7,21.8-249.4-31.1-329.4-77.7c-51.1-29.8-99.4-57.9-157.8-60.3
	c-56.6-2.3-80.9,27.3-111.8,64.9C897.6,676,828.6,760,572.5,769.9c-213.9,8.3-376.3-47.1-474.8-94.9C58.2,655.7,25.5,636.2,0,619.1
	v1.2c25.5,17,58,36.4,97.3,55.5C160,706.3,227.5,730,297.7,746.1z"/>
<path class="st0" d="M417.9,525.8c14.3,0,28.7-0.3,43.1-0.8c256.6-9.9,325.8-94.1,376.2-155.5c30.6-37.3,54.8-66.8,110.9-64.5
	c58.1,2.4,106.3,30.4,157.3,60.2c67.3,39.3,142.2,82.9,258.8,82.9c22.2,0,45.8-1.6,71.2-5.1c59.9-8.2,124.7-27.7,192.8-58
	c54.4-24.2,111-55.4,168.1-92.5c52.5-34.2,96-67.3,124.9-90.6v-1.3c-28.9,23.3-72.6,56.7-125.5,91.1
	c-89.7,58.4-225.1,131.8-360.5,150.4c-158.7,21.8-249.4-31.1-329.4-77.7c-51.1-29.8-99.4-57.9-157.8-60.3
	c-56.6-2.3-80.9,27.3-111.7,64.8C786.1,430.1,717.1,514.1,460.9,524C256.7,531.9,99.5,481.8,0,435.6v1.1
	c58.7,27.2,121.2,48.6,186.1,63.4C260.6,517.2,338.3,525.8,417.9,525.8z"/>
<path class="st0" d="M320.2,805.5c74.4,17.1,152.2,25.7,231.8,25.7c14.3,0,28.7-0.3,43.1-0.8c256.5-9.9,325.7-94.1,376.2-155.5
	c30.7-37.3,54.9-66.7,111-64.5c58.1,2.4,106.3,30.4,157.3,60.2c67.3,39.2,142.2,82.9,258.8,82.9c22.2,0,45.8-1.6,71.2-5.1
	c59.9-8.2,124.7-27.7,192.8-58c51.5-22.9,104.9-52.1,159-86.6v-1.2c-89.6,57.4-220.7,126.9-351.9,144.8
	c-158.7,21.8-249.4-31.1-329.4-77.7c-51.1-29.8-99.4-57.9-157.8-60.3c-56.6-2.3-80.9,27.3-111.8,64.9
	C920.1,735.4,851.1,819.4,595,829.3c-213.9,8.3-376.3-47.1-474.8-94.9C67.9,708.9,27.6,682.9,0,662.8v1.2
	c27.6,20,67.8,45.9,119.8,71.2C182.5,765.7,250,789.4,320.2,805.5z"/>
<path class="st0" d="M213.6,560.6c74.4,17.1,152.2,25.7,231.8,25.7c14.3,0,28.7-0.3,43.1-0.8c256.5-9.9,325.7-94.1,376.2-155.5
	c30.7-37.3,54.9-66.8,111-64.5c58.1,2.4,106.3,30.4,157.3,60.2c67.3,39.3,142.2,82.9,258.8,82.9c22.2,0,45.8-1.6,71.2-5.1
	c59.9-8.2,124.7-27.7,192.8-58c54.4-24.2,111-55.4,168.1-92.5c37.9-24.6,71-48.7,97.4-69v-1.3c-26.5,20.4-59.8,44.6-98,69.4
	c-89.7,58.4-225.1,131.8-360.5,150.4c-158.7,21.8-249.4-31.1-329.4-77.7c-51.1-29.8-99.4-57.9-157.8-60.3
	c-56.6-2.3-80.9,27.3-111.8,64.9c-50.4,61.3-119.4,145.3-375.5,155.1c-213.9,8.3-376.3-47.1-474.8-94.9c-4.6-2.3-9.2-4.5-13.7-6.8
	v1.1c4.3,2.2,8.7,4.4,13.2,6.5C75.9,520.8,143.4,544.5,213.6,560.6z"/>
<path class="st0" d="M268,685.4c74.4,17.1,152.2,25.7,231.8,25.7c14.3,0,28.7-0.3,43.1-0.8c256.5-9.9,325.7-94.1,376.2-155.5
	c30.7-37.3,54.9-66.8,111-64.5c58.1,2.4,106.3,30.4,157.3,60.2c67.3,39.2,142.2,82.9,258.8,82.9c22.2,0,45.8-1.6,71.2-5.1
	c59.9-8.2,124.7-27.7,192.8-58c54.4-24.2,111-55.4,168.1-92.5c15.1-9.8,29.5-19.6,43-29.1v-1.2c-13.7,9.6-28.2,19.5-43.6,29.5
	c-89.7,58.4-225.1,131.8-360.5,150.4c-158.7,21.8-249.4-31.1-329.4-77.7c-51.1-29.8-99.4-57.9-157.8-60.3
	c-56.6-2.3-80.9,27.3-111.8,64.9c-50.4,61.3-119.4,145.3-375.5,155.1c-213.9,8.3-376.3-47.1-474.8-94.9c-25.6-12.4-48.3-25-68.1-37
	v1.2c19.7,11.9,42.2,24.4,67.6,36.7C130.3,645.6,197.8,669.3,268,685.4z"/>
<path class="st0" d="M388.1,465.1c14.3,0,28.7-0.3,43.1-0.8c256.5-9.9,325.7-94.1,376.2-155.5c30.7-37.3,54.9-66.8,111-64.5
	c58.1,2.4,106.3,30.4,157.3,60.2c67.3,39.3,142.2,82.9,258.8,82.9c22.2,0,45.8-1.6,71.2-5.1c59.9-8.2,124.7-27.7,192.8-58
	c54.4-24.2,111-55.4,168.1-92.5c76.2-49.5,133.2-96.9,154.7-115.4V115c-20.9,18.1-78.3,65.8-155.3,115.9
	c-89.7,58.4-225.1,131.8-360.5,150.4c-158.7,21.8-249.4-31.1-329.4-77.7c-51.1-29.8-99.4-57.9-157.8-60.3
	c-56.6-2.3-80.9,27.3-111.8,64.9c-50.4,61.3-119.4,145.3-375.5,155.1C246.2,470.4,99.9,430.1,0,388.1v1.1
	c49.9,21,102.3,37.9,156.3,50.3C230.8,456.5,308.5,465.1,388.1,465.1z"/>
<path class="st0" d="M385.7,452.7c14.3,0,28.7-0.3,43.1-0.8C685.3,442,754.5,357.8,805,296.4c30.7-37.3,54.9-66.8,111-64.5
	c58.1,2.4,106.3,30.4,157.3,60.2c67.3,39.3,142.2,82.9,258.8,82.9c22.2,0,45.8-1.6,71.2-5.1c59.9-8.2,124.7-27.7,192.8-58
	c54.4-24.2,111-55.4,168.1-92.5c79.2-51.5,137.7-100.6,157.1-117.4v-1.3c-18.7,16.2-77.6,65.8-157.7,117.9
	c-89.7,58.4-225.1,131.8-360.5,150.4c-158.7,21.8-249.4-31.1-329.4-77.7c-51.1-29.8-99.4-57.9-157.8-60.3
	c-56.6-2.3-80.9,27.3-111.8,64.9C753.8,357,684.8,441,428.7,450.9C245.3,458,99.8,418.3,0,376.7v1.1
	c49.2,20.5,100.7,37.1,153.9,49.2C228.4,444.1,306.1,452.7,385.7,452.7z"/>
<path class="st0" d="M959.1,46.2C928,28,897.8,10.5,865.8-1h-3c32.9,11.4,63.8,29.4,95.8,48c67.3,39.2,142.2,82.9,258.7,82.9
	c22.2,0,45.8-1.6,71.2-5.1c59.9-8.2,124.7-27.7,192.8-58c41.9-18.6,85-41.4,128.8-67.8h-2c-87.3,52.6-203.5,108.9-319.7,124.9
	C1129.8,145.7,1039.1,92.8,959.1,46.2z"/>
<path class="st0" d="M271.1,207.7c14.3,0,28.7-0.3,43.1-0.8c256.5-9.9,325.7-94.1,376.2-155.5c17.8-21.7,33.5-40.7,54.4-52.4h-2.1
	c-20.3,11.8-35.7,30.5-53.1,51.7C639.2,112,570.2,196,314.1,205.9C191.8,210.6,86.3,194.5,0,171v1.2c13,3.6,26.1,6.9,39.3,9.9
	C113.8,199.1,191.5,207.7,271.1,207.7z"/>
<path class="st0" d="M329.5,328.5c14.3,0,28.7-0.3,43.1-0.8c256.5-9.9,325.7-94.1,376.2-155.5c30.7-37.3,54.9-66.8,111-64.5
	c58.1,2.4,106.3,30.4,157.3,60.2c67.3,39.3,142.2,82.9,258.8,82.9c22.2,0,45.8-1.6,71.2-5.1c59.9-8.2,124.7-27.7,192.8-58
	c54.4-24.2,111-55.4,168.1-92.5c56.8-36.9,103-72.7,131.7-96.1h-1.6c-28.8,23.4-74.5,58.7-130.7,95.3
	c-89.7,58.4-225.1,131.8-360.5,150.4c-158.7,21.8-249.4-31.1-329.4-77.7c-51.1-29.8-99.4-57.9-157.8-60.3
	c-56.6-2.3-80.9,27.3-111.8,64.9c-50.4,61.3-119.4,145.3-375.5,155.1C221,332.5,95.4,306.5,0,273.8v1.2
	c31.8,10.9,64.4,20.3,97.7,27.9C172.2,319.9,249.9,328.5,329.5,328.5z"/>
<path class="st0" d="M1161.1,5.9c22.2,0,45.8-1.6,71.2-5.1c3.9-0.5,7.9-1.1,11.9-1.8h-6.6c-1.8,0.3-3.6,0.5-5.5,0.8
	c-54.7,7.5-101.4,6.1-142.3-0.8h-5.8C1107.7,3.3,1133.2,5.9,1161.1,5.9z"/>
<path class="st0" d="M257.9,82.8C420.7,76.5,508,40.3,563-1h-1.7c-54.9,40.9-142,76.5-303.5,82.8C160.9,85.5,74.6,76.2,0,60.5v1.2
	c69.3,14.6,141.3,21.9,214.8,21.9C229.1,83.6,243.5,83.3,257.9,82.8z"/>
<path class="st0" d="M355.9,392c14.3,0,28.7-0.3,43.1-0.8c256.5-9.9,325.7-94.1,376.2-155.5c30.7-37.3,54.9-66.8,111-64.5
	c58.1,2.4,106.3,30.4,157.3,60.2c67.3,39.3,142.2,82.9,258.8,82.9c22.2,0,45.8-1.6,71.2-5.1c59.9-8.2,124.7-27.7,192.8-58
	c54.4-24.2,111-55.4,168.1-92.5c97.3-63.3,163.4-123,164.1-123.5l-0.7-0.7c-0.7,0.6-66.7,60.2-163.9,123.5
	c-89.7,58.4-225.1,131.8-360.5,150.4c-158.7,21.8-249.4-31.1-329.4-77.7c-51.1-29.8-99.4-57.9-157.8-60.3
	c-56.6-2.3-80.9,27.3-111.8,64.9C724,296.3,655,380.3,398.9,390.2C233,396.6,98.1,364.8,0,327.8v1.1c40.1,15.1,81.6,27.7,124.1,37.4
	C198.6,383.4,276.3,392,355.9,392z"/>
<path class="st0" d="M952.5-1h-2c62,35.4,132.9,70.3,237.1,70.3c22.2,0,45.8-1.6,71.2-5.1c59.9-8.2,124.7-27.7,192.8-58
	c5.3-2.3,10.5-4.8,15.8-7.2h-2.7c-64.3,29.8-135.2,54.6-206.1,64.3C1115.1,83,1027.2,41.6,952.5-1z"/>
<path class="st0" d="M241.3,147.1c14.3,0,28.7-0.3,43.1-0.8C529.6,136.8,603.6,59.5,653.8-1h-1.3c-50,60.2-124.2,136.9-368.2,146.3
	C175.7,149.5,80.4,137.3,0,118v1.2c3.2,0.8,6.3,1.5,9.5,2.3C84,138.5,161.7,147.1,241.3,147.1z"/>
<path class="st0" d="M299.7,267.8c14.3,0,28.7-0.3,43.1-0.8c256.5-9.9,325.7-94.1,376.2-155.5c30.7-37.3,54.9-66.8,111-64.5
	c58.1,2.4,106.3,30.4,157.3,60.2c67.3,39.3,142.2,82.9,258.8,82.9c22.2,0,45.8-1.6,71.2-5.1c59.9-8.2,124.7-27.7,192.8-58
	c54.4-24.2,111-55.4,168.1-92.5c18.5-12.1,35.9-24,52-35.4h-1.7c-15.7,11.2-32.7,22.8-50.8,34.6c-89.7,58.4-225.1,131.8-360.5,150.4
	c-158.7,21.8-249.4-31.1-329.4-77.7C936.6,76.5,888.3,48.4,830,46c-56.6-2.3-80.9,27.3-111.8,64.9
	C667.8,172.1,598.8,256.1,342.7,266C206.5,271.2,91.2,250.7,0,222.8v1.2c22.3,6.8,45,12.9,67.9,18.2
	C142.4,259.2,220.1,267.8,299.7,267.8z"/>
<path class="st0" d="M228.2,22.1C298.9,19.4,355.3,11,401.1-1h-4c-45,11.4-100.2,19.4-168.9,22.1C143.8,24.3,67.5,17.7,0,5.6v1.2
	c60.1,10.7,122,16.2,185.1,16.2C199.4,22.9,213.8,22.6,228.2,22.1z"/>
<path class="st0" d="M371.4,422.8c14.3,0,28.7-0.3,43.1-0.8c256.5-9.9,325.7-94.1,376.2-155.5c30.7-37.3,54.9-66.8,111-64.5
	c58.1,2.4,106.3,30.4,157.3,60.2c67.3,39.3,142.2,82.9,258.8,82.9c22.2,0,45.8-1.6,71.2-5.1c59.9-8.2,124.7-27.7,192.8-58
	c54.4-24.2,111-55.4,168.1-92.5c97.3-63.3,163.4-123,164.1-123.5l-0.7-0.7c-0.7,0.6-66.7,60.2-163.9,123.5
	c-89.7,58.4-225.1,131.8-360.5,150.4c-158.7,21.8-249.4-31.1-329.4-77.7c-51.1-29.8-99.4-57.9-157.8-60.3
	c-56.6-2.3-80.9,27.3-111.8,64.9C739.5,327.1,670.5,411.1,414.4,421C239.6,427.7,99.2,392,0,352.6v1.1
	c44.8,17.8,91.6,32.4,139.6,43.4C214.1,414.2,291.8,422.8,371.4,422.8z"/>
<path class="st0" d="M256.7,177.9c14.3,0,28.7-0.3,43.1-0.8C556.3,167.2,625.5,83,676,21.6c6.5-8,12.8-15.6,19.1-22.6h-1.3
	c-6.1,6.8-12.2,14.2-18.5,21.9c-50.4,61.3-119.4,145.3-375.5,155.1C184.1,180.6,83.5,166.4,0,145v1.2c8.3,2.1,16.6,4.2,24.9,6.1
	C99.4,169.3,177.1,177.9,256.7,177.9z"/>
<path class="st0" d="M944.7,16.4C934.6,10.5,924.5,4.6,914.5-1h-2.1c10.6,5.9,21.1,12,31.8,18.2c67.3,39.3,142.2,82.9,258.8,82.9
	c22.2,0,45.8-1.6,71.2-5.1c59.9-8.2,124.7-27.7,192.8-58c25.2-11.2,50.9-23.9,76.8-38h-2.2c-78.9,42.6-173.2,82.1-267.5,95.1
	C1115.4,115.9,1024.7,63,944.7,16.4z"/>
<path class="st0" d="M315.2,298.7c14.3,0,28.7-0.3,43.1-0.8C614.8,288,684,203.8,734.5,142.4c30.7-37.3,54.9-66.8,111-64.5
	c58.1,2.4,106.3,30.4,157.3,60.2c67.3,39.3,142.2,82.9,258.8,82.9c22.2,0,45.8-1.6,71.2-5.1c59.9-8.2,124.7-27.7,192.8-58
	c54.4-24.2,111-55.4,168.1-92.5c36.2-23.6,68.1-46.6,93.9-66.3h-1.6c-25.6,19.5-57.1,42.2-92.8,65.5
	c-89.7,58.4-225.1,131.8-360.5,150.4c-158.7,21.8-249.4-31.1-329.4-77.7c-51.1-29.8-99.4-57.9-157.8-60.3
	c-56.6-2.3-80.9,27.3-111.8,64.9C683.3,203,614.3,287,358.2,296.9C214.2,302.5,93.5,279.2,0,248.8v1.2c27.3,8.9,55.1,16.6,83.4,23.1
	C157.9,290.1,235.6,298.7,315.2,298.7z"/>
<path class="st0" d="M243.6,53C365.4,48.3,445,26.8,500.4-1h-2.3c-55.2,27.3-134.2,48.3-254.6,53C152.7,55.5,71.3,47.5,0,33.6v1.2
	c64.9,12.7,132,19,200.5,19C214.8,53.8,229.2,53.5,243.6,53z"/>
<path class="st0" d="M341.6,362.1c14.3,0,28.7-0.3,43.1-0.8c256.5-9.9,325.7-94.1,376.2-155.5c30.7-37.3,54.9-66.8,111-64.5
	c58.1,2.4,106.3,30.4,157.3,60.2c67.3,39.3,142.2,82.9,258.8,82.9c22.2,0,45.8-1.6,71.2-5.1c59.9-8.2,124.7-27.7,192.8-58
	c54.4-24.2,111-55.4,168.1-92.5c97.3-63.3,163.4-123,164.1-123.5l-0.7-0.7c-0.7,0.6-66.7,60.2-163.9,123.5
	c-89.7,58.4-225.1,131.8-360.5,150.4c-158.7,21.8-249.4-31.1-329.4-77.7c-51.1-29.8-99.4-57.9-157.8-60.3
	c-56.6-2.3-80.9,27.3-111.8,64.9c-50.4,61.3-119.4,145.3-375.5,155.1c-158,6.1-287.8-22.5-384.6-57.1v1.2
	c35.6,12.8,72.3,23.5,109.8,32.1C184.3,353.5,262,362.1,341.6,362.1z"/>
<path class="st0" d="M270.1,116.4c206.1-8,291.3-63.8,343-117.4h-1.4C560,52.2,474.9,107.5,270,115.4c-102.2,3.9-192.7-6.6-270-24
	v1.2c73,16.3,149.1,24.6,227,24.6C241.3,117.2,255.7,116.9,270.1,116.4z"/>
<path class="st0" d="M995.4-1H993c49.1,22.9,106.3,40.4,180.2,40.4c22.2,0,45.8-1.6,71.2-5.1c43.3-5.9,89.2-17.8,137.1-35.4h-3.2
	c-43.5,15.8-88.7,28.2-134,34.4C1135.6,48.3,1058.8,28.2,995.4-1z"/>
<path class="st0" d="M285.4,238c14.3,0,28.7-0.3,43.1-0.8c256.5-9.9,325.7-94.1,376.2-155.5c30.7-37.3,54.9-66.8,111-64.5
	c58.1,2.4,106.3,30.4,157.3,60.2c67.3,39.3,142.2,82.9,258.8,82.9c22.2,0,45.8-1.6,71.2-5.1c59.9-8.2,124.7-27.7,192.8-58
	c54.4-24.2,111-55.4,168.1-92.5c2.9-1.9,5.7-3.7,8.5-5.6h-1.8c-2.4,1.6-4.8,3.2-7.3,4.8c-89.7,58.4-225.1,131.8-360.5,150.4
	c-158.7,21.8-249.4-31.1-329.4-77.7C922.3,46.7,874,18.6,815.7,16.2c-56.6-2.3-80.9,27.3-111.8,64.9
	c-50.4,61.3-119.4,145.3-375.5,155.1c-129.2,5-239.6-13.2-328.4-39v1.2c17.7,5.1,35.5,9.8,53.6,13.9
	C128.1,229.4,205.8,238,285.4,238z"/>
<path class="st0" d="M379.1,438.7c14.3,0,28.7-0.3,43.1-0.8c256.5-9.9,325.7-94.1,376.2-155.5c30.7-37.3,54.9-66.8,111-64.5
	c58.1,2.4,106.3,30.4,157.3,60.2c67.3,39.3,142.2,82.9,258.8,82.9c22.2,0,45.8-1.6,71.2-5.1c59.9-8.2,124.7-27.7,192.8-58
	c54.4-24.2,111-55.4,168.1-92.5c93.8-61,158.6-118.6,163.7-123.2v-0.7l-0.3-0.4c-0.7,0.6-66.7,60.2-163.9,123.5
	c-89.7,58.4-225.1,131.8-360.5,150.4c-158.7,21.8-249.4-31.1-329.4-77.7c-51.1-29.8-99.4-57.9-157.8-60.3
	c-56.6-2.3-80.9,27.3-111.8,64.9C747.2,343,678.2,427,422.1,436.9C242.7,443.8,99.6,406,0,365.4v1.1c47.2,19.3,96.5,34.9,147.3,46.5
	C221.8,430.1,299.5,438.7,379.1,438.7z"/>
<path class="st0" d="M952.4,32.2C932.1,20.4,912.3,8.8,892.1-1h-2.3c20.8,10,41.2,21.9,62.1,34c67.3,39.2,142.2,82.9,258.7,82.9
	c22.2,0,45.8-1.6,71.2-5.1c59.9-8.2,124.7-27.7,192.8-58c34.3-15.3,69.5-33.3,105.1-53.8h-2.1c-84.1,48.2-190,96.3-295.9,110.9
	C1123.1,131.7,1032.4,78.8,952.4,32.2z"/>
<path class="st0" d="M264.4,193.7c14.3,0,28.7-0.3,43.1-0.8C564,183,633.2,98.8,683.7,37.4C695.5,23,706.4,9.7,718.6-1H717
	c-11.8,10.6-22.5,23.6-34.1,37.7C632.5,98,563.5,182,307.4,191.9C188.2,196.5,85,181.4,0,158.8v1.2c10.8,2.9,21.7,5.6,32.6,8.1
	C107.1,185.1,184.8,193.7,264.4,193.7z"/>
<path class="st0" d="M322.9,314.5c14.3,0,28.7-0.3,43.1-0.8c256.5-9.9,325.7-94.1,376.2-155.5c30.7-37.3,54.9-66.8,111-64.5
	c58.1,2.4,106.3,30.4,157.3,60.2c67.3,39.3,142.2,82.9,258.8,82.9c22.2,0,45.8-1.6,71.2-5.1c59.9-8.2,124.7-27.7,192.8-58
	c54.4-24.2,111-55.4,168.1-92.5c46.4-30.2,85.7-59.6,114.2-82.1h-1.6c-28.4,22.4-67.3,51.4-113.2,81.3
	c-89.7,58.4-225.1,131.8-360.5,150.4c-158.7,21.8-249.4-31.1-329.4-77.7c-51.1-29.8-99.4-57.9-157.8-60.3
	c-56.6-2.3-80.9,27.3-111.8,64.9C691,218.8,622,302.8,365.9,312.7c-148,5.7-271.4-19-365.9-50.7v1.2c29.7,10,60.1,18.5,91.1,25.6
	C165.6,305.9,243.3,314.5,322.9,314.5z"/>
<path class="st0" d="M251.3,68.8C395.4,63.2,480.3,34.2,536.1-1h-1.9c-55.7,34.8-140.3,63.3-283,68.8C157.2,71.4,73.1,62.8,0,47.8
	V49c67.2,13.7,137,20.6,208.2,20.6C222.5,69.6,236.9,69.3,251.3,68.8z"/>
<path class="st0" d="M349.3,378c14.3,0,28.7-0.3,43.1-0.8c256.5-9.9,325.7-94.1,376.2-155.5c30.7-37.3,54.9-66.8,111-64.5
	c58.1,2.4,106.3,30.4,157.3,60.2c67.3,39.3,142.2,82.9,258.8,82.9c22.2,0,45.8-1.6,71.2-5.1c59.9-8.2,124.7-27.7,192.8-58
	c54.4-24.2,111-55.4,168.1-92.5c97.3-63.3,163.4-123,164.1-123.5l-0.7-0.7c-0.7,0.6-66.7,60.2-163.9,123.5
	c-89.7,58.4-225.1,131.8-360.5,150.4c-158.7,21.8-249.4-31.1-329.4-77.7c-51.1-29.8-99.4-57.9-157.8-60.3
	c-56.6-2.3-80.9,27.3-111.8,64.9c-50.4,61.3-119.4,145.3-375.5,155.1c-162.2,6.3-294.8-24-392.3-59.9v1.2
	c38,14,77.3,25.7,117.5,34.9C192,369.4,269.7,378,349.3,378z"/>
<path class="st0" d="M971.2-1h-2.1c56.2,30.1,121.5,56.3,211.9,56.3c22.2,0,45.8-1.6,71.2-5.1c55.3-7.6,114.8-24.8,177.2-51.3h-2.9
	c-55.6,23.4-115,42.1-174.4,50.3C1124.4,66.8,1040.7,36,971.2-1z"/>
<path class="st0" d="M234.7,133.1c14.3,0,28.7-0.3,43.1-0.8C504.4,123.5,584.8,56.8,635.3-1H634c-50.4,57.5-130.9,123.6-356.2,132.3
	C172.1,135.4,79,123.9,0,105.6v1.2c1,0.2,1.9,0.5,2.9,0.7C77.4,124.5,155.1,133.1,234.7,133.1z"/>
<path class="st0" d="M293.1,253.8c14.3,0,28.7-0.3,43.1-0.8c256.5-9.9,325.7-94.1,376.2-155.5c30.7-37.3,54.9-66.8,111-64.5
	c58.1,2.4,106.3,30.4,157.3,60.2c67.3,39.3,142.2,82.9,258.8,82.9c22.2,0,45.8-1.6,71.2-5.1c59.9-8.2,124.7-27.7,192.8-58
	c54.4-24.2,111-55.4,168.1-92.5c11.1-7.2,21.8-14.4,32-21.4h-1.8c-9.9,6.8-20.1,13.6-30.8,20.6c-89.7,58.4-225.1,131.8-360.5,150.4
	c-158.7,21.8-249.4-31.1-329.4-77.7C930,62.5,881.7,34.4,823.4,32c-56.6-2.3-80.9,27.3-111.8,64.9
	C661.2,158.1,592.2,242.1,336.1,252c-133,5.1-246-14.3-336.1-41.2v1.2c20.2,6,40.6,11.5,61.3,16.2
	C135.8,245.2,213.5,253.8,293.1,253.8z"/>
<path class="st0" d="M221.6,8.1C259.9,6.6,294,3.5,324.5-1h-7.1c-28.7,3.9-60.5,6.7-95.8,8.1C156.6,9.6,96.4,6.2,41.3-1h-8.5
	c47.6,6.6,96.3,9.9,145.7,9.9C192.8,8.9,207.2,8.6,221.6,8.1z"/>
<path class="st0" d="M364.8,408.8c14.3,0,28.7-0.3,43.1-0.8c256.5-9.9,325.7-94.1,376.2-155.5c30.7-37.3,54.9-66.8,111-64.5
	c58.1,2.4,106.3,30.4,157.3,60.2c67.3,39.3,142.2,82.9,258.8,82.9c22.2,0,45.8-1.6,71.2-5.1c59.9-8.2,124.7-27.7,192.8-58
	c54.4-24.2,111-55.4,168.1-92.5c97.3-63.3,163.4-123,164.1-123.5l-0.7-0.7c-0.7,0.6-66.7,60.2-163.9,123.5
	c-89.7,58.4-225.1,131.8-360.5,150.4c-158.7,21.8-249.4-31.1-329.4-77.7c-51.1-29.8-99.4-57.9-157.8-60.3
	c-56.6-2.3-80.9,27.3-111.8,64.9C732.9,313.1,663.9,397.1,407.8,407c-171,6.6-309-27.4-407.8-65.8v1.1c42.8,16.7,87.3,30.3,133,40.8
	C207.5,400.2,285.2,408.8,364.8,408.8z"/>
<path class="st0" d="M938.1,2.4c-1.9-1.1-3.9-2.3-5.8-3.4h-2c2.4,1.4,4.9,2.8,7.3,4.2c67.3,39.3,142.2,82.9,258.7,82.9
	c22.2,0,45.8-1.6,71.2-5.1c59.9-8.2,124.7-27.7,192.8-58c16.6-7.4,33.3-15.4,50.3-24h-2.4c-73,37-156.9,69.6-240.7,81.1
	C1108.8,101.9,1018.1,49,938.1,2.4z"/>
<path class="st0" d="M250.1,163.9c14.3,0,28.7-0.3,43.1-0.8C549.7,153.2,618.9,69,669.4,7.6c2.4-2.9,4.7-5.8,7.1-8.6h-1.3
	c-2.2,2.6-4.3,5.2-6.5,7.9c-50.4,61.3-119.4,145.3-375.5,155.1C180.5,166.4,82.2,153.2,0,132.6v1.2c6.1,1.5,12.2,3,18.3,4.4
	C92.8,155.3,170.5,163.9,250.1,163.9z"/>
<path class="st0" d="M308.5,284.7c14.3,0,28.7-0.3,43.1-0.8c256.5-9.9,325.7-94.1,376.2-155.5c30.7-37.3,54.9-66.8,111-64.5
	C896.9,66.3,945,94.3,996,124.1c67.3,39.3,142.2,82.9,258.8,82.9c22.2,0,45.8-1.6,71.2-5.1c59.9-8.2,124.7-27.7,192.8-58
	c54.4-24.2,111-55.4,168.1-92.5c27.9-18.2,53.3-36,75.3-52.3h-1.7c-21.7,16-46.7,33.6-74.1,51.5c-89.7,58.4-225.1,131.8-360.5,150.4
	c-158.7,21.8-249.4-31.1-329.4-77.7c-51.1-29.8-99.4-57.9-157.8-60.3c-56.6-2.3-80.9,27.3-111.8,64.9
	C676.6,189,607.6,273,351.5,282.9c-140.6,5.4-259-16.6-351.5-46v1.2c25.1,8,50.7,15,76.7,20.9C151.2,276.1,228.9,284.7,308.5,284.7z
	"/>
<path class="st0" d="M237,39c100.5-3.9,172.2-19.1,225.3-40h-2.8c-52.8,20.3-123.7,35.2-222.6,39C148.9,41.4,69.7,34,0,20.9V22
	c62.8,11.8,127.7,17.8,193.9,17.8C208.2,39.8,222.6,39.5,237,39z"/>
<path class="st0" d="M335,347.1c14.3,0,28.7-0.3,43.1-0.8c256.5-9.9,325.7-94.1,376.2-155.5c30.7-37.3,54.9-66.8,111-64.5
	c58.1,2.4,106.3,30.4,157.3,60.2c67.3,39.3,142.2,82.9,258.8,82.9c22.2,0,45.8-1.6,71.2-5.1c59.9-8.2,124.7-27.7,192.8-58
	c54.4-24.2,111-55.4,168.1-92.5c76.6-49.8,133.9-97.4,155.1-115.7h-1.5c-21.8,18.8-78.6,65.7-154.1,114.9
	c-89.7,58.4-225.1,131.8-360.5,150.4c-158.7,21.8-249.4-31.1-329.4-77.7c-51.1-29.8-99.4-57.9-157.8-60.3
	c-56.6-2.3-80.9,27.3-111.8,64.9C703.1,251.4,634.1,335.4,378,345.3c-154.4,6-282-21.2-378-54.8v1.2c33.5,11.8,68,21.7,103.2,29.8
	C177.7,338.5,255.4,347.1,335,347.1z"/>
<path class="st0" d="M263.5,102.4C451.6,95.1,539,47.9,592.1-1h-1.5c-53.1,48.5-140.3,95.2-327.2,102.4
	c-99.3,3.8-187.6-6-263.4-22.5v1.2c71,15.4,144.9,23.1,220.4,23.1C234.7,103.2,249.1,102.9,263.5,102.4z"/>
<path class="st0" d="M1022.5-1h-2.9c41.5,15.7,89.1,26.4,147.1,26.4c22.2,0,45.8-1.6,71.2-5.1c30.6-4.2,62.5-11.4,95.4-21.4h-3.7
	c-30.3,9.1-61.1,16.2-91.9,20.4C1147.5,31.8,1079.3,20,1022.5-1z"/>
<path class="st0" d="M278.8,224c14.3,0,28.7-0.3,43.1-0.8c256.5-9.9,325.7-94.1,376.2-155.5c30.7-37.3,54.9-66.8,111-64.5
	c58.1,2.4,106.3,30.4,157.3,60.2c67.3,39.2,142.2,82.9,258.8,82.9c22.2,0,45.8-1.6,71.2-5.1c59.9-8.2,124.7-27.7,192.8-58
	c50.3-22.4,102.4-50.7,155.1-84.1h-1.9c-89.4,56.6-217.8,123.6-346.1,141.2c-158.7,21.8-249.4-31.1-329.4-77.7
	C915.7,32.7,867.4,4.6,809.1,2.2C752.5-0.1,728.1,29.5,697.3,67c-50.4,61.3-119.4,145.3-375.5,155.1c-126,4.9-234.1-12.3-321.8-37.1
	v1.2c15.5,4.4,31.2,8.4,47,12C121.5,215.4,199.2,224,278.8,224z"/>
</svg>
