<svg xmlns="http://www.w3.org/2000/svg" width="14" height="14" viewBox="0 0 14 14"><defs><style>.a{fill:#51be9b;}</style></defs><path class="a" d="M7,14a7,7,0,1,1,7-7v.006a5.541,5.541,0,0,1-.255,1.746,2.813,2.813,0,0,1-.7,1.166,2.121,2.121,0,0,1-1.5.582,2.03,2.03,0,0,1-1.512-.593,2.286,2.286,0,0,1-.413-.592A3.5,3.5,0,1,1,9.1,4.2a.7.7,0,0,1,1.4,0,21.085,21.085,0,0,0,.2,3.957,1.644,1.644,0,0,0,.338.77.643.643,0,0,0,.511.172.717.717,0,0,0,.529-.194,1.454,1.454,0,0,0,.339-.6A4.167,4.167,0,0,0,12.6,7,5.6,5.6,0,1,0,7,12.6a5.55,5.55,0,0,0,2.489-.581.7.7,0,0,1,.623,1.254A6.93,6.93,0,0,1,7,14ZM7,4.9A2.1,2.1,0,1,0,9.1,7,2.1,2.1,0,0,0,7,4.9Z"/></svg>