<svg xmlns="http://www.w3.org/2000/svg" width="20" height="20" viewBox="0 0 20 20"><defs><style>.a{fill:#777e90;}</style></defs><path class="a" d="M14,20H6a6.007,6.007,0,0,1-6-6V6A6.007,6.007,0,0,1,6,0h8a6.007,6.007,0,0,1,6,6v8A6.006,6.006,0,0,1,14,20ZM6,2A4.005,4.005,0,0,0,2,6v8a4,4,0,0,0,4,4h8a4,4,0,0,0,4-4V6a4,4,0,0,0-4-4Z"/><path class="a" d="M2,1A1,1,0,1,0,1,2,1,1,0,0,0,2,1Z" transform="translate(14 4)"/><path class="a" d="M5,10a5,5,0,1,1,5-5A5.006,5.006,0,0,1,5,10ZM5,2A3,3,0,1,0,8,5,3,3,0,0,0,5,2Z" transform="translate(5 5)"/></svg>