<svg xmlns="http://www.w3.org/2000/svg" width="18.79" height="18.4" viewBox="0 0 18.79 18.4">
  <g id="linkedin" transform="translate(-704.428 -4125.8)">
    <g id="linkedin-2" data-name="linkedin">
      <g id="Group_35" data-name="Group 35" transform="translate(-20 59.01)">
        <path id="Path_132" data-name="Path 132" d="M182.656,153.356a4.33,4.33,0,0,0-.527-1.6,4.669,4.669,0,0,0-1.008-1.266,4.5,4.5,0,0,0-1.459-.893,4.738,4.738,0,0,0-2.255-.3,4.387,4.387,0,0,0-1.62.524h0a.1.1,0,0,1-.155-.091.473.473,0,0,0-.473-.473h-3.179c-.268,0-.54,0-.8,0l-.274,0a.289.289,0,0,0-.286.287c0,3.662,0,7.431,0,11.109a1.087,1.087,0,0,0,1.086,1.085h3.05a.91.91,0,0,0,.91-.909v-.725c0-1.754,0-3.411,0-5.242a.944.944,0,0,1,.221-.595.965.965,0,0,1,.982-.338.893.893,0,0,1,.568.341,1.146,1.146,0,0,1,.248.789q0,2.4,0,4.8V161.5a.26.26,0,0,0,.259.259l3.826,0h0a.94.94,0,0,0,.5-.138.961.961,0,0,0,.46-.82Zm-8.087,1.225c-.008.054-.014.108-.018.162-.007.1-.01.192-.01.28v.049q0,1.459,0,2.917v2.6a.034.034,0,0,1-.006.018.032.032,0,0,1-.006.008h0l-.01.007-.008,0h-2.141a.6.6,0,0,1-.063,0,.563.563,0,0,1-.061-.009.627.627,0,0,1-.482-.458.606.606,0,0,1-.019-.116c0-.013,0-.027,0-.04v-9a.606.606,0,0,1,0-.064h0c0-.01,0-.021,0-.031h0c0-.01,0-.021.005-.031h0c0-.01,0-.02.007-.03h0c0-.01.005-.02.008-.029a.536.536,0,0,1,.021-.058.607.607,0,0,1,.042-.081.578.578,0,0,1,.034-.05l.021-.027.017-.02h0l.02-.021h0c.013-.013.026-.025.04-.037l.027-.021a.56.56,0,0,1,.05-.034.6.6,0,0,1,.081-.042l.048-.018a.618.618,0,0,1,.2-.032h1.548l.059,0h0l.042.006.02,0,.036.009.023.006.033.011.024.009.03.014.024.012.027.015.024.015.024.018.024.018.022.019.022.02.02.021.021.023.017.022.019.025.015.023.017.027.013.024.014.029.011.026c0,.01.008.02.011.031l.008.027.008.031c0,.01,0,.019.006.028s0,.021,0,.032,0,.02,0,.029,0,.009,0,.014c0,.025.217,1.281.217,1.281l.092-.1.053-.055.1-.1c.082-.083.165-.168.246-.257l.049-.056.048-.057q.079-.095.163-.184l.057-.059c.057-.058.116-.114.177-.167l.061-.053.055-.045a3.631,3.631,0,0,1,.474-.326q.142-.082.294-.152a2.822,2.822,0,0,1,.747-.225,3.045,3.045,0,0,1,.494-.036,3.653,3.653,0,0,1,2.215.7,3.981,3.981,0,0,1,.442.377c.045.045.088.09.13.136l.016.018,0,0a3.589,3.589,0,0,1,.55.82c.042.085.079.169.113.253a3.36,3.36,0,0,1,.191.635,3.012,3.012,0,0,1,.053.543q.007,1.472.012,2.945.007,1.642.013,3.284l0,.54H178.8v-1.459c0-.475,0-.955,0-1.438v-.727c0-.658,0-1.319,0-1.974a2.167,2.167,0,0,0-.27-1.128,2.125,2.125,0,0,0-1.031-.934,2.093,2.093,0,0,0-.3-.1q-.078-.019-.16-.032c-.054-.009-.11-.016-.167-.022l-.124-.01h0a2.109,2.109,0,0,0-.757.093l-.044.015-.047.017c-.036.013-.071.028-.106.043l-.064.03a2.139,2.139,0,0,0-.19.1l-.025.015c-.067.042-.13.087-.191.134a2.172,2.172,0,0,0-.166.145,1.933,1.933,0,0,0-.392.541,2.21,2.21,0,0,0-.2.635m.727-4.993h0v0a0,0,0,0,0,0,0m0,.9v0a0,0,0,0,0,0,0Zm6.813,10.84-.02.013a.574.574,0,0,1-.185.074.621.621,0,0,0,.2-.087M175.466,150.2l0,0v0a0,0,0,0,0,0,0m0-.776v0a0,0,0,0,0,0,0Zm-4.646,11.495a.924.924,0,0,0,.8.66.919.919,0,0,1-.8-.66m4.511.5h0a0,0,0,0,0,0,0Zm2.518.092a.1.1,0,0,0,.086.086.093.093,0,0,1-.086-.086m4,.087a.8.8,0,0,0,.684-.574.792.792,0,0,1-.684.574" transform="translate(560.293 3923.227)" fill="#777e90" stroke="#777e90" stroke-width="0.4"/>
        <path id="Path_133" data-name="Path 133" d="M4.29,149.48H1.441a1.087,1.087,0,0,0-1.086,1.086v10.316a1.087,1.087,0,0,0,1.086,1.086H4.29a1.087,1.087,0,0,0,1.086-1.086V150.566A1.087,1.087,0,0,0,4.29,149.48m-.037,1.865v8.743a.751.751,0,0,1-.222.533l0,0c-.016.016-.033.032-.051.046a.745.745,0,0,1-.106.072l-.015.009-.022.011a.751.751,0,0,1-.338.081H2.222a.756.756,0,0,1-.755-.755v-8.743a.756.756,0,0,1,.755-.755H3.5a.756.756,0,0,1,.755.755" transform="translate(724.287 3923.012)" fill="#777e90" stroke="#777e90" stroke-width="0.4"/>
        <path id="Path_134" data-name="Path 134" d="M4.37.808A2.572,2.572,0,0,0,2.528,0a2.5,2.5,0,0,0-1.8.724A2.477,2.477,0,0,0,0,2.528,2.5,2.5,0,0,0,2.419,5.045h.048a2.57,2.57,0,0,0,1.77-.681,2.467,2.467,0,0,0,.781-1.658A2.534,2.534,0,0,0,4.37.808m-1.9,3.105H2.431a1.2,1.2,0,0,1-.519-.121,1.4,1.4,0,0,1-.4-.294,1.422,1.422,0,0,1-.4-1.071A1.464,1.464,0,0,1,1.6,1.441a1.422,1.422,0,0,1,1.1-.3c.03,0,.059.007.088.012l.054.01q.054.01.1.025L3,1.2l.05.018c.033.012.065.026.1.04s.062.031.092.047.059.035.087.054l.054.039h0l.044.035.007.006,0,0,.039.035.009.008h0l.035.034.006.007.008.008.033.037.007.007.006.007.008.01.014.017.018.023.005.007.031.042h0c.012.017.023.034.034.052l0,0c.023.037.045.076.065.116l0,0,.015.031,0,0,0,.01c.007.015.013.029.019.045l0,0c.006.015.012.03.017.045l.007.021.01.031v0c.005.016.01.032.014.049s.01.035.014.053a0,0,0,0,0,0,0c0,.017.008.035.011.052s.007.036.01.055a1.61,1.61,0,0,1,.022.252,1.355,1.355,0,0,1-.414.987,1.4,1.4,0,0,1-1.029.4" transform="translate(724.629 4066.99)" fill="#777e90" stroke="#777e90" stroke-width="0.4"/>
      </g>
    </g>
  </g>
</svg>
