<?xml version="1.0" encoding="utf-8"?>
<!-- Generator: Adobe Illustrator 27.7.0, SVG Export Plug-In . SVG Version: 6.00 Build 0)  -->
<svg version="1.1" id="Layer_1" xmlns="http://www.w3.org/2000/svg" xmlns:xlink="http://www.w3.org/1999/xlink" x="0px" y="0px"
	 viewBox="0 0 42 30" style="enable-background:new 0 0 42 30;" xml:space="preserve">
<style type="text/css">
	.st0{clip-path:url(#SVGID_00000166636860759037847100000004637092003143762073_);}
	.st1{fill:#FFFFFF;filter:url(#Adobe_OpacityMaskFilter);}
	.st2{mask:url(#mask0_167_37_00000155131002736631460480000017325891584543264657_);}
	.st3{fill:#51BE9B;}
</style>
<g>
	<defs>
		<rect id="SVGID_1_" width="41.1" height="29.4"/>
	</defs>
	<clipPath id="SVGID_00000029017061552287901580000009439482611802320305_">
		<use xlink:href="#SVGID_1_"  style="overflow:visible;"/>
	</clipPath>
	<g style="clip-path:url(#SVGID_00000029017061552287901580000009439482611802320305_);">
		<defs>
			<filter id="Adobe_OpacityMaskFilter" filterUnits="userSpaceOnUse" x="0" y="0" width="41.1" height="29.4">
				<feColorMatrix  type="matrix" values="1 0 0 0 0  0 1 0 0 0  0 0 1 0 0  0 0 0 1 0"/>
			</filter>
		</defs>
		
			<mask maskUnits="userSpaceOnUse" x="0" y="0" width="41.1" height="29.4" id="mask0_167_37_00000155131002736631460480000017325891584543264657_">
			<path class="st1" d="M41.1,0H0v29.4h41.1V0z"/>
		</mask>
		<g class="st2">
			<path class="st3" d="M31.6,9.8c2,0,3.9,0.6,5.5,1.8c2,1.4,3.3,3.6,3.8,6c0.3,1.4,0.3,2.9,0,4.4c-0.4,1.4-1,2.8-2,3.9
				c-1.4,1.8-3.4,3-5.6,3.3c-1.3,0.3-2.6,0.3-3.8,0c-1.3-0.3-2.5-0.8-3.5-1.5c-1.1-0.7-2-1.6-2.7-2.7c-0.7-1.1-1.2-2.3-1.4-3.6
				c-0.3-1.8-0.2-3.6,0.1-5.3c0.3-2.3,1.1-4.5,2.2-6.5c1.9-3.3,4.8-6,8.3-7.5c1.9-0.9,4-1.5,6.1-1.8C38.9,0.2,39.5,0.1,40,0
				c0.1,0,0.2,0,0.3,0s0.2,0.1,0.3,0.1c0.1,0.1,0.2,0.1,0.2,0.2C41,0.5,41,0.6,41,0.7c0.1,0.2,0,0.5-0.1,0.7
				c-0.1,0.2-0.3,0.4-0.5,0.5c-1.4,0.8-2.8,1.5-4.1,2.4c-1.8,1.1-3.3,2.7-4.4,4.5c-0.1,0.3-0.3,0.5-0.4,0.8
				C31.5,9.6,31.6,9.7,31.6,9.8"/>
			<path class="st3" d="M9.9,9.6c1,0.2,2,0.4,3,0.7c1.7,0.6,3.2,1.7,4.3,3.1c1.2,1.4,1.9,3.1,2.2,5c0.3,2.1-0.1,4.2-1.2,6.1
				c-0.7,1.2-1.6,2.3-2.7,3.1c-1.1,0.8-2.4,1.4-3.8,1.6c-1.4,0.3-2.8,0.3-4.2,0c-1.4-0.3-2.7-0.9-3.8-1.8c-1.9-1.4-3.3-3.5-3.7-5.8
				c-0.1-1.4-0.2-2.8,0-4.2c0.1-1.5,0.4-3,0.9-4.5C1.7,10.7,2.8,8.7,4.2,7c2-2.4,4.7-4.2,7.6-5.4c1.9-0.7,3.9-1.3,6-1.6
				c0.3-0.1,0.7-0.1,1,0c0.1,0,0.3,0.1,0.4,0.2c0.1,0.1,0.2,0.2,0.2,0.4c0,0.2,0,0.3,0,0.5c0,0.2-0.1,0.3-0.2,0.4
				c-0.6,0.5-1.3,0.8-1.9,1.2c-1.4,0.9-2.7,1.8-4.1,2.8c-1.1,0.8-2,1.8-2.7,2.9C10.3,8.8,10.1,9.2,9.9,9.6"/>
		</g>
	</g>
</g>
</svg>
