<svg xmlns="http://www.w3.org/2000/svg" width="21.842" height="18" viewBox="0 0 21.842 18"><defs><style>.a{fill:#777e90;}</style></defs><path class="a" d="M8.92,18C6.232,18,2.572,17.361.4,14.316a2.051,2.051,0,0,1-.166-2.162A2.1,2.1,0,0,1,2.1,11l.216,0h.011a9.865,9.865,0,0,1-1.9-5.3,7.283,7.283,0,0,1,.6-3.38A2.033,2.033,0,0,1,2.921,1.091a2.108,2.108,0,0,1,1.665.795A8.769,8.769,0,0,0,7.312,3.992a10.117,10.117,0,0,0,1.6.667,6.676,6.676,0,0,1,.277-1.149A5.023,5.023,0,0,1,10.93,1.056,5.679,5.679,0,0,1,14.421,0a7.572,7.572,0,0,1,2.266.4,7.409,7.409,0,0,1,1.152.479l1.489-.3a2.182,2.182,0,0,1,.427-.043,2.1,2.1,0,0,1,1.863,3.042L20.491,5.831a10.436,10.436,0,0,1-2.636,8.238A11.937,11.937,0,0,1,8.92,18ZM2.939,3.089a.1.1,0,0,0-.089.057,6.506,6.506,0,0,0,.212,5.145,6.412,6.412,0,0,0,3.65,3.645.1.1,0,0,1,.07.087.093.093,0,0,1-.047.092A10.179,10.179,0,0,1,2.107,13a.1.1,0,0,0-.088.053.1.1,0,0,0,.007.1A6.121,6.121,0,0,0,4.412,15.12,10.455,10.455,0,0,0,8.92,16a9.844,9.844,0,0,0,7.6-3.445,8.7,8.7,0,0,0,1.725-3.242,8.394,8.394,0,0,0,.181-3.779.107.107,0,0,1,.009-.063l1.394-2.787a.1.1,0,0,0-.089-.145l-.02,0-2.247.45-.019,0a.106.106,0,0,1-.071-.028A5.525,5.525,0,0,0,14.42,2a3.416,3.416,0,0,0-2.732,1.07A5.058,5.058,0,0,0,10.9,6.881a.1.1,0,0,1-.023.083A.1.1,0,0,1,10.8,7,11.382,11.382,0,0,1,3.019,3.128.1.1,0,0,0,2.939,3.089Z"/></svg>