<svg id="Group_45" data-name="Group 45" xmlns="http://www.w3.org/2000/svg" width="42.98" height="49.55" viewBox="0 0 42.98 49.55">
  <path id="Path_235" data-name="Path 235" d="M463.466,101.5c.836.478,1.685.968,2.521,1.446a.145.145,0,0,1,.084.155v24.446a.37.37,0,0,1-.2.37q-5.556,3.19-11.1,6.4c-.048.024-.084.048-.167.084V129.7a.36.36,0,0,1,.06-.251,5.05,5.05,0,0,0,.956-2.461,19.68,19.68,0,0,0,.012-4.815c-.1-.968-.239-1.924-.394-2.9a.866.866,0,0,1,.179.3,13.434,13.434,0,0,1,1.075,4.074,16.644,16.644,0,0,1-.311,5.436.681.681,0,0,0-.012.155c-.024.012-.024.036-.024.06l.012.012c.012-.024.012-.048.024-.06a2.839,2.839,0,0,0,.311-.6,29.972,29.972,0,0,0,1.565-4.935c.06-.263.12-.514.179-.777.024-.119,0-.155-.12-.119-.275.072-.549.119-.836.179,0-.084.06-.119.1-.167a30.5,30.5,0,0,0,1.78-2.5,4.3,4.3,0,0,0,.346-.657c.06-.131.048-.2-.131-.179-.49.048-.98.072-1.494.108.024-.084.1-.108.131-.131a7.438,7.438,0,0,0,2.151-2.21,3.3,3.3,0,0,0-.2-3.967.51.51,0,0,1-.1-.466c.287-1.47.562-2.951.836-4.433,0-.012.012-.036.048-.048.06,1.4.131,2.784.191,4.182.048.024.072-.024.1-.048.645-.7,1.29-1.4,1.924-2.1a3.548,3.548,0,0,0,.777-1.446,27.163,27.163,0,0,1,.9-2.9,1.847,1.847,0,0,0,.131-.765,12.842,12.842,0,0,0-.036-1.661,2.431,2.431,0,0,0-.573-1.243c-.239-.275-.5-.55-.753-.824A.125.125,0,0,0,463.466,101.5Z" transform="translate(-423.092 -90.59)" fill="#6f7073"/>
  <path id="Path_236" data-name="Path 236" d="M225.167,17.572a8.191,8.191,0,0,1-1.661-.8,1.566,1.566,0,0,0-.872-.3,13.392,13.392,0,0,0-4.242.538,4.806,4.806,0,0,0-.717.311.226.226,0,0,0-.131.215c-.036.538-.072,1.063-.108,1.6a.612.612,0,0,1-.108.323c-.239.358-.466.729-.7,1.075-.072.108-.084.167.06.227.633.251,1.267.5,1.9.765a.174.174,0,0,0,.251-.084c.3-.466.6-.932.908-1.4.036-.048.048-.108.131-.131-.1.323-.179.621-.275.92-.263.9-.526,1.78-.8,2.676a.329.329,0,0,0,.072.358,1.5,1.5,0,0,0,.275.275.514.514,0,0,0,.8-.275c.49-1.565.992-3.118,1.482-4.684a.307.307,0,0,1,.06-.143,3.558,3.558,0,0,1,1.278-.98c.143-.048.215-.036.191.131-.012.06.012.131,0,.191a1.217,1.217,0,0,0,.418,1.1c1.016,1.135,2,2.282,2.987,3.429a.638.638,0,0,0,.406.227l2.091.394c.048.012.084.024.167.048a10.763,10.763,0,0,0-2.724.49,2.915,2.915,0,0,0-1.195.681c-.036.048-.084.084-.12.131-.287.382-.263.5.167.7s.824.406,1.231.633c-.287-.048-.574-.1-.872-.131a8.131,8.131,0,0,0-3.31.143,3.061,3.061,0,0,0-2.2,1.876,4.179,4.179,0,0,0-.215,1.087c-.012.179.024.215.2.191a6.11,6.11,0,0,1,1.924-.072,2.912,2.912,0,0,1,.633.167,1.134,1.134,0,0,1,.741,1.219,2.634,2.634,0,0,1-.466-.311.484.484,0,0,0-.358-.1,10.469,10.469,0,0,1-2.664.036,4.4,4.4,0,0,1-1.04-.251,2.375,2.375,0,0,1-1.482-1.888,11.3,11.3,0,0,1-.191-2.366,1.849,1.849,0,0,0-.92-1.685,4.1,4.1,0,0,0-1.78-.6,6.828,6.828,0,0,0-3.62.466,3.066,3.066,0,0,0-1.517,1.255,1.6,1.6,0,0,0-.239.8c0,.944-.179,1.876-.251,2.82-.024.263-.06.514-.084.777-.012.06-.012.108.072.131a.749.749,0,0,1,.538.585,3.414,3.414,0,0,1,.072,1.3c-.024.275-.084.55-.131.824a.258.258,0,0,0,.06.227c.836.92,1.661,1.852,2.485,2.784a.157.157,0,0,0,.227.036,7.626,7.626,0,0,1,2.007-.848,1.115,1.115,0,0,1,.562-.012c.215.06.275.191.167.382-.765,1.422-1.517,2.856-2.39,4.206-.1.143-.2.287-.311.43a.519.519,0,0,1-.072.084.373.373,0,0,1-.442.1c-.143-.06-.143-.227-.131-.358a2.508,2.508,0,0,1,.155-.657,10.024,10.024,0,0,1,.681-1.505c.072-.143.06-.179-.108-.191a6.837,6.837,0,0,0-2.509.251,2.991,2.991,0,0,0-2.234,3.166,8.221,8.221,0,0,0,.574,2.617,1,1,0,0,1-.084.9c-.155-.239-.3-.466-.454-.681a3.192,3.192,0,0,0-1.039-1.147,1.949,1.949,0,0,0-2.258.191,1.265,1.265,0,0,0-.37,1.159c.048.323.072.657.108.992a.412.412,0,0,1-.191.418.253.253,0,0,1-.311-.024c-1.673-1.3-3.357-2.581-5.006-3.907a1.643,1.643,0,0,1-.6-1.446,1.059,1.059,0,0,1,.681-.848,2.413,2.413,0,0,1,.741-.227c.155-.024.167-.1.155-.215a8.645,8.645,0,0,1-.036-1.505,2.228,2.228,0,0,1,.406-1.326c-.048-.072-.143-.06-.2-.084-.92-.251-1.852-.478-2.772-.741-.143-.036-.179-.012-.179.131a5.283,5.283,0,0,1-.346,1.661,2.553,2.553,0,0,1-.562.86,2.029,2.029,0,0,0-.538,1.111,3.3,3.3,0,0,0,.048,1.565,1.394,1.394,0,0,0,.119.311,12.8,12.8,0,0,1,1.29,2.891c.55,1.47,1.1,2.939,1.768,4.349a2.372,2.372,0,0,0,.812,1,24.622,24.622,0,0,1,2.39,1.912,3.15,3.15,0,0,0,2.557.777,16.835,16.835,0,0,0,4.528-1.028A10.553,10.553,0,0,0,212.18,48a8.459,8.459,0,0,0,1.41-1.84.7.7,0,0,1,.167-.215c-.072.394-.143.8-.227,1.195-.108.526-.108.526.406.645a5.6,5.6,0,0,0,2.844-.06,4.487,4.487,0,0,0,2.724-2.342,1.311,1.311,0,0,1,.108-.167,2.268,2.268,0,0,1-.048.753,3.537,3.537,0,0,1-3.071,2.951,9.075,9.075,0,0,1-3.357-.179.221.221,0,0,0-.251.084c-.335.358-.657.717-1,1.075a.2.2,0,0,0-.048.239c.968,2.593,1.971,5.174,3.142,7.695.167.358.167.37-.179.562-.729.418-1.47.848-2.2,1.278a.323.323,0,0,1-.37,0q-6.828-3.943-13.657-7.9-3.71-2.151-7.432-4.277a.4.4,0,0,1-.227-.382c.012-3.788,0-7.587,0-11.375,0-.251,0-.239.239-.215.275.036.538.072.812.1.143.012.2.036.143.2-.167.514-.323,1.039-.478,1.565a.442.442,0,0,0,.323.621c.609.2.753.131.932-.478.5-1.685,1-3.357,1.517-5.042.108-.37.012-.574-.358-.681-.072-.024-.143-.048-.227-.072a.433.433,0,0,0-.574.311c-.143.454-.287.92-.418,1.386-.036.119-.084.167-.215.167-.466.012-.932.036-1.41.06-.108.012-.251-.036-.3.131V22.734a.274.274,0,0,1,.155-.275q8.262-4.767,16.512-9.523,2.33-1.344,4.672-2.7a.269.269,0,0,1,.311,0q6.237,3.6,12.462,7.193a.81.81,0,0,0,.155.143ZM204.545,38.936c.251,0,.514-.012.765,0a.165.165,0,0,0,.191-.143c.108-.5.215-1,.335-1.505.024-.119-.012-.131-.108-.155-.394-.06-.777-.143-1.171-.191-.155-.024-.2-.06-.143-.215.179-.49.346-.98.526-1.47.143-.406.06-.6-.358-.741a.583.583,0,0,1-.131-.048.46.46,0,0,0-.669.323c-.191.526-.37,1.051-.562,1.577-.43,1.207-.848,2.4-1.278,3.608a.453.453,0,0,0,.323.657c.06.024.119.036.179.06a.452.452,0,0,0,.669-.323q.239-.669.466-1.326a.182.182,0,0,1,.191-.143,5.633,5.633,0,0,0,.777.036Zm-8.005-6.667c0-.335-.251-.574-.693-.645-.239-.036-.418.119-.514.43-.657,2.115-1.3,4.218-1.948,6.333-.191.609-.1.789.49,1,.024.012.036.012.06.024a.355.355,0,0,0,.382-.084.687.687,0,0,0,.2-.346c.657-2.139,1.314-4.266,1.971-6.4A2.415,2.415,0,0,0,196.539,32.269Zm6.106,1.374a.518.518,0,0,0-.335-.5,2.375,2.375,0,0,0-.251-.108.423.423,0,0,0-.538.179.8.8,0,0,0-.084.215c-.657,2.139-1.326,4.277-1.983,6.428a.588.588,0,0,0,.406.86c.394.167.621.072.753-.347.669-2.151,1.326-4.313,2-6.464A1.745,1.745,0,0,0,202.645,33.643Zm10.24-12.7a.563.563,0,0,0,.466.585.53.53,0,0,0,.6-.418c.394-1.278.777-2.557,1.159-3.847a.421.421,0,0,0-.394-.574.733.733,0,0,0-.812.621,4.1,4.1,0,0,0-.072.406c-.012.119-.048.167-.179.155-.287-.036-.574-.036-.86-.072-.131-.012-.191.012-.227.143-.131.454-.263.9-.394,1.35-.036.108-.024.155.108.179.275.048.55.108.824.155.143.024.191.06.131.215a6.07,6.07,0,0,0-.2.609C212.98,20.619,212.909,20.8,212.885,20.942Zm10.132-1.362a.311.311,0,0,0-.215-.323.717.717,0,0,0-.956.514c-.358,1.183-.7,2.366-1.063,3.549a.511.511,0,0,0,.335.681.518.518,0,0,0,.645-.406c.072-.275.155-.55.215-.824.036-.143.1-.155.215-.119.2.06.406.108.609.155a.4.4,0,0,0,.514-.287c.072-.275.143-.538.191-.812a.4.4,0,0,0-.418-.5h-.346c-.119.012-.179-.012-.131-.155.06-.167.1-.347.143-.526C222.849,20.189,222.933,19.866,223.017,19.58Zm-8.722,2.449c0,.335.191.526.562.585a.508.508,0,0,0,.55-.394c.478-1.613.956-3.214,1.434-4.827a.582.582,0,0,0,.036-.251.494.494,0,0,0-.454-.418.487.487,0,0,0-.514.358c-.454,1.4-.92,2.8-1.374,4.194A4.89,4.89,0,0,0,214.295,22.029Z" transform="translate(-190.9 -10.187)" fill="#1476bc" fill-rule="evenodd"/>
</svg>
