<?xml version="1.0" encoding="utf-8"?>
<!-- Generator: Adobe Illustrator 27.7.0, SVG Export Plug-In . SVG Version: 6.00 Build 0)  -->
<svg version="1.1" id="Group_45" xmlns="http://www.w3.org/2000/svg" xmlns:xlink="http://www.w3.org/1999/xlink" x="0px" y="0px"
	 viewBox="0 0 43 49.5" style="enable-background:new 0 0 43 49.5;" xml:space="preserve">
<style type="text/css">
	.st0{fill:#6F7073;}
	.st1{fill-rule:evenodd;clip-rule:evenodd;fill:#1476BC;}
</style>
<path id="Path_235" class="st0" d="M40.4,10.9c0.8,0.5,1.7,1,2.5,1.4c0.1,0,0.1,0.1,0.1,0.2V37c0,0.2-0.1,0.3-0.2,0.4
	c-3.7,2.1-7.4,4.3-11.1,6.4c0,0-0.1,0-0.2,0.1v-4.7c0-0.1,0-0.2,0.1-0.3c0.5-0.7,0.9-1.6,1-2.5c0.2-1.6,0.2-3.2,0-4.8
	c-0.1-1-0.2-1.9-0.4-2.9c0.1,0.1,0.1,0.2,0.2,0.3c0.6,1.3,0.9,2.7,1.1,4.1c0.2,1.8,0.1,3.7-0.3,5.4c0,0.1,0,0.1,0,0.2c0,0,0,0,0,0.1
	l0,0c0,0,0,0,0-0.1c0.1-0.2,0.2-0.4,0.3-0.6c0.7-1.6,1.2-3.2,1.6-4.9c0.1-0.3,0.1-0.5,0.2-0.8c0-0.1,0-0.2-0.1-0.1
	c-0.3,0.1-0.5,0.1-0.8,0.2c0-0.1,0.1-0.1,0.1-0.2c0.6-0.8,1.2-1.6,1.8-2.5c0.1-0.2,0.2-0.4,0.3-0.7c0.1-0.1,0-0.2-0.1-0.2
	c-0.5,0-1,0.1-1.5,0.1c0-0.1,0.1-0.1,0.1-0.1c0.9-0.6,1.6-1.3,2.2-2.2c0.8-1.2,0.7-2.8-0.2-4c-0.1-0.1-0.1-0.3-0.1-0.5
	c0.3-1.5,0.6-3,0.8-4.4c0,0,0,0,0,0c0.1,1.4,0.1,2.8,0.2,4.2c0,0,0.1,0,0.1,0c0.6-0.7,1.3-1.4,1.9-2.1c0.4-0.4,0.6-0.9,0.8-1.4
	c0.2-1,0.5-2,0.9-2.9c0.1-0.2,0.1-0.5,0.1-0.8c0-0.6,0-1.1,0-1.7c-0.1-0.5-0.3-0.9-0.6-1.2C40.8,11.5,40.6,11.2,40.4,10.9
	C40.3,10.9,40.4,10.9,40.4,10.9z"/>
<path id="Path_236" class="st1" d="M34.3,7.4c-0.6-0.2-1.1-0.5-1.7-0.8c-0.3-0.2-0.6-0.3-0.9-0.3c-1.4,0-2.9,0.1-4.2,0.5
	C27.2,6.9,27,7,26.8,7.1c-0.1,0-0.1,0.1-0.1,0.2c0,0.5-0.1,1.1-0.1,1.6c0,0.1,0,0.2-0.1,0.3c-0.2,0.4-0.5,0.7-0.7,1.1
	c-0.1,0.1-0.1,0.2,0.1,0.2c0.6,0.3,1.3,0.5,1.9,0.8c0.1,0,0.2,0,0.2-0.1c0,0,0,0,0,0c0.3-0.5,0.6-0.9,0.9-1.4c0,0,0-0.1,0.1-0.1
	c-0.1,0.3-0.2,0.6-0.3,0.9c-0.3,0.9-0.5,1.8-0.8,2.7c-0.1,0.1,0,0.3,0.1,0.4c0.1,0.1,0.2,0.2,0.3,0.3c0.2,0.2,0.6,0.1,0.7-0.1
	c0-0.1,0.1-0.1,0.1-0.2c0.5-1.6,1-3.1,1.5-4.7c0-0.1,0-0.1,0.1-0.1c0.3-0.4,0.8-0.8,1.3-1c0.1,0,0.2,0,0.2,0.1c0,0.1,0,0.1,0,0.2
	C32,8.6,32.2,9,32.5,9.3c1,1.1,2,2.3,3,3.4c0.1,0.1,0.2,0.2,0.4,0.2l2.1,0.4c0,0,0.1,0,0.2,0c-0.9,0-1.8,0.2-2.7,0.5
	c-0.4,0.1-0.9,0.4-1.2,0.7c0,0-0.1,0.1-0.1,0.1c-0.3,0.4-0.3,0.5,0.2,0.7s0.8,0.4,1.2,0.6c-0.3,0-0.6-0.1-0.9-0.1
	c-1.1-0.2-2.2-0.1-3.3,0.1c-1,0.2-1.8,0.9-2.2,1.9c-0.1,0.4-0.2,0.7-0.2,1.1c0,0.2,0,0.2,0.2,0.2c0.6-0.1,1.3-0.1,1.9-0.1
	c0.2,0,0.4,0.1,0.6,0.2c0.5,0.2,0.8,0.7,0.7,1.2c-0.2-0.1-0.3-0.2-0.5-0.3c-0.1-0.1-0.2-0.1-0.4-0.1c-0.9,0.1-1.8,0.1-2.7,0
	c-0.4,0-0.7-0.1-1-0.3c-0.8-0.3-1.4-1-1.5-1.9c-0.1-0.8-0.2-1.6-0.2-2.4c0-0.7-0.3-1.3-0.9-1.7c-0.5-0.3-1.1-0.5-1.8-0.6
	c-1.2-0.2-2.5,0-3.6,0.5c-0.6,0.2-1.2,0.7-1.5,1.3c-0.1,0.2-0.2,0.5-0.2,0.8c0,0.9-0.2,1.9-0.3,2.8c0,0.3-0.1,0.5-0.1,0.8
	c0,0.1,0,0.1,0.1,0.1c0.3,0.1,0.5,0.3,0.5,0.6c0.1,0.4,0.1,0.9,0.1,1.3c0,0.3-0.1,0.6-0.1,0.8c0,0.1,0,0.2,0.1,0.2
	c0.8,0.9,1.7,1.9,2.5,2.8c0,0.1,0.1,0.1,0.2,0c0,0,0,0,0,0c0.6-0.4,1.3-0.7,2-0.8c0.2-0.1,0.4-0.1,0.6,0c0.2,0.1,0.3,0.2,0.2,0.4
	c-0.8,1.4-1.5,2.9-2.4,4.2c-0.1,0.1-0.2,0.3-0.3,0.4c0,0,0,0.1-0.1,0.1c-0.1,0.1-0.3,0.2-0.4,0.1c-0.1-0.1-0.1-0.2-0.1-0.4
	c0-0.2,0.1-0.4,0.2-0.7c0.2-0.5,0.4-1,0.7-1.5c0.1-0.1,0.1-0.2-0.1-0.2c-0.8-0.1-1.7,0-2.5,0.3c-1.4,0.4-2.4,1.7-2.2,3.2
	c0,0.9,0.2,1.8,0.6,2.6c0.1,0.3,0.1,0.6-0.1,0.9c-0.2-0.2-0.3-0.5-0.5-0.7c-0.2-0.5-0.6-0.9-1-1.1c-0.7-0.4-1.6-0.3-2.3,0.2
	c-0.3,0.3-0.5,0.7-0.4,1.2c0,0.3,0.1,0.7,0.1,1c0,0.2,0,0.3-0.2,0.4c-0.1,0.1-0.2,0.1-0.3,0c-1.7-1.3-3.4-2.6-5-3.9
	C7,30.6,6.8,30,6.8,29.5c0.1-0.4,0.3-0.7,0.7-0.8c0.2-0.1,0.5-0.2,0.7-0.2c0.2,0,0.2-0.1,0.2-0.2c-0.1-0.5-0.1-1,0-1.5
	c0-0.5,0.1-0.9,0.4-1.3c0-0.1-0.1-0.1-0.2-0.1c-0.9-0.3-1.9-0.5-2.8-0.7c-0.1,0-0.2,0-0.2,0.1c0,0.6-0.1,1.1-0.3,1.7
	c-0.1,0.3-0.3,0.6-0.6,0.9c-0.3,0.3-0.5,0.7-0.5,1.1c-0.1,0.5-0.1,1.1,0,1.6c0,0.1,0.1,0.2,0.1,0.3c0.5,0.9,1,1.9,1.3,2.9
	c0.6,1.5,1.1,2.9,1.8,4.3c0.2,0.4,0.5,0.7,0.8,1c0.8,0.6,1.6,1.2,2.4,1.9c0.7,0.6,1.6,0.9,2.6,0.8c1.5-0.1,3.1-0.5,4.5-1
	c1.3-0.5,2.5-1.3,3.6-2.2c0.6-0.5,1-1.2,1.4-1.8c0-0.1,0.1-0.2,0.2-0.2c-0.1,0.4-0.1,0.8-0.2,1.2c-0.1,0.5-0.1,0.5,0.4,0.6
	c0.9,0.2,1.9,0.2,2.8-0.1c1.2-0.4,2.2-1.2,2.7-2.3c0-0.1,0.1-0.1,0.1-0.2c0,0.3,0,0.5,0,0.8c-0.3,1.6-1.5,2.8-3.1,3
	c-1.1,0.1-2.3,0.1-3.4-0.2c-0.1,0-0.2,0-0.3,0.1c-0.3,0.4-0.7,0.7-1,1.1c-0.1,0.1-0.1,0.2,0,0.2c1,2.6,2,5.2,3.1,7.7
	c0.2,0.4,0.2,0.4-0.2,0.6c-0.7,0.4-1.5,0.8-2.2,1.3c-0.1,0.1-0.3,0.1-0.4,0c-4.6-2.6-9.1-5.3-13.7-7.9c-2.5-1.4-5-2.9-7.4-4.3
	C0.1,37.2,0,37.1,0,36.9c0-3.8,0-7.6,0-11.4c0-0.3,0-0.2,0.2-0.2c0.3,0,0.5,0.1,0.8,0.1c0.1,0,0.2,0,0.1,0.2c-0.2,0.5-0.3,1-0.5,1.6
	c-0.1,0.2,0,0.5,0.2,0.6c0,0,0.1,0,0.1,0C1.7,28,1.8,28,2,27.3c0.5-1.7,1-3.4,1.5-5c0.1-0.4,0-0.6-0.4-0.7c-0.1,0-0.1,0-0.2-0.1
	c-0.2-0.1-0.5,0-0.6,0.3c0,0,0,0,0,0.1c-0.1,0.5-0.3,0.9-0.4,1.4c0,0.1-0.1,0.2-0.2,0.2c-0.5,0-0.9,0-1.4,0.1c-0.1,0-0.3,0-0.3,0.1
	V12.5c0-0.1,0.1-0.2,0.2-0.3c5.5-3.2,11-6.4,16.5-9.5C18.2,1.9,19.8,1,21.3,0C21.4,0,21.6,0,21.6,0c4.2,2.4,8.3,4.8,12.5,7.2
	C34.2,7.3,34.2,7.3,34.3,7.4L34.3,7.4z M13.6,28.7c0.3,0,0.5,0,0.8,0c0.1,0,0.2,0,0.2-0.1c0,0,0,0,0,0c0.1-0.5,0.2-1,0.3-1.5
	c0-0.1,0-0.1-0.1-0.2c-0.4-0.1-0.8-0.1-1.2-0.2c-0.2,0-0.2-0.1-0.1-0.2c0.2-0.5,0.3-1,0.5-1.5c0.1-0.4,0.1-0.6-0.4-0.7
	c0,0-0.1,0-0.1,0c-0.2-0.1-0.5,0-0.6,0.2c0,0,0,0.1,0,0.1c-0.2,0.5-0.4,1.1-0.6,1.6c-0.4,1.2-0.8,2.4-1.3,3.6
	c-0.1,0.2,0,0.5,0.2,0.6c0,0,0.1,0,0.1,0c0.1,0,0.1,0,0.2,0.1c0.2,0.1,0.5,0,0.6-0.2c0,0,0-0.1,0.1-0.2c0.2-0.4,0.3-0.9,0.5-1.3
	c0-0.1,0.1-0.1,0.2-0.1C13.1,28.7,13.4,28.8,13.6,28.7L13.6,28.7z M5.6,22.1c0-0.3-0.3-0.6-0.7-0.6c-0.2,0-0.4,0.1-0.5,0.4
	c-0.7,2.1-1.3,4.2-1.9,6.3c-0.2,0.6-0.1,0.8,0.5,1c0,0,0,0,0.1,0c0.1,0.1,0.3,0,0.4-0.1c0.1-0.1,0.2-0.2,0.2-0.3
	c0.7-2.1,1.3-4.3,2-6.4C5.6,22.3,5.6,22.2,5.6,22.1L5.6,22.1z M11.7,23.5c0-0.2-0.1-0.4-0.3-0.5c-0.1,0-0.2-0.1-0.3-0.1
	c-0.2-0.1-0.4,0-0.5,0.2c0,0.1-0.1,0.1-0.1,0.2c-0.7,2.1-1.3,4.3-2,6.4c-0.2,0.3-0.1,0.6,0.2,0.8c0.1,0,0.1,0.1,0.2,0.1
	c0.4,0.2,0.6,0.1,0.8-0.3c0.7-2.2,1.3-4.3,2-6.5C11.7,23.6,11.7,23.5,11.7,23.5L11.7,23.5z M22,10.8c0,0.3,0.2,0.5,0.5,0.6
	c0.3,0,0.5-0.1,0.6-0.4c0.4-1.3,0.8-2.6,1.2-3.8c0.1-0.2,0-0.5-0.2-0.5c0,0-0.1,0-0.2,0c-0.4,0-0.8,0.2-0.8,0.6
	c0,0.1-0.1,0.3-0.1,0.4c0,0.1,0,0.2-0.2,0.2c-0.3,0-0.6,0-0.9-0.1c-0.1,0-0.2,0-0.2,0.1c-0.1,0.5-0.3,0.9-0.4,1.4
	c0,0.1,0,0.2,0.1,0.2c0.3,0,0.6,0.1,0.8,0.2c0.1,0,0.2,0.1,0.1,0.2c-0.1,0.2-0.1,0.4-0.2,0.6C22.1,10.4,22,10.6,22,10.8L22,10.8z
	 M32.1,9.4c0-0.1-0.1-0.3-0.2-0.3c-0.4-0.1-0.8,0-0.9,0.4c0,0,0,0.1,0,0.1c-0.4,1.2-0.7,2.4-1.1,3.5c-0.1,0.3,0,0.6,0.3,0.7
	c0,0,0,0,0,0c0.3,0.1,0.6-0.1,0.6-0.4c0,0,0,0,0,0c0.1-0.3,0.2-0.5,0.2-0.8c0-0.1,0.1-0.2,0.2-0.1c0.2,0.1,0.4,0.1,0.6,0.2
	c0.2,0.1,0.4,0,0.5-0.3c0,0,0,0,0,0c0.1-0.3,0.1-0.5,0.2-0.8c0.1-0.2-0.1-0.4-0.3-0.5c0,0-0.1,0-0.1,0h-0.3c-0.1,0-0.2,0-0.1-0.2
	c0.1-0.2,0.1-0.3,0.1-0.5C31.9,10,32,9.7,32.1,9.4L32.1,9.4z M23.4,11.8c0,0.3,0.2,0.5,0.6,0.6c0.3,0,0.5-0.1,0.6-0.4
	c0.5-1.6,1-3.2,1.4-4.8C26,7.1,26,7,26,7c0-0.2-0.2-0.4-0.5-0.4c-0.2,0-0.5,0.1-0.5,0.4c-0.5,1.4-0.9,2.8-1.4,4.2
	C23.5,11.3,23.5,11.6,23.4,11.8L23.4,11.8z"/>
<image style="overflow:visible;" width="712" height="631" xlink:href="FC68E091.png"  transform="matrix(1 0 0 1 42.9812 -283.5)">
</image>
</svg>
