<?xml version="1.0" encoding="utf-8"?>
<!-- Generator: Adobe Illustrator 27.7.0, SVG Export Plug-In . SVG Version: 6.00 Build 0)  -->
<svg version="1.1" id="Layer_1" xmlns="http://www.w3.org/2000/svg" xmlns:xlink="http://www.w3.org/1999/xlink" x="0px" y="0px"
	 viewBox="0 0 1000 630.5" style="enable-background:new 0 0 1000 630.5;" xml:space="preserve">
<style type="text/css">
	.st0{fill:#62A8E5;}
	.st1{fill:#4D495B;}
</style>
<g>
	<g>
		<g>
			<path class="st0" d="M953.5,266c0.9-41.6-5.4-80.3-11.5-120.9c-7.4-32.4-30.1-89.9-68-93.2c-30-1.2-55.7,19.1-77.3,37.7
				c-20.6,18.9-42.5,36.7-66.2,51.7c-25.8,16.6-54,29.6-83.2,38.9c-15.2,5.7-34.5,4.9-45.2-8.8c-6.5-6.7-10.1-17.5-0.5-23.5
				c12.8-9,29.4-8.9,44.1-13.3c17.9-4.4,34.8-12,50.7-21.4c24-14.7,45.9-32.7,67.2-51.1c49.4-47.5,107.8-83.1,168-28.9
				c15.5,14.4,26.7,32.5,32.9,52.9c3.8,11.9,9.6,23.1,12.3,35.2c21.6,70.6,25.6,146,13.1,218.6c-7.9,43-22,85-39.2,125.3
				c-11.5,27.8-21.5,56.3-37.1,82.1c-8.1,13.1-15.4,27.1-27.7,36.9c-7.9,5.9-18,2-20.1-7.7c-0.5-2.7,0.1-5.5,1.3-7.8
				c3.2-6.1,5.6-12.6,8.6-18.9c20.1-47.2,41.2-94.4,56.7-143.4C945.3,361.6,954.1,312.7,953.5,266z"/>
		</g>
		<g>
			<path class="st0" d="M651.4,94c-1.6,0.8-3.6,0.7-5.3-0.2c-12.8-7.2-26.7-12.5-40.2-18.3c-31.6-12.7-81.6-27.1-102.1,10.1
				c-16.4,32.4-20.7,69.5-23.4,105.3c-0.5,13.3-2.3,26.5-2.1,39.7c-0.9,17.5,3.6,43.8-21.2,44.5c-12.6,1.4-22.7-13.3-20.1-23.8
				c2-14.6,2.9-29.6,4.2-44.5c3.1-29.6,6.5-59.2,12-88.5c5.2-40.4,17.3-71.9,56.8-89.8c47.1-21.2,101.4-2,145.1,19.3
				c14.1,7.7,28.2,15.5,41.2,25.1c0.7,0.4,0.5,1.5-0.2,1.9L651.4,94z"/>
		</g>
		<g>
			<path class="st0" d="M833.4,238.4c0.1-0.2,0-0.4-0.2-0.4h-7.2c-2,0.1-2.6,0.1-2.7-2.7c-0.2-4.1-0.9-4.6,2.3-4.7
				c5.7-0.2,11.4-0.4,17-1.2c3.5-0.4,3-0.1,3.3,2.9c0.5,4.3,0.9,4.8-1.9,5.2c-2.5,0.4-2.7,0.2-4.3,0.4c-0.4,0.1-1,0.1-1.4,0.1
				c-1.4,0-2.2,0.2-2.9,3.1c-1.3,7.4-4.7,13.9-7.8,20.6c-3.4,7.5-7.7,14.4-12.5,21c-7.4,10.1-16,18.9-25.9,26.6
				c-6,4.7-12.5,8.7-19.2,12.2c-4.7,2.5-10,4.3-15,6.4c-8.6,3.5-17.8,4.8-26.6,7.2c-7.2,0.8,1.6-0.2-6.6,0.8
				c-1.1,0.1-2.2,0.1-3.3,0.2c-6.6,0.3-12.6,0-18.9-0.2c-7.8-0.2-15.4-2.1-22.8-4.1c-8-2.1-15.7-5.1-23.3-8.2
				c-13-5.4-24-13.5-34-22.9c-8.1-7.6-15.2-16.1-20.4-26c-4.3-7.9-8.8-15.8-11.5-24.4c-1.1-4.1-2.2-3.1-4.5-2.9
				c-4.1,0.4-3.8,0.2-4-2.6c-0.1-3.2-1-3.4,3.5-3.6c4.9-0.3,9.8-0.5,14.7-0.7c3.6-0.1,3.1-0.3,3.1,2.7c0,2.3,0.4,2.3-3.2,2.4
				c-3.1,0.2-4.2-0.1-4.5,1c-0.9,2.1,0,3.8,1.2,5.6c8.3,12.2,18.7,22.3,31,30.6c6.9,4.7,14.1,9.1,21.6,12c9.7,3.6,19.4,7.2,29.9,8.2
				c8.9,0.9,17.5,2.3,26.7,2.5c8.1,0.5,15.8,0.3,23.8-0.8c4.7-0.7,10.1-2,14.7-3.1c5.1-1.1,10-2.6,14.9-4.2c7-2.2,13.8-4.8,20.3-8.2
				c7-3.6,13.9-7.4,20.2-12.2c6.3-4.9,12.7-9.8,18.2-15.6c5.8-6.1,13.1-14.3,17.6-21.5L833.4,238.4z"/>
		</g>
	</g>
	<g>
		<path class="st1" d="M82,515.9c4.3,1.2,9.2,2,15,2c33.3,0,34.3-29.8,48.3-29.8c6.8,0,9.8,4,9.8,9c0,9.2-5.7,23.5-8.8,30.5
			c-4.3,10.2-7.2,15.3-15,15.3c-6.3,0-9.8-6.5-10.5-7.5c-2.5,0.8-15.8,6.8-32.8,6.8c-14.3,0-25.5-6-39.5-6
			c-12.5,0-19.5,6.5-33.8,6.5c-6.8,0-10-4.5-10-8.5c0-3.3,0.5-7.2,4.7-14.5l68.7-117.7c-4.5-1.8-12.3-3.3-18.2-3.3
			c-25.8,0-28,25.3-42.3,25.3c-5.1,0-9-2.7-9-8.5C8.3,410.5,11.3,404,15,396c7.2-15.5,10.8-20,18-20c6,0,9.6,4.3,11,5.7
			c4-1,12.3-5.3,26.2-5.3c14.5,0,24.3,6.5,37.5,6.5c10.5,0,25.3-6.3,32.3-6.3c7.5,0,10.2,5.1,10.2,9c0,4.5-1.2,9.8-7.8,21.5
			L82,515.9z"/>
		<path class="st1" d="M328.7,519.4c6,0.2,12.3,4.3,12.3,12c0,5.5-2.5,8.8-4,10.5h-82.1c-1.5-1.8-4-5.1-4-10.5
			c0-5.3,3.7-10.8,11.3-11.7l-6.3-17.6h-51.3l-3.5,8.8c-1.5,3.7-2.7,6.5-3.3,8.5c8.5,0.5,13.1,5.1,13.1,12c0,5.5-2.5,8.8-4,10.5
			h-49.5c-1.8-1.8-4.3-5.1-4.3-9.8c0-7.8,4.7-12.7,14.5-12.7h2.5c1.5-3,4.5-9.6,10.8-24.5l39.1-94.9h-3.3c-6.3-0.5-11.7-4.7-11.7-12
			c0-5.5,2.5-8.8,4.3-10.5h62.2L328.7,519.4z M231.7,434.7h-0.2l-17.8,44.8h34L231.7,434.7z"/>
		<path class="st1" d="M484.6,377.6c1.8,1.8,4.3,5.1,4.3,10.5c0,7.2-5.5,12-11.7,12h-3.7c-3.3,5.1-9.8,15-18,29.5l-23.1,39.3v50.5
			c6.3,0,11.7,4.7,11.7,12c0,5.5-2.5,8.8-4.3,10.5h-74.5c-1.5-1.8-4-5.1-4-10.5c0-7.2,5.5-12,11.7-12v-43.3l-47.8-76.1
			c-7.8-0.2-12.7-5.1-12.7-12c0-5.5,2.5-8.8,4-10.5h84.9c1.5,1.8,4,5.1,4,10.5c0,7-5.1,11.7-11.7,12l26.2,43.3l19-32.5
			c2-3.5,4.5-7.8,6-10.8h-1c-6.5,0-11.7-4.7-11.7-12c0-5.5,2.5-8.8,4-10.5L484.6,377.6L484.6,377.6z"/>
		<path class="st1" d="M637.2,519.4c6,0.2,12.3,4.3,12.3,12c0,5.5-2.5,8.8-4,10.5h-82.1c-1.5-1.8-4-5.1-4-10.5
			c0-5.3,3.7-10.8,11.3-11.7l-6.3-17.6h-51.3l-3.5,8.8c-1.5,3.7-2.7,6.5-3.3,8.5c8.5,0.5,13.1,5.1,13.1,12c0,5.5-2.5,8.8-4,10.5
			h-49.5c-1.8-1.8-4.3-5.1-4.3-9.8c0-7.8,4.7-12.7,14.5-12.7h2.5c1.5-3,4.5-9.6,10.8-24.5l39.1-94.9h-3.3c-6.3-0.5-11.7-4.7-11.7-12
			c0-5.5,2.5-8.8,4.3-10.5h62.2L637.2,519.4z M540.2,434.7h-0.2l-17.8,44.8h34L540.2,434.7z"/>
		<path class="st1" d="M815.4,377.6c1.5,1.8,4,5.1,4,10.5c0,7.2-5.3,12-10.5,12c-0.5,7-1.2,29.3-1.2,59.3v82.6h-45.8l-74.3-92.9
			h-0.5v21c0,25.3,0.5,40.3,1,49.3h2.7c8.5,0,13.7,4.7,13.7,12c0,5.5-2.5,8.8-4,10.5h-44c-1.8-1.8-4.3-5.1-4.3-10.5
			c0-7.2,5.5-12,11-12c0.2-6.5,0.8-23.1,0.8-58.8v-60.3l-1-0.2c-6.3-1.5-10.8-4.7-10.8-12c0-5.5,2.5-8.8,4.3-10.5h58.1l69.8,88.4
			h0.5v-16.2c0-26-0.5-40.5-1-49.5h-1.5c-8.5,0-13.7-4.7-13.7-12c0-5.5,2.5-8.8,4-10.5L815.4,377.6L815.4,377.6z"/>
	</g>
	<g>
		<path class="st1" d="M43.6,602.5c0,15.2-9.4,21-22,21c-10.1,0-15.9-0.1-17.8-0.3c-0.2-0.3-0.8-1-0.8-2.1c0-1.6,1-2.5,2.4-2.5h1.4
			v-31.4H5.5c-1.4,0-2.4-0.9-2.4-2.5c0-1.1,0.5-1.8,0.8-2.1c1.6-0.1,8.3-0.3,17.8-0.3C33,582.3,43.6,587.4,43.6,602.5z M33,602.9
			c0-12.2-4.8-16.4-12.6-16.4c-1.1,0-2.3,0.1-3.4,0.2V619c0.9,0.1,1.9,0.1,2.7,0.1C28,619.1,33,614.2,33,602.9z"/>
		<path class="st1" d="M79.6,614.6c0,1.6-1.2,4-2.9,7.7c-0.7,1.4-1.3,2.2-2.4,2.2c-1.1,0-1.8-0.7-2.6-1.3H48.1
			c-0.2-0.3-0.8-1-0.8-2.1c0-1.6,1-2.5,2.4-2.5h1.4v-31.4h-1.4c-1.4,0-2.4-0.9-2.4-2.5c0-1.1,0.5-1.8,0.8-2.1H71
			c0.8-0.4,1.4-1.3,2.7-1.3c1.8,0,2.3,1.9,2.9,3.6l1.3,3.6c0.4,1.2,0.8,2.2,0.8,3.2c0,1.1-0.8,1.8-2,1.8c-1.3,0-1.9-1.1-3-2.9
			c-1.3-2.2-2.2-3.5-4.6-3.5H61v12.6h7.6c0.3-0.9,0.7-2.3,2.2-2.3c0.8,0,1.4,0.4,2.1,2.1c0.9,2.3,2.1,4.9,2.1,6.4
			c0,1-0.8,1.6-1.8,1.6c-0.9,0-1.4-0.3-2.2-1.4c-0.8-1.1-1.3-2.1-3.4-2.1h-6.5v14.8h7.6c3.2,0,4.4-1.4,5.7-3.3
			c1.3-1.9,2.1-2.7,3.2-2.7C78.6,612.6,79.6,613.3,79.6,614.6z"/>
		<path class="st1" d="M124.2,582.7c0.2,0.2,0.8,0.9,0.8,2.1c0,1.6-0.9,2.5-2.3,2.5h-1.5c-0.1,1.4-0.2,5.8-0.2,12.3v23.6h-7.8
			l-20.2-27.8h-0.1v12.7c0,5.2,0.1,8.9,0.2,10.4h1.9c1.8,0,2.7,0.9,2.7,2.5c0,1.1-0.4,1.8-0.8,2.1H84.8c-0.2-0.3-0.8-1-0.8-2.1
			c0-1.6,0.9-2.5,2.3-2.5h1.5c0.1-1.3,0.2-5.1,0.2-12.3v-19.1h-1.6c-1.4-0.2-2.3-0.9-2.3-2.5c0-1.1,0.4-1.8,0.8-2.1h11.9l19.4,26.9
			h0.1v-11.9c0-5.3-0.1-8.9-0.2-10.4h-1.8c-1.8,0-2.7-0.9-2.7-2.5c0-1.1,0.5-1.8,0.8-2.1h11.9V582.7z"/>
		<path class="st1" d="M163.8,588.8c0.7,1.3,0.9,2.1,0.9,3c-0.1,1.1-1.1,1.8-2.2,1.8c-1.4,0-2.2-1.1-3.2-2.5
			c-1.8-2.5-2.6-3.6-4.9-3.6c-0.8,0-1.9,0-3.3,0.1v31.2h1.8c1.5,0,2.4,0.9,2.4,2.5c0,1.1-0.4,1.8-0.8,2.1h-16.9
			c-0.2-0.3-0.8-1-0.8-2.1c0-1.6,0.9-2.5,2.4-2.5h1.8v-31.2c-1.3-0.1-2.5-0.1-3.2-0.1c-2.4,0-3.3,1.1-5.1,3.6
			c-1.1,1.4-1.8,2.5-3.2,2.5c-1.1,0-2.1-0.7-2.2-1.8c-0.1-0.9,0.2-1.6,0.9-3l1.4-3c1.8-3.6,2.4-4.4,3.6-4.4c1.2,0,1.9,0.9,2.7,1.6
			h19.8c0.8-0.8,1.5-1.6,2.6-1.6c1.3,0,1.9,0.8,3.7,4.4L163.8,588.8z"/>
		<path class="st1" d="M201.7,618.6c1.4,0,2.5,0.8,2.5,2.5c0,1.1-0.4,1.8-0.8,2.1h-17.7c-0.2-0.3-0.8-1-0.8-2.1
			c0-1.4,0.9-2.5,2.6-2.5h1.6l-2.4-6.9h-14.2l-1.2,2.9c-0.8,2.1-1.3,3.4-1.4,4.2h1.6c1.9,0,2.9,0.9,2.9,2.5c0,1.1-0.5,1.8-0.8,2.1
			h-13.1c-0.2-0.3-0.8-1-0.8-2c0-1.6,0.9-2.6,3-2.6h1.5c0.4-0.9,1.4-3.1,2.9-6.7l10.2-24.7h-2.4c-1.4-0.1-2.4-0.9-2.4-2.5
			c0-1.1,0.4-1.8,0.8-2.1h13.4l13.6,35.9H201.7z M180.5,592.7L180.5,592.7l-5.9,14.5h10.9L180.5,592.7z"/>
		<path class="st1" d="M236.4,613.7c0,1.6-1.2,4.6-2.9,8.5c-0.8,1.6-1.3,2.3-2.5,2.3c-1.2,0-2-0.9-2.6-1.3h-22
			c-0.2-0.3-0.8-1-0.8-2.1c0-1.6,1-2.5,2.4-2.5h1.4v-31.4h-1.4c-1.4,0-2.4-0.9-2.4-2.5c0-1.1,0.5-1.8,0.8-2.1h16.5
			c0.2,0.2,0.8,0.9,0.8,2.1c0,1.6-1,2.5-2.4,2.5h-1.6v31.4h6.1c3.2,0,4.4-2.2,6.1-4.6c1.1-1.4,1.5-2.2,2.7-2.2
			C235.5,611.8,236.4,612.3,236.4,613.7z"/>
		<path class="st1" d="M282.9,584c0.7-1.1,1.3-1.4,2.2-1.4c1.4,0,2.1,1.1,2.4,3.2c0.4,2.4,1.2,5.9,1.2,7.6c0,1.3-0.9,2-2.2,2
			c-1.3,0-2.1-1-2.7-2.4c-2-4.2-4.9-6.8-8.3-6.8c-6.8,0-10.2,7.1-10.2,15.8c0,9.9,3.2,17.7,10.3,17.7c4.2,0,6.4-2.9,8.1-4.9
			c1.2-1.3,2.1-2.3,3.3-2.3c1.5,0,2.3,1.1,2.3,2.4c0,4.2-5.6,9.7-14.9,9.7c-10.8,0-20.2-5.4-20.2-21.4c0-13.6,9.2-21.2,19.8-21.2
			C278.2,581.7,281.1,582.8,282.9,584z"/>
		<path class="st1" d="M291.9,603.2c0-15.6,11.7-21.6,20.6-21.6c9.1,0,20.5,5.4,20.5,21c0,15.7-11.3,21.7-20.5,21.7
			C303.5,624.3,291.9,618.9,291.9,603.2z M321.9,602.9c0-11.6-4.2-17-9.4-17c-5.2,0-9.3,5.4-9.3,17c0,12.2,4.2,16.6,9.3,16.6
			C317.7,619.4,321.9,614.3,321.9,602.9z"/>
		<path class="st1" d="M366.3,584.8c0.4,1.9,1.4,5.6,1.4,6.9c0,1.4-0.9,2.3-2.2,2.3s-1.8-0.8-2.6-2.1c-1.8-3-4.6-6.1-9.2-6.1
			c-3.7,0-5.9,2.2-5.9,5.3c0,4,4.4,4.8,9.8,6.4c5.7,1.6,12.2,4,12.2,12.7c0,10.3-8.7,14.2-16.7,14.2c-10.6,0-15.8-5.4-15.8-9.8
			c0-2,1.1-3.1,2.7-3.1c2,0,3.1,1.4,4.7,3.3c1.6,2.1,4.5,4.8,8.9,4.8c4.1,0,6.8-2.4,6.8-6c0-4.6-4.8-5.6-9.7-6.9
			c-6.1-1.6-12.8-3.7-12.8-12.1c0-7.7,6.4-12.7,15.4-12.7c3.1,0,5.6,0.7,8.3,2.1c0.4-0.7,1-1.5,2.3-1.5
			C365.3,582.2,365.7,583.2,366.3,584.8z"/>
		<path class="st1" d="M419.1,618.6c1.4,0,2.4,0.9,2.4,2.5c0,1.1-0.4,1.8-0.8,2.1h-16.2c-0.2-0.3-0.8-1-0.8-2.1
			c0-1.6,0.9-2.5,2.4-2.5h1.5v-24.3h-0.1l-12.1,17.9l-12.2-17.8h-0.1V608c0,5.3,0.1,9.1,0.2,10.5h1.9c1.8,0,2.6,0.9,2.6,2.5
			c0,1.1-0.4,1.8-0.8,2.1H375c-0.2-0.3-0.8-1-0.8-2.1c0-1.6,1-2.5,2.3-2.5h1.5c0.1-1.2,0.2-4.9,0.2-12.3v-19l-1.6-0.1
			c-1.4-0.2-2.3-0.9-2.3-2.5c0-1.1,0.4-1.8,0.8-2.1h11.6l11.7,17h0.1l11.9-17h10.2c0.3,0.2,0.8,0.9,0.8,2.1c0,1.6-0.9,2.3-2.3,2.5
			l-1.6,0.1v31.3H419.1z"/>
		<path class="st1" d="M458.6,614.6c0,1.6-1.2,4-2.9,7.7c-0.7,1.4-1.3,2.2-2.4,2.2s-1.8-0.7-2.6-1.3h-23.6c-0.2-0.3-0.8-1-0.8-2.1
			c0-1.6,1-2.5,2.4-2.5h1.4v-31.4h-1.4c-1.4,0-2.4-0.9-2.4-2.5c0-1.1,0.5-1.8,0.8-2.1H450c0.8-0.4,1.4-1.3,2.7-1.3
			c1.8,0,2.3,1.9,2.9,3.6l1.3,3.6c0.4,1.2,0.8,2.2,0.8,3.2c0,1.1-0.8,1.8-2,1.8c-1.3,0-1.9-1.1-3-2.9c-1.3-2.2-2.2-3.5-4.6-3.5H440
			v12.6h7.6c0.3-0.9,0.7-2.3,2.2-2.3c0.8,0,1.4,0.4,2.1,2.1c0.9,2.3,2.1,4.9,2.1,6.4c0,1-0.8,1.6-1.8,1.6c-0.9,0-1.4-0.3-2.2-1.4
			s-1.3-2.1-3.4-2.1h-6.5v14.8h7.6c3.2,0,4.4-1.4,5.7-3.3c1.3-1.9,2.1-2.7,3.2-2.7C457.6,612.6,458.6,613.3,458.6,614.6z"/>
		<path class="st1" d="M497.3,588.8c0.7,1.3,0.9,2.1,0.9,3c-0.1,1.1-1.1,1.8-2.2,1.8c-1.4,0-2.2-1.1-3.2-2.5
			c-1.8-2.5-2.6-3.6-4.9-3.6c-0.8,0-1.9,0-3.3,0.1v31.2h1.8c1.5,0,2.4,0.9,2.4,2.5c0,1.1-0.4,1.8-0.8,2.1h-16.9
			c-0.2-0.3-0.8-1-0.8-2.1c0-1.6,0.9-2.5,2.4-2.5h1.8v-31.2c-1.3-0.1-2.5-0.1-3.2-0.1c-2.4,0-3.3,1.1-5.1,3.6
			c-1.1,1.4-1.8,2.5-3.2,2.5c-1.1,0-2.1-0.7-2.2-1.8c-0.1-0.9,0.2-1.6,0.9-3l1.4-3c1.8-3.6,2.4-4.4,3.6-4.4c1.2,0,1.9,0.9,2.7,1.6
			h19.8c0.8-0.8,1.5-1.6,2.6-1.6c1.3,0,1.9,0.8,3.7,4.4L497.3,588.8z"/>
		<path class="st1" d="M516.3,618.6c1.4,0,2.4,0.9,2.4,2.5c0,1.1-0.4,1.8-0.8,2.1h-16.2c-0.2-0.3-0.8-1-0.8-2.1c0-1.6,1-2.5,2.4-2.5
			h1.4v-31.4h-1.4c-1.4,0-2.4-0.9-2.4-2.5c0-1.1,0.5-1.8,0.8-2.1H518c0.2,0.2,0.8,0.9,0.8,2.1c0,1.6-0.9,2.5-2.4,2.5h-1.5v31.4
			H516.3z"/>
		<path class="st1" d="M550.9,584c0.7-1.1,1.3-1.4,2.2-1.4c1.4,0,2.1,1.1,2.4,3.2c0.4,2.4,1.2,5.9,1.2,7.6c0,1.3-0.9,2-2.2,2
			c-1.3,0-2.1-1-2.7-2.4c-2-4.2-4.9-6.8-8.3-6.8c-6.8,0-10.2,7.1-10.2,15.8c0,9.9,3.2,17.7,10.3,17.7c4.2,0,6.4-2.9,8.1-4.9
			c1.2-1.3,2.1-2.3,3.3-2.3c1.5,0,2.3,1.1,2.3,2.4c0,4.2-5.6,9.7-14.9,9.7c-10.8,0-20.2-5.4-20.2-21.4c0-13.6,9.2-21.2,19.8-21.2
			C546.3,581.7,549.1,582.8,550.9,584z"/>
		<path class="st1" d="M604.7,584c0.7-1.1,1.3-1.4,2.2-1.4c1.4,0,2.1,1.1,2.4,3.2c0.4,2.4,1.2,5.9,1.2,7.6c0,1.3-0.9,2-2.2,2
			c-1.3,0-2.1-1-2.7-2.4c-2-4.2-4.9-6.8-8.3-6.8c-6.8,0-10.2,7.1-10.2,15.8c0,9.9,3.2,17.7,10.3,17.7c4.2,0,6.4-2.9,8.1-4.9
			c1.2-1.3,2.1-2.3,3.3-2.3c1.5,0,2.3,1.1,2.3,2.4c0,4.2-5.6,9.7-14.9,9.7c-10.8,0-20.2-5.4-20.2-21.4c0-13.6,9.2-21.2,19.8-21.2
			C600,581.7,602.9,582.8,604.7,584z"/>
		<path class="st1" d="M646,613.7c0,1.6-1.2,4.6-2.9,8.5c-0.8,1.6-1.3,2.3-2.5,2.3s-2-0.9-2.6-1.3h-22c-0.2-0.3-0.8-1-0.8-2.1
			c0-1.6,1-2.5,2.4-2.5h1.4v-31.4h-1.4c-1.4,0-2.4-0.9-2.4-2.5c0-1.1,0.5-1.8,0.8-2.1h16.5c0.2,0.2,0.8,0.9,0.8,2.1
			c0,1.6-1,2.5-2.4,2.5h-1.6v31.4h6.1c3.2,0,4.4-2.2,6.1-4.6c1.1-1.4,1.5-2.2,2.7-2.2C645.1,611.8,646,612.3,646,613.7z"/>
		<path class="st1" d="M664.6,618.6c1.4,0,2.4,0.9,2.4,2.5c0,1.1-0.4,1.8-0.8,2.1h-16.2c-0.2-0.3-0.8-1-0.8-2.1c0-1.6,1-2.5,2.4-2.5
			h1.4v-31.4h-1.4c-1.4,0-2.4-0.9-2.4-2.5c0-1.1,0.5-1.8,0.8-2.1h16.2c0.2,0.2,0.8,0.9,0.8,2.1c0,1.6-0.9,2.5-2.4,2.5H663v31.4
			H664.6z"/>
		<path class="st1" d="M711.8,582.7c0.2,0.2,0.8,0.9,0.8,2.1c0,1.6-0.9,2.5-2.3,2.5h-1.5c-0.1,1.4-0.2,5.8-0.2,12.3v23.6h-7.8
			l-20.2-27.8h-0.1v12.7c0,5.2,0.1,8.9,0.2,10.4h1.9c1.8,0,2.7,0.9,2.7,2.5c0,1.1-0.4,1.8-0.8,2.1h-12.1c-0.2-0.3-0.8-1-0.8-2.1
			c0-1.6,0.9-2.5,2.3-2.5h1.5c0.1-1.3,0.2-5.1,0.2-12.3v-19.1H674c-1.4-0.2-2.3-0.9-2.3-2.5c0-1.1,0.4-1.8,0.8-2.1h11.6l19.4,26.9
			h0.1v-11.9c0-5.3-0.1-8.9-0.2-10.4h-1.8c-1.8,0-2.7-0.9-2.7-2.5c0-1.1,0.5-1.8,0.8-2.1h12.1V582.7z"/>
		<path class="st1" d="M732.4,618.6c1.4,0,2.4,0.9,2.4,2.5c0,1.1-0.4,1.8-0.8,2.1h-16.2c-0.2-0.3-0.8-1-0.8-2.1c0-1.6,1-2.5,2.4-2.5
			h1.4v-31.4h-1.4c-1.4,0-2.4-0.9-2.4-2.5c0-1.1,0.5-1.8,0.8-2.1H734c0.2,0.2,0.8,0.9,0.8,2.1c0,1.6-0.9,2.5-2.4,2.5h-1.5v31.4
			H732.4z"/>
		<path class="st1" d="M767,584c0.7-1.1,1.3-1.4,2.2-1.4c1.4,0,2.1,1.1,2.4,3.2c0.4,2.4,1.2,5.9,1.2,7.6c0,1.3-0.9,2-2.2,2
			c-1.3,0-2.1-1-2.7-2.4c-2-4.2-4.9-6.8-8.3-6.8c-6.8,0-10.2,7.1-10.2,15.8c0,9.9,3.2,17.7,10.3,17.7c4.2,0,6.4-2.9,8.1-4.9
			c1.2-1.3,2.1-2.3,3.3-2.3c1.5,0,2.3,1.1,2.3,2.4c0,4.2-5.6,9.7-14.9,9.7c-10.8,0-20.2-5.4-20.2-21.4c0-13.6,9.2-21.2,19.8-21.2
			C762.4,581.7,765.1,582.8,767,584z"/>
		<path class="st1" d="M806.4,584.8c0.4,1.9,1.4,5.6,1.4,6.9c0,1.4-0.9,2.3-2.2,2.3c-1.3,0-1.8-0.8-2.6-2.1c-1.8-3-4.6-6.1-9.2-6.1
			c-3.7,0-5.9,2.2-5.9,5.3c0,4,4.4,4.8,9.8,6.4c5.7,1.6,12.2,4,12.2,12.7c0,10.3-8.7,14.2-16.7,14.2c-10.6,0-15.8-5.4-15.8-9.8
			c0-2,1.1-3.1,2.7-3.1c2,0,3.1,1.4,4.7,3.3c1.6,2.1,4.5,4.8,8.9,4.8c4.1,0,6.8-2.4,6.8-6c0-4.6-4.8-5.6-9.7-6.9
			c-6.1-1.6-12.8-3.7-12.8-12.1c0-7.7,6.4-12.7,15.4-12.7c3.1,0,5.6,0.7,8.3,2.1c0.4-0.7,1-1.5,2.3-1.5
			C805.4,582.2,806,583.2,806.4,584.8z"/>
	</g>
</g>
</svg>
