<?xml version="1.0" encoding="utf-8"?>
<!-- Generator: Adobe Illustrator 27.7.0, SVG Export Plug-In . SVG Version: 6.00 Build 0)  -->
<svg version="1.1" id="logo" xmlns="http://www.w3.org/2000/svg" xmlns:xlink="http://www.w3.org/1999/xlink" x="0px" y="0px"
	 viewBox="0 0 450.4 173.1" style="enable-background:new 0 0 450.4 173.1;" xml:space="preserve">
<style type="text/css">
	.st0{fill:#0084BD;}
	.st1{fill:#FFFFFF;}
</style>
<g>
	<path class="st0" d="M-0.3,0v173.1H384v0c0.1,0,0.3,0,0.4,0c36.4,0,66-29.5,66-66V0H-0.3z M427.6,107.2c0,23.8-19.4,43.2-43.2,43.2
		c-23.8,0-43.2-19.4-43.2-43.2V30.4c15-3.5,29.6-8.7,43.2-15.2c13.6,6.5,28.2,11.6,43.2,15.2V107.2z"/>
	<path class="st1" d="M341.2,30.4v76.8c0,23.8,19.4,43.2,43.2,43.2c23.8,0,43.2-19.4,43.2-43.2V30.4c-15-3.5-29.6-8.7-43.2-15.2
		C370.8,21.7,356.2,26.8,341.2,30.4z M402.7,130.9c0,0-2.5-0.1-7.3-1.7c-4.5-1.5-8.6-0.3-11,2.5c-2.4-2.8-6.5-3.9-11-2.5
		c-4.8,1.6-7.3,1.7-7.3,1.7l-5.1-23.7c1.9,0.2,5.4,0.6,11.2-2.1c3.9-1.8,7.1-1.5,8.7-0.8c1.6,0.7,2.9,3.4,3.5,6.5c0,0,0,0,0,0.6
		c0-0.5,0-0.5,0-0.6c0.6-3.1,1.9-5.8,3.5-6.5c1.6-0.7,4.8-1,8.7,0.8c5.8,2.7,9.3,2.3,11.2,2.1L402.7,130.9z M410.5,74.2
		c-4.1,0.1-11,0.7-22.2,8.4c-0.4,0.3-0.8,0.6-1.2,0.8c1.8,1.2,3.2,2.2,4.4,3c0.8-0.6,1.5-0.8,1.9-0.6c0.1,0.1,0.2,0.2,0.2,0.4
		c0,0.3-0.1,0.8-0.5,1.3c2.1,1.4,3.1,2.1,3.5,2.4c0.3-0.5,1-0.8,1.7-0.8c1.1,0,1.9,0.7,1.9,1.6c0,0.6-0.4,1.1-0.9,1.3
		c-0.3,0.2-0.8,0.3-1.3,0.3c-2.1,0-4.7-1.5-6.7-2.9c-0.7,0.5-1.3,0.8-1.8,0.8c-0.2,0-0.3,0-0.4-0.1c-0.1-0.1-0.2-0.2-0.2-0.4
		c0-0.4,0.2-0.9,0.6-1.5c-0.2-0.1-0.4-0.2-0.5-0.3l0,0c-1.3-0.8-2.8-1.8-4.6-3c-1.8,1.2-3.3,2.2-4.6,3l0,0c-0.2,0.1-0.3,0.2-0.5,0.3
		c0.4,0.6,0.6,1.1,0.6,1.5c0,0.2-0.1,0.3-0.2,0.4c-0.1,0.1-0.2,0.1-0.4,0.1c-0.4,0-1.1-0.3-1.8-0.8c-2.1,1.3-4.6,2.9-6.7,2.9
		c-0.5,0-0.9-0.1-1.3-0.3c-0.6-0.3-0.9-0.8-1-1.4c0-0.9,0.8-1.6,1.9-1.6c0.7,0,1.3,0.3,1.7,0.8c0.4-0.3,1.4-1,3.5-2.4
		c-0.3-0.5-0.5-1-0.5-1.3c0-0.2,0.1-0.3,0.2-0.4c0.4-0.2,1.1,0,1.9,0.6c1.2-0.8,2.7-1.8,4.4-3c-0.4-0.3-0.8-0.5-1.2-0.8
		c-11.3-7.7-18.1-8.3-22.2-8.4c0,0,11.4-2.7,25.3,6.9c0.3,0.2,0.6,0.4,0.8,0.6c0.3-0.2,0.5-0.4,0.8-0.6
		C399.1,71.6,410.5,74.2,410.5,74.2z M394,33c0,0-3.5,0.8-6.2,3.5c8-2,16.2,3.1,16.2,3.1s-6.6-1.9-13.4,0.7
		c10,2.2,13.3,11.1,13.3,11.1s-6.1-6-14.1-6.9c4.3,4,4.6,11.5,4.6,11.5s-3.1-6.9-8.4-9.5c0,1.8-0.1,3.8-0.1,6.1
		c0,7.2,0.2,13.6,0.5,18.7c1.1-0.5,2-0.5,2-0.5s-0.9,0.7-1.8,2.1c1.8-0.3,3.4,0,3.4,0s0,0,0,0.1c-1.8,0.7-3.7,1.6-5.6,2.7
		c-2.1-1.2-4.2-2.1-6.1-2.9c0-0.1-0.1-0.1-0.1-0.1s1.8-0.4,3.7,0.1c-0.8-1.3-1.7-2-1.7-2s1,0,2.2,0.6c0.3-5.1,0.5-11.6,0.5-18.8
		c0-2.3,0-4.3-0.1-6.1c-5.3,2.6-8.4,9.5-8.4,9.5s0.3-7.4,4.6-11.5c-8,1-14.1,6.9-14.1,6.9s3.3-8.8,13.3-11.1
		c-6.8-2.6-13.4-0.7-13.4-0.7s8.2-5.1,16.2-3.1c-2.7-2.7-6.2-3.5-6.2-3.5s4.4-0.6,7.8,0.9c0.4-2.2,1.2-4.6,1.7-5.5
		c0.5,0.9,1.3,3.3,1.7,5.5C389.6,32.4,394,33,394,33z"/>
	<g>
		<path class="st0" d="M364.8,39.6c0,0,6.6-1.9,13.4,0.7c-10,2.2-13.3,11.1-13.3,11.1s6.1-6,14.1-6.9c-4.3,4-4.6,11.5-4.6,11.5
			s3.1-6.9,8.4-9.5c0,1.8,0.1,3.8,0.1,6.1c0,7.2-0.2,13.7-0.5,18.8c-1.2-0.5-2.2-0.6-2.2-0.6s0.9,0.7,1.7,2c-2-0.5-3.7-0.1-3.7-0.1
			s0,0,0.1,0.1c2,0.8,4,1.7,6.1,2.9c1.9-1.1,3.8-2,5.6-2.7c0-0.1,0-0.1,0-0.1s-1.6-0.3-3.4,0c0.8-1.3,1.8-2.1,1.8-2.1s-0.9,0-2,0.5
			c-0.3-5.1-0.5-11.6-0.5-18.7c0-2.3,0-4.3,0.1-6.1c5.3,2.6,8.4,9.5,8.4,9.5s-0.3-7.4-4.6-11.5c8,1,14.1,6.9,14.1,6.9
			s-3.4-8.8-13.3-11.1c6.8-2.6,13.4-0.7,13.4-0.7s-8.2-5.1-16.2-3.1c2.7-2.7,6.2-3.5,6.2-3.5s-4.4-0.6-7.9,0.9
			c-0.5-2.1-1.2-4.6-1.7-5.5c-0.5,0.9-1.2,3.3-1.7,5.5c-3.5-1.4-7.8-0.9-7.8-0.9s3.5,0.8,6.2,3.5C373,34.5,364.8,39.6,364.8,39.6z"
			/>
		<path class="st0" d="M398.3,89.3c-0.7,0-1.3,0.3-1.7,0.8c-0.5-0.3-1.4-1-3.5-2.4c0.3-0.5,0.5-1,0.5-1.3c0-0.2-0.1-0.3-0.2-0.4
			c-0.4-0.2-1.1,0-1.9,0.6c-1.2-0.8-2.7-1.8-4.4-3c0.4-0.3,0.8-0.5,1.2-0.8c11.3-7.7,18.1-8.3,22.2-8.4c0,0-11.4-2.7-25.3,6.9
			c-0.3,0.2-0.6,0.4-0.8,0.6c-0.3-0.2-0.5-0.4-0.8-0.6c-13.9-9.6-25.3-6.9-25.3-6.9c4.1,0.1,11,0.7,22.2,8.4
			c0.4,0.3,0.8,0.6,1.2,0.8c-1.8,1.2-3.2,2.2-4.4,3c-0.8-0.6-1.5-0.8-1.9-0.6c-0.1,0.1-0.2,0.2-0.2,0.4c0,0.3,0.1,0.8,0.5,1.3
			c-2.1,1.4-3.1,2.1-3.5,2.4c-0.3-0.5-1-0.8-1.7-0.8c-1.1,0-1.9,0.7-1.9,1.6c0,0.6,0.4,1.1,1,1.4c0.3,0.2,0.8,0.3,1.3,0.3
			c2.1,0,4.7-1.5,6.7-2.9c0.7,0.5,1.3,0.8,1.8,0.8c0.2,0,0.3,0,0.4-0.1c0.1-0.1,0.2-0.2,0.2-0.4c0-0.4-0.2-0.9-0.6-1.5
			c0.2-0.1,0.4-0.2,0.5-0.3l0,0c1.3-0.8,2.8-1.8,4.6-3c1.8,1.2,3.3,2.2,4.6,3l0,0c0.2,0.1,0.3,0.2,0.5,0.3c-0.4,0.6-0.6,1.1-0.6,1.5
			c0,0.2,0.1,0.3,0.2,0.4c0.1,0.1,0.2,0.1,0.4,0.1c0.4,0,1.1-0.3,1.8-0.8c2.1,1.3,4.6,2.9,6.7,2.9c0.5,0,0.9-0.1,1.3-0.3
			c0.5-0.3,0.9-0.8,0.9-1.3C400.2,90.1,399.4,89.4,398.3,89.3z"/>
	</g>
	<path class="st1" d="M379.7,113.5c-2.2,0-3.7,1.4-3.7,3.4c0,1.9,1.3,3,3.2,3c0.8,0,1.6-0.2,2.2-0.6c-0.2,1.7-0.7,2.8-2.6,2.8
		c-0.8,0-1.3-0.2-1.5-0.5h-0.8v1.6c0.6,0.2,1.3,0.4,2.2,0.4c3.2,0,4.9-1.9,4.9-5.2C383.6,115.1,382,113.5,379.7,113.5z M379.7,118.4
		c-1,0-1.5-0.5-1.5-1.6c0-1,0.4-1.9,1.6-1.9c1.1,0,1.7,0.8,1.7,2.9C381,118.2,380.3,118.4,379.7,118.4z"/>
	<polygon class="st1" points="370.6,115.1 370.6,116.6 371.1,116.6 372.3,115.9 372.3,123.4 374.5,123.4 374.5,113.7 373,113.7 	"/>
	<path class="st1" d="M388.1,117.2c-0.8,0-1.4,0.3-1.8,0.5h0v-2.3h4.3v-1.7h-5.9v5.7h1.3c0.3-0.3,0.7-0.7,1.5-0.7
		c0.8,0,1.4,0.5,1.4,1.6c0,1.1-0.8,1.7-1.9,1.7c-0.9,0-1.5-0.3-1.9-0.7h-0.8v1.5c0.7,0.4,1.4,0.7,2.7,0.7c2.4,0,4-1.2,4-3.3
		C391.1,118.1,389.8,117.2,388.1,117.2z"/>
	<polygon class="st1" points="391.5,115.4 396.5,115.4 396.5,115.4 392.6,122.6 392.6,123.4 394.7,123.4 398.1,115.5 398.1,113.7 
		391.5,113.7 	"/>
	<path class="st0" d="M379.7,115c-1.1,0-1.6,0.8-1.6,1.9c0,1,0.6,1.6,1.5,1.6c0.7,0,1.4-0.2,1.8-0.5
		C381.4,115.8,380.8,115,379.7,115z"/>
	<path class="st0" d="M396.6,105.1c-3.9-1.8-7.1-1.5-8.7-0.8c-1.6,0.7-2.8,3.4-3.5,6.5c0,0,0,0,0,0.6c0-0.5,0-0.5,0-0.6
		c-0.6-3.1-1.9-5.8-3.5-6.5c-1.6-0.7-4.8-1-8.7,0.8c-5.8,2.7-9.3,2.3-11.2,2.1l5.1,23.7c0,0,2.5-0.1,7.3-1.7c4.4-1.5,8.6-0.3,11,2.5
		c2.4-2.8,6.5-3.9,11-2.5c4.8,1.6,7.3,1.7,7.3,1.7l5.1-23.7C405.8,107.4,402.3,107.8,396.6,105.1z M374.5,123.4h-2.2v-7.5l-1.2,0.6
		h-0.6v-1.5l2.4-1.5h1.5V123.4z M378.7,123.5c-0.9,0-1.6-0.2-2.2-0.4v-1.6h0.8c0.2,0.2,0.7,0.5,1.5,0.5c1.8,0,2.4-1,2.6-2.8
		c-0.6,0.4-1.4,0.6-2.2,0.6c-1.9,0-3.2-1-3.2-3c0-1.9,1.5-3.4,3.7-3.4c2.2,0,3.9,1.6,3.9,4.8C383.6,121.7,381.9,123.5,378.7,123.5z
		 M387.1,123.5c-1.3,0-2-0.3-2.7-0.7v-1.5h0.8c0.3,0.3,1,0.7,1.9,0.7c1.1,0,1.9-0.6,1.9-1.7c0-1.1-0.6-1.6-1.4-1.6
		c-0.8,0-1.3,0.4-1.5,0.7h-1.3v-5.7h5.9v1.7h-4.3v2.3h0c0.3-0.2,0.9-0.5,1.8-0.5c1.7,0,3,1,3,3.1
		C391.1,122.3,389.5,123.5,387.1,123.5z M398.1,115.5l-3.4,7.9h-2.1v-0.9l3.8-7.2v-0.1h-5v-1.7h6.6V115.5z"/>
	<g>
		<path class="st1" d="M316.8,69h-7.1v2.7h1.3c0.6,0,1.3,0.6,1.3,1.1v24.1h5.4V70C317.7,69.3,317.4,69,316.8,69z"/>
		<path class="st1" d="M218.7,75.7h-5.3v-2.3c0-0.6,0.1-1,0.3-1.4c0.2-0.4,0.4-0.6,0.7-0.8c0.3-0.2,0.7-0.3,1.1-0.4
			c0.4-0.1,0.9-0.1,1.4-0.1h1.5v-2.4h-2.3c-1.6,0-3,0.4-3.9,1.2c-1,0.8-1.5,2.1-1.5,3.8v2.3h-3.2v2.3h11.2V75.7z"/>
		<path class="st1" d="M256.4,93.3c-0.9,0-1.7-0.1-2.3-0.4c-0.6-0.3-1.1-0.7-1.5-1.2c-0.4-0.5-0.6-1.1-0.8-1.8
			c-0.1-0.7-0.2-1.4-0.2-2.1V77.7h0v-7.8c0-0.7-0.3-1.1-0.9-1.1h-7.1v2.6h1.3c0.6,0,1.3,0.6,1.3,1.1v11.5h0v6.2
			c0,1.1-0.1,1.9-0.5,2.3c-0.3,0.4-1,0.6-1.9,0.6h-7c-0.9,0-1.7-0.1-2.3-0.4c-0.6-0.3-1.1-0.7-1.5-1.2c-0.4-0.5-0.6-1.1-0.8-1.8
			c-0.2-0.7-0.2-1.4-0.2-2.2V75.5l0,0v-5.7c0-0.7-0.3-1.1-0.9-1.1h-7v2.6h1.3c0.6,0,1.3,0.6,1.3,1.1V84h0v6.3c0,1.1-0.2,1.9-0.5,2.3
			c-0.3,0.4-1,0.6-2,0.6h-19c-2.1,0-2.6,0-2.6,0c-5.1-0.2-7.7-2.2-7.7-5.8c0-2.5,1.2-3.7,2.4-4.4v-1.9h-3.1c-1,1.2-2,3.3-2,6.4
			c0,6.1,4,9.1,10.4,9.2c0.1,0,1.8,0,1.8,0h20.1c0,0,2.3-0.1,3.2-0.3c1.3-0.3,2.3-0.9,3-1.7c0.6-0.8,1-1.8,1.2-3
			c0.3,1.5,1,2.7,2,3.6c1,1,2.4,1.4,4.1,1.4h6.6c1.2,0,2.3-0.1,3.1-0.4c0.8-0.2,1.5-0.6,2-1c0.5-0.4,1-1,1.2-1.6
			c0.3-0.6,0.5-1.3,0.6-2c0.3,1.5,1,2.7,2,3.6c0.9,0.9,2.1,1.3,3.6,1.4v0h2.7c3.4,0,5.8-1,7.5-2.5c1.8,1.1,4.4,2.8,8.8,2.8
			c5.5,0,9.1-1.9,10.8-5.3c0.3,1.4,1,2.6,1.9,3.5c0.9,0.9,2.1,1.4,3.6,1.4c0.1,0,0.2,0,0.3,0h0.2H305V78.7l0,0V70
			c0-0.7-0.3-1.1-0.9-1.1H297v2.6h1.3c0.6,0,1.3,0.6,1.3,1.1v6v14.5h-6.6h-1c-1.8,0-3.1-0.5-3.8-1.6c-0.2-0.4-0.4-0.8-0.6-1.2
			c0.4-1.2,0.6-2.6,0.6-4.1c0-6.7-4.7-10.8-11.5-10.8c-6.6,0-10.4,4-10.4,10l0,1.4c0,6.4-5.2,6.3-8.2,6.3L256.4,93.3z M283.1,86.9
			c-0.2,4.9-1.9,7.3-7.3,7.3c-3.2,0-5.1-1.3-6.4-2.6c0.5-0.9,0.9-1.9,1-2.8c0.5-2.3,0.6-4.6,0.6-4.6c0-3.3,2.1-6.1,5.6-6.1
			c3.6,0,5.9,2,6.3,6.1C283,84.3,283.2,85.8,283.1,86.9z"/>
		<g>
			<path class="st1" d="M69.8,75.8c-3.9,0-6.4,0.5-7.9,1.1v4.4H65c0.4-2.1,2.1-2.7,4.9-2.7c4.4,0,7,2.7,7,8.1v6.6H59.4v3.5h22.7
				V86.6C82.1,79.9,77.2,75.8,69.8,75.8z"/>
			<path class="st1" d="M148.7,96.8c1.2,0,2.2-0.1,3.1-0.4c0.8-0.2,1.5-0.6,2.1-1c0.5-0.4,0.9-1,1.2-1.6c0.3-0.6,0.5-1.3,0.6-2.1
				c0.3,1.5,1,2.7,2,3.6c1,1,2.4,1.4,4.1,1.4h0.4c2.4,0,4.1-0.5,5.1-1.4c1-0.9,1.6-2.2,1.8-3.7c0.3,1.5,1,2.7,2,3.6
				c1,1,2.4,1.4,4.1,1.4h7.8V86.7v-9h-4.9h-3v2.7h1.8c0.6,0,1.2,0.6,1.2,1.1v5.2h0v6.7h-4.2c-0.9,0-1.6-0.1-2.2-0.4
				c-0.6-0.3-1.1-0.7-1.5-1.2c-0.4-0.5-0.6-1.1-0.8-1.8c-0.1-0.6-0.2-1.2-0.2-2v-7.6h-7.9v2.7h1.8c0.6,0,1.2,0.5,1.2,1v6.3
				c0,1.1-0.2,1.8-0.5,2.3c-0.3,0.4-1.5,0.6-2.4,0.6h-1c-0.9,0-1.6-0.1-2.2-0.4c-0.6-0.3-1.1-0.7-1.5-1.2c-0.3-0.5-0.6-1.1-0.8-1.8
				c-0.2-0.7-0.2-1.4-0.2-2.2v-4.7h0v0h-7.9v2.7h1.8c0.6,0,1.2,0.6,1.2,1.1v2.8v0.7c0,1.1-0.2,1.8-0.5,2.3c-0.3,0.4-1,0.6-1.9,0.6
				l-14,0c-0.7,0-1.5-0.1-2.2-0.2c5.6-4.6,8.7-7.2,9.2-7.6c0-2.3-1.3-4.4-4-6.2c-2.8-1.9-6.2-2.8-10-2.8c-3.9,0-7.2,0.9-10,2.8
				c-2.7,1.8-4.1,3.9-4.1,6.2c4.8,4.1,7.8,6.6,9.1,7.6c-0.7,0.1-1.4,0.2-2.1,0.2h-13V77.7h-8.4c-1.6,0-3.2,0.3-4.7,0.8
				c-1.5,0.5-2.8,1.3-3.9,2.3c-1.1,1-2,2.2-2.7,3.6c-0.7,1.4-1,3-1,4.7c0,1.3,0.2,2.6,0.6,4c0.4,1.3,0.9,2.6,1.5,3.8h12.3
				c-1.5,2-2.9,3.2-5.3,3.8v2.4h4.1c1.9-1,4-3.1,6-6.2h15.2c0,0,3.4,0,6.2-1.9c2.3,1.5,4.9,1.9,6.5,1.9H148.7z M92.4,90.8
				c-0.2-0.9-0.3-1.8-0.3-2.6c0-1.4,0.2-2.5,0.7-3.4c0.5-0.9,1-1.6,1.7-2.2c0.6-0.5,1.4-0.9,2.1-1.2c0.8-0.2,1.5-0.3,2.1-0.3h3.3
				v12.2h-8.5C92.9,92.5,92.6,91.7,92.4,90.8z M118.1,84.5c0.2-1.1,1.1-2,2.6-2.9c1.8-1,4.1-1.5,6.7-1.5c2.7,0,5,0.5,6.8,1.5
				c1.4,0.8,2.2,1.8,2.4,2.9l-9.2,7.8C123.2,88.9,120.2,86.3,118.1,84.5z"/>
		</g>
		<g>
			<path class="st1" d="M77.1,27.8c0.8,0,1.5-0.2,2-0.7c0.5-0.5,0.8-1.1,0.8-1.8c0-0.6-0.3-1.2-0.8-1.7c-0.5-0.5-1.2-0.7-2-0.7
				c-0.8,0-1.4,0.2-2,0.7c-0.6,0.5-0.8,1.1-0.8,1.7c0,0.7,0.3,1.3,0.8,1.8C75.7,27.6,76.4,27.8,77.1,27.8z"/>
			<path class="st1" d="M69.3,27.8c0.8,0,1.4-0.2,2-0.7c0.6-0.5,0.9-1.1,0.9-1.8c0-0.6-0.3-1.2-0.9-1.7c-0.6-0.5-1.2-0.7-2-0.7
				c-0.8,0-1.4,0.2-2,0.7c-0.5,0.5-0.8,1.1-0.8,1.7c0,0.7,0.3,1.3,0.8,1.8C67.9,27.6,68.5,27.8,69.3,27.8z"/>
			<path class="st1" d="M304.5,56.8c-0.8,0-1.5,0.2-2,0.7c-0.5,0.5-0.8,1.1-0.8,1.8c0,0.7,0.3,1.3,0.8,1.7c0.5,0.5,1.2,0.7,2,0.7
				c0.8,0,1.4-0.2,2-0.7c0.5-0.5,0.8-1,0.8-1.7c0-0.7-0.3-1.3-0.8-1.8C305.9,57.1,305.3,56.8,304.5,56.8z"/>
			<path class="st1" d="M77.5,53.1L77.5,53.1c0,0.1,0,0.1,0.1,0.2c0.1,0.2,0.4,0.3,0.9,0.3h54.2h0c0,0,3.3,0,6.2-1.9
				c2.3,1.5,4.8,1.9,6.5,1.9h44.2c3.4,0,5.8-1,7.5-2.5c1.8,1.1,4.4,2.8,8.8,2.8c8,0,12-4.1,12-10.7c0-6.6-4.7-10.8-11.5-10.8
				c-6.6,0-10.4,4-10.4,10l0,1.4c0,5.8-4.2,6.3-7.2,6.3v0h-42.8c-0.7,0-1.5,0-2.2-0.2c5.6-4.6,8.6-7.1,9.1-7.5c0-2.3-1.3-4.3-4-6.1
				c-2.8-1.9-6.1-2.8-9.9-2.8c-3.9,0-7.2,0.9-10,2.8c-2.7,1.8-4.1,3.9-4.1,6.2c4.8,4.1,7.8,6.6,9,7.5c-0.7,0.1-1.4,0.2-2.1,0.2
				l-49.4,0V33h-2.8c-0.6,0-1.6,0.8-1.9,2.4c-1.6-1.5-3.8-2.6-7.3-2.6c-4.7,0-10.2,2.9-10.2,10.9c0,7.9,5,10.1,9.8,10.1
				c3.4,0,6-1.3,7.5-2.7V53.1z M71.4,51c-3,0-6.2-1.2-6.2-7.5c0-6.1,3.4-7.7,6.9-7.7c2.2,0,4,0.8,5.4,1.7v11.2C76,50,74,51,71.4,51z
				 M129.6,41.5c0.2-1,1.1-2,2.5-2.9c1.8-1,4-1.5,6.7-1.5c2.7,0,5,0.5,6.7,1.5c1.4,0.8,2.2,1.8,2.4,2.9l-9.2,7.7
				C134.7,45.8,131.7,43.2,129.6,41.5z M212.6,43.9c-0.2,4.9-1.9,7.3-7.3,7.3c-3.2,0-5.1-1.3-6.3-2.6c0.5-0.9,0.9-1.9,1.1-2.8
				c0.5-2.3,0.6-4.6,0.6-4.6c0-3.3,2.1-6.1,5.6-6.1c3.6,0,5.9,2,6.3,6.1C212.5,41.3,212.7,42.8,212.6,43.9z"/>
		</g>
		<path class="st1" d="M318.4,50.3h-2c-0.3,0-0.8-0.3-1-0.8l-1.8-7.7c-1.6-5.1-5.9-7.8-8.3-8.3c-1.3-0.4-3.8-0.6-4.1-0.6
			c-0.2,0-0.4,0-0.6,0c-4.5,0-8.8,1-10.6,1.8l-0.4,0.2V38h2.4l0.2-0.2c1-0.8,4.6-2,8.1-2l0.5,0c4.1,0,7.5,2.5,8.5,6.3l1.6,8.1
			l-78.2,0V26.9c0-0.7-0.2-1.1-0.9-1.1h-7.1v2.6h1.3c0.6,0,1.3,0.6,1.3,1.1v24.1h0h91.1V50.3z"/>
	</g>
	<g>
		<g>
			<path class="st1" d="M59.4,136.8h1.1c0.4,0,0.8-0.5,0.8-0.9v-13.5c0-0.4-0.4-0.9-0.8-0.9h-1.1v-1.8h7.2v1.8h-2.2v8.3l6.5-6.8
				c0.8-0.9,0.6-1.5-0.3-1.5h-0.5v-1.8h6.5v1.8h-0.8c-0.5,0-0.9,0.3-1.5,0.9l-5.1,5.1l5.7,8.4c0.3,0.5,0.7,0.9,1.2,0.9h0.7v1.7H72
				v-1.6l-4.9-7.2l-2.7,2.7v4.4h2.2v1.7h-7.2V136.8z"/>
			<path class="st1" d="M78.9,136.8h1c0.3,0,0.7-0.4,0.7-0.7v-9c0-0.3-0.3-0.8-0.7-0.8h-1.2v-1.8H83c0.4,0,0.5,0.3,0.5,1.2V136
				c0,0.4,0.4,0.7,0.7,0.7h1v1.7h-6.4V136.8z M80.3,121.4c0-0.9,0.7-1.6,1.7-1.6c0.9,0,1.6,0.7,1.6,1.6c0,0.9-0.7,1.6-1.6,1.6
				C81.1,123,80.3,122.3,80.3,121.4z"/>
			<path class="st1" d="M87.1,136.8h1c0.4,0,0.7-0.4,0.7-0.7v-9c0-0.3-0.4-0.8-0.7-0.8H87v-1.8h4.1c0.4,0,0.7,0.4,0.7,1.7v0.4
				c1.4-1.3,3.3-2.3,5.5-2.3c2,0,3.7,0.7,3.7,3.5v8.3c0,0.4,0.4,0.7,0.7,0.7h0.9v1.7h-6.4v-1.7h1.9v-8c0-1.7-0.8-2.2-2.2-2.2
				c-1.5,0-2.9,0.6-4.1,1.3v8.9h1.9v1.7h-6.6V136.8z"/>
			<path class="st1" d="M103.7,139.7c0-1.6,1.1-2.5,2.4-3.1c-0.6-0.3-1.1-1-1.1-1.9c0-1.1,0.6-1.9,1.4-2.6c-1-0.7-1.6-1.9-1.6-3.3
				c0-2.6,2-4.5,5.3-4.5c0.6,0,1.2,0.1,1.7,0.2h4.8v1.8h-1.2c-0.3,0-0.6,0.2-0.6,0.5c0.4,0.6,0.6,1.2,0.6,2c0,2.6-2.1,4.3-5.4,4.3
				c-1,0-1.9-0.2-2.6-0.5c-0.2,0.3-0.4,0.7-0.4,1.2c0,0.7,0.5,1,1.3,1h3.9c2.8,0,4.3,1.1,4.3,3.5c0,2.8-1.9,4.8-7.1,4.8
				C105.3,143.1,103.7,141.7,103.7,139.7z M113.9,138.9c0-1.1-0.6-1.6-2.2-1.6h-4.6c-0.6,0.5-0.9,1-0.9,1.8c0,1.3,0.8,2.1,3.4,2.1
				C112.6,141.2,113.9,140.2,113.9,138.9z M112.8,128.8c0-1.7-1-2.7-2.7-2.7c-1.7,0-2.7,1-2.7,2.7c0,1.6,1,2.6,2.7,2.6
				C111.9,131.4,112.8,130.4,112.8,128.8z"/>
			<path class="st1" d="M127,137.8c-0.2,0-0.3,0.3-0.4,0.7h-2V133h2.1l0.3,2.3c0.9,0.9,1.9,1.4,3.9,1.4c2.1,0,3.6-1,3.6-3.1
				c0-2.5-1.9-2.8-4.6-3.6c-3.3-0.9-4.9-2.3-4.9-5.5c0-3.4,2.5-5.1,5.9-5.1c1.9,0,2.8,0.5,3.4,0.8c0.2,0,0.4-0.3,0.4-0.6h2v4.9h-2.1
				l-0.3-1.9c-0.7-0.6-1.6-1.3-3.4-1.3c-1.9,0-3.3,0.8-3.3,2.8c0,2.2,1.7,2.6,4.3,3.3c3.6,1,5.4,2.1,5.4,5.6c0,3.6-2.2,5.5-6.3,5.5
				C128.8,138.7,127.7,138.2,127,137.8z"/>
			<path class="st1" d="M139.4,134.5c0-2.9,2.3-4.3,5.5-4.3c1.2,0,2.2,0.1,3.2,0.4v-1.8c0-1.8-1-2.4-2.8-2.4c-1.8,0-2.9,0.6-3.6,1.3
				h-1.3v-2.2c1.2-0.6,2.9-1.1,5.5-1.1c3.3,0,5.2,1,5.2,4.1v7.5c0,0.5,0.3,0.9,0.9,0.9h0.7v1.4c-0.4,0.2-1,0.4-1.8,0.4
				c-1.5,0-2.3-0.6-2.5-1.9c-1,1.3-2.4,1.9-4.3,1.9C141.2,138.6,139.4,137.2,139.4,134.5z M148.1,135.2v-3c-0.8-0.2-1.7-0.3-2.6-0.3
				c-2,0-3.3,0.7-3.3,2.5c0,1.7,1,2.4,2.6,2.4C146.3,136.8,147.3,136.1,148.1,135.2z"/>
			<path class="st1" d="M155.3,135.2V127c0-0.3-0.4-0.7-0.7-0.7h-1v-1.8h4.6v9.8c0,1.8,0.9,2.3,2.2,2.3c1.4,0,2.9-0.6,4-1.4v-8.9h-2
				v-1.8h4.9V136c0,0.3,0.4,0.8,0.8,0.8h1.1v1.7h-4c-0.4,0-0.6-0.3-0.6-1.6v-0.3c-1.4,1.3-3.1,2.2-5.4,2.2
				C157.1,138.7,155.3,137.9,155.3,135.2z"/>
			<path class="st1" d="M170.7,131.6c0-5.3,3.3-7.3,6.1-7.3c2.1,0,3.4,0.8,4.3,1.7v-4.4h-2v-1.8h4.4c0.4,0,0.5,0.3,0.5,0.7V136
				c0,0.3,0.4,0.8,0.7,0.8h1v1.7h-4c-0.3,0-0.5-0.4-0.6-1.9c-1,1.1-2.5,2.1-4.6,2.1C173.7,138.6,170.7,137,170.7,131.6z M181.1,135
				v-7.5c-0.9-0.7-1.9-1.2-3.4-1.2c-2.1,0-4.1,1.1-4.1,5.2c0,4.3,1.9,5.3,3.7,5.3C179.1,136.8,180.2,136,181.1,135z"/>
		</g>
		<g>
			<path class="st1" d="M193.3,131.8v-9.3c0-0.4-0.4-0.9-0.9-0.9h-1.1v-1.8h7.4v1.8h-2.4V132c0,3.7,1.8,4.7,4.5,4.7
				c2.7,0,4.5-0.9,4.5-4.7v-10.3h-2.3v-1.8h6.5v1.8h-1.1c-0.4,0-0.8,0.5-0.8,0.9v9.3c0,4.8-2.4,7-7.1,7
				C196,138.8,193.3,136.6,193.3,131.8z"/>
			<path class="st1" d="M210.6,136.9h1c0.3,0,0.7-0.4,0.7-0.7v-9c0-0.3-0.4-0.7-0.7-0.7h-1.2v-1.8h4.1c0.4,0,0.7,0.4,0.7,1.7v0.4
				c1.4-1.3,3.3-2.3,5.5-2.3c2,0,3.7,0.7,3.7,3.5v8.3c0,0.4,0.4,0.7,0.7,0.7h0.9v1.7h-6.4v-1.7h1.9v-8c0-1.7-0.8-2.2-2.2-2.2
				c-1.5,0-2.9,0.6-4.1,1.3v8.8h2v1.7h-6.6V136.9z"/>
			<path class="st1" d="M227.4,136.9h1c0.3,0,0.7-0.4,0.7-0.7v-9c0-0.3-0.4-0.7-0.7-0.7h-1.2v-1.8h4.2c0.4,0,0.5,0.3,0.5,1.2v10.3
				c0,0.4,0.4,0.7,0.7,0.7h1v1.7h-6.4V136.9z M228.9,121.5c0-0.9,0.7-1.6,1.7-1.6c0.9,0,1.7,0.7,1.7,1.6c0,0.9-0.7,1.6-1.7,1.6
				C229.6,123.1,228.9,122.4,228.9,121.5z"/>
			<path class="st1" d="M235.6,127.2c-0.2-0.5-0.6-0.9-1-0.9h-0.5v-1.8h6.2v1.8h-2l3.5,9.4h0.1l3-7.8c0.3-0.9,0.3-1.6-0.7-1.6h-0.7
				v-1.8h5.6v1.8h-0.5c-0.5,0-0.8,0.3-1.1,0.9l-4.6,11.3h-2.7L235.6,127.2z"/>
			<path class="st1" d="M249.1,131.6c0-4.4,2.8-7.2,6.8-7.2c3.9,0,6.2,2.1,6.2,6.7c0,0.4,0,0.8,0,0.9h-10c0.1,3.3,1.5,4.9,4.3,4.9
				c2,0,2.9-0.7,3.6-1.6h1.6v2c-1.1,0.7-2.7,1.5-5.5,1.5C251.5,138.7,249.1,136,249.1,131.6z M259.2,130.3c-0.1-3-1.2-4.1-3.3-4.1
				c-2.1,0-3.5,1.3-3.7,4.1H259.2z"/>
			<path class="st1" d="M264.2,136.9h1c0.4,0,0.7-0.4,0.7-0.7v-9c0-0.3-0.4-0.7-0.7-0.7h-1.1v-1.8h4.1c0.4,0,0.7,0.3,0.7,1.9v0.5
				c1-1.3,2.2-2.4,4.2-2.4c0.3,0,0.6,0,0.8,0.1v2.4h-0.6c-2.1,0-3.4,0.5-4.4,1.4v8.5h2.2v1.7h-6.9V136.9z"/>
			<path class="st1" d="M275,137.9V135h1.7c0.3,1.3,1.2,1.8,3.1,1.8c1.9,0,3.1-0.7,3.1-2.1c0-1.3-1-1.7-3.3-2.1
				c-2.9-0.4-4.4-1.3-4.4-4.1c0-2.6,2-4.2,5.3-4.2c2.2,0,3.6,0.3,4.6,0.7v2.8h-1.7c-0.3-1-1.1-1.5-3-1.5c-1.7,0-2.7,0.7-2.7,1.8
				c0,1.2,0.7,1.7,3.2,2c3.2,0.5,4.7,1.3,4.7,4.1c0,2.7-1.9,4.4-5.7,4.4C277.3,138.7,276,138.3,275,137.9z"/>
			<path class="st1" d="M287.2,136.9h1c0.4,0,0.7-0.4,0.7-0.7v-9c0-0.3-0.3-0.7-0.7-0.7h-1.2v-1.8h4.2c0.4,0,0.5,0.3,0.5,1.2v10.3
				c0,0.4,0.4,0.7,0.7,0.7h1.1v1.7h-6.4V136.9z M288.7,121.5c0-0.9,0.7-1.6,1.7-1.6c0.9,0,1.7,0.7,1.7,1.6c0,0.9-0.8,1.6-1.7,1.6
				C289.4,123.1,288.7,122.4,288.7,121.5z"/>
			<path class="st1" d="M295.6,135.3v-8.9h-1.8v-1.8h1.8v-3.8h2.9v3.8h3.2v1.8h-3.2v8.6c0,1.6,0.5,1.9,1.9,1.9h1.4v1.6
				c-0.5,0.2-1.3,0.3-2.3,0.3C297.1,138.8,295.6,137.9,295.6,135.3z"/>
			<path class="st1" d="M305.6,141.3c1.6-0.5,2.8-1.5,3.9-3.1l-4.7-11c-0.2-0.5-0.6-0.9-1-0.9h-0.5v-1.8h6.2v1.8h-2.1l3.6,8.6
				l2.9-7.1c0.4-0.9,0.3-1.6-0.7-1.6h-0.7v-1.8h5.7v1.8h-0.6c-0.4,0-0.8,0.4-1,0.9l-4.4,10.2c-1.3,3-2.7,4.6-4.1,5.4h-2.4V141.3z"/>
		</g>
	</g>
</g>
</svg>
