<svg xmlns="http://www.w3.org/2000/svg" width="129.12" height="45.108" viewBox="0 0 129.12 45.108"><defs><style>.a{fill:#2394d1;fill-rule:evenodd;}</style></defs><g transform="translate(-283.625 927.054)"><g transform="translate(82.225 -1306.254)"><path class="a" d="M277.305,274.2H279c0,1.476-.025,2.977,0,4.453a3.9,3.9,0,0,1,1.6-1.23,3.79,3.79,0,0,1,3.961,1.156,4.394,4.394,0,0,1,.812,3.887A3.628,3.628,0,0,1,279,284.213v1.181h-1.7Zm3.272,4.674a2.67,2.67,0,0,0-1.575,3,2.4,2.4,0,0,0,2.583,2.116,2.551,2.551,0,0,0,2.214-2.854A2.464,2.464,0,0,0,280.577,278.874ZM203.4,297.351q17.6-11.4,35.157-22.806c4.256,2.755,8.488,5.511,12.769,8.266,1.156-2.657,2.313-5.314,3.494-7.971h1.894l4.65,10.554c-.64,0-1.279,0-1.919-.025-.344-.812-.689-1.575-1.033-2.386h-5.289q-.148.394-.32.763c-.246.574-.509,1.3-.763,1.968,0,0-1.491,0-4.133,0h-.074q-4.625-3-9.275-6.028c-8.931,5.781-17.837,11.612-26.767,17.369-.049,5.191.025,10.358-.025,15.549a20.228,20.228,0,0,1,3.444.2l.664.074c2.854.492,5.732.787,8.586,1.181,1.083.148,2.165.3,3.223.443a19.29,19.29,0,0,0,3.764.541c.59.025,1.181.1,1.771.172q.812.049,1.648.049l-.049.148c.418,0,.861.049,1.3.049l-.025.123c.517,0,1.009.049,1.525.049l-.049.148c.443,0,.886.025,1.329.025,0,.025-.049.123-.049.148.566.025,1.132.049,1.7.049l-.049.148c.443.025.886.049,1.329.049l-.025.123a4.36,4.36,0,0,1,.664.049,14.981,14.981,0,0,0,2.091.418,28.787,28.787,0,0,1-3.567.1H213.241c-.492,0-1.009.025-1.5.049-1.427.025-2.854-.025-4.256,0a1.747,1.747,0,0,1-.172-.861v-16.09q-.787.517-1.575,1.009C204.975,299.786,204.187,298.581,203.4,297.351Zm52.354-20.321q-.935,2.14-1.894,4.305h3.813C257.033,279.908,256.418,278.456,255.754,277.029Zm8.537,1.919a3.351,3.351,0,0,1,2.583-1.722q.025.861.025,1.7a2.75,2.75,0,0,0-1.575.467,2.987,2.987,0,0,0-1.009,2.337c-.025,1.205,0,2.436-.025,3.666h-1.7v-8.02h1.7Zm4.158-.541a4.879,4.879,0,0,1,5.56-.517,2.6,2.6,0,0,1,.959,2.165c.025,1.771,0,3.567.025,5.339h-1.55v-1.058a3.512,3.512,0,0,1-4.6.566,2.361,2.361,0,0,1,0-3.813c1.353-.812,3-.467,4.478-.541a1.729,1.729,0,0,0-.689-1.673,3.6,3.6,0,0,0-3.42.59Q268.817,278.924,268.448,278.407Zm1.771,3.518a1.056,1.056,0,0,0-.1,1.894,2.461,2.461,0,0,0,2.829-.443,2.407,2.407,0,0,0,.344-1.648,10.743,10.743,0,0,0-3.075.2Zm9.62,7.43a1.079,1.079,0,1,1-.32,1.8A1.093,1.093,0,0,1,279.839,289.355Zm22.117.836h1.7V292.7h2.116v1.378h-2.116c0,1.378-.025,2.78,0,4.182a1.092,1.092,0,0,0,.91,1.107,1.5,1.5,0,0,0,1.279-.492q.344.59.689,1.206a3.138,3.138,0,0,1-2.14.763,2.534,2.534,0,0,1-2.411-2.411c-.049-1.452-.025-2.9-.025-4.355h-1.009V292.7h1.009v-2.509Zm-57.594,2.9c-.394-.886-.812-1.747-1.181-2.657h12.006c1.255.025,2.534-.025,3.813.025a3.327,3.327,0,0,1,2.657,1.476,4.905,4.905,0,0,1,.566,3.125,3.313,3.313,0,0,1-3.026,3c-1.476.1-2.952.025-4.4.049v2.632h-2.239v-5.24h6.077a1.5,1.5,0,0,0,.91-.2c.763-.517.615-2.017-.369-2.165C254.228,293.07,249.283,293.168,244.363,293.095Zm22.486-.172a3.564,3.564,0,0,1,1.23-.369q0,.615.025,1.23v.467a3.65,3.65,0,0,0-1.6.467,3.142,3.142,0,0,0-1.009,2.411c-.025,1.206,0,2.411,0,3.617h-1.7V292.7h1.7c0,.541,0,1.058-.025,1.575A4.255,4.255,0,0,1,266.849,292.922Zm2.706,1.771a4.353,4.353,0,0,1,6.052-1.452,4.138,4.138,0,0,1-1.082,7.454,4.713,4.713,0,0,1-2.854-.123,4.158,4.158,0,0,1-2.436-2.583A4.382,4.382,0,0,1,269.556,294.694Zm1.427.861-.049-.049a4.69,4.69,0,0,0-.123,1.845,2.4,2.4,0,0,0,1.7,1.87l-.025.049a3.067,3.067,0,0,0,2.239-.344,2.768,2.768,0,0,0-.025-4.428A2.59,2.59,0,0,0,270.982,295.555Zm12.227-.148a4.015,4.015,0,0,1,3.912-2.829,3.9,3.9,0,0,1,3.592,2.116,6.961,6.961,0,0,1,.32,2.755c-2.116.025-4.232,0-6.323.025.344,2.19,3.518,2.509,4.822.984q.467.541.96,1.058a4.583,4.583,0,0,1-6.4.1A4.488,4.488,0,0,1,283.21,295.407Zm1.5.713c1.55.025,3.1,0,4.65,0a2.256,2.256,0,0,0-.64-1.5c-1.3-1.23-3.961-.394-4.01,1.5Zm8.266-1.575a4.493,4.493,0,0,1,6.815-.713l-.984,1.23a3.023,3.023,0,0,0-3.1-.713,2.456,2.456,0,0,0-1.6,2.632,2.626,2.626,0,0,0,2.559,2.337,3.186,3.186,0,0,0,2.214-1.033q.492.541.984,1.107a4.669,4.669,0,0,1-3.2,1.452,4.035,4.035,0,0,1-3.961-2.436A4.531,4.531,0,0,1,292.977,294.546Zm15.5-1.255a4.425,4.425,0,0,1,4.92.074c-.2.443-.394.861-.615,1.279a3.536,3.536,0,0,0-3.051-.443.694.694,0,0,0,0,1.279,11.334,11.334,0,0,1,3.174,1.23,2.243,2.243,0,0,1,.59,2.436A2.6,2.6,0,0,1,311.4,300.8a5.911,5.911,0,0,1-4.232-1.132l.812-1.329a4.836,4.836,0,0,0,2.829,1.058,1.069,1.069,0,0,0,1.107-.787c.1-.344-.2-.615-.467-.787-1.033-.566-2.313-.615-3.2-1.452a2.062,2.062,0,0,1,.221-3.075Zm-29.055-.59h1.7v8.488a2.687,2.687,0,0,1-1.452,2.485,2.877,2.877,0,0,1-3.124-.541q.369-.615.763-1.255c.615.713,2.042.615,2.091-.492C279.446,298.507,279.4,295.6,279.421,292.7Zm-34.173,2.8h6.569v2.116H246.38Zm1.55,3.1c1.673.049,3.346.025,5.019.025v2.14h-3.863C247.561,300.057,247.167,299.344,246.8,298.605Zm83.057,3.247a2.3,2.3,0,1,1-1.87,1.7,2.3,2.3,0,0,1,1.87-1.7Zm-.271.246a2.117,2.117,0,1,0,2.731,1.821A2.129,2.129,0,0,0,329.585,302.1Zm.467,1.378q.3-.025.615-.025a1.765,1.765,0,0,1-.148.713l-.172-.492a6.735,6.735,0,0,1,.1,1.23h-.369q-.025-.713-.025-1.427Zm1.156.3c-.1-.394.344-.32.59-.32V304.9h-.369a1.993,1.993,0,0,0-.172-1.009Zm-2.608-.32h1.206v.32h-.418V304.9h-.394v-1.132a2.114,2.114,0,0,1-.394-.025Zm-79.244,3.936q3-1.6,6-3.247c-1.255,1.747-1.279,4.01-1.3,6.052a5.211,5.211,0,0,1-.886,3.863c-.271-.344-.541-.664-.812-1.009a2.682,2.682,0,0,0-.2.221,4.764,4.764,0,0,1-1.255.763,2.7,2.7,0,0,1-3.3-1.82,3.6,3.6,0,0,1,0-1.452,3.13,3.13,0,0,1,1.132-1.452q.32-.148.664-.271a4.224,4.224,0,0,1,1.919.148q.271.221.566.418c.1.049.344.148.467.2.221-.344.492-.664.713-.984l.2-.049a2.276,2.276,0,0,0-.861-.812l-.59-.3a3.332,3.332,0,0,0-.984-.2l-.025-.1C250.317,307.364,249.824,307.364,249.357,307.388Zm81.261-3q.1-.221.221-.443l.049.467c.074-.049.221-.2.3-.246.1.246-.049.492-.074.738h-.32a4.237,4.237,0,0,0-.172-.517Zm-19.042.3a1.067,1.067,0,1,1-.394,1.821A1.067,1.067,0,0,1,311.576,304.682Zm-36.19.861q.861-.025,1.7,0v2.509H279.2v1.378q-1.058-.025-2.116-.025c.025,1.378,0,2.731.025,4.109a1.1,1.1,0,0,0,.861,1.181,1.528,1.528,0,0,0,1.329-.467c.246.394.467.787.689,1.206a3.311,3.311,0,0,1-1.845.763,2.623,2.623,0,0,1-2.731-2.878v-3.912H274.4v-1.353h1.009C275.411,307.216,275.411,306.38,275.386,305.543Zm29.793,2.509c0-.836-.025-1.673,0-2.509h1.7q-.025,1.255,0,2.509h2.091v1.378q-1.058-.025-2.091-.025c0,1.378-.025,2.731,0,4.084a1.118,1.118,0,0,0,.836,1.206,1.551,1.551,0,0,0,1.353-.467c.246.394.467.812.689,1.206a3.25,3.25,0,0,1-2.067.763,2.605,2.605,0,0,1-2.509-2.682c-.025-1.378,0-2.731,0-4.109h-1.009v-1.353Zm-49.106,1.206a4.384,4.384,0,0,1,6.1-.2,3.939,3.939,0,0,1,1.255,2.682v.738A4.032,4.032,0,0,1,260.551,316a4.9,4.9,0,0,1-2.313.1,4.069,4.069,0,0,1-3.026-2.706A4.16,4.16,0,0,1,256.073,309.258Zm2.263.32a2.727,2.727,0,0,0-1.009,4.281,2.617,2.617,0,0,0,3.247.467,2.777,2.777,0,0,0,.861-3.617A2.593,2.593,0,0,0,258.337,309.578Zm7.036-1.525h1.673v1.4a8.646,8.646,0,0,1,.763-.861,2.992,2.992,0,0,1,4.945,2.509v4.97h-1.7V311.5a2.018,2.018,0,0,0-.886-1.821,2.275,2.275,0,0,0-2.362.271,2.111,2.111,0,0,0-.738,1.722c-.025,1.476,0,2.928-.025,4.4h-1.673Zm17.566,1.575a3.454,3.454,0,0,1,2.608-1.722c0,.566,0,1.132.025,1.7a2.912,2.912,0,0,0-1.648.517,3.156,3.156,0,0,0-.96,2.46c-.025,1.156,0,2.337,0,3.494h-1.7v-8.02h1.7c0,.541,0,1.058-.025,1.575Zm4.256-.541a4.781,4.781,0,0,1,5.659-.418,2.848,2.848,0,0,1,.886,2.263v5.142h-1.55V315.04a3.564,3.564,0,0,1-4.5.64,2.537,2.537,0,0,1-.812-3.174,2.722,2.722,0,0,1,2.067-1.206c1.033-.123,2.091-.049,3.124-.074a1.7,1.7,0,0,0-.713-1.673,3.617,3.617,0,0,0-3.4.59q-.394-.541-.763-1.058Zm1.771,3.518a1.075,1.075,0,0,0-.1,1.919,2.507,2.507,0,0,0,2.829-.467c.418-.443.32-1.082.344-1.648A11.7,11.7,0,0,0,288.967,312.6Zm7.085-2.632a4.482,4.482,0,0,1,6.864-.787l-.984,1.23a3.368,3.368,0,0,0-2.14-.91,2.515,2.515,0,0,0-2.559,2.337,2.612,2.612,0,0,0,2.386,2.8,3.077,3.077,0,0,0,2.386-1.009l.984,1.083a4.737,4.737,0,0,1-3.371,1.476,4,4,0,0,1-3.936-2.9,4.564,4.564,0,0,1,.369-3.321Zm14.983-1.919h1.7v8.02h-1.7Zm4.133,0h1.7q0,.713-.025,1.427a3.213,3.213,0,0,1,4.428-1.083,3.016,3.016,0,0,1,1.279,2.534c.025,1.722,0,3.42,0,5.142h-1.7c0-1.525.025-3.051,0-4.6a1.984,1.984,0,1,0-3.961-.2c-.074,1.6,0,3.2-.025,4.8h-1.7Zm10.677.615a3.4,3.4,0,0,1,4.8.541q-.025-.566-.025-1.156h1.7c0,2.436.025,4.871,0,7.282a3.953,3.953,0,0,1-1.55,3.247,5.166,5.166,0,0,1-5.831-.394q.394-.664.787-1.3a4.281,4.281,0,0,0,2.19.886,2.642,2.642,0,0,0,2.386-.96,4.7,4.7,0,0,0,.418-2.608,3.319,3.319,0,0,1-4.847.812A4.184,4.184,0,0,1,325.846,308.668Zm1.8.713a2.4,2.4,0,0,0-1.55,1.944,2.314,2.314,0,1,0,4.527.123,2.335,2.335,0,0,0-2.977-2.067Zm-81.261,4.182a3.767,3.767,0,0,0,1.575,1.648,5.431,5.431,0,0,0,2.8.394,38.392,38.392,0,0,1-4.109.123A21.671,21.671,0,0,1,246.38,313.564Z" transform="translate(-2 105)"/></g></g></svg>