<?xml version="1.0" encoding="utf-8"?>
<!-- Generator: Adobe Illustrator 27.7.0, SVG Export Plug-In . SVG Version: 6.00 Build 0)  -->
<svg version="1.1" id="Layer_1" xmlns="http://www.w3.org/2000/svg" xmlns:xlink="http://www.w3.org/1999/xlink" x="0px" y="0px"
	 viewBox="0 0 814.3 795.9" style="enable-background:new 0 0 814.3 795.9;" xml:space="preserve">
<style type="text/css">
	.st0{fill:#1C345E;}
</style>
<g>
	<path class="st0" d="M286.7,248.3c0,2.3,0,4.2,0,6.1c0,50.1,0,100.2,0,150.2c0,6.2,2.7,10.8,8.1,13.5c5.3,2.7,10.9,2.4,15.2-1.7
		c2.6-2.4,4.1-6.1,5.5-9.4c0.8-1.8,0.3-4.2,0.3-6.3c0-49.2,0-98.3,0-147.5c0-1.9,0-3.8,0-6c27.4,0,54.1,0,81.2,0
		c0,69.2,0,138.2,0,207.9c-1.8,0-3.6,0-5.3,0c-65.6,0-131.2,0-196.8,0.1c-4.5,0-5.9-1.1-5.8-5.8c0.2-30.2,0-60.3,0.1-90.5
		c0.2-55.2,41-102.5,95.4-110.8C284.9,248.2,285.4,248.3,286.7,248.3z"/>
	<path class="st0" d="M417.2,226.2c0-69.4,0-138.2,0-207.5c16.4,0,32.6,0,48.1,0c-0.3,6.1-0.8,12-0.8,18c-0.1,45.4,0,90.8,0,136.2
		c0,11.6,5.3,16.9,16.8,16.9c28.2,0,56.4,0,84.6,0c6.1,0,10.6-3.5,11.4-8.8c0.9-5.3-1.8-10.3-6.7-11.9c-2.2-0.7-4.7-0.8-7.1-0.8
		c-18.9-0.1-37.7,0-56.6,0c-12.4,0-18.4-5.9-18.4-18.2c0-39.1,0-78.1,0-117.2c0-4.6-0.6-9.2-1-14.2c-0.3,0.3-0.1-0.1,0.1-0.1
		c23.1-0.7,46.2-1.5,68,8.3c41,18.4,64.4,49.8,69.1,94.7c1,9.4,0.5,19,0.5,28.5c0.1,23.5,0,47.1,0,70.6c0,1.8,0,3.6,0,5.6
		C555.6,226.2,486.6,226.2,417.2,226.2z"/>
	<path class="st0" d="M320.6,18.6c25.8,0,50.9,0,76.4,0c0,69.3,0,138.3,0,207.6c-0.9,0.1-1.9,0.4-2.9,0.4
		c-34.8,0-69.7,0.4-104.5-0.2c-48.9-0.7-91.9-39.1-99-87.5c-8-54.4,24.6-103.8,77.6-117.3c7.2-1.8,14.8-2.5,22.4-2.8
		c-0.7,0.4-1.3,0.9-2,1.1c-30.9,7.6-49.6,27.4-56.5,58.1c-5.1,22.9-5,45.9,4.1,68c10.7,26.2,30.7,40.6,58.9,43.4
		c17.8,1.8,34.6-0.6,49.6-11c13.4-9.3,22-22.2,26.7-37.6c2-6.5-1.3-12.6-7.5-14.3c-5.9-1.7-11.8,1.5-13.7,7.9
		c-4.3,14.6-12.1,26.4-26.9,31.9c-23.3,8.6-57.6,3.7-67.7-36.7c-5-20-4.5-40.1,3.1-59.5c7.8-19.9,24.6-30.8,46-31.1
		c13.9-0.2,26.9,2.3,36.7,12.9c3.7,4,6.1,9.2,8.6,14.1c2.6,5,7,7.6,13,6.7c4.8-0.7,8.8-4.7,9.1-9.8c0.1-2.3-0.5-4.8-1.4-7
		c-8.4-20.4-24.6-30.8-45.3-35.6c-1-0.2-2.1-0.4-3.1-0.7C321.9,19.3,321.5,19.1,320.6,18.6z"/>
	<path class="st0" d="M418.8,247.1c2.3,0,3.8,0,5.3,0c33.3,0,66.7-0.4,100,0.2c10.5,0.2,21,3.2,31.5,5c1.4,0.2,2.6,1,3.2,1.2
		c-9.5-0.7-19.7-2.3-29.8-2.2c-20.4,0.2-39,5.9-53.9,20.6c-13,12.8-19.6,28.7-21.9,46.5c-2.7,20.3-1.8,40.4,6.5,59.5
		c10.4,24.1,29.2,37.8,54.8,42.1c20.4,3.4,40.2,1.4,59.1-7.7c1.1-0.5,3-0.5,3.9,0.2c5.9,4.4,11.6,9,17.7,13.7
		c-10.9,10.5-23.2,18-37.2,23c-11.5,4.1-23.3,6-35.5,6c-32.7,0.1-65.5-0.1-98.2,0.1c-4.3,0-5.6-1.1-5.6-5.5
		c0.1-65.8,0.1-131.5,0.1-197.3C418.8,250.9,418.8,249.3,418.8,247.1z"/>
	<path class="st0" d="M573.2,386.7c-6-4.6-10.8-8.4-15.7-12.2c-4.8-3.7-10-3.4-13.2,0.7c-3.1,4-2.2,8.8,2.4,12.6
		c3.1,2.6,6.3,5.1,9.5,7.7c0.2,0.2,0.3,0.5,0.6,1.2c-6.8,4-14.4,5-21.9,5.2c-33.1,0.8-55.8-19.5-59-52.6
		c-1.6-16.3-1.1-32.3,5.4-47.5c8.7-20.3,24.5-30.7,46.4-32c17.1-1,32.7,2.7,45,15.7c8.8,9.3,13.3,20.7,15.2,33.2
		c2.7,17.6,2,34.9-5,51.5C580.3,375.8,576.6,380.8,573.2,386.7z"/>
	<path class="st0" d="M82.1,753.4c2.2,0,3.7,0,5.2,0c24.7,0,49.5,0,74.2,0c6.3,0,6.5-0.2,6.5-6.7c0-7.7,0.1-15.4,0-23.1
		c0-2.7,0.8-3.9,3.6-3.7c3.1,0.2,6.3,0,10.1,0c0,8,0,15.5,0,23c0,11.7-1.1,10.5,10.3,10.5c2.3,0,4.5,0,6.8,0
		c5.5-0.1,6.3-0.8,6.3-6.3c0-15.4,0-30.8,0-46.2c0-1,0.1-2.1,0.2-3.6c4.2,0,8.3,0,13,0c0.1,1.6,0.2,3.3,0.2,5.1
		c0,14.8,0,29.6,0,44.4c0,5.9,0.7,6.6,6.5,6.6c30.3,0,60.6,0,91,0c5.7,0,6.4-0.8,6.5-6.6c0-1.5,0-3,0-4.5c-0.1-3.5-1.7-5.3-5.3-5.2
		c-6,0.1-12.1,0.1-18.1,0c-10.1-0.1-17.3-7.3-17.7-17.4c-0.2-5.8-0.1-11.5,3.9-16.3c3.2-3.8,7.2-5.9,12.1-6.4
		c1.2-0.1,2.4-0.1,3.6-0.1c7.1,0,14.2,0,21.6,0c0,4.5,0,8.7,0,13.5c-7,0-13.9,0-20.8,0c-6.2,0-9.5,5.3-6.3,10.7
		c0.8,1.3,3.2,2.1,4.9,2.2c5.6,0.3,11.2,0.1,16.7,0.1c11.6,0.1,18.6,7.1,18.7,18.6c0,3.3,0.1,6.7-0.2,9.9
		c-0.8,7.9-7.8,14.8-15.8,14.8c-32.9,0.1-65.8,0.4-98.7-0.2c-6.1-0.1-11.8-1.6-18.3-0.1c-6.6,1.6-14,1.2-20.7,0
		c-5.2-0.9-9.9-2.1-14.9,0.2c-1.1,0.5-2.7,0.1-4,0.1c-44.5,0-89,0-133.5,0c-11.8,0-18.9-6.9-19.1-18.7c-0.1-4.8,0-9.7,0-14.5
		c0-2.2,0.7-3.3,3.1-3.3c3.3,0.1,6.6,0,10.4,0c0,5.8,0,11.2,0,16.6c0,5.3,0.8,6.2,5.9,6.2c11,0,22-0.1,33,0.1c4.4,0.1,5.9-1.9,5.8-6
		c-0.1-16.6,0-33.2,0-50.1c4.4,0,8.5,0,13.1,0C82.1,715.8,82.1,734.2,82.1,753.4z"/>
	<path class="st0" d="M524.6,790.1c0-4.8,0-8.8,0-13.4c3,0,5.8,0,8.6,0c8.5,0,9-0.6,8.2-9.7c-5.3,0-10.7,0-16.1,0
		c-10.6-0.1-17.8-7.2-18-17.9c-0.1-3.5,0-6.9,0-10.4c0.1-10.6,6-17.5,16.5-18.5c4.9-0.5,10-0.5,14.9,0c10.4,1,16.4,8,16.5,18.5
		c0.1,4.7,0,9.3,0,14.4c27,0,53.6,0,80.7,0c0-4.7,0-9.3,0-14c0-11.3,6.6-18.6,17.9-19.1c6.6-0.3,13.3,0,19.9-0.1
		c2.2,0,3.4,0.5,3.3,3c-0.1,3.3,0,6.6,0,10.5c-7.2,0-14.1,0-21,0c-5.7,0-6.5,0.8-6.5,6.6c0.1,14.9-2,13.3,13.2,13.3
		c24.4,0,48.9,0,73.3,0c8.2,0,8.2,0,8.2-8.4c0-8.1,0-16.3,0-24.7c4.6,0,8.7,0,13.3,0c0,9.3,0,18.3,0,27.3c0,3.2,0.6,5.7,4.6,5.8
		c4.3,0.2,5.8-1.1,5.9-5.4c0.1-8,0.1-16,0-24c-0.1-3.1,0.9-4.3,4.1-4.2c11.3,0.3,9.2-1.3,9.4,9.3c0.1,6.3,0.1,12.7,0,19
		c0,3.5,1.4,5.3,5.1,5.3c3.7,0,5.1-1.7,5-5.3c-0.1-9.2,0-18.3,0-27.9c4.6,0,8.7,0,13.3,0c0.1,1.5,0.3,2.9,0.3,4.4
		c0,7.7-0.3,15.4,0.1,23.1c0.7,14.5-12.8,23.5-27.3,17.5c-2.5-1-4.1-1.1-6.6,0c-5.7,2.6-11.7,2.4-17.5,0c-1.4-0.6-3.1-0.8-4.5-0.6
		c-3.8,0.6-7.6,2.1-11.3,2.1c-59,0.1-118,0.1-177,0.1c-1.8,0-3.6,0-5.8,0c0.3,8.2-0.8,15.6-8,20.2
		C540.4,791.7,532.6,790,524.6,790.1z M541.8,753.4c0-5.6,0.3-10.4-0.2-15.1c-0.2-1.7-2.2-4.2-3.8-4.5c-14.3-3-18.5,0.9-16.9,15.4
		c0,0.3-0.1,0.7,0.1,0.9c1.2,1.2,2.3,3.2,3.6,3.3C530.2,753.6,535.8,753.4,541.8,753.4z"/>
	<path class="st0" d="M786.4,647.3c6.7-0.3,13.5-0.7,20.6-1c0,3.8,0,7.2,0,11.2c-5.3,0-10.7-0.1-16.1,0c-11.9,0.2-23.8,0.7-35.7,0.8
		c-21.4,0.1-36.7-11.5-42.4-32.3c-4.6-17-4.3-33.8,3.7-49.8c7.7-15.3,20.7-22.5,37.6-23.2c14.9-0.7,28.3,2.8,38.1,14.8
		c10.1,12.3,12.1,26.9,10.9,42.2C802.1,624.3,797.5,637,786.4,647.3z M724.3,605.8c0.9,5.8,1.3,11.7,2.7,17.4
		c3.4,14.4,13.4,23.5,26.6,24.7c13.5,1.3,24.9-4.8,30.3-17.5c7.1-16.5,7.1-33.5,0-50.1c-4.7-10.9-13.7-16.4-25.7-16.8
		c-12.3-0.4-21.5,4.8-27.5,15.6C726,587.3,724.8,596.4,724.3,605.8z"/>
	<path class="st0" d="M311.3,658.4c0-35.4,0-69.1,0-102.8c0.6-0.2,1-0.6,1.3-0.6c14.9,0.2,29.9-0.2,44.7,0.9
		c21.2,1.6,36,16.2,37.9,37.5c0.9,9.5,0.8,19.3-0.9,28.7c-3.3,18-14.7,30.2-32.7,33.1C345.2,657.7,328.4,657.4,311.3,658.4z
		 M325.3,648c11.2-0.9,22.2-1,32.9-3c11-2.1,18.2-9.7,21.2-20.6c3.1-11.4,3.4-22.9,0.3-34.4c-3.1-11.2-9.5-20.2-21.1-22.6
		c-10.7-2.3-22-2.1-33.3-3.1C325.3,592.6,325.3,619.7,325.3,648z"/>
	<path class="st0" d="M91.6,657.4c1-2.6,1.7-4.7,2.5-6.8c12.5-31,25.1-61.9,37.6-93c1.1-2.8,2.5-3.9,5.6-3.8
		c11.2,0.1,11.2,0,15.6,10.4c12.4,29.4,24.7,58.8,37.1,88.3c0.6,1.4,1.1,2.8,1.9,4.8c-5.1,0-9.7,0.2-14.2-0.1
		c-1-0.1-2.3-1.7-2.8-2.9c-2.9-6.9-5.7-13.9-8.3-21c-0.9-2.4-2.1-3.2-4.6-3.1c-14.2,0.1-28.4,0.1-42.5,0c-2.6,0-3.7,0.9-4.6,3.2
		c-2.6,7.1-5.2,14.1-8.2,21c-0.6,1.3-2.6,2.7-4.1,2.9C99.1,657.7,95.7,657.4,91.6,657.4z M120.1,619.7c13.8,0,27.1,0,40.9,0
		c-6.9-17.5-13.6-34.5-20.8-52.6C133.2,585.5,126.7,602.5,120.1,619.7z"/>
	<path class="st0" d="M216.8,554.2c0,2.2,0,4,0,5.8c0.1,21.4-0.1,42.8,0.3,64.3c0.2,14.7,10.2,24,25.3,24.6
		c15.5,0.6,26.2-7.8,28.1-22.2c0.5-3.6,0.7-7.2,0.7-10.8c0.1-20.4,0-40.7,0-61.5c4.6,0,9,0,13.7,0c0.1,0.8,0.3,1.7,0.3,2.5
		c0,21.7,0.2,43.4-0.3,65.2c-0.5,22.8-15.6,37.2-38.5,37.2c-5.4,0-10.9-0.1-16.2-1.1c-16.6-3.2-27-14.7-27.6-32.8
		c-0.8-23.2-0.4-46.4-0.4-69.7c0-0.4,0.2-0.8,0.4-1.4C207.1,554.2,211.6,554.2,216.8,554.2z"/>
	<path class="st0" d="M8.9,630.2c5,0,9.5,0,13.9,0c4.8,18.2,26.4,25,41.2,13.2c8.5-6.8,8.5-18.5-0.6-24.6c-4.6-3-10-4.7-15.2-6.6
		c-5.5-2.1-11.2-3.5-16.7-5.6c-14-5.2-20.5-14-19.8-26.4c0.7-12.9,8.7-22,22.9-25.6c10.7-2.7,21.6-2.6,32,1.4
		c10.2,3.9,16.2,13.1,15.3,23.6c-3.8,0-7.7,0.2-11.6-0.1c-0.9-0.1-2.2-1.5-2.4-2.4c-1.9-8.5-7.5-12.3-15.6-13.3
		c-6.4-0.8-12.7-0.1-18.4,3.1c-10.2,5.7-10.8,18.6-0.8,24.6c5,3,10.7,4.7,16.2,6.8c6,2.3,12.3,4.1,18.2,6.6
		c9.8,4.2,16.4,10.9,16.9,22.4c0.5,12.5-4.6,21.8-15.7,27.2c-13.5,6.5-27.8,6.9-41.7,1.7C15.4,651.8,9.9,642.7,8.9,630.2z"/>
	<path class="st0" d="M560.3,630.2c4.9,0,9.6,0,14.5,0c-0.6,8.8-4,16-10.7,21.3c-19.4,15.6-54.2,8.3-65.7-13.7
		c-4.9-9.3-6.4-19.4-6.5-29.7c-0.1-12.8,2.4-24.8,9.3-35.8c14.6-23.2,44.9-23.3,60.7-12.9c7.6,5,12,12,12.2,21.9
		c-4.4,0-8.6,0.1-12.8-0.1c-0.7,0-1.7-1.1-2.1-1.9c-5-12.1-13.1-16.7-25.8-14.7c-11.9,1.8-19,9.3-23,20c-5.4,14.2-5.4,28.7-0.6,43
		c5.2,15.2,17.8,22.5,33.2,19.8C552.6,645.7,558.5,640.3,560.3,630.2z"/>
	<path class="st0" d="M445.2,764c-4.5,0-8.4,0-12.9,0c0-6.3,0-12.4,0-18.5c0-4.5,0-9,0-13.6c0-3.7-1.8-5.6-5.5-5.6c-1.5,0-3,0-4.5,0
		c-4.1-0.1-6.1,1.7-6,6c0.1,9.7,0.1,19.3,0,29c0,10.9-7.2,18.2-18,18.4c-7.1,0.1-14.2,0.1-21.3,0c-9.7-0.2-17.1-6.6-17.5-16.1
		c-0.5-11.4-0.1-22.9-0.1-34.4c0-0.6,0.3-1.1,0.6-1.9c4.1,0,8.1,0,12.9,0c0,3.6,0,7.2,0,10.7c0,7.4,0.1,14.8,0,22.2
		c-0.1,4.3,1.7,6,6,5.9c6-0.2,12.1-0.2,18.1,0c4.2,0.1,6-1.6,6-5.9c-0.1-9,0.3-18.1-0.1-27.1c-0.5-11.9,8-21.1,19.7-19.9
		c2.5,0.3,5.1-0.1,7.7,0.1c7.2,0.4,14.6,6.3,15,13.4C445.6,738.9,445.2,751.2,445.2,764z"/>
	<path class="st0" d="M659.4,657.2c-21.2,0-42.3,0-63.7,0c0-34.2,0-68.3,0-102.8c4.2,0,8.6,0,13.5,0c0,30.7,0,61.4,0,92.6
		c16.9,0,33.4,0,50.2,0C659.4,650.5,659.4,653.6,659.4,657.2z"/>
	<path class="st0" d="M606.2,413.1c-5.4-4.3-10.5-8.5-16.1-13c16.6-18.8,22.5-41,22.2-65.2c-0.3-24.1-6.1-46.2-24.5-64.5
		C631.2,302.2,640.5,370.2,606.2,413.1z"/>
	<path class="st0" d="M430.6,657.2c-4.5,0-8.7,0-13.3,0c0-34.3,0-68.5,0-103c4.4,0,8.7,0,13.3,0
		C430.6,588.5,430.6,622.6,430.6,657.2z"/>
	<path class="st0" d="M689.6,657.2c-4.5,0-8.7,0-13.3,0c0-34.3,0-68.5,0-103c4.4,0,8.7,0,13.3,0
		C689.6,588.5,689.6,622.6,689.6,657.2z"/>
	<path class="st0" d="M456.1,767c0-4.7,0-8.7,0-13.5c4.1,0,8.1,0,12.1,0c3.5,0,6.9,0,10.4,0c3.4,0,5-1.5,5-4.9c0-3.2,0-6.3,0-9.5
		c0.1-3.8-1.8-5.6-5.5-5.6c-5.4,0-10.8,0-16.6,0c0-4.4,0-8.5,0-12.9c7.4,0,14.8-0.5,22,0.2c6.9,0.7,12.7,7.6,13.2,14.7
		c0.3,5.4,0.4,10.9,0,16.2c-0.5,7.9-7.2,14.7-14.9,15.1c-6.9,0.4-13.9,0.1-20.8,0.1C459.6,767,458.1,767,456.1,767z"/>
	<path class="st0" d="M52.2,704.6c-3.2,2.5-8.6-1.5-8.5,4.1c0.1,5.6,5.6,1.1,8.4,4c0.8,2.1,0.2,3.7-3.4,3.5c-3-0.1-6-0.1-9,0
		c-2.8,0-2.9-1.7-2.4-3.6c0.5-2.1,1.3-4.1,1.7-6.2c0.9-4.5,8.9-7.8,12.4-4.9C52.1,702,52,703.7,52.2,704.6z"/>
	<path class="st0" d="M419.2,775c3.9,0.2,6.5,3.3,6.3,7.3c-0.2,3.8-3.4,6.6-7.3,6.4c-3.7-0.3-6.6-3.6-6.4-7.4
		C412.1,777.5,415.3,774.7,419.2,775z"/>
	<path class="st0" d="M445.1,781.8c0,3.7-3.2,6.9-7,6.9c-3.8,0-6.8-3.1-6.8-6.9c0-3.9,2.9-6.8,6.9-6.8
		C442,775,445.1,778,445.1,781.8z"/>
	<path class="st0" d="M172,783.4c0,3.9-3,6.8-6.9,6.8c-3.7,0-6.9-3.2-6.8-7c0-3.8,3.1-6.7,7-6.7C169.2,776.6,172,779.5,172,783.4z"
		/>
	<path class="st0" d="M184.5,776.5c4,0,6.9,2.8,6.9,6.8c0,3.8-3,6.9-6.8,6.9c-3.9,0-6.8-2.9-6.9-6.8
		C177.7,779.4,180.5,776.5,184.5,776.5z"/>
</g>
</svg>
