<?xml version="1.0" encoding="utf-8"?>
<!-- Generator: Adobe Illustrator 27.7.0, SVG Export Plug-In . SVG Version: 6.00 Build 0)  -->
<svg version="1.1" id="Layer_1" xmlns="http://www.w3.org/2000/svg" xmlns:xlink="http://www.w3.org/1999/xlink" x="0px" y="0px"
	 viewBox="0 0 370.8 149.4" style="enable-background:new 0 0 370.8 149.4;" xml:space="preserve">
<style type="text/css">
	.st0{fill:#FCD729;}
	.st1{fill:#454545;}
</style>
<g>
	<g>
		<g>
			<path class="st0" d="M368.3,74.6c-0.3,39.9-30.9,70.2-68,72.4c-21.5,1.3-40.2-5.9-55.6-21c-12.6-12.5-19.8-27.8-21.2-45.5
				c-1.7-22.1,5.6-41.3,21.1-57.1C257.1,10.8,272.4,3.8,290,2.5c21-1.5,39.4,4.7,54.9,19C360.8,36,368,54.7,368.3,74.6z
				 M297.8,142.7c17.7-0.4,34.7-7.5,48.2-22.2s19.1-32.2,17.6-52C361.1,36.9,334.5,6.9,296,6.7c-18.7-0.1-34.8,6.6-48.1,19.8
				c-14.4,14.4-21.1,32-20,52.3C229.6,112,257.2,142.5,297.8,142.7z"/>
		</g>
		<g>
			<path class="st0" d="M285.4,39.5c-9,0-17.8,0-26.7,0c0-4.2,0-8.2,0-12.5c16.3,0,32.8,0,49.3,0c-0.2,0.5-0.5,1-0.7,1.5
				c-3.7,7.2-7.6,14.4-11.2,21.7c-4.8,9.9-9.5,20-13.9,30.1c-1.9,4.4-3.2,9.2-4.2,13.9c-2,9.8,4.3,21.7,15.2,24.8
				c7.4,2.1,13.6-0.4,18.8-5.7c4.8-4.9,6.6-10.8,6.1-17.4c-0.5-7.2-2.9-14-6.2-20.4c-0.3-0.6-0.6-1.2-1-1.9c0.5,0,1-0.1,1.4-0.1
				c4.2,0,8.4,0,12.6,0c1,0,1.6,0.2,1.9,1.2c1.5,5.1,2.9,10.2,4.5,15.2c1.2,3.7,1.1,7.6,0.8,11.3c-1,15.3-12.2,30-27.1,32.9
				c-12.3,2.4-22.7-1.2-31.2-10.3c-5.2-5.5-8.5-12-9.6-19.4c-0.6-4.1-0.4-8.4,0.2-12.6c1.1-9.6,5.6-18,9.3-26.6
				c3.5-8.1,7.3-16,11-23.9C284.8,40.8,285,40.3,285.4,39.5z"/>
		</g>
	</g>
	<g>
		<path class="st1" d="M27,128.4c-3.5,0-5.3,1.8-5.3,5.3c0,3.6,1.8,5.4,5.3,5.4c3.4,0,5.2-1.8,5.2-5.4
			C32.2,130.2,30.5,128.4,27,128.4z"/>
		<path class="st1" d="M40.7,128.4c-3.5,0-5.3,1.8-5.3,5.3c0,3.6,1.8,5.4,5.3,5.4c3.4,0,5.2-1.8,5.2-5.4
			C45.9,130.2,44.1,128.4,40.7,128.4z"/>
		<path class="st1" d="M98.2,40.6c3.4,0,5.2-1.8,5.2-5.4c0-3.5-1.7-5.3-5.2-5.3s-5.3,1.8-5.3,5.3C92.9,38.8,94.6,40.6,98.2,40.6z"/>
		<path class="st1" d="M111.9,40.6c3.4,0,5.2-1.8,5.2-5.4c0-3.5-1.7-5.3-5.2-5.3s-5.3,1.8-5.3,5.3C106.8,38.8,108.4,40.6,111.9,40.6
			z"/>
		<path class="st1" d="M129.9,110.3c-3.5,0-5.3,1.8-5.3,5.3c0,3.6,1.8,5.4,5.3,5.4c3.4,0,5.2-1.8,5.2-5.4
			C135.1,112.1,133.3,110.3,129.9,110.3z"/>
		<path class="st1" d="M143.6,110.3c-3.5,0-5.3,1.8-5.3,5.3c0,3.6,1.8,5.4,5.3,5.4c3.4,0,5.2-1.8,5.2-5.4
			C148.8,112.1,147.1,110.3,143.6,110.3z"/>
		<path class="st1" d="M141.8,80.1c0,7.2-3.5,10.8-10.5,10.8h-0.6h-6.5h-0.6c-7,0-10.5-3.6-10.5-10.8V52.9l-9.3,5v22.2
			c0,7.2-3.5,10.8-10.5,10.8h-0.6h-6.5h-6h-6.5h-6.8h-5.7H50.6l-4.5,8.7h10.8c-0.9,3.7-3.3,6.7-7.3,8.8c-4,2.2-9.1,3.2-15.3,3.2
			c-7.3,0-13-1.8-17.1-5.5C13,102.4,11,97.4,11,91c0-5.9,1.6-11.4,4.8-16.5l-8.9,1.9c-3,4.3-4.5,9.5-4.5,15.5
			c0,7.2,2.1,13.2,6.3,18.1c5.7,6.6,14.3,9.9,25.6,9.9c8.9,0,16.2-1.8,22-5.3c6.2-3.8,9.6-8.9,10.3-15.2H67h6.8h6.5h6h6.5h1.7
			c6,0,10.7-1.9,14.1-5.7c3.4,3.8,8.1,5.7,14.1,5.7h1.7h6.5h1.7c5.5,0,9.9-1.6,13.2-4.7c3.7-3.5,5.5-8.3,5.5-14.4V52.8l-9.3,5v22.3
			H141.8z"/>
		<path class="st1" d="M188.2,39.9c3.4,0,5.2-1.8,5.2-5.4c0-3.5-1.7-5.3-5.2-5.3s-5.3,1.8-5.3,5.3C183.1,38.1,184.8,39.9,188.2,39.9
			z"/>
		<path class="st1" d="M184.1,94.5c0,5.5-1.3,9.7-3.9,12.8c-2.6,3.1-6.2,4.6-10.8,4.6c-3.7,0-7.3-1-11-3v8.1
			c4.1,2.2,8.3,3.2,12.6,3.2c6.7,0,12-2.3,16-7c4.2-4.9,6.3-11.3,6.3-19.4v-41l-9.4,5v36.7H184.1z"/>
	</g>
</g>
</svg>
