<svg version="1.2" xmlns="http://www.w3.org/2000/svg" viewBox="0 0 339 279" width="339" height="279">
	<title>logo-svg</title>
	<defs>
		<clipPath clipPathUnits="userSpaceOnUse" id="cp1">
			<path d="m-424-187h1190.6v637.8h-1190.6z"/>
		</clipPath>
		<clipPath clipPathUnits="userSpaceOnUse" id="cp2">
			<path d="m766.6 470.8h1231.5v644.8h-1231.5z"/>
		</clipPath>
		<clipPath clipPathUnits="userSpaceOnUse" id="cp3">
			<path d="m750.2 281.5h1263.2v842.1h-1263.2z"/>
		</clipPath>
		<clipPath clipPathUnits="userSpaceOnUse" id="cp4">
			<path d="m750.2 281.5h1263.2v842.1h-1263.2z"/>
		</clipPath>
		<clipPath clipPathUnits="userSpaceOnUse" id="cp5">
			<path d="m-424-187h1190.6v637.8h-1190.6z"/>
		</clipPath>
		<clipPath clipPathUnits="userSpaceOnUse" id="cp6">
			<path d="m-471.4-845.9h1245.5v651.9h-1245.5z"/>
		</clipPath>
		<clipPath clipPathUnits="userSpaceOnUse" id="cp7">
			<path d="m-424-922.7h1190.6v793.7h-1190.6z"/>
		</clipPath>
		<clipPath clipPathUnits="userSpaceOnUse" id="cp8">
			<path d="m-424-922.7h1190.6v793.7h-1190.6z"/>
		</clipPath>
		<clipPath clipPathUnits="userSpaceOnUse" id="cp9">
			<path d="m-424-187h1190.6v637.8h-1190.6z"/>
		</clipPath>
		<clipPath clipPathUnits="userSpaceOnUse" id="cp10">
			<path d="m780.5-857.6h1214.6v653.6h-1214.6z"/>
		</clipPath>
		<clipPath clipPathUnits="userSpaceOnUse" id="cp11">
			<path d="m743.5-937.1h1233.6v822.4h-1233.6z"/>
		</clipPath>
		<clipPath clipPathUnits="userSpaceOnUse" id="cp12">
			<path d="m743.5-937.1h1233.6v822.4h-1233.6z"/>
		</clipPath>
	</defs>
	<style>
		.s0 { fill: #feda00 } 
		.s1 { fill: #263c7c } 
		.s2 { fill: #263c7d } 
	</style>
	<g id="Layer">
		<path id="Layer" class="s0" d="m85.5 128.8c13.5-5.3 27.7-8.4 42-10.5 3.6-0.5 7.2-1.1 10.8-1.4l5.4-0.5 2.7-0.3 2.7-0.2 10.9-0.6 10.9-0.1h2.7l2.7 0.1 5.4 0.2c3.6 0.2 7.2 0.2 10.9 0.6l10.8 1c3.6 0.4 7.2 1 10.8 1.6 3.6 0.6 7.2 1 10.7 1.8l10.6 2.3c3.5 0.7 7 1.8 10.5 2.8 3.5 1 6.9 2 10.4 3.1-3.6-0.5-7.2-1-10.7-1.5-3.6-0.5-7.1-1.2-10.7-1.5-7.1-0.8-14.2-1.9-21.3-2.4-14.2-1.5-28.5-2-42.7-2.2h-10.7l-10.7 0.3-2.7 0.1-2.7 0.2-5.3 0.3c-3.6 0.2-7.1 0.5-10.7 0.8-14.3 1.4-28.5 3.2-42.7 6z"/>
		<path id="Layer" class="s0" d="m224.1 122.7l-26.1-52.6c-1.8-3.6-4.7-6.6-8.3-8.3l-19.1-9.2-20.9 9.3c-3.9 1.8-7.1 4.9-8.9 8.8l-23.6 51.7-4.2-1.9 23.6-51.7c2.3-4.9 6.3-8.9 11.2-11.1l22.9-10.2 21 10.1c4.6 2.2 8.3 5.9 10.5 10.4l26.1 52.7z"/>
		<path id="Layer" class="s0" d="m119 122.1l-1.5-4.4c38.9-13.3 50.7-65.2 50.8-65.7l4.5 1c-0.4 2.2-12.4 54.9-53.8 69.1z"/>
		<path id="Layer" class="s0" d="m222.6 122c-39.2-15.9-54.2-66.8-54.8-68.9l4.5-1.3c0.1 0.5 15 50.9 52.1 65.9z"/>
		<path id="Layer" class="s0" d="m170.8 101.9q-0.3 0-0.6-0.3l0.2-0.6 0.4 0.9c0.1 0 0 0 0 0z"/>
		<path id="Layer" class="s0" d="m170.8 104.6c-0.6 0-1.1-0.1-1.6-0.4l0.9-2.1c0.2 0.2 0.5 0.3 0.8 0.3 0.1 0 0.2 0 0.2 0l0.9 2c-0.4 0.1-0.8 0.2-1.2 0.2z"/>
		<path id="Layer" class="s0" d="m177.8 117.2l-2 0.9-5.1-11.4-4.6 11.3-2.1-0.9 5.2-12.6c0.5 0.3 1.1 0.4 1.8 0.4 0.5 0 0.9-0.1 1.3-0.2z"/>
		<path id="Layer" class="s0" d="m180.1 99.6l-0.1 0.2-2.2 2.7-0.1 0.2-1.3-0.9-0.9-0.8 2.7-2.6z"/>
		<path id="Layer" class="s0" d="m183.1 101.8l-2 3-2.9-2 2.2-2.8z"/>
		<path id="Layer" class="s0" d="m183.6 101.8l-1.8 2.7 1.7-2.7z"/>
		<path id="Layer" class="s1" d="m178.2 98.1l-3 3 1.2 1 1.2 0.8 0.1-0.2 0.1-0.2-1.2-0.8-0.8-0.6 2.4-2.4 1.8 1.1 0.1-0.2 0.1-0.2zm5.4 3.5l-0.1 0.2-1.8 2.7v0.1l-0.5 0.8 0.2 0.1 2.6-3.7z"/>
		<path id="Layer" class="s0" d="m173.8 94.4l-1.3 1.5 1.1-1.6z"/>
		<path id="Layer" class="s0" d="m174.2 101.1c0 0.2 0 0.3 0 0.4q0 0.2 0 0.3l-3.6-2.6-0.2-0.1 0.1-0.1v-0.1l0.8-1.1h0.1 0.1 0.1c1.5 0.4 2.6 1.8 2.6 3.3z"/>
		<path id="Layer" class="s0" d="m180.5 99.1l-0.2 0.3-0.1 0.2-0.1 0.2-2.2 2.7-0.1 0.2-0.1 0.2-0.6 0.7-2.3-1.7c0-0.2 0.1-0.5 0.1-0.7 0-1.7-1.2-3.2-2.7-3.7l2-2.7z"/>
		<path id="Layer" class="s1" d="m170.7 99l0.8-1.2h-0.1-0.1c0 0-0.1 0-0.2 0h-0.1l-0.7 1-0.3 0.4 0.2 0.1 0.2 0.1 1 0.8 2.6 1.9c0-0.1 0-0.2 0.1-0.2q0-0.1 0-0.3zm3.1-4.9l-0.2-0.1-2.2 3.4h0.1l0.9-1.2v-0.1-0.1-0.1-0.1l1.2-1.6 0.1-0.2z"/>
		<path id="Layer" class="s0" d="m166 88.8l-0.1 0.2-2.6 4-1.9 2.8-0.1-0.1 4.5-7.1z"/>
		<path id="Layer" class="s0" d="m171.3 97.8h0.1l-0.9 1.1v0.1l-0.2 0.3-1.5 1.9-1.3-0.9c0-0.1 0-0.2 0.1-0.2 0.5-1.3 1.7-2.3 3.2-2.3 0.1 0 0.1 0 0.2 0h0.1c0.1 0 0.2 0 0.2 0z"/>
		<path id="Layer" class="s0" d="m174.1 93.9l-0.2 0.3-0.1 0.2-1.2 1.6v0.1 0.1 0.1 0.1l-0.9 1.2h-0.1c-0.2 0-0.3 0-0.5 0-1.6 0-3 1-3.6 2.4l-5.5-4 4.4-6.7z"/>
		<path id="Layer" class="s1" d="m171.5 97.8h-0.1-0.1c0 0-0.1 0-0.2 0l-0.8 1-1.6 2.1-1.2-0.8c0 0.1 0 0.1-0.1 0.2 0 0.1 0 0.1-0.1 0.2l1.4 1 1.6-2.1 0.1-0.2 0.1-0.2 0.9-1.2c0.2 0 0.2 0 0.1 0zm-5.8-9.5l-4.7 7.5 0.3 0.2 0.1-0.2 1.9-2.8 2.6-4.1h0.1l0.1-0.2 0.1-0.2z"/>
		<path id="Layer" class="s0" d="m170.8 101.9q-0.3 0-0.6-0.3c-0.1-0.1-0.2-0.3-0.2-0.5 0-0.4 0.3-0.7 0.8-0.7 0.4 0 0.8 0.3 0.8 0.7 0 0.4-0.3 0.8-0.8 0.8 0.1 0 0 0 0 0z"/>
		<path id="Layer" fill-rule="evenodd" class="s0" d="m174.1 101.2c0 0.1 0 0.3 0 0.4q0 0.1 0 0.3c-0.1 0-0.1 0.1-0.1 0.2-0.3 1.1-1.1 1.9-2.1 2.3-0.3 0.1-0.7 0.2-1.1 0.2-0.6 0-1.1-0.1-1.6-0.4-1.1-0.6-1.8-1.7-1.8-3 0-0.2 0.1-0.5 0.1-0.7 0.1-0.1 0.1-0.1 0.1-0.2 0.1-0.1 0.1-0.1 0.1-0.2 0.5-1.3 1.7-2.3 3.2-2.3 0 0 0.2 0 0.3 0 0.1 0 0.5 0 0.5 0 1.4 0.4 2.5 1.8 2.4 3.4zm-2.6-1.1c-0.2-0.1-0.4-0.2-0.7-0.2-0.7 0-1.2 0.5-1.2 1.2 0 0.3 0.1 0.7 0.4 0.9 0.3 0.2 0.5 0.3 0.8 0.3 0 0 0.1 0 0.2 0 0.6-0.1 1-0.6 1-1.2 0-0.4-0.2-0.7-0.5-1z"/>
		<path id="Layer" class="s0" d="m171.6 101.1c0 0.4-0.3 0.7-0.7 0.7q-0.3 0-0.6-0.3c-0.1-0.1-0.2-0.3-0.2-0.5 0-0.4 0.3-0.7 0.8-0.7 0.4 0.1 0.7 0.4 0.7 0.8z"/>
		<path id="Layer" class="s0" d="m166.6 87.9l-0.4 0.7-0.2 0.2-0.1 0.2-2.6 4-1.9 2.8-0.1 0.2-0.7 1.1-2.5-1.7 6-9.2z"/>
		<path id="Layer" class="s0" d="m185.9 102.3l-3 4.8-2-1.3 0.3-0.4 0.5-0.8v-0.1h0.1l1.7-2.7 0.1-0.2 0.4-0.6z"/>
		<path id="Layer" class="s0" d="m170.6 75.3l0.5 1.5h1.5l-1.2 0.8 0.5 1.5-1.3-0.9-1.2 0.9 0.5-1.5-1.2-0.8h1.5z"/>
		<path id="Layer" class="s0" d="m175.2 83.7l0.3 0.9h1l-0.8 0.6 0.3 0.9-0.8-0.5-0.7 0.5 0.3-0.9-0.8-0.6h0.9z"/>
		<path id="Layer" class="s0" d="m170.8 81.9l0.3 0.9h1l-0.8 0.6 0.3 0.9-0.8-0.6-0.8 0.6 0.3-0.9-0.7-0.6h0.9z"/>
		<path id="Layer" class="s0" d="m113.3 122.9c-7.4-11.2-11.3-24.3-11.3-37.9 0-38 30.9-68.9 68.9-68.9 38 0 68.9 30.9 68.9 68.9 0 13.5-3.9 26.6-11.3 37.9l-2.3-1.5c7.1-10.8 10.8-23.4 10.8-36.4 0-36.5-29.7-66.2-66.2-66.2-36.5 0-66.2 29.7-66.2 66.2 0 13 3.8 25.6 10.9 36.4z"/>
		<path id="Layer" class="s0" d="m129.2 43.3c0.4-0.6 1.2-0.8 1.9-1 0.7-0.2 1.4-0.2 2.2-0.2 1.5 0.1 2.9 0.6 4.1 1.5l-1.1 0.7c-0.2-1-0.4-2-0.5-3 0-0.5 0-1.1 0.1-1.6 0.1-0.5 0.3-1.1 0.7-1.4-0.2 1 0 1.9 0.3 2.9 0.3 0.9 0.6 1.9 0.8 2.9l0.4 1.8-1.5-1c-1-0.7-2.2-1.2-3.4-1.4-0.6-0.2-1.2-0.2-1.9-0.2-0.8-0.2-1.5-0.3-2.1 0z"/>
		<path id="Layer" class="s0" d="m140.9 36.1c0.4-0.6 1.2-0.8 1.9-1 0.7-0.2 1.4-0.2 2.2-0.2 1.5 0.1 2.9 0.6 4.1 1.5l-1.1 0.7c-0.2-1-0.4-2-0.5-3 0-0.5 0-1.1 0.1-1.6 0.1-0.5 0.3-1.1 0.7-1.4-0.2 1 0 1.9 0.3 2.9 0.3 0.9 0.6 1.9 0.8 2.9l0.4 1.8-1.5-1c-1-0.7-2.2-1.2-3.4-1.4-0.6-0.2-1.2-0.2-1.9-0.2-0.8-0.2-1.4-0.3-2.1 0z"/>
		<path id="Layer" class="s0" d="m140.9 45.9c0.4-0.6 1.2-0.8 1.9-1 0.7-0.2 1.4-0.2 2.2-0.2 1.5 0.1 2.9 0.6 4.1 1.5l-1.1 0.7c-0.2-1-0.4-2-0.5-3 0-0.5 0-1.1 0.1-1.6 0.1-0.5 0.3-1.1 0.7-1.4-0.2 1 0 1.9 0.3 2.9 0.3 0.9 0.6 1.9 0.8 2.9l0.4 1.8-1.5-1c-1-0.7-2.2-1.2-3.4-1.4-0.6-0.2-1.2-0.2-1.9-0.2-0.8-0.3-1.4-0.3-2.1 0z"/>
		<path id="Layer" class="s0" d="m37.3 267.3h-4.3c-8.7 0-12.6-5-12.6-14.4v-6.3c0-7.5 1.6-14.3 5.6-14.3h18.1v1.9c0 1.2-0.8 2.4-3.4 2.4h-14.4c-0.7 2.8-1.3 7-1.3 10.6h15.1v1.4c0 1.4-0.9 2.5-3 2.5h-12.1v2.5c0 7 2.6 9.4 9.5 9.4h2.6c2.6 0 4.9-0.5 6.5-1v1.3c0.1 2.6-0.7 4-6.3 4z"/>
		<path id="Layer" class="s0" d="m68.3 267.6c-4.4 0-7.9-2.1-7.9-5.2v-1.9h0.2c1.4 1.6 4.4 2.9 7.8 2.9 3.9 0 5.6-1.2 5.6-3.8 0-2.1-0.9-3.1-6.9-4.4-4.9-1-7.2-2.6-7.2-6.6 0-4.3 3.9-8.2 10.4-8.2 3.9 0 7.6 1.7 7.6 4.9v2h-0.2c-1.2-1.4-4-2.7-7.1-2.7-4.4 0-6.2 1.5-6.2 3.7 0 1.9 1 2.5 6.4 3.7 5.2 1.1 7.7 3.6 7.7 7.1 0 5.6-4.2 8.5-10.2 8.5z"/>
		<path id="Layer" class="s0" d="m102 241h9v1.5c0 1.6-1.1 2.6-3.5 2.6h-5.5v13c0 3.7 1.5 5.2 4.3 5.2 1.6 0 3.2-0.1 4.1-0.7h0.2v1.6c0 2.2-1.7 3.4-4.8 3.4-5.8 0-8.3-3-8.3-9.1v-17c0-2.9 1.9-5.9 3.9-5.9h0.5v5.4z"/>
		<path id="Layer" fill-rule="evenodd" class="s0" d="m136.9 267.6c-5.3 0-10-3.1-10-7.8 0-5.6 4.4-8.7 12.2-8.7h3.5v-1.1c0-3.9-1.9-5.4-6.2-5.4-3.9 0-6.8 1.5-8.3 3.6h-0.3v-2.2c0-2.4 3.2-5.5 9-5.5 6.6 0 10.2 3.5 10.2 9.8v8.2c0.1 5.3-2.7 9.1-10.1 9.1zm5.8-12.7h-3.6c-5.2 0-7.6 1.6-7.6 4.5 0 2.3 2.3 4.1 5.6 4.1 4 0 5.6-1.6 5.6-5.3z"/>
		<path id="Layer" class="s0" d="m183.8 267.3c-1.4 0-2.4-0.5-3.4-1.5-3.5-3.5-6.6-7.6-9.6-11.4v12.8h-1.4c-2 0-2.9-1.1-2.9-3.5v-33h1.4c1.9 0 2.9 1 2.9 2.9v18.9c3.2-4 7.1-8.1 9.6-10.5 0.5-0.5 1.7-1 3.4-1h3.1v0.2c-2.5 2-4.6 3.7-11.9 11.8 2.2 3 4.5 6 7.1 8.7 2.3 2.4 3.3 2.9 4.7 3.3-0.3 1.4-0.6 2.3-3 2.3z"/>
		<path id="Layer" class="s0" d="m209.9 267.6c-4.4 0-7.9-2.1-7.9-5.2v-1.9h0.2c1.4 1.6 4.4 2.9 7.8 2.9 3.9 0 5.6-1.2 5.6-3.8 0-2.1-0.9-3.1-6.9-4.4-4.9-1-7.2-2.6-7.2-6.6 0-4.3 3.9-8.2 10.4-8.2 3.9 0 7.6 1.7 7.6 4.9v2h-0.2c-1.2-1.4-4-2.7-7.1-2.7-4.4 0-6.2 1.5-6.2 3.7 0 1.9 1 2.5 6.4 3.7 5.2 1.1 7.7 3.6 7.7 7.1 0 5.6-4.3 8.5-10.2 8.5z"/>
		<path id="Layer" class="s0" d="m259.7 267.1c-2.4 0-3.3-0.9-3.3-2.9v-12.4c0-5.2-2.2-7.2-6.2-7.2-3 0-6.6 2.5-6.6 7.4v15h-1.3c-2.2 0-3.1-0.9-3.1-2.9v-33.6h1.3c2 0 3.2 0.9 3.2 3.3v11.1c1.9-3.6 4.7-4.6 7.1-4.6 6.2 0 10.1 3.4 10.1 11.2v15.4h-1.2z"/>
		<path id="Layer" class="s0" d="m283.7 237.3c-1.6 0-3-1.3-3-3 0-1.7 1.4-3.1 3-3.1 1.7 0 3 1.4 3 3.1 0 1.7-1.3 3-3 3zm5.5 30c-5.2 0-7.8-2.5-7.8-7.8v-18.6h1.3c1.6 0 3.1 1.2 3.1 3.5v14.5c0 3.3 1.6 4.3 4.1 4.3h1.9v1.4c0 1.7-1 2.7-2.6 2.7z"/>
		<path id="Layer" class="s0" d="m321.9 237.4c-1.2-1-2.4-1.3-3.9-1.3-3.5 0-4.8 1.6-4.8 5.3v3.2h7.8v1.6c0 1.2-1 2.4-2.9 2.4h-4.9v18.5h-1.6c-2 0-2.8-1.3-2.8-3.2v-23c0-4.6 3.2-9 8.6-9 3.2 0 4.8 1.8 4.8 3.2v2.4h-0.3z"/>
		<path id="Layer" fill-rule="evenodd" class="s2" d="m97 209.3h-0.4c-5.6 0-7.4-1.6-8.8-2.6 0 0-1.6 2.6-7.5 2.6h-43.4c-10.8 0-16.3-11.8-16.3-20.5 0-11.4 5.3-15.4 10.6-15.4h3.2c0 0-6.6 4.3-6.6 13.7 0 5 2.1 14.3 10.5 14.3h21.4c-2.3-2.7-3.7-6.4-3.7-11.4 0-12.7 6.9-20.4 17.7-20.4 10.1 0 17.1 7.6 17.1 19v11.9c1.3 0.7 2.8 0.8 4.8 0.8h1.4zm-24.2-32.4c-5.7 0-9.4 4.7-9.4 11.9 0 11.5 8.7 12.7 20.1 12.7 0-13.6 0.8-24.6-10.7-24.6zm-3.5-17.9c0-2.5 2-4.6 4.5-4.6 2.6 0 4.6 2 4.6 4.5 0 2.6-2 4.6-4.6 4.6-2.6-0.1-4.5-2-4.5-4.5z"/>
		<path id="Layer" class="s2" d="m95.6 201.5h10.4v-28.7h2.5c4.2 0 5.5 1.8 5.5 6.2v22.4h8.4c4.4 0 6.8-2 7.1-7v-21.7h2.5c4.2 0 5.5 1.8 5.5 6.2 0 0 0 16.3 0.1 16.5-0.1 1.4-0.3 2.7-0.6 3.8 3 1.8 5.9 2.4 8.4 2.4 5.7 0 7.3-3 7.4-7.3v-21.7h2.5c4.2 0 5.5 1.8 5.5 6.2v16.2c0.2 4.7 2.8 6.5 7.1 6.5h2.1v7.8h-4.2c-3.8-0.2-7.4-1.8-9.6-3.9-2.3 2.5-5.5 3.9-9.5 3.9-9.5 0-13-3.2-13.5-3.5-2.2 2.2-5.1 3.4-8.8 3.5h-28.8zm27.5-42.7c0-2.5 2-4.5 4.6-4.5 2.5 0 4.5 2 4.5 4.5 0 2.5-2 4.5-4.5 4.5-2.6 0-4.6-2-4.6-4.5zm5.1-9.6c0-2.5 2-4.5 4.7-4.5 2.3 0 4.5 2 4.5 4.5 0 2.5-2.1 4.5-4.5 4.5-2.7 0-4.7-2-4.7-4.5zm5.5 9.6c0-2.5 2-4.5 4.7-4.5 2.3 0 4.5 2 4.5 4.5 0 2.5-2.1 4.5-4.5 4.5-2.7 0-4.7-2-4.7-4.5z"/>
		<path id="Layer" class="s2" d="m168.6 201.5h30c-0.5-8.3-2.6-21.9-17.8-21.9-1.7 0-3.2 0.2-5 0.7l-1.6-2.1c-0.8-1-1.3-2.1-1.2-3.2 0-1.5 0.7-2.9 2.6-4.3l34.8-25.9 2.2 3c0.6 0.7 0.8 1.7 0.8 2.6 0 1.1-0.5 2.2-1.4 3l-24.9 18.6c16.3 3.1 19.9 17.9 19.9 29.4h8.3v7.8h-46.7z"/>
		<path id="Layer" class="s2" d="m230.7 195c0.2 4.7 2.8 6.5 7.1 6.5h2.1v7.8h-4.2c-3.8-0.2-6.9-1.4-9-3.5-2.2 2.1-5.2 3.4-9 3.5h-4.2v-7.8h2.1c4.4 0 6.8-2 7.1-7v-16.9h2.5c4.2 0 5.5 1.8 5.5 6.2zm-14.6-27c0-2.5 2-4.5 4.6-4.5 2.5 0 4.5 2 4.5 4.5 0 2.5-2 4.5-4.5 4.5-2.6 0-4.6-2-4.6-4.5zm10.6 0c0-2.5 2-4.5 4.7-4.5 2.3 0 4.5 2 4.5 4.5 0 2.5-2.1 4.5-4.5 4.5-2.6 0-4.7-2-4.7-4.5z"/>
		<path id="Layer" class="s2" d="m238.5 201.5h10.4v-28.7h2.5c4.2 0 5.5 1.8 5.5 6.2v22.4h8.4c4.4 0 6.8-2 7.1-7v-21.7h2.5c4.2 0 5.5 1.8 5.5 6.2 0 0 0 16.3 0.1 16.5-0.1 1.4-0.3 2.7-0.6 3.8 3 1.8 5.9 2.4 8.4 2.4 5.7 0 7.3-3 7.4-7.3v-21.7h2.5c4.2 0 5.5 1.8 5.5 6.2v12.3c0 11.9-6 18-14.1 18-9.5 0-13-3.2-13.5-3.5-2.2 2.2-5.1 3.4-8.8 3.5h-28.8z"/>
		<path id="Layer" class="s2" d="m319 209.3c-3 0-5-1.7-5-5.6v-50.5h3.7c2 0 4.1 1.6 4.1 3.8v52.3z"/>
	</g>
	<g id="Layer">
		<g id="Clip-Path" clip-path="url(#cp1)">
			<g id="Layer">
				<g id="Clip-Path" clip-path="url(#cp2)">
					<g id="Layer">
						<g id="Clip-Path" clip-path="url(#cp3)">
							<g id="Layer">
								<g id="Clip-Path" clip-path="url(#cp4)">
									<g id="Layer">
									</g>
								</g>
							</g>
						</g>
					</g>
				</g>
			</g>
		</g>
	</g>
	<g id="Layer">
		<g id="Clip-Path" clip-path="url(#cp5)">
			<g id="Layer">
				<g id="Clip-Path" clip-path="url(#cp6)">
					<g id="Layer">
						<g id="Clip-Path" clip-path="url(#cp7)">
							<g id="Layer">
								<g id="Clip-Path" clip-path="url(#cp8)">
									<g id="Layer">
									</g>
								</g>
							</g>
						</g>
					</g>
				</g>
			</g>
		</g>
	</g>
	<g id="Layer">
		<g id="Clip-Path" clip-path="url(#cp9)">
			<g id="Layer">
				<g id="Clip-Path" clip-path="url(#cp10)">
					<g id="Layer">
						<g id="Clip-Path" clip-path="url(#cp11)">
							<g id="Layer">
								<g id="Clip-Path" clip-path="url(#cp12)">
									<g id="Layer">
									</g>
								</g>
							</g>
						</g>
					</g>
				</g>
			</g>
		</g>
	</g>
</svg>