<svg version="1.2" xmlns="http://www.w3.org/2000/svg" viewBox="0 0 434 495" width="434" height="495"><style>.a{fill:#00a651}.b{fill:#fff}</style><path  d="m15.8 468q-3.3 0-6-2.7-2.6-2.6-2.6-6.6v-68.8h11.9v66.2h35.7v-35.8h-45.1v-11.9h48.4q3.3 0 5.9 2.4 2.7 2.3 2.7 6.2v41.7q0 4-2.7 6.6-2.6 2.7-5.9 2.7z"/><path fill-rule="evenodd" d="m87.2 468q-3.3 0-6-2.7-2.6-2.6-2.6-6.6v-41.7q0-3.9 2.6-6.2 2.7-2.4 6-2.4h42.3q3.3 0 6 2.4 2.6 2.3 2.6 6.2v41.7q0 4-2.6 6.6-2.7 2.7-6 2.7zm3.3-11.9h35.7v-35.8h-35.7z"/><path  d="m200.9 468h-42.3q-3.3 0-5.9-2.7-2.7-2.6-2.7-6.6v-50.3h11.9v47.7h35.7v-47.7h11.9v50.3q0 4-2.6 6.6-2.7 2.7-6 2.7z"/><path class="a" d="m185.7 449.4h-11.9v-41h11.9z"/><path  d="m230 468q-3.3 0-5.9-2.7-2.7-2.6-2.7-6.6v-17.9q0-3.9 2.7-6.2 2.6-2.3 5.9-2.3h40.4v11.9h-37.1v11.9h35.7v-35.8h-47.6v-11.9h50.9q2 0 4 1 2 1 3.3 3 1.3 2 1.3 4.6v41.7q0 4-2.6 6.6-2.7 2.7-6 2.7z"/><path  d="m292.8 468v-11.9h47.7v-11.9h-39.1q-3.3 0-5.9-2.7-2.7-2.6-2.7-6.6v-17.9q0-3.9 2.7-6.2 2.6-2.4 5.9-2.4h51v11.9h-47.7v12h39.1q3.3 0 5.9 2.3 2.6 2.3 2.7 6.2v17.9q-0.1 4-2.7 6.6-2.6 2.7-5.9 2.7z"/><path  d="m423.8 485.2h-11.9v-64.9h-35.7v35.8h40.4v11.9h-43.7q-3.4 0-6-2.7-2.6-2.6-2.6-6.6v-41.7q0-3.9 2.6-6.2 2.6-2.4 6-2.4h42.3q3.3 0 5.9 2.4 2.7 2.3 2.7 6.2z"/><path class="b" d="m263.8 236.3c-7.4 7.3-16.5 12.8-26.3 16.1 13.9 4.8 25.8 13.9 34.1 25.6v-50.8q-3.4 4.8-7.8 9.1z"/><path  d="m256.7 138.6c5.9 4.3 10.8 9.5 14.9 15.4v-84.7h-21.7v64.9q3.5 2 6.8 4.4z"/><path  d="m182 125.9v-56.6h-22.9v56.6z"/><path  d="m205.5 125.9l21.3 0.7v-116.5h-21.7v115.8z"/><path class="a" d="m271.2 186.8c1 14.8-4 30-15.4 41.3-10.6 10.4-25 16.3-39.6 16.3q-0.4 0-0.9 0l-9.9-0.1v-60.5h20.3v39c5.9-1.6 11.4-4.8 15.9-9.2 6.3-6.3 9.8-14.3 9.8-22.7 0-18.3-14.8-33.2-33.2-33.2h-35.7v198h35.5c18.4 0 33.4-15 33.4-33.5v-8.1c0-14.5-11-27.6-25.3-31.9v40h-20.3v-61.8h10.1c30.3 0 55.8 24.6 55.8 53.7v8.1c0 29.7-24.1 53.8-53.7 53.8h-58.9v-27.8-210.8h22.9 23.1l21.7 0.7c8.5 1.4 16.4 4.8 23.1 9.7 13 9.6 20.2 24.1 21.3 39z"/><path  d="m137.2 152.1h-21.7v204.3h-62.4v21.6h84.1z"/><path  d="m378.7 356.4h-62.3v-204.3h-21.7v225.9h84z"/></svg>