<svg version="1.2" xmlns="http://www.w3.org/2000/svg" viewBox="0 0 1234 1120" width="1234" height="1120">
	<title>Tobal Dental Clinic logo-ai</title>
	<style>
		.s0 { fill: #21baae } 
		.s1 { fill: #231f20 } 
		.s2 { fill: #57585a;stroke: #57585a;stroke-width: 2.5 } 
	</style>
	<g id="Layer 1">
		<g id="&lt;Group&gt;">
			<g id="&lt;Group&gt;">
				<path id="&lt;Path&gt;" class="s0" d="m883.7 539.2c-10.1-9.7-26.3-9.3-36 0.9-0.7 0.8-75.6 77.7-230.9 77.7-153.5 0-227.9-74.6-231-77.8-5-5.2-11.6-7.8-18.3-7.8-6.4 0-12.7 2.3-17.6 7-10.1 9.6-10.5 25.8-0.9 35.9 3.7 3.9 91 93.5 267.8 93.5 176.9 0 264.2-89.6 267.8-93.5 9.7-10.1 9.3-26.3-0.9-35.9z"/>
				<path id="&lt;Path&gt;" class="s0" d="m993.7 309.7c6.3-22.7 9.2-56.9 9.3-73.9 0.1-25.4-9.7-49.3-27.7-67.4-18.1-18.1-42.2-28.1-67.8-28.1-7.1 0-12.8 5.7-12.8 12.8 0 7.1 5.7 12.9 12.8 12.9 18.8 0 36.4 7.3 49.6 20.5 13.1 13.2 20.3 30.7 20.2 49.2-0.1 15.7-3 47.8-8.4 67.1-11.4 40.9-28.3 97.8-42.4 119.4-6.9 10.5-15 16.2-22.1 15.7-7.1-0.5-14.3-7.6-20-19.4-1.2-2.5-2.5-6-3.9-9.6-2.7-7-6.1-15.6-10.6-23.5-5.7-10-16-16-27.5-16-10.5 0-30.2 5.3-38.4 19.7-9.4 16.5-16.3 34.9-20.9 47.1l-1.4 3.7c-5 13.1-12.5 21.1-20.7 22-9.2 1-20.2-6.3-28.6-19.2-14.6-22.1-73.4-142-73.4-282.1 0-40.3 9.5-66.6 28.2-78.1 26-16 76.7-7.7 135.6 22.2 2.5 1.3 5.3 2.1 8.2 2.5q3.3 0.6 6.3 0.6c18.2 0 32.9-14.8 32.9-32.9 0-11.2-5.6-21.6-15-27.7-1.6-1.3-3.2-2.3-4.8-3.1-21.7-11-51.2-20.6-87.7-28.4-95.4-20.5-196.3-20.5-291.7 0-36.5 7.8-66 17.4-87.7 28.4q-2.5 1.2-4.7 3c-9.6 6.2-15.2 16.6-15.2 27.8 0 20.2 18.4 36.3 39.2 32.3q4.5-0.6 8.3-2.5c58.9-29.9 109.6-38.2 135.6-22.2 18.7 11.5 28.2 37.8 28.2 78.1 0 140.1-58.9 260-73.4 282.1-8.5 12.9-19.5 20.2-28.7 19.2-8.1-0.9-15.7-8.9-20.6-22l-1.4-3.7c-4.7-12.3-11.6-30.6-20.9-47.1-8.2-14.4-28-19.7-38.5-19.7-11.5 0-21.8 6-27.4 16-4.5 7.9-7.9 16.5-10.6 23.4-1.4 3.5-2.8 7.1-4 9.7-5.6 11.8-12.9 18.9-19.9 19.4-7.1 0.5-15.3-5.4-22.1-15.7-14.2-21.6-31-78.5-42.5-119.4-5.4-19.3-8.3-51.3-8.4-67.1 0-18.5 7.1-36 20.3-49.2 13.2-13.2 30.8-20.5 49.5-20.5 7.1 0 12.9-5.8 12.9-12.9 0-7.1-5.8-12.8-12.9-12.8-25.6 0-49.7 10-67.7 28.1-18 18.1-27.9 42-27.8 67.4 0.1 17 3 51.2 9.4 73.9 19.4 69.5 33.1 107.4 45.7 126.6 12.1 18.4 28.7 28.5 45.3 27.3 9.8-0.7 28.1-6 41.4-34.1 1.6-3.3 3.1-7.2 4.7-11.3 1.2-2.9 2.4-6 3.7-9.1l1.4-3.3 1.1 3.4q0.8 2.7 2.1 5.1c7.4 13 13.3 28.5 17.5 39.8l1.5 3.9c12 31.6 34.8 51.4 62.7 54.5 29 3.1 57.5-12.6 76.7-41.8 19.5-29.7 54.7-108.1 71.7-202.6l1.3-7.2 1.3 7.2c17.1 94.5 52.3 173 71.8 202.6 17.6 26.8 42.9 42.2 69.3 42.2 2.5 0 4.9-0.2 7.4-0.4 27.8-3.1 50.6-22.9 62.6-54.5l1.5-3.9c4.3-11.3 10.1-26.8 17.5-39.8q1.3-2.4 2.2-5.1l1.1-3.4 1.4 3.3c1.3 3.1 2.5 6.2 3.6 9.1 1.6 4.1 3.1 8 4.7 11.3 13.3 28.1 31.7 33.4 41.4 34.1 16.6 1.1 33.3-8.9 45.3-27.3 12.7-19.2 26.3-57.1 45.8-126.6z"/>
			</g>
			<g id="&lt;Group&gt;">
				<path id="&lt;Path&gt;" class="s1" d="m939.6 799.5c-8.6 0-15.8 6.8-15.8 14.9v55.9c0 22.5-17.6 40.1-40.1 40.1-22.5 0-40.1-17.6-40.1-40.1l-1-105.1c0-8.5-6.4-14.9-14.9-14.9-7.9 0-14.8 7-14.8 14.9v105.1c0 39.2 31.1 69.8 70.8 69.8 39.7 0 70.8-30.6 70.8-69.8v-55.9c0-7.9-7-14.9-14.9-14.9z"/>
				<path id="&lt;Compound Path&gt;" fill-rule="evenodd" class="s1" d="m1233.6 813.4v56.9c0 39.2-31 69.8-70.7 69.8h-45.9c-8.4 30.1-36.1 52.2-68.9 52.2-8.7 0-15.9-6.6-15.9-14.8 0-8.1 7.3-14.9 15.9-14.9 15.6 0 29.1-9 35.9-22.2h-35.2c-39.1 0-71-31.5-71-70.1 0-39.1 31.9-71 71-71 18.5 0 36.5 7.4 49.5 20.3 12.2 12.3 20.1 29.7 21.5 47.8l0.1 1.9v41.1h43c22.4 0 40.1-17.6 40.1-40.1l1-57.1c0-8.3 6.3-14.7 14.8-14.7 7.9 0 14.8 7 14.8 14.9zm-144.7 56.9c0-11.6-3.8-21.6-10.9-28.8-8.9-8-19.5-12.5-29.2-12.5-22.4 0-41.3 18.9-41.3 41.3 0 22.3 18.5 40.4 41.3 40.4h40.1z"/>
				<path id="&lt;Path&gt;" class="s1" d="m1215.9 785.8c9.5 0 17.7-8.3 17.7-17.7 0-9.5-8.2-17.8-17.7-17.8-10.3 0-17.7 7.5-17.7 17.8 0 10.3 7.4 17.7 17.7 17.7z"/>
				<path id="&lt;Path&gt;" class="s1" d="m1163.9 785.8c9.5 0 17.7-8.3 17.7-17.7 0-9.5-8.2-17.8-17.7-17.8-10.3 0-17.7 7.5-17.7 17.8 0 10.3 7.4 17.7 17.7 17.7z"/>
				<path id="&lt;Path&gt;" class="s1" d="m883.7 956.8c-10.3 0-17.8 7.5-17.8 17.8 0 10.3 7.5 17.7 17.8 17.7 9.4 0 17.7-8.3 17.7-17.7 0-9.5-8.3-17.8-17.7-17.8z"/>
				<path id="&lt;Path&gt;" class="s1" d="m770.9 750.3c-8.5 0-14.9 6.4-14.9 14.8l-1 105.2c0 22.5-17.6 40.1-40.1 40.1-27.7 0-46.2-17.6-56.8-32.3-2.7-3.7-6.5-6.1-10.5-6.8-3.7-0.6-7.4 0.4-10.6 2.7-5.8 4.2-9 13.3-4.3 20.5 18.8 28.6 49.5 45.6 82.2 45.6 39.7 0 70.8-30.6 70.8-69.8v-105.1c0-7.9-6.9-14.9-14.8-14.9z"/>
			</g>
			<g id="&lt;Group&gt;">
				<path id="&lt;Compound Path&gt;" fill-rule="evenodd" class="s1" d="m229.5 826.4c13.5 14.6 20.6 31.9 20.6 49.9 0 39.6-32.1 71.8-71.5 71.8-39.8 0-72.1-32.2-72.1-71.8 0-39 32.3-70.8 72.1-70.8 19.6 0 37.2 7.2 50.6 20.6zm-9 50c0-9.9-4.8-20.7-12.6-28.2l-0.5-0.5c-6.8-8-17-12.4-28.8-12.4-22.6 0-41.1 18.4-41.1 41.1 0 23.2 18.5 42.1 41.1 42.1 22.7 0 41.9-19.3 41.9-42.1z"/>
				<path id="&lt;Compound Path&gt;" fill-rule="evenodd" class="s1" d="m405.5 877.1c0 39.1-31.5 71-70.3 71-39.2 0-71-31.9-71-71v-111.9c0-8.8 6.2-14.9 15.1-14.9 8.8 0 14.5 5.9 14.5 14.9v54.4c12.3-8.3 26.5-12.8 41.4-12.8 38.8 0 70.3 31.5 70.3 70.3zm-29.4 0c0-22.9-18-40.9-40.9-40.9-22.8 0-41.4 18.3-41.4 40.9 0 22.2 18.6 40.3 41.4 40.3 22.9 0 40.9-17.7 40.9-40.3z"/>
				<path id="&lt;Compound Path&gt;" fill-rule="evenodd" class="s1" d="m556.6 876.8v56.7c0 9.2-6.4 15.9-15.3 15.9-7 0-14.4-5.7-15.3-14.2-11.6 8.3-25.7 12.9-40.4 12.9-40 0-71.3-31.3-71.3-71.3 0-38.5 32-69.8 71.3-69.8 39.2 0 71 31.3 71 69.8zm-30.6 0c0-22.2-18.1-40.3-40.4-40.3-22.6 0-40.4 17.7-40.4 40.3 0 23.1 18.1 41.9 40.4 41.9 20.9 0 39-17.2 40.4-38.4z"/>
				<path id="&lt;Path&gt;" class="s1" d="m588.1 756.3c-9 0-15.1 6-15.1 14.9v161.3c0 8.2 6.6 14.6 15.1 14.6 8 0 15.1-6.8 15.1-14.6v-161.3c0-8.5-6.5-14.9-15.1-14.9z"/>
				<path id="&lt;Path&gt;" class="s1" d="m148.8 772.2c0-9.4-6.1-15.9-14.8-15.9h-119.2c-8.7 0-14.8 6.5-14.8 15.9 0 8.3 6.4 14.6 14.8 14.6h44.5v145.7c0 8.2 6.7 14.6 15.1 14.6 8.1 0 15.1-6.8 15.1-14.6v-145.7h44.5c8.5 0 14.8-6.3 14.8-14.6z"/>
			</g>
			<g id="&lt;Group&gt;">
				<path id="&lt;Path&gt;" class="s2" d="m681.3 1069.7v21.8c0 11-8.9 19.9-19.8 19.9-11 0-19.9-8.9-19.9-19.9 0-5.6 2.2-10.5 6-14.3 3.6-3.3-1.2-8.6-5-5.3-5.1 4.8-8.4 12.2-8.4 19.6 0 14.9 12.4 27.3 27.3 27.3 14.9 0 27.2-12.4 27.2-27.3v-21.8c0-5-7.4-5-7.4 0z"/>
				<path id="&lt;Path&gt;" class="s2" d="m664 1055.4c2.4 0 4.4-2.1 4.4-4.6 0-2.3-2-4.4-4.4-4.4-2.4 0-4.5 2.1-4.5 4.4 0 2.5 2.1 4.6 4.5 4.6z"/>
				<path id="&lt;Path&gt;" class="s2" d="m755.6 1051.1c2.4 0 4.4-2.1 4.4-4.5 0-2.4-2-4.5-4.4-4.5-2.4 0-4.5 2.1-4.5 4.5 0 2.4 2.1 4.5 4.5 4.5z"/>
				<path id="&lt;Path&gt;" class="s2" d="m861.8 1059.1v19.8c0 15.3-23.4 15.3-23.4 0v-9.3c0-5-7.4-5-7.4 0v9.3c0 15.3-23.4 15.3-23.4 0v-9.3c0-5-7.4-5-7.4 0v9.1c0 6.6-5.2 11.6-11.6 11.6h-0.3-16.9-0.3c-6.5 0-11.7-5-11.7-11.6v-14.5c0-5-7.4-5-7.4 0v14.5c0 6.6-5.2 11.6-11.7 11.6h-0.2-16.9-0.3c-6.3 0-11.6-5.1-11.6-11.6v-49.6c0-5-7.4-5-7.4 0v49.6c0 10.5 8.6 18.9 18.7 19h0.3 0.3 16.9 0.2 0.4c6-0.1 11.6-3.1 15-7.6 3.4 4.4 9 7.5 15.1 7.6h0.3 0.3 16.9 0.3 0.3c6-0.1 11.5-3 14.9-7.4 7 9.5 23.5 9.6 30.9 0.3 9.9 12.4 34.5 8.6 34.5-11.7v-19.8c0-5-7.4-5-7.4 0z"/>
				<path id="&lt;Path&gt;" class="s2" d="m887.4 1049.1l16.6 34.5c2.1 4.5 8.8 1.2 6.5-3.3l-16.7-34.5c-1.9-4.8-8.8-1.3-6.4 3.3z"/>
				<path id="&lt;Path&gt;" class="s2" d="m925.3 1029.1v49.6c0 19.2-24 24.6-35.6 11.5-2.9-3.7-8.9 0.9-5.7 4.7 15.3 17.6 48.7 10.1 48.7-16.2v-49.6c0-5-7.4-5-7.4 0z"/>
				<path id="&lt;Path&gt;" class="s2" d="m886.3 1034.6h15.3c3.6 0 3.6-5.4 0-5.4h-6.4c-2.1 0-4.2-2-4.2-4.2 0-3.9 3.9-5.5 6.6-3.9 3.4 2.7 6.6-1.5 3.2-3.9-5.3-4.2-15.1-0.7-15.1 7.8 0 1.5 0.3 2.9 1 4.2h-0.4c-3.6 0-3.6 5.4 0 5.4z"/>
				<path id="&lt;Path&gt;" class="s2" d="m947.8 1029.1v64.8c0 5.1 7.4 5.1 7.4 0v-64.8c0-5-7.4-5-7.4 0z"/>
				<path id="&lt;Path&gt;" class="s2" d="m1029.4 1106.8c-2.4 0-4.5 2.1-4.5 4.5 0 2.4 2.1 4.5 4.5 4.5 2.4 0 4.4-2.1 4.4-4.5 0-2.4-2-4.5-4.4-4.5z"/>
				<path id="&lt;Compound Path&gt;" fill-rule="evenodd" class="s2" d="m1226.1 1029.1v49.6c0 10.4-8.6 18.8-18.7 19h-18.1c-5.8-0.1-11.1-2.8-14.6-7.1-3.1 4.6-8.6 7.1-15.6 7.1h-73.1c-6.1-0.1-11.8-3.1-15.1-7.6-3.4 4.6-9.2 7.6-15.4 7.6h-49.1c-10.4 0-19.1-8.5-19.1-19v-9.1c0-5 7.4-5 7.4 0v9.1c0 6.6 5.2 11.6 11.7 11.6h49.1c6.5 0 11.7-5 11.7-11.6v-14.5c0-5 7.4-5 7.4 0v14.5c0 6.6 5.2 11.6 11.7 11.6h28.6v-61.2c0-5 7.4-5 7.4 0v38.4c16.7-24.1 55.3-18.8 55.6 10.8 0.2 7.2 5.1 12 11.7 12h17.4c6.5 0 11.7-5 11.7-11.6v-49.6c0-5 7.4-5 7.4 0zm-55.5 49.3c-0.3-26.7-45.3-26.4-48.1 11.9h36.6c7.9 0 11.4-3.4 11.5-11.9z"/>
				<path id="&lt;Compound Path&gt;" fill-rule="evenodd" class="s2" d="m67.7 1064v0.2c0 18.7-14.5 33.2-35.3 33.2h-19.3c-2 0-3.7-1.7-3.7-3.8v-58.8c0-2.1 1.7-3.8 3.7-3.8h19.3c20.8 0 35.3 14.3 35.3 33zm-7.8 0.2c0-14.7-10.7-26.2-27.5-26.2h-15.5v52.4h15.5c16.8 0 27.5-11.3 27.5-26z"/>
				<path id="&lt;Compound Path&gt;" fill-rule="evenodd" class="s2" d="m127.3 1072.2c0 1.9-1.6 3.4-3.4 3.4h-35.4c1 10.6 8.5 16.5 17.2 16.5 6.1 0 10.5-2.3 14.1-5.6 0.6-0.5 1.3-0.9 2.1-0.9 1.8 0 3.3 1.4 3.3 3.1 0 0.9-0.4 1.7-1.2 2.4-4.6 4.5-10.1 7.4-18.5 7.4-13.4 0-24.4-10.3-24.4-25.5v-0.2c0-14.1 9.9-25.5 23.5-25.5 14.5 0 22.7 11.9 22.7 24.9zm-7.3-2c-0.7-8.9-5.8-16.7-15.6-16.7-8.5 0-15 7.1-15.9 16.7z"/>
				<path id="&lt;Path&gt;" class="s2" d="m166.2 1047.3c-8.5 0-13.6 4.3-16.8 9.6v-5.3c0-2.1-1.6-3.7-3.7-3.7-2 0-3.6 1.7-3.6 3.7v42.5c0 2.1 1.6 3.7 3.7 3.7 2.1 0 3.6-1.6 3.6-3.7v-24.8c0-9.2 6.3-15.3 14.7-15.3 8.6 0 13.5 5.6 13.5 14.7v25.4c0 2.1 1.7 3.7 3.7 3.7 2 0 3.6-1.6 3.6-3.7v-27.2c0-11.6-6.9-19.6-18.7-19.6z"/>
				<path id="&lt;Path&gt;" class="s2" d="m224.9 1054.8c1.8 0 3.3-1.4 3.3-3.2 0-1.7-1.5-3.2-3.3-3.2h-12.7v-11.6c0-2-1.7-3.7-3.7-3.7-2.1 0-3.6 1.7-3.6 3.7v11.6h-4c-1.7 0-3.2 1.4-3.2 3.2 0 1.7 1.5 3.2 3.2 3.2h4v29.6c0 9.9 6 13.8 13.9 13.8 2.8 0 5.1-0.5 7.2-1.3 1.2-0.5 2-1.5 2-2.9 0-1.7-1.4-3.1-3.1-3.1-0.6 0-1.9 0.7-4.4 0.7-5 0-8.3-2.2-8.3-8.2v-28.6z"/>
				<path id="&lt;Compound Path&gt;" fill-rule="evenodd" class="s2" d="m276.8 1053.1c3.3 3.3 5.1 8.1 5.1 14.3v26.8c0 2.1-1.6 3.6-3.6 3.6-2 0-3.5-1.5-3.5-3.4v-4.4c-3.4 4.4-9.1 8.4-17.7 8.4-9.1 0-18.3-5.2-18.3-15.3v-0.1c0-10.4 8.6-15.9 21-15.9 6.2 0 10.7 0.9 15 2.1v-1.7c0-8.8-5.4-13.3-14.5-13.3-5 0-9.1 1.1-12.7 2.7-0.5 0.2-1 0.3-1.4 0.3-1.7 0-3.2-1.4-3.2-3.1 0-1.6 1.1-2.7 2-3.1 4.8-2.1 9.8-3.3 16-3.3 6.9 0 12.2 1.8 15.8 5.4zm-1.9 21.5c-3.6-1-8.4-2.1-14.4-2.1-9.2 0-14.3 4-14.3 10.2v0.2c0 6.1 5.7 9.7 12.3 9.7 9 0 16.4-5.5 16.4-13.2z"/>
				<path id="&lt;Path&gt;" class="s2" d="m303.5 1027.7c-1.9 0-3.6 1.7-3.6 3.7v62.7c0 2.1 1.7 3.7 3.7 3.7 2.1 0 3.6-1.6 3.6-3.7v-62.7c0-2-1.6-3.7-3.7-3.7z"/>
				<path id="&lt;Path&gt;" class="s2" d="m398.9 1082.5c-1 0-1.8 0.5-2.4 1-5.7 5.2-11.5 8.1-19.7 8.1-14.6 0-25.7-12.1-25.7-27.4v-0.2c0-15.2 11-27.2 25.7-27.2 8.1 0 13.9 3 19 7.6 0.6 0.4 1.4 0.8 2.5 0.8 2 0 3.8-1.7 3.8-3.6 0-1.4-0.8-2.4-1.5-3.1-6.2-5.1-13-8.6-23.7-8.6-19.5 0-33.6 15.5-33.6 34.3v0.2c0 19 14.2 34.1 33.3 34.1 10.9 0 18.1-3.8 24.6-9.8 0.7-0.5 1.3-1.5 1.3-2.6 0-1.9-1.7-3.6-3.6-3.6z"/>
				<path id="&lt;Path&gt;" class="s2" d="m421.1 1027.7c-2 0-3.6 1.7-3.6 3.7v62.7c0 2.1 1.6 3.7 3.7 3.7 2.1 0 3.6-1.6 3.6-3.7v-62.7c0-2-1.6-3.7-3.7-3.7z"/>
				<path id="&lt;Path&gt;" class="s2" d="m448 1029.1c-2.3 0-4.4 2.1-4.4 4.5 0 2.5 2.1 4.5 4.4 4.5 2.4 0 4.5-2 4.5-4.5 0-2.4-2.1-4.5-4.5-4.5z"/>
				<path id="&lt;Path&gt;" class="s2" d="m447.9 1047.9c-2 0-3.6 1.7-3.6 3.7v42.5c0 2.1 1.6 3.7 3.7 3.7 2.1 0 3.6-1.6 3.6-3.7v-42.5c0-2.1-1.6-3.7-3.7-3.7z"/>
				<path id="&lt;Path&gt;" class="s2" d="m494.5 1047.3c-8.4 0-13.5 4.3-16.7 9.6v-5.3c0-2.1-1.6-3.7-3.7-3.7-2 0-3.6 1.7-3.6 3.7v42.5c0 2.1 1.6 3.7 3.7 3.7 2.1 0 3.6-1.6 3.6-3.7v-24.8c0-9.2 6.2-15.3 14.7-15.3 8.6 0 13.5 5.6 13.5 14.7v25.4c0 2.1 1.6 3.7 3.7 3.7 2 0 3.6-1.6 3.6-3.7v-27.2c0-11.6-6.9-19.6-18.8-19.6z"/>
				<path id="&lt;Path&gt;" class="s2" d="m535 1047.9c-2 0-3.6 1.7-3.6 3.7v42.5c0 2.1 1.6 3.7 3.7 3.7 2.1 0 3.6-1.6 3.6-3.7v-42.5c0-2.1-1.6-3.7-3.7-3.7z"/>
				<path id="&lt;Path&gt;" class="s2" d="m535.1 1029.1c-2.4 0-4.5 2.1-4.5 4.5 0 2.5 2.1 4.5 4.5 4.5 2.4 0 4.4-2 4.4-4.5 0-2.4-2-4.5-4.4-4.5z"/>
				<path id="&lt;Path&gt;" class="s2" d="m593.7 1085c-0.9 0-1.6 0.5-2 1-3.7 3.4-8.1 6-13.7 6-10.2 0-18-8.5-18-19.1v-0.2c0-10.5 7.6-18.9 17.5-18.9 5.9 0 9.9 2.6 13.4 5.8 0.6 0.5 1.4 0.9 2.4 0.9 1.9 0 3.5-1.5 3.5-3.5 0-1.1-0.6-2.1-1.2-2.6-4.3-3.9-9.8-7.1-18-7.1-14.3 0-25.1 11.8-25.1 25.6v0.2c0 13.7 10.8 25.4 25.1 25.4 8.3 0 13.9-3.2 18.5-7.9 0.6-0.5 1-1.4 1-2.2 0-1.7-1.6-3.4-3.4-3.4z"/>
			</g>
		</g>
	</g>
</svg>