<svg version="1.2" xmlns="http://www.w3.org/2000/svg" viewBox="0 0 617 626" width="617" height="626">
	<title>Vector Smart Object-ai</title>
	<style>
		.s0 { fill: #393185 } 
		.s1 { fill: #20d6c9 } 
	</style>
	<g id="Layer 1">
		<path id="&lt;Path&gt;" class="s0" d="m306.6 12.8c169.3 0 306.6 137.3 306.6 306.6 0 169.3-137.3 306.6-306.6 306.6-169.3 0-306.6-137.3-306.6-306.6 0-169.3 137.3-306.6 306.6-306.6z"/>
		<path id="&lt;Compound Path&gt;" fill-rule="evenodd" class="s0" d="m306.6 21.7c164.4 0 297.7 133.3 297.7 297.7 0 164.4-133.3 297.7-297.7 297.7-164.4 0-297.7-133.3-297.7-297.7 0-164.4 133.3-297.7 297.7-297.7zm75.8 100.7l-4.8 20.1c5.6 3.1 10.4 8.5 11.9 15.2l4 9.8c0.8 3.6 1.6 7.6 2.4 11.2 1.6 9.8 0.8 14.3 1.6 18.7 0 0.5-0.8 3.2 1.6 6.3 3.2 1.3 5.5 3.6 8.7 5.4 3.2 1.8 7.2 3.5 9.6 5.3 0.8 0.5 1.5 0.5 1.5 0.9l6.4 4c0 0.5 0.8 0.9 0.8 0.9 4.8 0.9 16.7 7.2 19.9 10.3l9.5 4 19.9 11.2c3.9 3.6 11.1 7.2 15.9 8.1 3.9 4.9 27.8 16.9 34.9 21 9.6 4.9 8.8 3.5 14.3 13.4 3.2 5.8 6.4 12.5 11.1 17.4 5.6 15.2 12 23.3 32.6 20.6l-1.6-34.9-1.6-21c0-3.6 0-5.8-2.3-8.9-2.4-8.5-3.2-18.8-8-26.9l-4-13.8-3.1-9-4-8.4-3.2-9c-0.8-0.4-0.8-1.3-0.8-1.3l-8.7-14.8c-6.4-6.2-8.8-14.7-15.1-21.4-3.2-4.9-3.2-5.4-7.2-10.3-2.4-3.1-3.1-3.1-5.5-6.3-2.4-2.7-3.2-4-5.6-6.7-3.2-3.5-10.3-9.8-12.7-11.6l-9.5-11.6c-4.8-1.8-5.6-3.1-9.6-7.2-3.2-2.2-7.1-4.9-10.3-8 0 0-0.8-0.9-0.8-0.5l-14.3-9.8c-5.6-3.6-10.3-5.8-15.9-9.4l-15.1-8-4.8-2.3c-8.7-3.5-28.6-14.7-35.7-5.8l0.8 25.5c-7.2 8.9 3.1 8.5-3.2 37.6zm-87.4 16.5c0-41.1 4.8-22.8-26.2-26.8-9.6-1.4-10.4-2.7-9.6-11.6 13.5 0.8 15.9 4.4 31.8 1.7-1.6-21-37.3-14.3-42.9-3.1-7.9 17 11.1 39.3 16.7 48.3 12.7-5.8 14.3-5.4 30.2-8.5zm-58 7.1c7.1-8.5 2.4-7.1 2.4-17.4v-7.1c-4.8-19.3-2.4-40.3-1.6-59.9-5.6-14.8-27-3.6-44.5 3.5-0.8 0-0.8 0.5-1.6 0.5-4 3.6-8.8 4.5-12.7 7.6-9.6 3.1-27.8 14.7-35 20.5-7.1 5-11.1 10.8-18.3 13.5-0.8 0.4-0.8 0.4-0.8 0.8 0 0.9-0.8 0.9-0.8 1.4 0 0-0.8 0.4-0.8 0.9l-10.3 9.8c-4 3.1-19.8 20.1-21.4 25l-9.6 10.3c-0.8 0-0.8 0.5-1.6 0.9-0.8 4.5-7.9 14.8-11.1 17.9 0 0.4-0.8 0.4-0.8 1.3l-1.6 3.2c-1.6 1.8-1.6 2.7-2.4 4.9l-6.3 9.4-11.1 26.3c0 0.5-0.8 0.5-0.8 1.4l-3.2 13.8c-5.6 7.6-5.6 21.9-9.5 31.3l-2.4 26.8c-2.4 9.4-1.6 22.4-1.6 33.1 0 12.5-1.6 21.9 1.6 26.4l3.9 22.8c3.2-3.1 5.6-7.6 7.2-12.1l50.9-76.4c6.3-9.8 12.7-11.2 27.8-21l15.9-11.6c10.3-5.4 19-9.9 28.6-16.1l3.9-2.7c6.4-4 19.9-11.2 23.1-15.2l5.5-1.3c0.8-0.5 0.8-0.9 1.6-0.9 0 0 0.8-0.5 0.8-0.9l18.3-13.4 4.8-1.8c-0.8-16.1-2.4-21 3.1-34.9 2.4-4.5 0.8 1.8 2.4-4.5 0-5.3 4.8-12 8-16.1zm11.1 50.1c-2.4-3.1-4-2.7-7.9-4.5 1.5-11.1 15.1-24.1 18.2-35.3-3.1-4.9-2.4-7.1-9.5-8.5-10.3 11.2-21.5 40.3-13.5 59.9 0.8 3.6 2.4 5.8 4 9 3.1 5.3 2.3 5.3 7.1 8.5-0.8-9.9-0.8-20.6 1.6-29.1zm123.2-47.8l-7.2 3.6c-1.6 11.6 14.3 29.5 16.7 36.2 1.6 6.2-4 5.3-7.9 7.6l0.8 28.6c11.9-5.4 19.8-35.4 7.9-60.8-4-8.1-4-10.3-10.3-15.2zm-93 20.5c15.9-8 15.1-4.4 31.8-4.4 18.3-0.5 21.4-4.1 42.1 9.8 4 3.1 6.4 6.3 11.1 6.7-0.8-10.7-10.3-21.9-16.7-25.9-14.3-9.9-19.8-5.4-36.5-4.9-19.1 0.4-34.2-9.9-50.9 22.8-3.2 5.3-2.4 4.9-2.4 7.6 4.8 0.9 12-6.3 21.5-11.7zm23.8 12.1c0 5.4 3.2 9.8 6.4 12.1 6.4 0 8.7-3.6 9.5-9.4 2.4-9.4 0-9.8-7.9-10.3-6.4-0.9-9.6-0.4-8 7.6zm-27.8 4.5c-15.1 5.3-19 8.9-18.3 30.8 1.6 14.3 3.2 25 18.3 30.9-2.4-22.4-1.6-39.8 0-61.7zm151 113.1c1.6 5.3 0.8 3.5 6.4 6.2l54.8 28.2 0.8-11.6c7.1 1.3 37.3 18.7 46.1 23.6 6.3 3.2 40.5 21.9 44.5 22.4l-44.5-74.7c-4.8-7.6-3.2-5.8-11.2-9.8l-63.5-35.7c-8.8-5-16.7-9.4-26.2-14.3-6.4-3.6-19.9-12.1-26.3-13.9 0.8 8.5 15.9 70.2 19.1 79.6zm-294.8 114.8c19.1-2.2 20.7 0 34.2-9.8 13.5-9.8 12.7-7.2 16.7-27.3 8.7-49.6 19-100.1 26.2-149.7l-102.5 60.8c-4 3.1-39.8 63.9-44.5 71.9-20.7 32.2-23.9 29.5-17.5 46.5 1.6 5.4 4 13 7.1 17 25.5-1.3 54.9-6.2 80.3-9.4zm233.6-195.7c1.6-21.1 1.6-27.3-18.3-32.7 0.8 21 1.6 42.5 0.8 63.9 18.3-10.7 16.7-12.5 17.5-31.2zm-58-2.7c0-15.2-1.6-10.3-8.7-18.4-8-8.9-2.4-14.3-6.4-21.4-7.1 2.2-6.3 9.8-7.9 23.2-0.8 9.9-0.8 19.7-0.8 29.5 1.6 26.4 1.6 28.2 11.9 35.3 3.2 2.3 5.6 5 11.1 3.6 2.4-8.5 0.8-40.7 0.8-51.8zm30.2 16.1c0-11.7 2.4-49.2-2.4-55.5-10.3 0.9-2.4 3.2-9.5 17-5.6 10.8-8.8 4.9-8.8 19.2 0 18.8 0 37.1 0 55.9 22.3-7.1 21.5-12.5 20.7-36.6zm-86.6 61.6c12.7 0.5 58 4.5 65.9-0.8 8.8-7.6 5.6-13 20.7-13.5 8.7 0 25.4 0.9 33.4-0.9 0.8-4.4 2.4-25.4-0.8-31.2-4 0-22.3 14.3-27 18.3-27 21-38.2 18.8-63.6-0.9-4.8-4-21.5-18.8-27.8-19.7zm131.9-13.4l29.4 14.8c-1.6-18.4-6.4-38-8.7-55.9-2.4-13.9-6.4-30.8-19.1-8.5-2.4 4.5-2.4 10.3-2.4 15.6zm-140.6-20.5c0.7-35.8 1.5-19.2-11.2-39.3l-9.5 0.8-44.5 238.7h39.7c-7.1-17-9.5-38.4-7.1-60.3-7.2-9.4-7.2-4.9-7.2-20.1 0-19.2-2.4-17.5 14.3-17.5l11.9-64.3c15.9-9 12.8 10.3 13.6-38zm135 72.4c10.4-0.5 16.7 6.3 21.5 12.1l35 32.6c6.3 5.4 11.1 10.7 17.4 16.1l35.8 32.2 0.8-77.4c-9.5-5.3-112.1-57.6-116.8-58.1-4.8-0.4-28.6 0-33.4 0.9-6.4 0.5-12.7 8.1-19.9 14.8-10.3 9.8-8.7 8.5-7.9 27.2 22.2 0.9 45.3-0.4 67.5-0.4zm-150.9 29.9c28.6 0 133.5 0 162.1 0 19.8 0.9 6.3 32.2 3.9 34.5-2.4 2.6-7.1 6.2-9.5 8.9l-49.3 42v12.5c11.2 0.5 23.9-0.9 34.2 1.4 12.7 2.2 19.1 8.9 27 10.3 4.8-7.2 8-9.9 11.1-21.1 6.4-22.8 3.2-65.2-2.3-85.8-1.6-7.1-2.4-4.9-7.2-8.9-19.1-14.8-11.1-13.4-34.2-13.4-20.6-0.5-41.3-0.9-61.9-0.9v-35.8l-62-0.4c-4.8 8-11.1 46-11.9 56.7zm294 26c7.9-38.5 8.7-33.1-8.8-42.9-3.2-1.8-8.7-5.9-12.7-5.9l-1.6 95.7c-0.8 20.6-0.8 11.6 8 22.8 5.5-17.9 10.3-49.6 15.1-69.7zm-116.8 93.4c7.9 9.4 10.3 16.5 17.4 28.1 16.7 1.4 17.5 1.4 32.6 5.9-3.2-24.6-8.7-51.9-13.5-76.5-4.8-27.2-4-55.4-25.4-63.9 8.7 52.3 8.7 61.2-11.1 106.4zm174-96.6c-12.7-4.4-27.8-18.3-41.3-25-3.2 6.3-23.1 93.4-23.9 104.6 3.2 1.3 18.3 13.9 20.7 17 13.5-10.3 42.1-72 44.5-96.6zm-119.2 90.3c15.1 80.5 4 32.7 22.2 61.7 8.8-3.6 37.4-33.5 42.9-42-6.3-9.8-12.7-15.2-21.4-23.2-29.4-29.1-4.8-18.4-25.4-38-11.2-10.3-25.5-27.8-32.6-31.3 4.8 24.1 9.5 48.7 14.3 72.8zm-282.9-62.1c-8.7 1.3-10.3 6.3-12.7 15.2-4 18.3-3.2 10.3-7.2 18.8 3.2 3.1 3.2 3.5 5.6 6.7l4.8 5.3c0-0.4 0.8 0.5 1.6 0.9zm-21.5 8.5l-96.1 17c0 7.2 11.1 24.1 15.8 29.1l78.7-32.7zm70.7 31.8c4 8 8.8 7.1 18.3 6.7 8 0 15.1 0 23.1 0-0.8-10.3 0.7-13.4-5.6-19.2l-40.5-32.7c-0.8 14.8-1.6 32.7 4.7 45.2zm-91.3 12.5c7.1-4.9 11.9-3.6 16.6-7.6l-5.5-9-65.2 27.8c4.8 9.8 31 39.7 37.4 43.8 0.8-21.9-2.4-41.6 16.7-55zm162.1-377.3c16.6 16.1 7.9 26.4 10.3 51 27 0 30.2-0.5 52.4 8.9 6.4-9.4 23.1-29.9 15.9-47.3-7.1-16.1-38.9-14.8-44.5 0.8 11.1 6.3 19.9-0.4 32.6 0.5v8c-19.1 4.5-30.2 5.9-44.5-3.5 10.3-37.6 40.5-25.5 58.8-20.1l-0.8-36.3c-42.9-7.6-73.9-12-119.2-3.5-11.9 2.2-6.3 5.3-7.9 38 18.2-5.4 32.6-9.9 46.9 3.5zm150.4 483.3q-5.5 3-11.1 5.8 5.6-2.8 11.1-5.8zm10.9-6.3q-5.4 3.2-10.9 6.3 5.5-3.1 10.9-6.3zm-146.1 41.2q4 0 7.9-0.1zm-277.8-205.6q1.3 4.4 2.7 8.8c7.3 22.1 16.9 42.6 28.5 61.3-11.6-18.7-21.2-39.2-28.5-61.3q-1.4-4.4-2.7-8.8zm119.5 79.4c19.9 1.3 106.5 2.7 114.5-2.2 0.7-7.6-2.4-9.9-9.6-9.9h-100.9c-16.7 0-27.8 10.3-28.6 26 7.9-7.2 7.9-14.8 24.6-13.9z"/>
		<path id="&lt;Path&gt;" class="s1" d="m50.1 421.8c25.5-1.4 54.9-6.3 80.3-9.4 19.1-2.3 20.7 0 34.2-9.9 13.5-9.8 12.7-7.1 16.7-27.2 8.7-49.6 19-100.1 26.2-149.8l-102.5 60.8c-4 3.2-39.8 63.9-44.5 72-20.7 32.2-23.9 29.5-17.5 46.5 1.6 5.3 4 12.9 7.1 17z"/>
		<path id="&lt;Path&gt;" class="s0" d="m191.6 64.6c6.3 1.4 3.2-0.4 7.1 4.9 4 5.4 7.2 14.8 8 21.5 0.8 10.3 0.8 27.3-6.4 33.1-14.3-4.9 0.8-23.7-12.7-24.6-8.7 9.4 6.4 29.9-10.3 27.7-11.1-13-5.6-40.7 1.6-55-9.6 3.2-27.8 14.8-35 20.6 15.1 4.5 20.7 33.1 23.1 45.1l5.5-7.6c17.5 5 35.8 32.7 30.2 56.4-16.7 1.7-7.9-20.2-20.6-20.2-4.8 6.3 4.7 22.8 7.9 38.5-9.5-2.7-16.7-13.9-20.7-24.2-7.1-15.6-7.1-21.4-3.1-39.7-17.5 1.7-8-20.6-21.5-18.4-0.8 0.5-0.8 0.9-0.8 0.9l-0.8 2.7q0 0.7 0 1.4c0 6.2 8 15.1 7.2 22.7-14.3 8.5-26.3-27.7-24.7-44.2-0.8 0.4-0.8 0.4-0.8 0.9 0 0.9-0.8 0.9-0.8 1.3 0 0-0.8 0.5-0.8 0.9l-10.3 9.9c8 2.6 27 30.4 20.7 35.3-8.8 6.7-11.9-13.4-20.7-13.4-10.3 0 4 15.6 8.8 22.8 2.3-0.9 3.9-6.3 19 0.4 14.3 7.2 35 36.7 27.8 42.5-7.1 3.1-8.7-1.8-11.9-7.2-7.9-10.3-9.5-7.6-11.1-5.3-4.8 4.9 16.7 25 18.3 33.5-14.3-1.8-23.1-13-29.4-20.6-9.6-11.2-11.9-20.5-11.9-39.8-8 5.8-14.3-0.9-18.3-5.8-3.2-3.1-11.1-12.5-12.7-17.4l-9.6 10.3c-0.8 0-0.8 0.4-1.6 0.9 17.5 1.3 43.7 26.8 38.2 33-4.8 5.4-7.2 0.9-12.7-4-4-3.1-8-5.8-12.7-4-0.8 13 22.2 16.5 15.8 25-6.3 8.5-38.1-13.8-39.7-32.2 0 0.5-0.8 0.5-0.8 1.4l-1.6 3.1c-1.6 1.8-1.6 2.7-2.4 4.9l-6.3 9.4c7.1 0.9 25.4 9.4 20.7 15.2-7.2 8.5-12.8-5.4-23.9-0.9 0.8 11.6 16.7 7.2 21.5 16.1-2.4 7.6-5.6 6.7-14.3 4.5-2.4-0.5-6.4-1.4-8-1.8-7.9-2.7-6.3-1.3-7.1-6.7 0 0.4-0.8 0.4-0.8 1.3l-3.2 13.9c45.3-0.5 47.7 20.5 26.2 16.5-7.9-1.3-13.5-2.7-14.3 4.9 4 5 18.3 4.5 27 7.2 1.6 4.5 0.8 4.9-0.8 9.4-24.6 2.7-27.8 0.9-47.6-6.7l-2.4 26.8c10.3-3.6 27-10.3 38.1-6.7 3.2 16.1-19.9 7.1-21.4 21 5.5 4.5 15.9-1.3 24.6-3.1-4 12.5-6.4 16.1-13.5 18.7-11.9 4.5-16.7 4.5-29.4 3.2 0 12.5-1.6 21.9 1.6 26.3-0.8-10.7-0.8-8.9 7.1-13.4 14.3-7.1 16.7-1.3 13.5 4.9-3.1 6.3-12.7 5.4-14.3 17l4.8 2.3 50.9-76.5c6.3-9.8 12.7-11.1 27.8-21l15.9-11.6c-25.5 1.3-55.7-11.2-58-33.5 11.9-5.4 19-9 35.7-5.4 26.2 5.8 32.6 17 21.5 18.8-7.2 1.3-11.2-6.3-21.5-1.8 0.8 8 4 6.7 11.9 9.4 5.6 1.3 9.6 3.1 15.1 4q1.2-10 4.8-17.4c8.7 1.3 15.1 4.4 19.1 9.8l3.9-2.7c-3.9-5.8 0-18.3 3.2-24.6 9.6 0 15.1 5.4 19.9 9.4l5.5-1.3c0.8-0.5 0.8-0.9 1.6-0.9 0 0 0.8-0.4 0.8-0.9-0.8-0.4-5.5 0.9-2.4-11.6 0.8-4 1.6-6.3 4-9.4 8.8 0.4 11.9 3.6 16.7 7.6l4.8-1.8c-0.8-16.1-2.4-21 3.1-34.9 2.4-4.4 0.8 1.8 2.4-4.4-0.8 0-0.8-1.4-0.8-0.9l-2.3-2.7c-2.4-2.2 0-1.3-3.2-3.1-5.6 4.9-7.2 17.8-8.8 24.6-9.5-0.5-9.5-4.1-8.7-14.8 1.6-17.9 8.7-36.2 27.8-43.4 4 3.6 1.6 3.6 6.4 6.8v-7.2c-14.3-4.9 3.1-22.3-11.2-25-6.3 7.1-0.8 23.7-5.5 26.8-11.1 8-15.1-26.4-5.6-46.9 4-9.9 8.8-10.8 13.5-17.9 4 1.8 3.2 1.8 7.2 3.1-5.6-14.7-27-3.6-44.5 3.6-0.8 0-0.8 0.4-1.6 0.4z"/>
		<path id="&lt;Path&gt;" class="s0" d="m384.7 58.4c19 8.9 23 33 19.8 53.2-1.5 8.5-1.5 12.5-11.1 11.1-2.4-7.6 0-14.3-1.6-21.4-3.2-14.3-6.3 4-6.3-17.5-7.2 9 3.1 8.5-3.2 37.6 18.3 1.8 27.8 24.1 29.4 43.4 0.8 10.2 1.6 13.8-8.7 14.3-0.8-6.3-4-18.8-7.2-23.7-4 0-3.2 0-6.4 1.3l4 9.8c0.8 3.6 1.6 7.6 2.4 11.2 1.6 9.8 0.8 14.3 1.6 18.8 0 0.4-0.8 3.1 1.6 6.2 4-5.3 8.7-7.6 15.9-8 2.4 3.1 3.1 4.5 3.9 8 4 13.9 0 9.9-1.5 10.8 0.7 0.4 1.5 0.4 1.5 0.9l6.4 4c0 0.4 0.8 0.9 0.8 0.9 1.6-3.6 1.6-4 7.9-7.2 4-2.2 4.8-2.7 10.4-2.7 2.4 3.2 3.2 5 3.9 9.4 3.2 13.4-0.7 10.3-2.3 10.8l9.5 4c4-3.6 8.7-5.4 15.9-6.7 1.6 5.3 3.2 10.7 4 17.9 17.4-5 26.2-5 27.8-13.9-5.6-2.2-7.2-1.8-13.5 0.4-3.2 0.5-4.8 1.8-7.2 1.4-9.5-0.5-11.1-11.2 19.1-18.8 17.5-4 23.8 0 36.5 5.4-0.8 10.7-10.3 18.8-16.7 23.7-7.9 6.2-17.4 8-30.1 9.8 3.9 4.9 27.8 17 34.9 21 9.6 4.9 8.8 3.6 14.3 13.4 3.2 5.8 6.4 12.5 11.1 17.5 7.2 2.2 12.8 5.3 18.3 1.3-2.4-13.9-25.4-4.9-22.2-20.6 9.5-3.5 25.4 1.4 34.9 4.9l-1.6-21c0-3.5 0-5.8-2.3-8.9l0.8 7.2c-16.7 5.8-25.5 6.2-43.7 4-5.6-19.2 18.2-6.7 27-16.6-1.6-7.6-6.4-6.2-15.1-4.9-12.7 2.3-19.1-5.3-6.4-10.7 2.4-0.9 6.4-2.2 8.8-2.7 7.9-2.2 12.7-3.1 20.6-3.1l-4-13.9c0 8.5-19.8 9-24.6 7.6l-1.6-4.9c3.2-4.9 17.5-9.8 23.1-11.6l-4-8.5c-1.6 2.7-15.9 11.2-21.5 4.9-3.9-5.4 12-12.9 18.3-13.8-0.8-0.5-0.8-1.4-0.8-1.4l-8.7-14.7c-4 14.3-28.6 35.7-39.8 28.1-0.7-8.9 4-6.2 13.6-17 2.3-2.6 3.9-3.1 3.9-8-12.7-4.5-18.2 17-26.2 8-4-4.4 8-16.1 11.9-19.6 4-4 13.5-11.2 21.5-13-3.2-4.9-3.2-5.4-7.2-10.3-0.8 1.8-16.7 31.3-30.2 21.9 0.8 18.4-2.4 29.5-11.1 39.8-6.3 7.6-15.9 18.8-29.4 20.6 1.6-8.5 22.3-28.6 17.5-33.5-8-9.4-12.7 21-23.1 12.5-7.1-6.3 16.7-42.5 37.4-45.2 8.7-1.3 4.8 0 9.5 2.3 3.2-5.4 13.5-16.6 12.7-21.5-1.5-1.3-3.9-2.7-7.9 0-4 2.7-9.5 17.9-16.7 12.1l-0.8-4.9c0-7.2 13.5-24.2 18.3-28.7l-9.5-11.6c1.5 12.5-1.6 18.4-6.4 28.2-7.2 12.9-9.5 17.9-18.3 12.9-0.8-6.2 4.8-13.8 6.4-19.2 0.8-2.7 1.6-5.8 0-8.5-13.5-2.2-2.4 10.3-19.1 19.7l-2.4 1.3c5.6 24.6-7.9 56.4-24.6 61.3 2.4-8.1 12.7-32.7 7.9-38.5-12.7 0-3.9 21.9-20.6 20.2-4.8-22.8 11.9-51.4 30.2-56.4l5.5 7.6c3.2-12 7.2-38 21.5-43.8 0 0-0.8-0.9-0.8-0.4l-14.3-9.9c-5.6-3.5-10.3-5.8-15.9-9.3 5.6 17.8 8.7 24.1 3.2 45.1-2.4 9.4-11.1 12.5-11.9 2.2-0.8-8.5 3.1-16.9-2.4-22.3-13.5 1.3 1.6 19.7-12.7 24.6-9.6-7.6-8-34.9-1.6-47.8 5.5-13 6.3-10.3 10.3-9.9l-4.8-2.2c-8.7-3.6-28.6-14.8-35.7-5.8z"/>
		<path id="&lt;Path&gt;" class="s1" d="m236.9 303.3c-4.8 8.1-11.1 46-11.9 56.8 28.6 0 58 0 86.6 0h75.5c19.8 0.9 6.3 32.2 3.9 34.4-2.4 2.7-7.1 6.3-9.5 8.9l-49.3 42v12.6c11.2 0.4 23.9-0.9 34.2 1.3 12.7 2.2 19.1 8.9 27 10.3 4.8-7.2 8-9.8 11.1-21 6.4-22.8 3.2-65.3-2.3-85.8-1.6-7.2-2.4-5-7.2-9-19.1-14.7-11.1-13.4-34.2-13.4-20.6-0.4-41.3-0.9-61.9-0.9v-35.7z"/>
		<path id="&lt;Path&gt;" class="s1" d="m432.4 231.8c-6.4-3.6-19.9-12.1-26.3-13.9 0.8 8.5 15.9 70.2 19.1 79.6 1.6 5.4 0.8 3.6 6.4 6.3l54.8 28.1 0.8-11.6c7.1 1.3 37.3 18.8 46.1 23.7 6.3 3.1 40.5 21.9 44.5 22.3l-44.5-74.6c-4.8-7.6-3.2-5.8-11.2-9.8l-63.5-35.8c-8.8-4.9-16.7-9.4-26.2-14.3z"/>
		<path id="&lt;Path&gt;" class="s1" d="m308.4 330.6c22.2 0.9 45.3-0.5 67.5-0.5 10.4-0.4 16.7 6.3 21.5 12.1l35 32.6c6.3 5.4 11.1 10.8 17.4 16.1l35.8 32.2 0.8-77.3c-9.5-5.4-112.1-57.7-116.8-58.1-4.8-0.5-28.6 0-33.4 0.9-6.4 0.4-12.7 8-19.9 14.7-10.3 9.8-8.7 8.5-7.9 27.3z"/>
		<path id="&lt;Path&gt;" class="s1" d="m247.2 83c18.3-5.4 32.6-9.9 46.9 3.5 16.7 16.1 7.9 26.4 10.3 51 27 0 30.2-0.5 52.5 8.9 6.3-9.4 23-29.9 15.9-47.4-7.2-16-39-14.7-44.5 0.9 11.1 6.3 19.8-0.4 32.5 0.5v8c-19 4.5-30.2 5.8-44.5-3.5 10.4-37.6 40.6-25.5 58.8-20.2l-0.8-36.2c-42.9-7.6-73.9-12-119.1-3.5-12 2.2-6.4 5.3-8 38z"/>
		<path id="&lt;Path&gt;" class="s1" d="m227.3 295.7c15.9-8.9 12.8 10.3 13.6-38 0.7-35.7 1.5-19.2-11.2-39.3l-9.5 0.9-44.5 238.7h39.7c-7.1-17-9.5-38.5-7.1-60.4-7.2-9.4-7.2-4.9-7.2-20.1 0-19.2-2.4-17.4 14.3-17.4z"/>
		<path id="&lt;Path&gt;" class="s1" d="m442.7 400.3c4.8 24.1 9.5 48.7 14.3 72.9 15.1 80.4 4 32.6 22.2 61.6 8.8-3.5 37.4-33.5 42.9-42-6.3-9.8-12.7-15.2-21.4-23.2-29.4-29.1-4.8-18.3-25.4-38-11.2-10.3-25.5-27.7-32.6-31.3z"/>
		<path id="&lt;Path&gt;" class="s1" d="m531.7 479.4c13.5-10.3 42.1-71.9 44.5-96.5-12.7-4.5-27.8-18.4-41.3-25.1-3.2 6.3-23.1 93.5-23.9 104.6 3.2 1.4 18.3 13.9 20.7 17z"/>
		<path id="&lt;Path&gt;" class="s1" d="m438.7 437c-4.8-27.3-4-55.5-25.4-64 8.7 52.3 8.7 61.3-11.1 106.4 7.9 9.4 10.3 16.6 17.4 28.2 16.7 1.3 17.5 1.3 32.6 5.8-3.2-24.6-8.7-51.9-13.5-76.4z"/>
		<path id="&lt;Path&gt;" class="s1" d="m125.6 106.2c-1.6 16.5 10.4 52.7 24.7 44.2 0.8-7.6-7.2-16.5-7.2-22.7q0-0.7 0-1.4l0.8-2.7c0 0 0-0.4 0.8-0.9 13.5-2.2 4 20.1 21.5 18.4-4 18.3-4 24.1 3.1 39.7 4 10.3 11.2 21.5 20.7 24.2-3.2-15.7-12.7-32.2-7.9-38.5 12.7 0 3.9 21.9 20.6 20.2 5.6-23.7-12.7-51.4-30.2-56.4l-5.5 7.6c-2.4-12-8-40.6-23.1-45.1-7.1 4.9-11.1 10.7-18.3 13.4z"/>
		<path id="&lt;Path&gt;" class="s1" d="m491.2 109.3c-4.8-1.8-5.6-3.1-9.6-7.1-3.2-2.3-7.1-4.9-10.3-8.1-14.3 5.8-18.3 31.8-21.5 43.8l-5.5-7.6c-18.3 5-35 33.6-30.2 56.4 16.7 1.7 7.9-20.2 20.6-20.2 4.8 5.8-5.5 30.4-7.9 38.5 16.7-4.9 30.2-36.7 24.6-61.3l2.4-1.3c16.7-9.4 5.6-21.9 19.1-19.7 1.6 2.7 0.8 5.8 0 8.5-1.6 5.4-7.2 13-6.4 19.2 8.8 5 11.1 0 18.3-12.9 4.8-9.8 7.9-15.7 6.4-28.2z"/>
		<path id="&lt;Path&gt;" class="s1" d="m249.6 291.7c12.7 0.4 58 4.5 65.9-0.9 8.8-7.6 5.6-13 20.7-13.4 8.7 0 25.4 0.9 33.4-0.9 0.8-4.5 2.4-25.5-0.8-31.3-4 0-22.3 14.3-27 18.3-27 21-38.2 18.8-63.6-0.9-4.8-4-21.5-18.7-27.8-19.6z"/>
		<path id="&lt;Path&gt;" class="s1" d="m91.5 144.2c1.6 4.9 9.5 14.3 12.7 17.4 4 4.9 10.3 11.6 18.3 5.8 0 19.3 2.3 28.6 11.9 39.8 6.3 7.6 15.1 18.8 29.4 20.6-1.6-8.5-23.1-28.6-18.3-33.5 1.6-2.3 3.2-5 11.1 5.3 3.2 5.4 4.8 10.3 11.9 7.2 7.2-5.8-13.5-35.3-27.8-42.5-15.1-6.7-16.7-1.3-19-0.4-4.8-7.2-19.1-22.8-8.8-22.8 8.8 0 11.9 20.1 20.7 13.4 6.3-4.9-12.7-32.7-20.7-35.3-4 3.1-19.8 20.1-21.4 25z"/>
		<path id="&lt;Path&gt;" class="s1" d="m524.5 145.5c-2.4-3.1-3.2-3.1-5.5-6.2-2.4-2.7-3.2-4-5.6-6.7-3.2-3.6-10.3-9.9-12.7-11.7-4.8 4.5-18.3 21.5-18.3 28.7l0.8 4.9c7.2 5.8 12.7-9.4 16.7-12.1 4-2.7 6.4-1.3 7.9 0 0.8 4.9-9.5 16.1-12.7 21.5-4.7-2.3-0.8-3.6-9.5-2.3-20.7 2.7-44.5 38.9-37.4 45.2 10.4 8.5 15.1-21.9 23.1-12.5 4.8 4.9-15.9 25-17.5 33.5 13.5-1.8 23.1-13 29.4-20.6 8.7-10.3 11.9-21.4 11.1-39.8 13.5 9.4 29.4-20.1 30.2-21.9z"/>
		<path id="&lt;Path&gt;" class="s1" d="m503.9 455.7c5.5-17.9 10.3-49.6 15.1-69.7 7.9-38.4 8.7-33.1-8.8-42.9-3.2-1.8-8.7-5.8-12.7-5.8l-1.6 95.6c-0.8 20.6-0.8 11.7 8 22.8z"/>
		<path id="&lt;Path&gt;" class="s1" d="m152.6 419.5l-96.1 17c0 7.2 11.1 24.1 15.9 29.1l78.7-32.7z"/>
		<path id="&lt;Path&gt;" class="s1" d="m136.8 252.8c10.3-5.4 19-9.8 28.6-16.1-4-5.4-10.4-8.5-19.1-9.8q-3.6 7.4-4.8 17.4c-5.5-0.9-9.5-2.7-15.1-4-7.9-2.7-11.1-1.4-11.9-9.4 10.3-4.5 14.3 3.1 21.5 1.8 11.1-1.8 4.7-13-21.5-18.8-16.7-3.6-23.8 0-35.7 5.4 2.3 22.3 32.5 34.8 58 33.5z"/>
		<path id="&lt;Path&gt;" class="s1" d="m264.7 146.4c12.7-5.8 14.3-5.3 30.2-8.5 0-41.1 4.8-22.8-26.2-26.8-9.6-1.3-10.4-2.7-9.6-11.6 13.5 0.9 15.9 4.5 31.8 1.8-1.6-21-37.3-14.3-42.9-3.1-7.9 16.9 11.1 39.3 16.7 48.2z"/>
		<path id="&lt;Path&gt;" class="s1" d="m126.4 492.4c8-7.2 8-14.8 24.7-13.9 19.8 1.4 106.4 2.7 114.4-2.2 0.8-7.6-2.4-9.8-9.6-9.8h-100.9c-16.7 0-27.8 10.2-28.6 25.9z"/>
		<path id="&lt;Path&gt;" class="s1" d="m305.2 265.8c2.4-8.5 0.8-40.7 0.8-51.9 0-15.2-1.6-10.3-8.7-18.3-8-8.9-2.4-14.3-6.4-21.5-7.1 2.3-6.3 9.9-7.9 23.3-0.8 9.8-0.8 19.6-0.8 29.5 1.6 26.4 1.6 28.1 11.9 35.3 3.2 2.2 5.6 4.9 11.1 3.6z"/>
		<path id="&lt;Path&gt;" class="s1" d="m115.3 518.8c0.8-22-2.4-41.6 16.7-55 7.1-4.9 11.9-3.6 16.7-7.6l-5.6-9-65.1 27.7c4.7 9.9 30.9 39.8 37.3 43.9z"/>
		<path id="&lt;Path&gt;" class="s1" d="m475.3 244.8c3.9 3.5 11.1 7.1 15.9 8 12.7-1.8 22.2-3.6 30.1-9.8 6.4-4.9 15.9-13 16.7-23.7-12.7-5.4-19-9.4-36.5-5.4-30.2 7.6-28.6 18.3-19.1 18.8 2.4 0.4 4-0.9 7.2-1.4 6.3-2.2 7.9-2.6 13.5-0.4-1.6 8.9-10.4 8.9-27.8 13.9z"/>
		<path id="&lt;Path&gt;" class="s1" d="m178.9 72.2c-7.2 14.3-12.7 42-1.6 55 16.7 2.2 1.6-18.3 10.3-27.7 13.5 0.9-1.6 19.7 12.7 24.6 7.2-5.8 7.2-22.8 6.4-33.1-0.8-6.7-4-16.1-8-21.5-3.9-5.3-0.8-3.5-7.1-4.9-4 3.6-8.8 4.5-12.7 7.6z"/>
		<path id="&lt;Path&gt;" class="s1" d="m440.3 74.5l-15.1-8.1c-4-0.4-4.8-3.1-10.3 9.9-6.4 12.9-8 40.2 1.6 47.8 14.3-4.9-0.8-23.3 12.7-24.6 5.5 5.4 1.6 13.8 2.4 22.3 0.8 10.3 9.5 7.2 11.9-2.2 5.5-21 2.4-27.3-3.2-45.1z"/>
		<path id="&lt;Path&gt;" class="s1" d="m315.5 266.7c22.3-7.2 21.5-12.6 20.7-36.7 0-11.6 2.4-49.2-2.4-55.4-10.3 0.9-2.4 3.1-9.5 17-5.6 10.7-8.8 4.9-8.8 19.2 0 18.8 0 37.1 0 55.9z"/>
		<path id="&lt;Path&gt;" class="s1" d="m256.7 179.5c4.8 0.9 12-6.3 21.5-11.6 15.9-8.1 15.1-4.5 31.8-4.5 18.3-0.4 21.4-4 42.1 9.8 4 3.2 6.4 6.3 11.1 6.7-0.8-10.7-10.3-21.9-16.7-25.9-14.3-9.8-19.8-5.3-36.5-4.9-19.1 0.5-34.2-9.8-50.9 22.8-3.2 5.4-2.4 4.9-2.4 7.6z"/>
		<path id="&lt;Path&gt;" class="s1" d="m380.7 244.3l0.8 34 29.4 14.7c-1.6-18.3-6.4-38-8.7-55.8-2.4-13.9-6.4-30.9-19.1-8.5-2.4 4.4-2.4 10.2-2.4 15.6z"/>
		<path id="&lt;Path&gt;" class="s1" d="m218.6 406.1c-0.8 14.8-1.6 32.6 4.8 45.2 3.9 8 8.7 7.1 18.2 6.7 8 0 15.1 0 23.1 0-0.8-10.3 0.8-13.4-5.6-19.3z"/>
		<path id="&lt;Path&gt;" class="s1" d="m69.2 173.2c1.6 18.4 33.4 40.7 39.7 32.2 6.4-8.5-16.6-12-15.8-25 4.7-1.8 8.7 0.9 12.7 4 5.5 4.9 7.9 9.4 12.7 4 5.5-6.2-20.7-31.7-38.2-33-0.8 4.4-7.9 14.7-11.1 17.8z"/>
		<path id="&lt;Path&gt;" class="s1" d="m33.5 264.9c19.8 7.6 23 9.4 47.6 6.7 1.6-4.5 2.4-4.9 0.8-9.4-8.7-2.7-23-2.2-27-7.2 0.8-7.6 6.4-6.2 14.3-4.9 21.5 4 19.1-17-26.2-16.5-5.6 7.6-5.6 21.9-9.5 31.3z"/>
		<path id="&lt;Path&gt;" class="s1" d="m546.8 177.3c-6.4-6.3-8.8-14.8-15.1-21.5-8 1.8-17.5 9-21.5 13-3.9 3.5-15.9 15.2-11.9 19.6 8 9 13.5-12.5 26.2-8 0 4.9-1.6 5.4-3.9 8-9.6 10.8-14.3 8.1-13.6 17 11.2 7.6 35.8-13.8 39.8-28.1z"/>
		<path id="&lt;Path&gt;" class="s1" d="m31.1 291.7c-2.4 9.4-1.6 22.3-1.6 33.1 12.7 1.3 17.5 1.3 29.4-3.2 7.1-2.6 9.5-6.2 13.5-18.7-8.7 1.8-19.1 7.6-24.6 3.1 1.5-13.9 24.6-4.9 21.4-21-11.1-3.6-27.8 3.1-38.1 6.7z"/>
		<path id="&lt;Path&gt;" class="s1" d="m578.6 260.4c-2.4-8.5-3.2-18.8-8-26.8-7.9 0-12.7 0.9-20.6 3.1-2.4 0.5-6.4 1.8-8.8 2.7-12.7 5.4-6.3 13 6.4 10.7 8.7-1.3 13.5-2.7 15.1 4.9-8.8 9.9-32.6-2.6-27 16.6 18.2 2.2 27 1.8 43.7-4z"/>
		<path id="&lt;Path&gt;" class="s1" d="m239.3 120.5c-4.8-19.2-2.4-40.2-1.6-59.9-4-1.3-3.2-1.3-7.2-3.1-4.7 7.1-9.5 8-13.5 17.9-9.5 20.5-5.5 54.9 5.6 46.9 4.7-3.1-0.8-19.7 5.5-26.8 14.3 2.7-3.1 20.1 11.2 25z"/>
		<path id="&lt;Path&gt;" class="s1" d="m228.9 161.2c0-5.4 4.8-12.1 8-16.1 7.1-8.5 2.4-7.2 2.4-17.4-4.8-3.2-2.4-3.2-6.4-6.8-19.1 7.2-26.2 25.5-27.8 43.4-0.8 10.7-0.8 14.3 8.7 14.8 1.6-6.8 3.2-19.7 8.8-24.6 3.2 1.8 0.8 0.9 3.2 3.1l2.3 2.7c0-0.5 0 0.9 0.8 0.9z"/>
		<path id="&lt;Path&gt;" class="s1" d="m551.5 304.7c5.6 15.1 12 23.2 32.6 20.5l-1.6-34.9c-9.5-3.5-25.4-8.4-34.9-4.9-3.2 15.7 19.8 6.7 22.2 20.6-5.5 4-11.1 0.9-18.3-1.3z"/>
		<path id="&lt;Path&gt;" class="s1" d="m389.4 156.7c3.2-1.3 2.4-1.3 6.4-1.3 3.2 4.9 6.4 17.4 7.2 23.7 10.3-0.5 9.5-4.1 8.7-14.3-1.6-19.3-11.1-41.6-29.4-43.4l-4.8 20.1c5.6 3.1 10.4 8.5 11.9 15.2z"/>
		<path id="&lt;Path&gt;" class="s1" d="m346.5 247.9c18.3-10.7 16.7-12.5 17.5-31.3 1.6-21 1.6-27.3-18.3-32.6 0.8 21 1.6 42.4 0.8 63.9z"/>
		<path id="&lt;Path&gt;" class="s1" d="m385.5 83.8c0 21.5 3.1 3.2 6.3 17.5 1.6 7.1-0.8 13.8 1.6 21.4 9.6 1.4 9.6-2.6 11.1-11.1 3.2-20.2-0.8-44.3-19.8-53.2z"/>
		<path id="&lt;Path&gt;" class="s1" d="m246.4 224.2c-0.8-9.8-0.8-20.6 1.6-29.1-2.4-3.1-4-2.6-7.9-4.4 1.5-11.2 15.1-24.2 18.2-35.3-3.1-5-2.4-7.2-9.5-8.5-10.3 11.1-21.5 40.2-13.5 59.9 0.8 3.5 2.4 5.8 4 8.9 3.1 5.4 2.3 5.4 7.1 8.5z"/>
		<path id="&lt;Path&gt;" class="s1" d="m274.2 246.1c-2.4-22.3-1.6-39.8 0-61.7-15.1 5.4-19 9-18.3 30.9 1.6 14.3 3.2 25 18.3 30.8z"/>
		<path id="&lt;Path&gt;" class="s1" d="m364 150.9c-1.6 11.6 14.3 29.5 16.7 36.2 1.6 6.3-4 5.4-7.9 7.6l0.8 28.6c11.9-5.4 19.8-35.3 7.9-60.8-4-8-4-10.3-10.3-15.2z"/>
		<path id="&lt;Path&gt;" class="s1" d="m47 218.4c0.8 5.4-0.8 4 7.1 6.7 1.6 0.4 5.6 1.3 8 1.8 8.7 2.2 11.9 3.1 14.3-4.5-4.8-8.9-20.7-4.5-21.5-16.1 11.1-4.5 16.7 9.4 23.9 0.9 4.7-5.8-13.6-14.3-20.7-15.2z"/>
		<path id="&lt;Path&gt;" class="s1" d="m174.1 411c-8.7 1.4-10.3 6.3-12.7 15.2-4 18.4-3.2 10.3-7.2 18.8 3.2 3.1 3.2 3.6 5.6 6.7l4.8 5.4c0-0.5 0.8 0.4 1.6 0.9z"/>
		<path id="&lt;Path&gt;" class="s1" d="m31.1 351.1l3.9 22.8c3.2-3.1 5.6-7.6 7.2-12l-4.8-2.3c1.6-11.6 11.2-10.7 14.3-17 3.2-6.2 0.8-12-13.5-4.9-7.9 4.5-7.9 2.7-7.1 13.4z"/>
		<path id="&lt;Path&gt;" class="s1" d="m169.3 234c6.4-4 19.9-11.1 23.1-15.2-4.8-4-10.3-9.4-19.9-9.4-3.2 6.3-7.1 18.8-3.2 24.6z"/>
		<path id="&lt;Path&gt;" class="s1" d="m566.6 219.7l-3.1-8.9c-5.6 1.8-19.9 6.7-23.1 11.6l1.6 4.9c4.8 1.4 24.6 0.9 24.6-7.6z"/>
		<path id="&lt;Path&gt;" class="s1" d="m426 219.3c4.8 0.9 16.7 7.1 19.9 10.3 1.6-0.5 5.5 2.6 2.3-10.8-0.7-4.4-1.5-6.2-3.9-9.4-5.6 0-6.4 0.5-10.4 2.7-6.3 3.2-6.3 3.6-7.9 7.2z"/>
		<path id="&lt;Path&gt;" class="s1" d="m308.4 192c6.4 0 8.7-3.6 9.5-9.4 2.4-9.4 0-9.8-7.9-10.3-6.4-0.8-9.6-0.4-8 7.6 0 5.4 3.2 9.9 6.4 12.1z"/>
		<path id="&lt;Path&gt;" class="s1" d="m200.3 215.7l18.3-13.4c-4.8-4-7.9-7.2-16.7-7.6-2.4 3.1-3.2 5.4-4 9.4-3.1 12.5 1.6 11.2 2.4 11.6z"/>
		<path id="&lt;Path&gt;" class="s1" d="m399 202.7c3.2 1.4 5.5 3.6 8.7 5.4 3.2 1.8 7.2 3.6 9.6 5.4 1.5-0.9 5.5 3.1 1.5-10.8-0.8-3.5-1.5-4.9-3.9-8-7.2 0.4-11.9 2.7-15.9 8z"/>
		<path id="&lt;Path&gt;" class="s1" d="m559.5 202.3l-3.2-8.9c-6.3 0.9-22.2 8.4-18.3 13.8 5.6 6.3 19.9-2.2 21.5-4.9z"/>
		<path id="&lt;Path&gt;" class="s1" d="m455.4 233.6l19.9 11.2c-0.8-7.2-2.4-12.6-4-17.9-7.2 1.3-11.9 3.1-15.9 6.7z"/>
		<path id="&lt;Compound Path&gt;" fill-rule="evenodd" class="s1" d="m268.6 492q5.5 0 7.2 0.6-0.2 0-0.5 5.4-1.9-0.5-6.6-0.5-4.8-0.1-6.9 0.3l-0.2-5.4q2-0.4 7-0.4zm11.4 31.3q-5.3 0-5.3-9.3 0-1.5 0.5-4.5 0.4-2.9 0.4-3.2 0-1.7-2-1.7-2.6 0-4.9 2.4-2.1 2.2-2.1 4.1 0 1.7 1.3 4.8 1.2 2.6 2.5 4.4l-3.2 2.7q-2-2.2-3.5-5.6-1.8-3.8-1.8-6.7 0-3.8 4.6-7.4 4.3-3.5 8.3-3.5 2.2 0 3.8 1.1 1.6 1.2 1.6 3 0 1.8-0.4 5.6-0.4 3.8-0.4 5.8 0 3.2 2.1 3.2h8.6q1.4 0 2.4-1.2 1-1.2 1-2.7 0-0.6-0.2-1.2l-3.9-11.4 4.4-2.1q1.7 4.3 4.4 12.5 0.4 1.2 0.4 2.6 0 3.2-1.9 5.6-2.1 2.7-5 2.7zm12.1 3.6q5.5 0 7.2 0.6-0.2 0-0.5 5.4-1.9-0.5-6.6-0.5-4.8-0.1-6.9 0.3l-0.2-5.4q2.1-0.4 7-0.4zm24.1-20.5q3.5 6.1 3.5 11.8 0 8.4-6.2 14.8l-3.6-3.3q3-2.6 4-6.4h-4.9q-2.2 0-3.9-2.4-2.3-3.2-2.3-9.5 0-4.6 1.7-7.9 1.7-3.4 4.3-3.4 3.7 0 7.4 6.3zm-1.4 12.1q0.1-0.6 0.1-1.3 0-3.7-2.3-8-2-3.8-3.2-3.8-1.9 0-1.9 6.5 0 2.3 0.8 4.3 0.9 2.3 2.4 2.3zm17.6 0.8q0 2.2-0.1 4h-4.6q0.1-1.2 0.1-2.9 0-6.2-1.3-15.7-1.3-9.3-2.7-14.2l4.9-1q1.2 5.3 2.3 13.2 1.4 9.8 1.4 16.6zm8.4-22.1q-3.2-0.5-5.7 0v-5.1q0.5-0.3 2.8-0.3 2 0 2.9 0.1zm2.9 10.8q2.2 6.1 2.2 10.2 0 8.6-6 15l-3.7-3q4.9-6.3 4.9-12.9 0-3-1.9-8.2l-2.6-7.1 4.2-2.2z"/>
		<path id="&lt;Compound Path&gt;" fill-rule="evenodd" class="s1" d="m352.2 571.7q0 1.4-0.1 2.5-0.8 5-6.2 7.4-4.5 2-11.1 2-10 0-10-8.1 0-3.2 1.8-7.9 1.9-4.8 4.2-7.8l3.7 2.3q-1.9 3-3.3 6.9-1.5 4.1-1.5 6.5 0 3.5 5.5 3.5 6.6 0 9.4-1.8 2.8-1.8 2.8-6 0-3-1.3-8.2-1.1-4.7-2.5-7.8l4.1-1.8q1.8 3.1 3.2 8.5 1.3 5.5 1.3 9.8zm-11.5-13.3q-3.2-0.4-5.7 0v-5.1q0.5-0.2 2.7-0.3 2.1 0 3 0.2zm23.1 17.5q-3.3 0-5.4-2.7-2.1-2.6-2.1-7.1 0-5.3 1.1-11.9 1.2-6.7 3.1-11.9l4.7 1.5q-1.8 4.2-2.9 11.3-1 6.3-1 10.6 0 3.2 1.2 4.5 1 1 3.2 1h5.3q1.5 0 2.5-1.2 1-1.2 1-2.7 0-0.6-0.2-1.2l-3.9-11.5 4.4-2q1.7 4.2 5.9 16.8 0.6 1.8 1.8 1.8h13.9q3.8 0 3.8-1.8-1.8 0.6-4.3 0.6-10.7 0-10.7-7.7 0-3.1 1.7-6.1 1.9-3.5 4.8-3.5 4.3 0 8.9 5.8 4.4 5.6 4.4 9.9 0 3.4-2.6 5.5-2.4 2-6 2h-13.9q-3.1 0-4.9-2.8-2.2 2.8-5 2.8zm13.3-25.9q-3.2-0.4-5.7 0v-5.1q0.5-0.3 2.7-0.3 2.1 0 3 0.2zm17.3-0.1q-3.1-0.4-5.7 0v-5.1q0.6-0.2 2.8-0.3 2 0 2.9 0.2zm-0.2 15.2q2.9 0 4.4-0.9-0.7-2.1-2.7-4.3-2-2.3-3.4-2.3-1.2 0-2 1.7-0.6 1.3-0.6 2.6 0 1.8 1.1 2.6 0.9 0.6 3.2 0.6z"/>
		<path id="&lt;Compound Path&gt;" fill-rule="evenodd" class="s1" d="m215.2 546q5.5 0 7.2 0.6-0.2 0-0.5 5.4-1.9-0.5-6.6-0.6-4.8 0-6.9 0.4l-0.2-5.4q2-0.4 7-0.4zm6.8 13.6q4.2 5.2 4.2 9 0 3-1.5 5.1-1.7 2.2-4.4 2.2h-5.9q-5.9 0-5.9-6.2 0-2.1 1-5.5 1-3.2 2-5.2l4.2 1.8q-2.3 5.1-2.3 7.7 0 2.7 1.8 2.7h4q1 0 1.7-0.9 0.6-0.9 0.6-2 0-1.8-2.5-5-3.1-4.1-7.8-6.5l2.6-3.7q4.1 1.5 8.2 6.5zm24.1 16.3q-1.3 5.3-5.7 9.8l-3.6-3.3q3.1-2.6 4-6.5h-4.8q-2.3 0-3.9-2.3-2.3-3.2-2.3-9.5 0-4.6 1.7-7.9 1.7-3.4 4.3-3.4 3.7 0 7.3 6.4 3.6 6.3 3.6 12h4.7q0-6.4 3.5-12.3 3.3-5.6 6-5.6 3.9 0 3.9 10 0 12.6-6.6 12.6h-1.3q0 1.4 1.1 2.4 1.2 1.2 2.9 1.2 0.7-3.5 3-5.8 2.5-2.5 5.8-2.5h6.1q-1-2-1-6.3 0-4.2 1.2-7.6 1.6-4.3 4.6-4.4 3.6 0.1 7.2 5.9 3.2 5.1 3.2 7.9 0 3.4-1.9 4.5h6.9q2.9 0 2.9-4.2 0-4.1-1.2-11.6-1.2-7.1-2.6-11.8l4.4-1.7q1.6 5.1 2.8 12.1 1.2 7.4 1.2 12.9 0 3.7-1.5 6.3-1.7 2.7-4.4 2.7h-15.8q-2.1 0-2.9-0.5-0.8 0.5-3.4 0.5h-5.2q-1.7 0-3.2 1.9-1.8 2.3-1.8 6-1.3 1.1-3.5 1.1-3.9 0-7-3.2-2.9-2.8-2.9-5.8zm-4.3-4.7q0.1-0.6 0.1-1.3 0-3.8-2.3-8-2.1-3.8-3.2-3.8-1.9 0-1.9 6.5 0 2.3 0.8 4.2 0.9 2.4 2.4 2.4zm18.5-9q0-1.8-0.3-1.8-0.9 0-2.2 3.7-1.3 3.9-1.3 7.1h0.6q0.8 0 1.6-1.1 0.7-1 1-2.4 0.6-2.5 0.6-5.5zm20.1-18.2q5.5 0 7.2 0.6-0.2 0-0.5 5.4-1.9-0.5-6.6-0.6-4.8 0-6.9 0.4l-0.2-5.4q2.1-0.4 7-0.4zm3.9 25.8q1.9-1.4 1.9-3.2 0-1.3-2.1-5-2-3.8-2.9-3.8-1.9 0-1.9 6.6 0 4.8 2.2 6.8 1.4-0.4 2.8-1.4zm31.9 2.2q0 2.1-0.1 3.9h-4.6q0.1-1.2 0.1-2.8 0-6.2-1.3-15.7-1.3-9.4-2.7-14.2l4.9-1q1.3 5.3 2.3 13.2 1.4 9.8 1.4 16.6z"/>
	</g>
</svg>