<svg xmlns="http://www.w3.org/2000/svg" width="2542.922" height="1252.638" viewBox="0 0 2542.922 1252.638">
  <g id="call_to_action_backgroudn" data-name="call to action backgroudn" transform="translate(446.348 369.591)" opacity="0.57">
    <path id="Path_69" data-name="Path 69" d="M38,500S262.867,718,677.327,702s339.5-226,487.212-220,224.867,174,487.212,138S2176.44,346,2176.44,346" transform="translate(-156.078 0.46)" fill="none" stroke="#707070" stroke-width="1" opacity="0.09"/>
    <path id="Path_48" data-name="Path 48" d="M38,500S262.867,718,677.327,702s339.5-226,487.212-220,224.867,174,487.212,138S2176.44,346,2176.44,346" transform="translate(-97.657 121.221)" fill="none" stroke="#707070" stroke-width="1" opacity="0.09"/>
    <path id="Path_63" data-name="Path 63" d="M38,500S262.867,718,677.327,702s339.5-226,487.212-220,224.867,174,487.212,138S2176.44,346,2176.44,346" transform="translate(-209.295 -124.699)" fill="none" stroke="#707070" stroke-width="1" opacity="0.09"/>
    <path id="Path_44" data-name="Path 44" d="M38,500S262.867,718,677.327,702s339.5-226,487.212-220,224.867,174,487.212,138S2176.44,346,2176.44,346" transform="translate(-80.202 179.699)" fill="none" stroke="#707070" stroke-width="1" opacity="0.09"/>
    <path id="Path_57" data-name="Path 57" d="M38,500S262.867,718,677.327,702s339.5-226,487.212-220,224.867,174,487.212,138S2176.44,346,2176.44,346" transform="translate(-182.84 -61.221)" fill="none" stroke="#707070" stroke-width="1" opacity="0.09"/>
    <path id="Path_50" data-name="Path 50" d="M38,500S262.867,718,677.327,702s339.5-226,487.212-220,224.867,174,487.212,138S2176.44,346,2176.44,346" transform="translate(-127.418 60.54)" fill="none" stroke="#707070" stroke-width="1" opacity="0.09"/>
    <path id="Path_64" data-name="Path 64" d="M38,500S262.867,718,677.327,702s339.5-226,487.212-220,224.867,174,487.212,138S2176.44,346,2176.44,346" transform="translate(-239.057 -185.381)" fill="none" stroke="#707070" stroke-width="1" opacity="0.09"/>
    <path id="Path_58" data-name="Path 58" d="M38,500S262.867,718,677.327,702s339.5-226,487.212-220,224.867,174,487.212,138S2176.44,346,2176.44,346" transform="translate(-167.408 -30.379)" fill="none" stroke="#707070" stroke-width="1" opacity="0.09"/>
    <path id="Path_51" data-name="Path 51" d="M38,500S262.867,718,677.327,702s339.5-226,487.212-220,224.867,174,487.212,138S2176.44,346,2176.44,346" transform="translate(-111.986 91.382)" fill="none" stroke="#707070" stroke-width="1" opacity="0.09"/>
    <path id="Path_65" data-name="Path 65" d="M38,500S262.867,718,677.327,702s339.5-226,487.212-220,224.867,174,487.212,138S2176.44,346,2176.44,346" transform="translate(-223.624 -154.539)" fill="none" stroke="#707070" stroke-width="1" opacity="0.09"/>
    <path id="Path_46" data-name="Path 46" d="M38,500S262.867,718,677.327,702s339.5-226,487.212-220,224.867,174,487.212,138S2176.44,346,2176.44,346" transform="translate(-89.532 150.859)" fill="none" stroke="#707070" stroke-width="1" opacity="0.09"/>
    <path id="Path_61" data-name="Path 61" d="M38,500S262.867,718,677.327,702s339.5-226,487.212-220,224.867,174,487.212,138S2176.44,346,2176.44,346" transform="translate(-197.17 -91.061)" fill="none" stroke="#707070" stroke-width="1" opacity="0.09"/>
    <path id="Path_54" data-name="Path 54" d="M38,500S262.867,718,677.327,702s339.5-226,487.212-220,224.867,174,487.212,138S2176.44,346,2176.44,346" transform="translate(-141.748 30.7)" fill="none" stroke="#707070" stroke-width="1" opacity="0.09"/>
    <path id="Path_70" data-name="Path 70" d="M38,500S262.867,718,677.327,702s339.5-226,487.212-220,224.867,174,487.212,138S2176.44,346,2176.44,346" transform="translate(-253.386 -215.22)" fill="none" stroke="#707070" stroke-width="1" opacity="0.09"/>
    <path id="Path_56" data-name="Path 56" d="M38,500S262.867,718,677.327,702s339.5-226,487.212-220,224.867,174,487.212,138S2176.44,346,2176.44,346" transform="translate(-159.692 -14.54)" fill="none" stroke="#707070" stroke-width="1" opacity="0.09"/>
    <path id="Path_49" data-name="Path 49" d="M38,500S262.867,718,677.327,702s339.5-226,487.212-220,224.867,174,487.212,138S2176.44,346,2176.44,346" transform="translate(-104.27 107.221)" fill="none" stroke="#707070" stroke-width="1" opacity="0.09"/>
    <path id="Path_66" data-name="Path 66" d="M38,500S262.867,718,677.327,702s339.5-226,487.212-220,224.867,174,487.212,138S2176.44,346,2176.44,346" transform="translate(-215.908 -138.699)" fill="none" stroke="#707070" stroke-width="1" opacity="0.09"/>
    <path id="Path_45" data-name="Path 45" d="M38,500S262.867,718,677.327,702s339.5-226,487.212-220,224.867,174,487.212,138S2176.44,346,2176.44,346" transform="translate(-83.815 164.699)" fill="none" stroke="#707070" stroke-width="1" opacity="0.09"/>
    <path id="Path_60" data-name="Path 60" d="M38,500S262.867,718,677.327,702s339.5-226,487.212-220,224.867,174,487.212,138S2176.44,346,2176.44,346" transform="translate(-189.454 -75.221)" fill="none" stroke="#707070" stroke-width="1" opacity="0.09"/>
    <path id="Path_53" data-name="Path 53" d="M38,500S262.867,718,677.327,702s339.5-226,487.212-220,224.867,174,487.212,138S2176.44,346,2176.44,346" transform="translate(-134.032 46.54)" fill="none" stroke="#707070" stroke-width="1" opacity="0.09"/>
    <path id="Path_67" data-name="Path 67" d="M38,500S262.867,718,677.327,702s339.5-226,487.212-220,224.867,174,487.212,138S2176.44,346,2176.44,346" transform="translate(-245.67 -199.381)" fill="none" stroke="#707070" stroke-width="1" opacity="0.09"/>
    <path id="Path_59" data-name="Path 59" d="M38,500S262.867,718,677.327,702s339.5-226,487.212-220,224.867,174,487.212,138S2176.44,346,2176.44,346" transform="translate(-174.021 -44.379)" fill="none" stroke="#707070" stroke-width="1" opacity="0.09"/>
    <path id="Path_52" data-name="Path 52" d="M38,500S262.867,718,677.327,702s339.5-226,487.212-220,224.867,174,487.212,138S2176.44,346,2176.44,346" transform="translate(-118.6 77.382)" fill="none" stroke="#707070" stroke-width="1" opacity="0.09"/>
    <path id="Path_68" data-name="Path 68" d="M38,500S262.867,718,677.327,702s339.5-226,487.212-220,224.867,174,487.212,138S2176.44,346,2176.44,346" transform="translate(-230.238 -168.539)" fill="none" stroke="#707070" stroke-width="1" opacity="0.09"/>
    <path id="Path_47" data-name="Path 47" d="M38,500S262.867,718,677.327,702s339.5-226,487.212-220,224.867,174,487.212,138S2176.44,346,2176.44,346" transform="translate(-96.145 136.859)" fill="none" stroke="#707070" stroke-width="1" opacity="0.09"/>
    <path id="Path_62" data-name="Path 62" d="M38,500S262.867,718,677.327,702s339.5-226,487.212-220,224.867,174,487.212,138S2176.44,346,2176.44,346" transform="translate(-202.783 -108.061)" fill="none" stroke="#707070" stroke-width="1" opacity="0.09"/>
    <path id="Path_55" data-name="Path 55" d="M38,500S262.867,718,677.327,702s339.5-226,487.212-220,224.867,174,487.212,138S2176.44,346,2176.44,346" transform="translate(-148.362 16.7)" fill="none" stroke="#707070" stroke-width="1" opacity="0.09"/>
    <path id="Path_71" data-name="Path 71" d="M38,500S262.867,718,677.327,702s339.5-226,487.212-220,224.867,174,487.212,138S2176.44,346,2176.44,346" transform="translate(-260 -229.22)" fill="none" stroke="#707070" stroke-width="1" opacity="0.09"/>
    <g id="Group_25" data-name="Group 25" transform="translate(-446 -369.22)">
      <path id="Path_40" data-name="Path 40" d="M38,500S262.867,718,677.327,702s339.5-226,487.212-220,224.867,174,487.212,138S2176.44,346,2176.44,346" transform="translate(183.56 127.601)" fill="none" stroke="#707070" stroke-width="1" opacity="0.09"/>
      <path id="Path_69-2" data-name="Path 69" d="M38,500S262.867,718,677.327,702s339.5-226,487.212-220,224.867,174,487.212,138S2176.44,346,2176.44,346" transform="translate(68.922 -117.32)" fill="none" stroke="#707070" stroke-width="1" opacity="0.09"/>
      <path id="Path_48-2" data-name="Path 48" d="M38,500S262.867,718,677.327,702s339.5-226,487.212-220,224.867,174,487.212,138S2176.44,346,2176.44,346" transform="translate(127.343 3.442)" fill="none" stroke="#707070" stroke-width="1" opacity="0.09"/>
      <path id="Path_63-2" data-name="Path 63" d="M38,500S262.867,718,677.327,702s339.5-226,487.212-220,224.867,174,487.212,138S2176.44,346,2176.44,346" transform="translate(12.705 -241.479)" fill="none" stroke="#707070" stroke-width="1" opacity="0.09"/>
      <path id="Path_44-2" data-name="Path 44" d="M38,500S262.867,718,677.327,702s339.5-226,487.212-220,224.867,174,487.212,138S2176.44,346,2176.44,346" transform="translate(153.798 66.919)" fill="none" stroke="#707070" stroke-width="1" opacity="0.09"/>
      <path id="Path_57-2" data-name="Path 57" d="M38,500S262.867,718,677.327,702s339.5-226,487.212-220,224.867,174,487.212,138S2176.44,346,2176.44,346" transform="translate(39.16 -178.001)" fill="none" stroke="#707070" stroke-width="1" opacity="0.09"/>
      <path id="Path_50-2" data-name="Path 50" d="M38,500S262.867,718,677.327,702s339.5-226,487.212-220,224.867,174,487.212,138S2176.44,346,2176.44,346" transform="translate(97.581 -57.24)" fill="none" stroke="#707070" stroke-width="1" opacity="0.09"/>
      <path id="Path_64-2" data-name="Path 64" d="M38,500S262.867,718,677.327,702s339.5-226,487.212-220,224.867,174,487.212,138S2176.44,346,2176.44,346" transform="translate(-17.057 -302.16)" fill="none" stroke="#707070" stroke-width="1" opacity="0.09"/>
      <path id="Path_42" data-name="Path 42" d="M38,500S262.867,718,677.327,702s339.5-226,487.212-220,224.867,174,487.212,138S2176.44,346,2176.44,346" transform="translate(169.23 97.761)" fill="none" stroke="#707070" stroke-width="1" opacity="0.09"/>
      <path id="Path_58-2" data-name="Path 58" d="M38,500S262.867,718,677.327,702s339.5-226,487.212-220,224.867,174,487.212,138S2176.44,346,2176.44,346" transform="translate(54.592 -147.159)" fill="none" stroke="#707070" stroke-width="1" opacity="0.09"/>
      <path id="Path_51-2" data-name="Path 51" d="M38,500S262.867,718,677.327,702s339.5-226,487.212-220,224.867,174,487.212,138S2176.44,346,2176.44,346" transform="translate(113.014 -26.398)" fill="none" stroke="#707070" stroke-width="1" opacity="0.09"/>
      <path id="Path_65-2" data-name="Path 65" d="M38,500S262.867,718,677.327,702s339.5-226,487.212-220,224.867,174,487.212,138S2176.44,346,2176.44,346" transform="translate(-1.624 -271.318)" fill="none" stroke="#707070" stroke-width="1" opacity="0.09"/>
      <path id="Path_46-2" data-name="Path 46" d="M38,500S262.867,718,677.327,702s339.5-226,487.212-220,224.867,174,487.212,138S2176.44,346,2176.44,346" transform="translate(139.468 37.08)" fill="none" stroke="#707070" stroke-width="1" opacity="0.09"/>
      <path id="Path_61-2" data-name="Path 61" d="M38,500S262.867,718,677.327,702s339.5-226,487.212-220,224.867,174,487.212,138S2176.44,346,2176.44,346" transform="translate(24.83 -207.841)" fill="none" stroke="#707070" stroke-width="1" opacity="0.09"/>
      <path id="Path_54-2" data-name="Path 54" d="M38,500S262.867,718,677.327,702s339.5-226,487.212-220,224.867,174,487.212,138S2176.44,346,2176.44,346" transform="translate(83.252 -87.08)" fill="none" stroke="#707070" stroke-width="1" opacity="0.09"/>
      <path id="Path_70-2" data-name="Path 70" d="M38,500S262.867,718,677.327,702s339.5-226,487.212-220,224.867,174,487.212,138S2176.44,346,2176.44,346" transform="translate(-31.386 -332)" fill="none" stroke="#707070" stroke-width="1" opacity="0.09"/>
      <path id="Path_41" data-name="Path 41" d="M38,500S262.867,718,677.327,702s339.5-226,487.212-220,224.867,174,487.212,138S2176.44,346,2176.44,346" transform="translate(176.946 113.601)" fill="none" stroke="#707070" stroke-width="1" opacity="0.09"/>
      <path id="Path_56-2" data-name="Path 56" d="M38,500S262.867,718,677.327,702s339.5-226,487.212-220,224.867,174,487.212,138S2176.44,346,2176.44,346" transform="translate(62.308 -131.32)" fill="none" stroke="#707070" stroke-width="1" opacity="0.09"/>
      <path id="Path_49-2" data-name="Path 49" d="M38,500S262.867,718,677.327,702s339.5-226,487.212-220,224.867,174,487.212,138S2176.44,346,2176.44,346" transform="translate(120.73 -10.558)" fill="none" stroke="#707070" stroke-width="1" opacity="0.09"/>
      <path id="Path_66-2" data-name="Path 66" d="M38,500S262.867,718,677.327,702s339.5-226,487.212-220,224.867,174,487.212,138S2176.44,346,2176.44,346" transform="translate(6.092 -255.479)" fill="none" stroke="#707070" stroke-width="1" opacity="0.09"/>
      <path id="Path_45-2" data-name="Path 45" d="M38,500S262.867,718,677.327,702s339.5-226,487.212-220,224.867,174,487.212,138S2176.44,346,2176.44,346" transform="translate(147.184 52.919)" fill="none" stroke="#707070" stroke-width="1" opacity="0.09"/>
      <path id="Path_60-2" data-name="Path 60" d="M38,500S262.867,718,677.327,702s339.5-226,487.212-220,224.867,174,487.212,138S2176.44,346,2176.44,346" transform="translate(32.546 -192.001)" fill="none" stroke="#707070" stroke-width="1" opacity="0.09"/>
      <path id="Path_53-2" data-name="Path 53" d="M38,500S262.867,718,677.327,702s339.5-226,487.212-220,224.867,174,487.212,138S2176.44,346,2176.44,346" transform="translate(90.968 -71.24)" fill="none" stroke="#707070" stroke-width="1" opacity="0.09"/>
      <path id="Path_67-2" data-name="Path 67" d="M38,500S262.867,718,677.327,702s339.5-226,487.212-220,224.867,174,487.212,138S2176.44,346,2176.44,346" transform="translate(-23.67 -316.16)" fill="none" stroke="#707070" stroke-width="1" opacity="0.09"/>
      <path id="Path_43" data-name="Path 43" d="M38,500S262.867,718,677.327,702s339.5-226,487.212-220,224.867,174,487.212,138S2176.44,346,2176.44,346" transform="translate(162.617 83.761)" fill="none" stroke="#707070" stroke-width="1" opacity="0.09"/>
      <path id="Path_59-2" data-name="Path 59" d="M38,500S262.867,718,677.327,702s339.5-226,487.212-220,224.867,174,487.212,138S2176.44,346,2176.44,346" transform="translate(47.979 -161.159)" fill="none" stroke="#707070" stroke-width="1" opacity="0.09"/>
      <path id="Path_52-2" data-name="Path 52" d="M38,500S262.867,718,677.327,702s339.5-226,487.212-220,224.867,174,487.212,138S2176.44,346,2176.44,346" transform="translate(106.4 -40.398)" fill="none" stroke="#707070" stroke-width="1" opacity="0.09"/>
      <path id="Path_68-2" data-name="Path 68" d="M38,500S262.867,718,677.327,702s339.5-226,487.212-220,224.867,174,487.212,138S2176.44,346,2176.44,346" transform="translate(-8.238 -285.318)" fill="none" stroke="#707070" stroke-width="1" opacity="0.09"/>
      <path id="Path_47-2" data-name="Path 47" d="M38,500S262.867,718,677.327,702s339.5-226,487.212-220,224.867,174,487.212,138S2176.44,346,2176.44,346" transform="translate(132.855 23.08)" fill="none" stroke="#707070" stroke-width="1" opacity="0.09"/>
      <path id="Path_62-2" data-name="Path 62" d="M38,500S262.867,718,677.327,702s339.5-226,487.212-220,224.867,174,487.212,138S2176.44,346,2176.44,346" transform="translate(18.217 -221.841)" fill="none" stroke="#707070" stroke-width="1" opacity="0.09"/>
      <path id="Path_55-2" data-name="Path 55" d="M38,500S262.867,718,677.327,702s339.5-226,487.212-220,224.867,174,487.212,138S2176.44,346,2176.44,346" transform="translate(76.638 -101.08)" fill="none" stroke="#707070" stroke-width="1" opacity="0.09"/>
      <path id="Path_71-2" data-name="Path 71" d="M38,500S262.867,718,677.327,702s339.5-226,487.212-220,224.867,174,487.212,138S2176.44,346,2176.44,346" transform="translate(-38 -346)" fill="none" stroke="#707070" stroke-width="1" opacity="0.09"/>
    </g>
  </g>
</svg>
