<svg id="logo4" xmlns="http://www.w3.org/2000/svg" width="47.144" height="47.04" viewBox="0 0 47.144 47.04">
  <ellipse id="Ellipse_17" data-name="Ellipse 17" cx="23.572" cy="23.52" rx="23.572" ry="23.52" transform="translate(0 0)" fill="#2daae1"/>
  <path id="Path_115" data-name="Path 115" d="M262.309,146.226a12.367,12.367,0,0,1-3.558.976,6.212,6.212,0,0,0,2.724-3.427,12.374,12.374,0,0,1-3.934,1.5,6.2,6.2,0,0,0-10.714,4.239,6.265,6.265,0,0,0,.16,1.412,17.587,17.587,0,0,1-12.767-6.472,6.2,6.2,0,0,0,1.917,8.269,6.166,6.166,0,0,1-2.806-.774v.078A6.2,6.2,0,0,0,238.3,158.1a6.162,6.162,0,0,1-1.632.217,6.285,6.285,0,0,1-1.166-.109,6.2,6.2,0,0,0,5.786,4.3,12.472,12.472,0,0,1-9.171,2.564,17.529,17.529,0,0,0,9.495,2.784c11.393,0,17.623-9.438,17.623-17.623q0-.4-.019-.8A12.62,12.62,0,0,0,262.309,146.226Z" transform="translate(-223.653 -132.065)" fill="#fff"/>
</svg>
