<svg id="logo9" xmlns="http://www.w3.org/2000/svg" width="47.664" height="47.667" viewBox="0 0 47.664 47.667">
  <path id="Path_88" data-name="Path 88" d="M39.3,16a13.93,13.93,0,0,1-27.038,4.723L4.285,27.1A23.821,23.821,0,0,0,49.188,16" transform="translate(-1.524 7.832)" fill="#00ac47"/>
  <path id="Path_89" data-name="Path 89" d="M26.347,16A13.919,13.919,0,0,1,20.5,27.329l7.882,6.306A23.75,23.75,0,0,0,36.239,16" transform="translate(11.425 7.832)" fill="#4285f4"/>
  <path id="Path_90" data-name="Path 90" d="M12.643,20.929a13.846,13.846,0,0,1,.841-4.723L5.511,9.828a23.7,23.7,0,0,0,0,22.2l7.973-6.378a13.846,13.846,0,0,1-.841-4.723Z" transform="translate(-2.75 2.903)" fill="#ffba00"/>
  <path id="Path_91" data-name="Path 91" d="M8.718,13.374Z" transform="translate(2.016 5.735)" fill="#2ab2db"/>
  <path id="Path_92" data-name="Path 92" d="M25.356,12.643a13.848,13.848,0,0,1,8.2,2.69l7.3-6.816A23.769,23.769,0,0,0,4.285,15.481l7.973,6.378a13.95,13.95,0,0,1,13.1-9.216Z" transform="translate(-1.524 -2.75)" fill="#ea4435"/>
  <path id="Path_93" data-name="Path 93" d="M8.718,18.626Z" transform="translate(2.016 9.929)" fill="#2ab2db"/>
  <path id="Path_94" data-name="Path 94" d="M39.433,15.8v1.8l-4.047,6.3H16.5V14H37.634A1.8,1.8,0,0,1,39.433,15.8Z" transform="translate(8.231 6.235)" fill="#4285f4"/>
</svg>
