<svg id="logo5" xmlns="http://www.w3.org/2000/svg" xmlns:xlink="http://www.w3.org/1999/xlink" width="47.052" height="47.052" viewBox="0 0 47.052 47.052">
  <defs>
    <radialGradient id="radial-gradient" cx="0.065" cy="0.978" r="1.27" gradientTransform="translate(0)" gradientUnits="objectBoundingBox">
      <stop offset="0.09" stop-color="#fa8f21"/>
      <stop offset="0.78" stop-color="#d82d7e"/>
    </radialGradient>
    <radialGradient id="radial-gradient-2" cx="0.693" cy="0.946" r="1.117" gradientTransform="translate(0)" gradientUnits="objectBoundingBox">
      <stop offset="0.64" stop-color="#8c3aaa" stop-opacity="0"/>
      <stop offset="1" stop-color="#8c3aaa"/>
    </radialGradient>
  </defs>
  <path id="Path_104" data-name="Path 104" d="M11.931,46.886A15.841,15.841,0,0,1,6.6,45.9a8.916,8.916,0,0,1-3.3-2.147,8.848,8.848,0,0,1-2.147-3.3,15.841,15.841,0,0,1-.987-5.329C.028,32.1,0,31.192,0,23.528s.031-8.569.166-11.6A15.931,15.931,0,0,1,1.154,6.6,8.951,8.951,0,0,1,3.3,3.3,8.859,8.859,0,0,1,6.6,1.154,15.841,15.841,0,0,1,11.93.166C14.956.028,15.865,0,23.525,0s8.569.031,11.6.166a15.931,15.931,0,0,1,5.329.987,8.882,8.882,0,0,1,3.3,2.147A8.888,8.888,0,0,1,45.9,6.6a15.841,15.841,0,0,1,.987,5.329c.138,3.028.166,3.934.166,11.6s-.028,8.569-.166,11.6a15.914,15.914,0,0,1-.987,5.329A9.5,9.5,0,0,1,40.452,45.9a15.841,15.841,0,0,1-5.329.987c-3.025.138-3.934.166-11.6.166s-8.569-.027-11.594-.166" transform="translate(0)" fill="url(#radial-gradient)"/>
  <path id="Path_105" data-name="Path 105" d="M11.931,46.886A15.841,15.841,0,0,1,6.6,45.9a8.916,8.916,0,0,1-3.3-2.147,8.848,8.848,0,0,1-2.147-3.3,15.841,15.841,0,0,1-.987-5.329C.028,32.1,0,31.192,0,23.528s.031-8.569.166-11.6A15.931,15.931,0,0,1,1.154,6.6,8.951,8.951,0,0,1,3.3,3.3,8.859,8.859,0,0,1,6.6,1.154,15.841,15.841,0,0,1,11.93.166C14.956.028,15.865,0,23.525,0s8.569.031,11.6.166a15.931,15.931,0,0,1,5.329.987,8.882,8.882,0,0,1,3.3,2.147A8.888,8.888,0,0,1,45.9,6.6a15.841,15.841,0,0,1,.987,5.329c.138,3.028.166,3.934.166,11.6s-.028,8.569-.166,11.6a15.914,15.914,0,0,1-.987,5.329A9.5,9.5,0,0,1,40.452,45.9a15.841,15.841,0,0,1-5.329.987c-3.025.138-3.934.166-11.6.166s-8.569-.027-11.594-.166" transform="translate(0)" fill="url(#radial-gradient-2)"/>
  <path id="Path_106" data-name="Path 106" d="M447.5,457a5.826,5.826,0,1,1,5.826,5.827A5.826,5.826,0,0,1,447.5,457m-3.15,0a8.976,8.976,0,1,0,8.976-8.976A8.976,8.976,0,0,0,444.354,457m16.209-9.332a2.1,2.1,0,1,0,2.1-2.1h0a2.1,2.1,0,0,0-2.1,2.1m-14.3,23.56a9.661,9.661,0,0,1-3.246-.6,5.788,5.788,0,0,1-3.318-3.317,9.652,9.652,0,0,1-.6-3.246c-.085-1.843-.1-2.4-.1-7.064s.018-5.22.1-7.064a9.726,9.726,0,0,1,.6-3.246,5.785,5.785,0,0,1,3.318-3.318,9.654,9.654,0,0,1,3.246-.6c1.843-.085,2.4-.1,7.062-.1s5.22.018,7.064.1a9.725,9.725,0,0,1,3.246.6,5.785,5.785,0,0,1,3.318,3.318,9.653,9.653,0,0,1,.6,3.246c.085,1.844.1,2.4.1,7.064s-.017,5.22-.1,7.064a9.7,9.7,0,0,1-.6,3.246,5.788,5.788,0,0,1-3.318,3.317,9.65,9.65,0,0,1-3.246.6c-1.843.085-2.4.1-7.064.1s-5.22-.017-7.062-.1m-.145-31.6a12.818,12.818,0,0,0-4.243.812,8.937,8.937,0,0,0-5.113,5.113,12.82,12.82,0,0,0-.812,4.243c-.086,1.864-.106,2.46-.106,7.207s.02,5.343.106,7.207a12.819,12.819,0,0,0,.812,4.243,8.937,8.937,0,0,0,5.113,5.113,12.829,12.829,0,0,0,4.243.812c1.865.085,2.46.106,7.207.106s5.343-.02,7.207-.106a12.821,12.821,0,0,0,4.243-.812,8.937,8.937,0,0,0,5.113-5.113,12.787,12.787,0,0,0,.812-4.243c.085-1.865.1-2.46.1-7.207s-.02-5.343-.1-7.207a12.816,12.816,0,0,0-.812-4.243,8.94,8.94,0,0,0-5.111-5.113,12.8,12.8,0,0,0-4.243-.812c-1.864-.085-2.46-.106-7.206-.106s-5.343.02-7.208.106" transform="translate(-429.755 -433.374)" fill="#fff"/>
</svg>
