<?xml version="1.0" encoding="utf-8"?>
<!-- Generator: Adobe Illustrator 24.0.2, SVG Export Plug-In . SVG Version: 6.00 Build 0)  -->
<svg version="1.1" id="Layer_1" xmlns="http://www.w3.org/2000/svg" xmlns:xlink="http://www.w3.org/1999/xlink" x="0px" y="0px"
	 viewBox="0 0 1920 1080" style="enable-background:new 0 0 1920 1080;" xml:space="preserve">
<style type="text/css">
	.st0{opacity:9.000000e-02;fill:none;stroke:#707070;enable-background:new    ;}
</style>
<g id="hero_background" transform="translate(0.348 0.37)">
	<path id="Path_69" class="st0" d="M-114.8,522.3c0,0,231.2,224.1,657.3,207.7c426.1-16.4,349-232.3,500.9-226.2
		c151.9,6.2,231.2,178.9,500.9,141.9S2083.6,364,2083.6,364"/>
	<path id="Path_48" class="st0" d="M-54.7,646.5c0,0,231.2,224.1,657.3,207.7c426.1-16.4,349-232.3,500.9-226.2
		c151.9,6.2,231.2,178.9,500.9,141.9s539.4-281.7,539.4-281.7"/>
	<path id="Path_63" class="st0" d="M-169.5,393.6c0,0,231.2,224.1,657.3,207.7s349-232.3,500.9-226.2
		c151.9,6.2,231.2,178.9,500.9,141.9s539.4-281.7,539.4-281.7"/>
	<path id="Path_44" class="st0" d="M-36.8,706.6c0,0,231.2,224.1,657.3,207.7s349-232.3,500.9-226.2S1352.5,867,1622.2,830
		c269.7-37,539.4-281.7,539.4-281.7"/>
	<path id="Path_57" class="st0" d="M-142.3,458.9c0,0,231.2,224.1,657.3,207.7s349-232.3,500.9-226.2
		c151.9,6.2,231.2,178.9,500.9,141.9c269.7-37,539.4-281.7,539.4-281.7"/>
	<path id="Path_50" class="st0" d="M-85.3,584.1c0,0,231.2,224.1,657.3,207.7c426.1-16.4,349-232.3,500.9-226.2
		c151.9,6.2,231.2,178.9,500.9,141.9c269.7-37,539.4-281.7,539.4-281.7"/>
	<path id="Path_64" class="st0" d="M-200.1,331.3c0,0,231.2,224.1,657.3,207.7s349-232.3,500.9-226.2
		c151.9,6.2,231.2,178.9,500.9,141.9s539.4-281.7,539.4-281.7"/>
	<path id="Path_58" class="st0" d="M-126.5,490.6c0,0,231.2,224.1,657.3,207.7c426.1-16.4,349-232.3,500.9-226.2
		c151.9,6.2,231.2,178.9,500.9,141.9c269.7-37,539.4-281.7,539.4-281.7"/>
	<path id="Path_51" class="st0" d="M-69.5,615.8c0,0,231.2,224.1,657.3,207.7s349-232.3,500.9-226.2s231.2,178.9,500.9,141.9
		c269.7-37,539.4-281.7,539.4-281.7"/>
	<path id="Path_65" class="st0" d="M-184.2,363c0,0,231.2,224.1,657.3,207.7s349-232.3,500.9-226.2
		c151.9,6.2,231.2,178.9,500.9,141.9s539.4-281.7,539.4-281.7"/>
	<path id="Path_46" class="st0" d="M-46.4,676.9c0,0,231.2,224.1,657.3,207.7s349-232.3,500.9-226.2s231.2,178.9,500.9,141.9
		c269.7-37,539.4-281.7,539.4-281.7"/>
	<path id="Path_61" class="st0" d="M-157.1,428.2c0,0,231.2,224.1,657.3,207.7s349-232.3,500.9-226.2
		c151.9,6.2,231.2,178.9,500.9,141.9s539.4-281.7,539.4-281.7"/>
	<path id="Path_54" class="st0" d="M-100.1,553.4c0,0,231.2,224.1,657.3,207.7s349-232.3,500.9-226.2s231.2,178.9,500.9,141.9
		c269.7-37,539.4-281.7,539.4-281.7"/>
	<path id="Path_70" class="st0" d="M-214.8,300.6c0,0,231.2,224.1,657.3,207.7s349-232.3,500.9-226.2
		c151.9,6.2,231.2,178.9,500.9,141.9s539.4-281.7,539.4-281.7"/>
	<path id="Path_56" class="st0" d="M-118.5,506.9c0,0,231.2,224.1,657.3,207.7s349-232.3,500.9-226.2
		c151.9,6.2,231.2,178.9,500.9,141.9c269.7-37,539.4-281.7,539.4-281.7"/>
	<path id="Path_49" class="st0" d="M-61.5,632.1c0,0,231.2,224.1,657.3,207.7s349-232.3,500.9-226.2s231.2,178.9,500.9,141.9
		s539.4-281.7,539.4-281.7"/>
	<path id="Path_66" class="st0" d="M-176.3,379.3c0,0,231.2,224.1,657.3,207.7C907,570.5,830,354.6,981.8,360.8
		s231.2,178.9,500.9,141.9s539.4-281.7,539.4-281.7"/>
	<path id="Path_45" class="st0" d="M-40.5,691.2c0,0,231.2,224.1,657.3,207.7s349-232.3,500.9-226.2s231.2,178.9,500.9,141.9
		s539.4-281.7,539.4-281.7"/>
	<path id="Path_60" class="st0" d="M-149.1,444.5c0,0,231.2,224.1,657.3,207.7S857.2,419.8,1009,426
		c151.9,6.2,231.2,178.9,500.9,141.9s539.4-281.7,539.4-281.7"/>
	<path id="Path_53" class="st0" d="M-92.1,569.7c0,0,231.2,224.1,657.3,207.7S914.1,545,1066,551.2
		c151.9,6.2,231.2,178.9,500.9,141.9s539.4-281.7,539.4-281.7"/>
	<path id="Path_67" class="st0" d="M-206.9,316.9c0,0,231.2,224.1,657.3,207.7s349-232.3,500.9-226.2
		c151.9,6.2,231.2,178.9,500.9,141.9s539.4-281.7,539.4-281.7"/>
	<path id="Path_59" class="st0" d="M-133.3,476.2c0,0,231.2,224.1,657.3,207.7s349-232.3,500.9-226.2
		c151.9,6.2,231.2,178.9,500.9,141.9s539.4-281.7,539.4-281.7"/>
	<path id="Path_52" class="st0" d="M-76.3,601.4c0,0,231.2,224.1,657.3,207.7s349-232.3,500.9-226.2
		c151.9,6.2,231.2,178.9,500.9,141.9c269.7-37,539.4-281.7,539.4-281.7"/>
	<path id="Path_68" class="st0" d="M-191,348.6c0,0,231.2,224.1,657.3,207.7s349-232.3,500.9-226.2S1198.3,509,1468,471.9
		s539.4-281.7,539.4-281.7"/>
	<path id="Path_47" class="st0" d="M-53.2,662.5c0,0,231.2,224.1,657.3,207.7s349-232.3,500.9-226.2s231.2,178.9,500.9,141.9
		c269.7-37,539.4-281.7,539.4-281.7"/>
	<path id="Path_62" class="st0" d="M-162.8,410.8c0,0,231.2,224.1,657.3,207.7s349-232.3,500.9-226.2
		c151.9,6.2,231.2,178.9,500.9,141.9s539.4-281.7,539.4-281.7"/>
	<path id="Path_55" class="st0" d="M-106.9,539c0,0,231.2,224.1,657.3,207.7s349-232.3,500.9-226.2
		c151.9,6.2,231.2,178.9,500.9,141.9c269.7-37,539.4-281.7,539.4-281.7"/>
	<path id="Path_71" class="st0" d="M-221.6,286.2c0,0,231.2,224.1,657.3,207.7s349-232.3,500.9-226.2
		c151.9,6.2,231.2,178.9,500.9,141.9s539.4-281.7,539.4-281.7"/>
	<g id="Group_25" transform="translate(226 10.601)">
		<path id="Path_40" class="st0" d="M-450.2,262.8c0,0,231.2,224.1,657.3,207.7s349-232.3,500.9-226.2
			c151.9,6.2,231.2,178.9,500.9,141.9s539.4-281.7,539.4-281.7"/>
		<path id="Path_69-2" class="st0" d="M-568,11.1c0,0,231.2,224.1,657.3,207.7S438.3-13.6,590.1-7.4S821.3,171.4,1091,134.4
			s539.4-281.7,539.4-281.7"/>
		<path id="Path_48-2" class="st0" d="M-507.9,135.2c0,0,231.2,224.1,657.3,207.7c426.1-16.4,349-232.3,500.9-226.2
			c151.9,6.2,231.2,178.9,500.9,141.9s539.4-281.7,539.4-281.7"/>
		<path id="Path_63-2" class="st0" d="M-625.8-116.6c0,0,231.2,224.1,657.3,207.7s349-232.3,500.9-226.2S763.5,43.8,1033.2,6.8
			s539.4-281.7,539.4-281.7"/>
		<path id="Path_44-2" class="st0" d="M-480.7,200.5c0,0,231.2,224.1,657.3,207.7c426.1-16.4,349-232.3,500.9-226.2
			s231.2,178.9,500.9,141.9s539.4-281.7,539.4-281.7"/>
		<path id="Path_57-2" class="st0" d="M-598.6-51.3c0,0,231.2,224.1,657.3,207.7S407.7-76,559.5-69.8S790.7,109,1060.4,72
			s539.4-281.7,539.4-281.7"/>
		<path id="Path_50-2" class="st0" d="M-538.5,72.8c0,0,231.2,224.1,657.3,207.7C544.8,264,467.7,48.1,619.6,54.3
			s231.2,178.9,500.9,141.9s539.4-281.7,539.4-281.7"/>
		<path id="Path_64-2" class="st0" d="M-656.4-179c0,0,231.2,224.1,657.3,207.7s349-232.3,500.9-226.2
			c151.9,6.2,231.2,178.9,500.9,141.9S1542-337.3,1542-337.3"/>
		<path id="Path_42" class="st0" d="M-464.9,232.2c0,0,231.2,224.1,657.3,207.7s349-232.3,500.9-226.2
			c151.9,6.2,231.2,178.9,500.9,141.9s539.4-281.7,539.4-281.7"/>
		<path id="Path_58-2" class="st0" d="M-582.7-19.6c0,0,231.2,224.1,657.3,207.7s349-232.3,500.9-226.2s231.2,178.9,500.9,141.9
			s539.4-281.7,539.4-281.7"/>
		<path id="Path_51-2" class="st0" d="M-522.7,104.5c0,0,231.2,224.1,657.3,207.7C560.7,295.7,483.6,79.9,635.5,86
			c151.9,6.2,231.2,178.9,500.9,141.9s539.4-281.7,539.4-281.7"/>
		<path id="Path_65-2" class="st0" d="M-640.5-147.3c0,0,231.2,224.1,657.3,207.7s349-232.3,500.9-226.2
			c151.9,6.2,231.2,178.9,500.9,141.9s539.4-281.7,539.4-281.7"/>
		<path id="Path_46-2" class="st0" d="M-495.5,169.8c0,0,231.2,224.1,657.3,207.7s349-232.3,500.9-226.2s231.2,178.9,500.9,141.9
			s539.4-281.7,539.4-281.7"/>
		<path id="Path_61-2" class="st0" d="M-613.3-82c0,0,231.2,224.1,657.3,207.7s349-232.3,500.9-226.2
			C696.7-94.3,776,78.4,1045.7,41.4s539.4-281.7,539.4-281.7"/>
		<path id="Path_54-2" class="st0" d="M-553.3,42.1c0,0,231.2,224.1,657.3,207.7S453,17.5,604.9,23.6S836,202.5,1105.7,165.5
			s539.4-281.7,539.4-281.7"/>
		<path id="Path_70-2" class="st0" d="M-671.1-209.6c0,0,231.2,224.1,657.3,207.7s349-232.3,500.9-226.2S718.2-49.3,987.9-86.3
			S1527.3-368,1527.3-368"/>
		<path id="Path_41" class="st0" d="M-457,248.5c0,0,231.2,224.1,657.3,207.7s349-232.3,500.9-226.2s231.2,178.9,500.9,141.9
			s539.4-281.7,539.4-281.7"/>
		<path id="Path_56-2" class="st0" d="M-574.8-3.3c0,0,231.2,224.1,657.3,207.7S431.5-28,583.3-21.8S814.5,157,1084.2,120
			s539.4-281.7,539.4-281.7"/>
		<path id="Path_49-2" class="st0" d="M-514.7,120.8c0,0,231.2,224.1,657.3,207.7c426.1-16.4,349-232.3,500.9-226.2
			s231.2,178.9,500.9,141.9s539.4-281.7,539.4-281.7"/>
		<path id="Path_66-2" class="st0" d="M-632.6-131c0,0,231.2,224.1,657.3,207.7s349-232.3,500.9-226.2S756.7,29.4,1026.4-7.6
			s539.4-281.7,539.4-281.7"/>
		<path id="Path_45-2" class="st0" d="M-487.5,186.1c0,0,231.2,224.1,657.3,207.7s349-232.3,500.9-226.2s231.2,178.9,500.9,141.9
			s539.4-281.7,539.4-281.7"/>
		<path id="Path_60-2" class="st0" d="M-605.4-65.7c0,0,231.2,224.1,657.3,207.7s349-232.3,500.9-226.2
			c151.9,6.2,231.2,178.9,500.9,141.9S1593-224,1593-224"/>
		<path id="Path_53-2" class="st0" d="M-545.3,58.4c0,0,231.2,224.1,657.3,207.7s349-232.3,500.9-226.2S844,218.8,1113.7,181.8
			s539.4-281.7,539.4-281.7"/>
		<path id="Path_67-2" class="st0" d="M-663.2-193.4c0,0,231.2,224.1,657.3,207.7s349-232.3,500.9-226.2S726.1-33,995.8-70
			s539.4-281.7,539.4-281.7"/>
		<path id="Path_43" class="st0" d="M-471.7,217.8c0,0,231.2,224.1,657.3,207.7s349-232.3,500.9-226.2s231.2,178.9,500.9,141.9
			s539.4-281.7,539.4-281.7"/>
		<path id="Path_59-2" class="st0" d="M-589.5-34c0,0,231.2,224.1,657.3,207.7s349-232.3,500.9-226.2s231.2,178.9,500.9,141.9
			s539.4-281.7,539.4-281.7"/>
		<path id="Path_52-2" class="st0" d="M-529.5,90.1c0,0,231.2,224.1,657.3,207.7s349-232.3,500.9-226.2
			c151.9,6.2,231.2,178.9,500.9,141.9S1669-68.2,1669-68.2"/>
		<path id="Path_68-2" class="st0" d="M-647.3-161.7c0,0,231.2,224.1,657.3,207.7s349-232.3,500.9-226.2S742-1.3,1011.7-38.3
			S1551.1-320,1551.1-320"/>
		<path id="Path_47-2" class="st0" d="M-502.3,155.4c0,0,231.2,224.1,657.3,207.7c426.1-16.4,349-232.3,500.9-226.2
			S887,315.8,1156.7,278.8S1696.1-2.9,1696.1-2.9"/>
		<path id="Path_62-2" class="st0" d="M-620.1-96.4c0,0,231.2,224.1,657.3,207.7s349-232.3,500.9-226.2
			C689.9-108.7,769.2,64,1038.9,27s539.4-281.7,539.4-281.7"/>
		<path id="Path_55-2" class="st0" d="M-560.1,27.8c0,0,231.2,224.1,657.3,207.7S446.2,3.1,598.1,9.2s231.2,178.9,500.9,141.9
			s539.4-281.7,539.4-281.7"/>
		<path id="Path_71-2" class="st0" d="M-677.9-224c0,0,231.2,224.1,657.3,207.7s349-232.3,500.9-226.2
			c151.9,6.2,231.2,178.9,500.9,141.9s539.4-281.7,539.4-281.7"/>
	</g>
</g>
<g id="hero_background_1_" transform="translate(0.348 0.37)">
	<path id="Path_69_1_" class="st0" d="M310.9,1458.2c0,0,231.2,224.1,657.3,207.7s349-232.3,500.9-226.2s231.2,178.9,500.9,141.9
		c269.7-37,539.4-281.7,539.4-281.7"/>
	<path id="Path_48_1_" class="st0" d="M370.9,1582.3c0,0,231.2,224.1,657.3,207.7s349-232.3,500.9-226.2s231.2,178.9,500.9,141.9
		s539.4-281.7,539.4-281.7"/>
	<path id="Path_63_1_" class="st0" d="M256.2,1329.5c0,0,231.2,224.1,657.3,207.7s349-232.3,500.9-226.2
		c151.9,6.2,231.2,178.9,500.9,141.9s539.4-281.7,539.4-281.7"/>
	<path id="Path_44_1_" class="st0" d="M388.9,1642.5c0,0,231.2,224.1,657.3,207.7s349-232.3,500.9-226.2
		c151.9,6.2,231.2,178.9,500.9,141.9s539.4-281.7,539.4-281.7"/>
	<path id="Path_57_1_" class="st0" d="M283.4,1394.8c0,0,231.2,224.1,657.3,207.7s349-232.3,500.9-226.2s231.2,178.9,500.9,141.9
		s539.4-281.7,539.4-281.7"/>
	<path id="Path_50_1_" class="st0" d="M340.3,1520c0,0,231.2,224.1,657.3,207.7s349-232.3,500.9-226.2s231.2,178.9,500.9,141.9
		s539.4-281.7,539.4-281.7"/>
	<path id="Path_64_1_" class="st0" d="M225.6,1267.1c0,0,231.2,224.1,657.3,207.7s349-232.3,500.9-226.2s231.2,178.9,500.9,141.9
		c269.7-37,539.4-281.7,539.4-281.7"/>
	<path id="Path_58_1_" class="st0" d="M299.2,1426.5c0,0,231.2,224.1,657.3,207.7s349-232.3,500.9-226.2s231.2,178.9,500.9,141.9
		s539.4-281.7,539.4-281.7"/>
	<path id="Path_51_1_" class="st0" d="M356.2,1551.7c0,0,231.2,224.1,657.3,207.7c426.1-16.4,349-232.3,500.9-226.2
		c151.9,6.2,231.2,178.9,500.9,141.9s539.4-281.7,539.4-281.7"/>
	<path id="Path_65_1_" class="st0" d="M241.4,1298.9c0,0,231.2,224.1,657.3,207.7s349-232.3,500.9-226.2s231.2,178.9,500.9,141.9
		s539.4-281.7,539.4-281.7"/>
	<path id="Path_46_1_" class="st0" d="M379.3,1612.8c0,0,231.2,224.1,657.3,207.7s349-232.3,500.9-226.2s231.2,178.9,500.9,141.9
		s539.4-281.7,539.4-281.7"/>
	<path id="Path_61_1_" class="st0" d="M268.6,1364.1c0,0,231.2,224.1,657.3,207.7s349-232.3,500.9-226.2
		c151.9,6.2,231.2,178.9,500.9,141.9s539.4-281.7,539.4-281.7"/>
	<path id="Path_54_1_" class="st0" d="M325.6,1489.3c0,0,231.2,224.1,657.3,207.7c426.1-16.4,349-232.3,500.9-226.2
		c151.9,6.2,231.2,178.9,500.9,141.9S2524,1331,2524,1331"/>
	<path id="Path_70_1_" class="st0" d="M210.8,1236.5c0,0,231.2,224.1,657.3,207.7s349-232.3,500.9-226.2s231.2,178.9,500.9,141.9
		s539.4-281.7,539.4-281.7"/>
	<path id="Path_56_1_" class="st0" d="M307.2,1442.8c0,0,231.2,224.1,657.3,207.7s349-232.3,500.9-226.2s231.2,178.9,500.9,141.9
		s539.4-281.7,539.4-281.7"/>
	<path id="Path_49_1_" class="st0" d="M364.1,1568c0,0,231.2,224.1,657.3,207.7s349-232.3,500.9-226.2s231.2,178.9,500.9,141.9
		c269.7-37,539.4-281.7,539.4-281.7"/>
	<path id="Path_66_1_" class="st0" d="M249.4,1315.1c0,0,231.2,224.1,657.3,207.7s349-232.3,500.9-226.2s231.2,178.9,500.9,141.9
		s539.4-281.7,539.4-281.7"/>
	<path id="Path_45_1_" class="st0" d="M385.2,1627c0,0,231.2,224.1,657.3,207.7s349-232.3,500.9-226.2
		c151.9,6.2,231.2,178.9,500.9,141.9s539.4-281.7,539.4-281.7"/>
	<path id="Path_60_1_" class="st0" d="M276.6,1380.4c0,0,231.2,224.1,657.3,207.7s349-232.3,500.9-226.2s231.2,178.9,500.9,141.9
		c269.7-37,539.4-281.7,539.4-281.7"/>
	<path id="Path_53_1_" class="st0" d="M333.5,1505.6c0,0,231.2,224.1,657.3,207.7s349-232.3,500.9-226.2s231.2,178.9,500.9,141.9
		c269.7-37,539.4-281.7,539.4-281.7"/>
	<path id="Path_67_1_" class="st0" d="M218.8,1252.8c0,0,231.2,224.1,657.3,207.7c426.1-16.4,349-232.3,500.9-226.2
		c151.9,6.2,231.2,178.9,500.9,141.9s539.4-281.7,539.4-281.7"/>
	<path id="Path_59_1_" class="st0" d="M292.4,1412.1c0,0,231.2,224.1,657.3,207.7s349-232.3,500.9-226.2
		c151.9,6.2,231.2,178.9,500.9,141.9s539.4-281.7,539.4-281.7"/>
	<path id="Path_52_1_" class="st0" d="M349.4,1537.3c0,0,231.2,224.1,657.3,207.7s349-232.3,500.9-226.2s231.2,178.9,500.9,141.9
		s539.4-281.7,539.4-281.7"/>
	<path id="Path_68_1_" class="st0" d="M234.6,1284.5c0,0,231.2,224.1,657.3,207.7s349-232.3,500.9-226.2s231.2,178.9,500.9,141.9
		s539.4-281.7,539.4-281.7"/>
	<path id="Path_47_1_" class="st0" d="M372.5,1598.4c0,0,231.2,224.1,657.3,207.7c426.1-16.4,349-232.3,500.9-226.2
		c151.9,6.2,231.2,178.9,500.9,141.9s539.4-281.7,539.4-281.7"/>
	<path id="Path_62_1_" class="st0" d="M262.9,1346.6c0,0,231.2,224.1,657.3,207.7s349-232.3,500.9-226.2s231.2,178.9,500.9,141.9
		s539.4-281.7,539.4-281.7"/>
	<path id="Path_55_1_" class="st0" d="M318.8,1474.9c0,0,231.2,224.1,657.3,207.7s349-232.3,500.9-226.2s231.2,178.9,500.9,141.9
		s539.4-281.7,539.4-281.7"/>
	<path id="Path_71_1_" class="st0" d="M204,1222.1c0,0,231.2,224.1,657.3,207.7s349-232.3,500.9-226.2s231.2,178.9,500.9,141.9
		c269.7-37,539.4-281.7,539.4-281.7"/>
	<g id="Group_25_1_" transform="translate(226 10.601)">
		<path id="Path_40_1_" class="st0" d="M-24.5,1198.7c0,0,231.2,224.1,657.3,207.7s349-232.3,500.9-226.2s231.2,178.9,500.9,141.9
			s539.4-281.7,539.4-281.7"/>
		<path id="Path_69-2_1_" class="st0" d="M-142.3,946.9c0,0,231.2,224.1,657.3,207.7s349-232.3,500.9-226.2
			c151.9,6.2,231.2,178.9,500.9,141.9c269.7-37,539.4-281.7,539.4-281.7"/>
		<path id="Path_48-2_1_" class="st0" d="M-82.3,1071.1c0,0,231.2,224.1,657.3,207.7s349-232.3,500.9-226.2s231.2,178.9,500.9,141.9
			c269.7-37,539.4-281.7,539.4-281.7"/>
		<path id="Path_63-2_1_" class="st0" d="M-200.1,821.3c0,0,231.2,224.1,657.3,207.7c426.1-16.4,349-232.3,500.9-226.2
			c151.9,6.2,231.2,178.9,500.9,141.9c269.7-37,539.4-281.7,539.4-281.7"/>
		<path id="Path_44-2_1_" class="st0" d="M-55.1,1136.3c0,0,231.2,224.1,657.3,207.7s349-232.3,500.9-226.2s231.2,178.9,500.9,141.9
			S2143.4,978,2143.4,978"/>
		<path id="Path_57-2_1_" class="st0" d="M-172.9,884.6c0,0,231.2,224.1,657.3,207.7s349-232.3,500.9-226.2s231.2,178.9,500.9,141.9
			s539.4-281.7,539.4-281.7"/>
		<path id="Path_50-2_1_" class="st0" d="M-112.9,1008.7c0,0,231.2,224.1,657.3,207.7s349-232.3,500.9-226.2
			c151.9,6.2,231.2,178.9,500.9,141.9s539.4-281.7,539.4-281.7"/>
		<path id="Path_64-2_1_" class="st0" d="M-230.7,756.9c0,0,231.2,224.1,657.3,207.7s349-232.3,500.9-226.2
			c151.9,6.2,231.2,178.9,500.9,141.9s539.4-281.7,539.4-281.7"/>
		<path id="Path_42_1_" class="st0" d="M-39.2,1168c0,0,231.2,224.1,657.3,207.7s349-232.3,500.9-226.2
			c151.9,6.2,231.2,178.9,500.9,141.9s539.4-281.7,539.4-281.7"/>
		<path id="Path_58-2_1_" class="st0" d="M-157,916.3c0,0,231.2,224.1,657.3,207.7s349-232.3,500.9-226.2s231.2,178.9,500.9,141.9
			c269.7-37,539.4-281.7,539.4-281.7"/>
		<path id="Path_51-2_1_" class="st0" d="M-97,1040.4c0,0,231.2,224.1,657.3,207.7s349-232.3,500.9-226.2
			c151.9,6.2,231.2,178.9,500.9,141.9s539.4-281.7,539.4-281.7"/>
		<path id="Path_65-2_1_" class="st0" d="M-214.8,788.6c0,0,231.2,224.1,657.3,207.7s349-232.3,500.9-226.2S1174.5,949,1444.2,912
			c269.7-37,539.4-281.7,539.4-281.7"/>
		<path id="Path_46-2_1_" class="st0" d="M-69.8,1105.7c0,0,231.2,224.1,657.3,207.7s349-232.3,500.9-226.2s231.2,178.9,500.9,141.9
			c269.7-37,539.4-281.7,539.4-281.7"/>
		<path id="Path_61-2_1_" class="st0" d="M-187.6,853.9c0,0,231.2,224.1,657.3,207.7s349-232.3,500.9-226.2
			c151.9,6.2,231.2,178.9,500.9,141.9s539.4-281.7,539.4-281.7"/>
		<path id="Path_54-2_1_" class="st0" d="M-127.6,978c0,0,231.2,224.1,657.3,207.7s349-232.3,500.9-226.2
			c151.9,6.2,231.2,178.9,500.9,141.9s539.4-281.7,539.4-281.7"/>
		<path id="Path_70-2_1_" class="st0" d="M-245.4,726.2c0,0,231.2,224.1,657.3,207.7s349-232.3,500.9-226.2
			c151.9,6.2,231.2,178.9,500.9,141.9S1953,567.9,1953,567.9"/>
		<path id="Path_41_1_" class="st0" d="M-31.3,1184.3c0,0,231.2,224.1,657.3,207.7s349-232.3,500.9-226.2s231.2,178.9,500.9,141.9
			s539.4-281.7,539.4-281.7"/>
		<path id="Path_56-2_1_" class="st0" d="M-149.1,932.5c0,0,231.2,224.1,657.3,207.7c426.1-16.4,349-232.3,500.9-226.2
			s231.2,178.9,500.9,141.9s539.4-281.7,539.4-281.7"/>
		<path id="Path_49-2_1_" class="st0" d="M-89.1,1056.7c0,0,231.2,224.1,657.3,207.7s349-232.3,500.9-226.2
			c151.9,6.2,231.2,178.9,500.9,141.9s539.4-281.7,539.4-281.7"/>
		<path id="Path_66-2_1_" class="st0" d="M-206.9,804.9c0,0,231.2,224.1,657.3,207.7s349-232.3,500.9-226.2
			c151.9,6.2,231.2,178.9,500.9,141.9s539.4-281.7,539.4-281.7"/>
		<path id="Path_45-2_1_" class="st0" d="M-61.9,1121.9c0,0,231.2,224.1,657.3,207.7s349-232.3,500.9-226.2s231.2,178.9,500.9,141.9
			c269.7-37,539.4-281.7,539.4-281.7"/>
		<path id="Path_60-2_1_" class="st0" d="M-179.7,870.2c0,0,231.2,224.1,657.3,207.7s349-232.3,500.9-226.2
			c151.9,6.2,231.2,178.9,500.9,141.9s539.4-281.7,539.4-281.7"/>
		<path id="Path_53-2_1_" class="st0" d="M-119.7,994.3c0,0,231.2,224.1,657.3,207.7s349-232.3,500.9-226.2
			c151.9,6.2,231.2,178.9,500.9,141.9S2078.8,836,2078.8,836"/>
		<path id="Path_67-2_1_" class="st0" d="M-237.5,742.5c0,0,231.2,224.1,657.3,207.7s349-232.3,500.9-226.2s231.2,178.9,500.9,141.9
			c269.7-37,539.4-281.7,539.4-281.7"/>
		<path id="Path_43_1_" class="st0" d="M-46,1153.7c0,0,231.2,224.1,657.3,207.7s349-232.3,500.9-226.2S1343.3,1314,1613,1277
			s539.4-281.7,539.4-281.7"/>
		<path id="Path_59-2_1_" class="st0" d="M-163.8,901.9c0,0,231.2,224.1,657.3,207.7s349-232.3,500.9-226.2
			c151.9,6.2,231.2,178.9,500.9,141.9c269.7-37,539.4-281.7,539.4-281.7"/>
		<path id="Path_52-2_1_" class="st0" d="M-103.8,1026c0,0,231.2,224.1,657.3,207.7s349-232.3,500.9-226.2
			c151.9,6.2,231.2,178.9,500.9,141.9c269.7-37,539.4-281.7,539.4-281.7"/>
		<path id="Path_68-2_1_" class="st0" d="M-221.6,774.2c0,0,231.2,224.1,657.3,207.7c426.1-16.4,349-232.3,500.9-226.2
			c151.9,6.2,231.2,178.9,500.9,141.9s539.4-281.7,539.4-281.7"/>
		<path id="Path_47-2_1_" class="st0" d="M-76.6,1091.3c0,0,231.2,224.1,657.3,207.7s349-232.3,500.9-226.2
			c151.9,6.2,231.2,178.9,500.9,141.9S2121.8,933,2121.8,933"/>
		<path id="Path_62-2_1_" class="st0" d="M-194.4,839.5c0,0,231.2,224.1,657.3,207.7c426.1-16.4,349-232.3,500.9-226.2
			s231.2,178.9,500.9,141.9c269.7-37,539.4-281.7,539.4-281.7"/>
		<path id="Path_55-2_1_" class="st0" d="M-134.4,963.6c0,0,231.2,224.1,657.3,207.7s349-232.3,500.9-226.2s231.2,178.9,500.9,141.9
			S2064,805.3,2064,805.3"/>
		<path id="Path_71-2_1_" class="st0" d="M-252.2,711.8c0,0,231.2,224.1,657.3,207.7s349-232.3,500.9-226.2s231.2,178.9,500.9,141.9
			c269.7-37,539.4-281.7,539.4-281.7"/>
	</g>
</g>
</svg>
